<svg xmlns="http://www.w3.org/2000/svg" xmlns:xlink="http://www.w3.org/1999/xlink" width="1488" height="1200" fill="#000" fill-opacity="1" stroke="#000" stroke-dasharray="none" stroke-dashoffset="0" stroke-linecap="square" stroke-linejoin="miter" stroke-miterlimit="10" stroke-opacity="1" stroke-width="1" color-interpolation="auto" color-rendering="auto" font-family="'Dialog'" font-size="12" font-style="normal" font-weight="normal" image-rendering="auto" shape-rendering="auto" text-rendering="auto"><g><defs id="defs1"><clipPath id="clipPath1" clipPathUnits="userSpaceOnUse"><path d="M0 0 L1488 0 L1488 1200 L0 1200 L0 0 Z"/></clipPath></defs><g id="y.node.0"><g fill="#F8ECC9" stroke="#F8ECC9" transform="matrix(0.9836,0,0,0.9836,11.8033,9.8361)"><rect width="1487.504" height="1199.375" x="0" y="0" stroke="none"/></g><g id="bla"><g fill="#404040" stroke="#404040" transform="matrix(0.9836,0,0,0.9836,11.8033,9.8361)"><rect width="1487.504" height="4" x="0" y="0" stroke="none"/></g></g><g fill="#fff" stroke="#fff" transform="matrix(0.9836,0,0,0.9836,11.8033,9.8361)"><rect width="1" height="1199.375" x="0" y="0" stroke="none"/></g><g fill="#fff" stroke="#fff" transform="matrix(0.9836,0,0,0.9836,11.8033,9.8361)"><rect width="1485.504" height="1" x="1" y="0" stroke="none"/><rect width="1486.504" height="1" x="1" y="1198.375" fill="#ADA58C" stroke="none"/><rect width="1" height="1198.375" x="1486.504" y="0" fill="#ADA58C" stroke="none"/></g></g><g id="y.node.4"><g fill="#F8ECC9" stroke="#F8ECC9" transform="matrix(0.9836,0,0,0.9836,11.8033,9.8361)"><rect width="99" height="75.938" x="15" y="216.875" stroke="none"/></g><g id="bla"><g fill="#404040" stroke="#404040" transform="matrix(0.9836,0,0,0.9836,11.8033,9.8361)"><rect width="99" height="4" x="15" y="216.875" stroke="none"/></g></g><g fill="#fff" stroke="#fff" transform="matrix(0.9836,0,0,0.9836,11.8033,9.8361)"><rect width="1" height="75.938" x="15" y="216.875" stroke="none"/><rect width="97" height="1" x="16" y="216.875" stroke="none"/><rect width="98" height="1" x="16" y="291.813" fill="#ADA58C" stroke="none"/><rect width="1" height="74.938" x="113" y="216.875" fill="#ADA58C" stroke="none"/></g></g><g id="y.node.49"><g fill="#fff" stroke="#fff" transform="matrix(0.9836,0,0,0.9836,11.8033,9.8361)"><rect width="69" height="41" x="30" y="235" stroke="none"/><rect width="69" height="41" x="30" y="235" fill="none" stroke="#000"/></g><g id="bla"><g font-family="sans-serif"><text x="41.5" y="254.014" stroke="none" transform="matrix(0.9836,0,0,0.9836,11.8033,9.8361)" xml:space="preserve">PRCRIT</text><text x="37" y="267.982" stroke="none" transform="matrix(0.9836,0,0,0.9836,11.8033,9.8361)" xml:space="preserve">(prcrit.f)</text></g></g></g><g id="y.node.2"><g fill="#F8ECC9" stroke="#F8ECC9" transform="matrix(0.9836,0,0,0.9836,11.8033,9.8361)"><rect width="861.375" height="735.625" x="611.129" y="448.75" stroke="none"/></g><g id="bla"><g fill="#404040" stroke="#404040" transform="matrix(0.9836,0,0,0.9836,11.8033,9.8361)"><rect width="861.375" height="4" x="611.129" y="448.75" stroke="none"/></g></g><g fill="#fff" stroke="#fff" transform="matrix(0.9836,0,0,0.9836,11.8033,9.8361)"><rect width="1" height="735.625" x="611.129" y="448.75" stroke="none"/><rect width="859.375" height="1" x="612.129" y="448.75" stroke="none"/><rect width="860.375" height="1" x="612.129" y="1183.375" fill="#ADA58C" stroke="none"/><rect width="1" height="734.625" x="1471.504" y="448.75" fill="#ADA58C" stroke="none"/></g></g><g id="y.node.30"><g fill="#F8ECC9" stroke="#F8ECC9" transform="matrix(0.9836,0,0,0.9836,11.8033,9.8361)"><rect width="407" height="347.813" x="626.129" y="549.688" stroke="none"/></g><g id="bla"><g fill="#404040" stroke="#404040" transform="matrix(0.9836,0,0,0.9836,11.8033,9.8361)"><rect width="407" height="4" x="626.129" y="549.688" stroke="none"/></g></g><g fill="#fff" stroke="#fff" transform="matrix(0.9836,0,0,0.9836,11.8033,9.8361)"><rect width="1" height="347.813" x="626.129" y="549.688" stroke="none"/><rect width="405" height="1" x="627.129" y="549.688" stroke="none"/><rect width="406" height="1" x="627.129" y="896.5" fill="#ADA58C" stroke="none"/><rect width="1" height="346.813" x="1032.129" y="549.688" fill="#ADA58C" stroke="none"/></g></g><g id="y.node.40"><g fill="#F8ECC9" stroke="#F8ECC9" transform="matrix(0.9836,0,0,0.9836,11.8033,9.8361)"><rect width="128" height="231.875" x="765.129" y="650.625" stroke="none"/></g><g id="bla"><g fill="#404040" stroke="#404040" transform="matrix(0.9836,0,0,0.9836,11.8033,9.8361)"><rect width="128" height="4" x="765.129" y="650.625" stroke="none"/></g></g><g fill="#fff" stroke="#fff" transform="matrix(0.9836,0,0,0.9836,11.8033,9.8361)"><rect width="1" height="231.875" x="765.129" y="650.625" stroke="none"/><rect width="126" height="1" x="766.129" y="650.625" stroke="none"/><rect width="127" height="1" x="766.129" y="881.5" fill="#ADA58C" stroke="none"/><rect width="1" height="230.875" x="892.129" y="650.625" fill="#ADA58C" stroke="none"/></g></g><g id="y.node.41"><g fill="#F8ECC9" stroke="#F8ECC9" transform="matrix(0.9836,0,0,0.9836,11.8033,9.8361)"><rect width="98" height="75.938" x="780.129" y="791.563" stroke="none"/></g><g id="bla"><g fill="#404040" stroke="#404040" transform="matrix(0.9836,0,0,0.9836,11.8033,9.8361)"><rect width="98" height="4" x="780.129" y="791.563" stroke="none"/></g></g><g fill="#fff" stroke="#fff" transform="matrix(0.9836,0,0,0.9836,11.8033,9.8361)"><rect width="1" height="75.938" x="780.129" y="791.563" stroke="none"/><rect width="96" height="1" x="781.129" y="791.563" stroke="none"/><rect width="97" height="1" x="781.129" y="866.5" fill="#ADA58C" stroke="none"/><rect width="1" height="74.938" x="877.129" y="791.563" fill="#ADA58C" stroke="none"/></g></g><g id="y.node.42"><g fill="#fff" stroke="#fff" transform="matrix(0.9836,0,0,0.9836,11.8033,9.8361)"><rect width="68" height="41" x="795" y="810" stroke="none"/><rect width="68" height="41" x="795" y="810" fill="none" stroke="#000"/></g><g id="bla"><g font-family="sans-serif"><text x="802.129" y="828.701" stroke="none" transform="matrix(0.9836,0,0,0.9836,11.8033,9.8361)" xml:space="preserve">DOTCOS</text><text x="806.129" y="842.67" stroke="none" transform="matrix(0.9836,0,0,0.9836,11.8033,9.8361)" xml:space="preserve">(mrb.f)</text></g></g></g><g id="y.node.43"><g fill="#fff" stroke="#fff" transform="matrix(0.9836,0,0,0.9836,11.8033,9.8361)"><rect width="60" height="41" x="799" y="709" stroke="none"/><rect width="60" height="41" x="799" y="709" fill="none" stroke="#000"/></g><g id="bla"><g font-family="sans-serif"><text x="814.129" y="727.764" stroke="none" transform="matrix(0.9836,0,0,0.9836,11.8033,9.8361)" xml:space="preserve">MRB</text><text x="806.129" y="741.732" stroke="none" transform="matrix(0.9836,0,0,0.9836,11.8033,9.8361)" xml:space="preserve">(mrb.f)</text></g></g></g><g id="y.node.44"><g fill="#F8ECC9" stroke="#F8ECC9" transform="matrix(0.9836,0,0,0.9836,11.8033,9.8361)"><rect width="104" height="115.938" x="641.129" y="708.594" stroke="none"/></g><g id="bla"><g fill="#404040" stroke="#404040" transform="matrix(0.9836,0,0,0.9836,11.8033,9.8361)"><rect width="104" height="4" x="641.129" y="708.594" stroke="none"/></g></g><g fill="#fff" stroke="#fff" transform="matrix(0.9836,0,0,0.9836,11.8033,9.8361)"><rect width="1" height="115.938" x="641.129" y="708.594" stroke="none"/><rect width="102" height="1" x="642.129" y="708.594" stroke="none"/><rect width="103" height="1" x="642.129" y="823.531" fill="#ADA58C" stroke="none"/><rect width="1" height="114.938" x="744.129" y="708.594" fill="#ADA58C" stroke="none"/></g></g><g id="y.node.45"><g fill="#fff" stroke="#fff" transform="matrix(0.9836,0,0,0.9836,11.8033,9.8361)"><rect width="74" height="41" x="656" y="767" stroke="none"/><rect width="74" height="41" x="656" y="767" fill="none" stroke="#000"/></g><g id="bla"><g font-family="sans-serif"><text x="669.629" y="785.732" stroke="none" transform="matrix(0.9836,0,0,0.9836,11.8033,9.8361)" xml:space="preserve">MCRITK</text><text x="663.129" y="799.701" stroke="none" transform="matrix(0.9836,0,0,0.9836,11.8033,9.8361)" xml:space="preserve">(mcritk.f)</text></g></g></g><g id="y.node.46"><g fill="#F8ECC9" stroke="#F8ECC9" transform="matrix(0.9836,0,0,0.9836,11.8033,9.8361)"><rect width="105" height="115.938" x="913.129" y="708.594" stroke="none"/></g><g id="bla"><g fill="#404040" stroke="#404040" transform="matrix(0.9836,0,0,0.9836,11.8033,9.8361)"><rect width="105" height="4" x="913.129" y="708.594" stroke="none"/></g></g><g fill="#fff" stroke="#fff" transform="matrix(0.9836,0,0,0.9836,11.8033,9.8361)"><rect width="1" height="115.938" x="913.129" y="708.594" stroke="none"/><rect width="103" height="1" x="914.129" y="708.594" stroke="none"/><rect width="104" height="1" x="914.129" y="823.531" fill="#ADA58C" stroke="none"/><rect width="1" height="114.938" x="1017.129" y="708.594" fill="#ADA58C" stroke="none"/></g></g><g id="y.node.47"><g fill="#fff" stroke="#fff" transform="matrix(0.9836,0,0,0.9836,11.8033,9.8361)"><rect width="75" height="41" x="928" y="767" stroke="none"/><rect width="75" height="41" x="928" y="767" fill="none" stroke="#000"/></g><g id="bla"><g font-family="sans-serif"><text x="941.129" y="785.732" stroke="none" transform="matrix(0.9836,0,0,0.9836,11.8033,9.8361)" xml:space="preserve">MCRITH</text><text x="935.129" y="799.701" stroke="none" transform="matrix(0.9836,0,0,0.9836,11.8033,9.8361)" xml:space="preserve">(mcrith.f)</text></g></g></g><g id="y.node.48"><g fill="#fff" stroke="#fff" transform="matrix(0.9836,0,0,0.9836,11.8033,9.8361)"><rect width="63" height="41" x="818" y="568" stroke="none"/><rect width="63" height="41" x="818" y="568" fill="none" stroke="#000"/></g><g id="bla"><g font-family="sans-serif"><text x="831.129" y="586.826" stroke="none" transform="matrix(0.9836,0,0,0.9836,11.8033,9.8361)" xml:space="preserve">CCRIT</text><text x="825.629" y="600.795" stroke="none" transform="matrix(0.9836,0,0,0.9836,11.8033,9.8361)" xml:space="preserve">(ccrit.f)</text></g></g></g><g id="y.node.29"><g fill="#F8ECC9" stroke="#F8ECC9" transform="matrix(0.9836,0,0,0.9836,11.8033,9.8361)"><rect width="246" height="231.875" x="1211.504" y="937.5" stroke="none"/></g><g id="bla"><g fill="#404040" stroke="#404040" transform="matrix(0.9836,0,0,0.9836,11.8033,9.8361)"><rect width="246" height="4" x="1211.504" y="937.5" stroke="none"/></g></g><g fill="#fff" stroke="#fff" transform="matrix(0.9836,0,0,0.9836,11.8033,9.8361)"><rect width="1" height="231.875" x="1211.504" y="937.5" stroke="none"/><rect width="244" height="1" x="1212.504" y="937.5" stroke="none"/><rect width="245" height="1" x="1212.504" y="1168.375" fill="#ADA58C" stroke="none"/><rect width="1" height="230.875" x="1456.504" y="937.5" fill="#ADA58C" stroke="none"/></g></g><g id="y.node.35"><g fill="#F8ECC9" stroke="#F8ECC9" transform="matrix(0.9836,0,0,0.9836,11.8033,9.8361)"><rect width="98" height="115.938" x="1344.504" y="1038.438" stroke="none"/></g><g id="bla"><g fill="#404040" stroke="#404040" transform="matrix(0.9836,0,0,0.9836,11.8033,9.8361)"><rect width="98" height="4" x="1344.504" y="1038.438" stroke="none"/></g></g><g fill="#fff" stroke="#fff" transform="matrix(0.9836,0,0,0.9836,11.8033,9.8361)"><rect width="1" height="115.938" x="1344.504" y="1038.438" stroke="none"/><rect width="96" height="1" x="1345.504" y="1038.438" stroke="none"/><rect width="97" height="1" x="1345.504" y="1153.375" fill="#ADA58C" stroke="none"/><rect width="1" height="114.938" x="1441.504" y="1038.438" fill="#ADA58C" stroke="none"/></g></g><g id="y.node.36"><g fill="#fff" stroke="#fff" transform="matrix(0.9836,0,0,0.9836,11.8033,9.8361)"><rect width="68" height="41" x="1359" y="1097" stroke="none"/><rect width="68" height="41" x="1359" y="1097" fill="none" stroke="#000"/></g><g id="bla"><g font-family="sans-serif"><text x="1374.004" y="1115.576" stroke="none" transform="matrix(0.9836,0,0,0.9836,11.8033,9.8361)" xml:space="preserve">SWAP</text><text x="1366.504" y="1129.545" stroke="none" transform="matrix(0.9836,0,0,0.9836,11.8033,9.8361)" xml:space="preserve">(heap.f)</text></g></g></g><g id="y.node.37"><g fill="#F8ECC9" stroke="#F8ECC9" transform="matrix(0.9836,0,0,0.9836,11.8033,9.8361)"><rect width="98" height="115.938" x="1226.504" y="1038.438" stroke="none"/></g><g id="bla"><g fill="#404040" stroke="#404040" transform="matrix(0.9836,0,0,0.9836,11.8033,9.8361)"><rect width="98" height="4" x="1226.504" y="1038.438" stroke="none"/></g></g><g fill="#fff" stroke="#fff" transform="matrix(0.9836,0,0,0.9836,11.8033,9.8361)"><rect width="1" height="115.938" x="1226.504" y="1038.438" stroke="none"/><rect width="96" height="1" x="1227.504" y="1038.438" stroke="none"/><rect width="97" height="1" x="1227.504" y="1153.375" fill="#ADA58C" stroke="none"/><rect width="1" height="114.938" x="1323.504" y="1038.438" fill="#ADA58C" stroke="none"/></g></g><g id="y.node.38"><g fill="#fff" stroke="#fff" transform="matrix(0.9836,0,0,0.9836,11.8033,9.8361)"><rect width="68" height="41" x="1241" y="1097" stroke="none"/><rect width="68" height="41" x="1241" y="1097" fill="none" stroke="#000"/></g><g id="bla"><g font-family="sans-serif"><text x="1254.504" y="1115.576" stroke="none" transform="matrix(0.9836,0,0,0.9836,11.8033,9.8361)" xml:space="preserve">ISWAP</text><text x="1248.504" y="1129.545" stroke="none" transform="matrix(0.9836,0,0,0.9836,11.8033,9.8361)" xml:space="preserve">(heap.f)</text></g></g></g><g id="y.node.39"><g fill="#fff" stroke="#fff" transform="matrix(0.9836,0,0,0.9836,11.8033,9.8361)"><rect width="68" height="41" x="1305" y="956" stroke="none"/><rect width="68" height="41" x="1305" y="956" fill="none" stroke="#000"/></g><g id="bla"><g font-family="sans-serif"><text x="1314.004" y="974.639" stroke="none" transform="matrix(0.9836,0,0,0.9836,11.8033,9.8361)" xml:space="preserve">HDOWN</text><text x="1312.504" y="988.607" stroke="none" transform="matrix(0.9836,0,0,0.9836,11.8033,9.8361)" xml:space="preserve">(heap.f)</text></g></g></g><g id="y.node.28"><g fill="#F8ECC9" stroke="#F8ECC9" transform="matrix(0.9836,0,0,0.9836,11.8033,9.8361)"><rect width="98" height="115.938" x="1292.129" y="665.625" stroke="none"/></g><g id="bla"><g fill="#404040" stroke="#404040" transform="matrix(0.9836,0,0,0.9836,11.8033,9.8361)"><rect width="98" height="4" x="1292.129" y="665.625" stroke="none"/></g></g><g fill="#fff" stroke="#fff" transform="matrix(0.9836,0,0,0.9836,11.8033,9.8361)"><rect width="1" height="115.938" x="1292.129" y="665.625" stroke="none"/><rect width="96" height="1" x="1293.129" y="665.625" stroke="none"/><rect width="97" height="1" x="1293.129" y="780.563" fill="#ADA58C" stroke="none"/><rect width="1" height="114.938" x="1389.129" y="665.625" fill="#ADA58C" stroke="none"/></g></g><g id="y.node.34"><g fill="#fff" stroke="#fff" transform="matrix(0.9836,0,0,0.9836,11.8033,9.8361)"><rect width="68" height="41" x="1307" y="684" stroke="none"/><rect width="68" height="41" x="1307" y="684" fill="none" stroke="#000"/></g><g id="bla"><g font-family="sans-serif"><text x="1326.129" y="702.764" stroke="none" transform="matrix(0.9836,0,0,0.9836,11.8033,9.8361)" xml:space="preserve">HUP</text><text x="1314.129" y="716.732" stroke="none" transform="matrix(0.9836,0,0,0.9836,11.8033,9.8361)" xml:space="preserve">(heap.f)</text></g></g></g><g id="y.node.27"><g fill="#F8ECC9" stroke="#F8ECC9" transform="matrix(0.9836,0,0,0.9836,11.8033,9.8361)"><rect width="99" height="75.938" x="1173.129" y="685.625" stroke="none"/></g><g id="bla"><g fill="#404040" stroke="#404040" transform="matrix(0.9836,0,0,0.9836,11.8033,9.8361)"><rect width="99" height="4" x="1173.129" y="685.625" stroke="none"/></g></g><g fill="#fff" stroke="#fff" transform="matrix(0.9836,0,0,0.9836,11.8033,9.8361)"><rect width="1" height="75.938" x="1173.129" y="685.625" stroke="none"/><rect width="97" height="1" x="1174.129" y="685.625" stroke="none"/><rect width="98" height="1" x="1174.129" y="760.563" fill="#ADA58C" stroke="none"/><rect width="1" height="74.938" x="1271.129" y="685.625" fill="#ADA58C" stroke="none"/></g></g><g id="y.node.33"><g fill="#fff" stroke="#fff" transform="matrix(0.9836,0,0,0.9836,11.8033,9.8361)"><rect width="69" height="41" x="1188" y="704" stroke="none"/><rect width="69" height="41" x="1188" y="704" fill="none" stroke="#000"/></g><g id="bla"><g font-family="sans-serif"><text x="1203.629" y="722.764" stroke="none" transform="matrix(0.9836,0,0,0.9836,11.8033,9.8361)" xml:space="preserve">IPACK</text><text x="1195.129" y="736.732" stroke="none" transform="matrix(0.9836,0,0,0.9836,11.8033,9.8361)" xml:space="preserve">(ipack.f)</text></g></g></g><g id="y.node.26"><g fill="#F8ECC9" stroke="#F8ECC9" transform="matrix(0.9836,0,0,0.9836,11.8033,9.8361)"><rect width="100" height="75.938" x="1053.129" y="685.625" stroke="none"/></g><g id="bla"><g fill="#404040" stroke="#404040" transform="matrix(0.9836,0,0,0.9836,11.8033,9.8361)"><rect width="100" height="4" x="1053.129" y="685.625" stroke="none"/></g></g><g fill="#fff" stroke="#fff" transform="matrix(0.9836,0,0,0.9836,11.8033,9.8361)"><rect width="1" height="75.938" x="1053.129" y="685.625" stroke="none"/><rect width="98" height="1" x="1054.129" y="685.625" stroke="none"/><rect width="99" height="1" x="1054.129" y="760.563" fill="#ADA58C" stroke="none"/><rect width="1" height="74.938" x="1152.129" y="685.625" fill="#ADA58C" stroke="none"/></g></g><g id="y.node.32"><g fill="#fff" stroke="#fff" transform="matrix(0.9836,0,0,0.9836,11.8033,9.8361)"><rect width="70" height="41" x="1068" y="704" stroke="none"/><rect width="70" height="41" x="1068" y="704" fill="none" stroke="#000"/></g><g id="bla"><g font-family="sans-serif"><text x="1079.629" y="722.764" stroke="none" transform="matrix(0.9836,0,0,0.9836,11.8033,9.8361)" xml:space="preserve">SORTIR</text><text x="1075.129" y="736.732" stroke="none" transform="matrix(0.9836,0,0,0.9836,11.8033,9.8361)" xml:space="preserve">(sortix.f)</text></g></g></g><g id="y.node.31"><g fill="#fff" stroke="#fff" transform="matrix(0.9836,0,0,0.9836,11.8033,9.8361)"><rect width="72" height="41" x="1195" y="467" stroke="none"/><rect width="72" height="41" x="1195" y="467" fill="none" stroke="#000"/></g><g id="bla"><g font-family="sans-serif"><text x="1209.458" y="485.889" stroke="none" transform="matrix(0.9836,0,0,0.9836,11.8033,9.8361)" xml:space="preserve">PATHS</text><text x="1202.458" y="499.857" stroke="none" transform="matrix(0.9836,0,0,0.9836,11.8033,9.8361)" xml:space="preserve">(paths.f)</text></g></g></g><g id="y.node.5"><g fill="#F8ECC9" stroke="#F8ECC9" transform="matrix(0.9836,0,0,0.9836,11.8033,9.8361)"><rect width="108" height="75.938" x="134" y="216.875" stroke="none"/></g><g id="bla"><g fill="#404040" stroke="#404040" transform="matrix(0.9836,0,0,0.9836,11.8033,9.8361)"><rect width="108" height="4" x="134" y="216.875" stroke="none"/></g></g><g fill="#fff" stroke="#fff" transform="matrix(0.9836,0,0,0.9836,11.8033,9.8361)"><rect width="1" height="75.938" x="134" y="216.875" stroke="none"/><rect width="106" height="1" x="135" y="216.875" stroke="none"/><rect width="107" height="1" x="135" y="291.813" fill="#ADA58C" stroke="none"/><rect width="1" height="74.938" x="241" y="216.875" fill="#ADA58C" stroke="none"/></g></g><g id="y.node.25"><g fill="#fff" stroke="#fff" transform="matrix(0.9836,0,0,0.9836,11.8033,9.8361)"><rect width="78" height="41" x="148" y="235" stroke="none"/><rect width="78" height="41" x="148" y="235" fill="none" stroke="#000"/></g><g id="bla"><g font-family="sans-serif"><text x="162" y="254.014" stroke="none" transform="matrix(0.9836,0,0,0.9836,11.8033,9.8361)" xml:space="preserve">REPATH</text><text x="156" y="267.982" stroke="none" transform="matrix(0.9836,0,0,0.9836,11.8033,9.8361)" xml:space="preserve">(repath.f)</text></g></g></g><g id="y.node.3"><g fill="#F8ECC9" stroke="#F8ECC9" transform="matrix(0.9836,0,0,0.9836,11.8033,9.8361)"><rect width="969" height="307.813" x="262" y="100.938" stroke="none"/></g><g id="bla"><g fill="#404040" stroke="#404040" transform="matrix(0.9836,0,0,0.9836,11.8033,9.8361)"><rect width="969" height="4" x="262" y="100.938" stroke="none"/></g></g><g fill="#fff" stroke="#fff" transform="matrix(0.9836,0,0,0.9836,11.8033,9.8361)"><rect width="1" height="307.813" x="262" y="100.938" stroke="none"/><rect width="967" height="1" x="263" y="100.938" stroke="none"/><rect width="968" height="1" x="263" y="407.75" fill="#ADA58C" stroke="none"/><rect width="1" height="306.813" x="1230" y="100.938" fill="#ADA58C" stroke="none"/></g></g><g id="y.node.10"><g fill="#F8ECC9" stroke="#F8ECC9" transform="matrix(0.9836,0,0,0.9836,11.8033,9.8361)"><rect width="284" height="191.875" x="932" y="201.875" stroke="none"/></g><g id="bla"><g fill="#404040" stroke="#404040" transform="matrix(0.9836,0,0,0.9836,11.8033,9.8361)"><rect width="284" height="4" x="932" y="201.875" stroke="none"/></g></g><g fill="#fff" stroke="#fff" transform="matrix(0.9836,0,0,0.9836,11.8033,9.8361)"><rect width="1" height="191.875" x="932" y="201.875" stroke="none"/><rect width="282" height="1" x="933" y="201.875" stroke="none"/><rect width="283" height="1" x="933" y="392.75" fill="#ADA58C" stroke="none"/><rect width="1" height="190.875" x="1215" y="201.875" fill="#ADA58C" stroke="none"/></g></g><g id="y.node.20"><g fill="#F8ECC9" stroke="#F8ECC9" transform="matrix(0.9836,0,0,0.9836,11.8033,9.8361)"><rect width="117" height="75.938" x="947" y="302.813" stroke="none"/></g><g id="bla"><g fill="#404040" stroke="#404040" transform="matrix(0.9836,0,0,0.9836,11.8033,9.8361)"><rect width="117" height="4" x="947" y="302.813" stroke="none"/></g></g><g fill="#fff" stroke="#fff" transform="matrix(0.9836,0,0,0.9836,11.8033,9.8361)"><rect width="1" height="75.938" x="947" y="302.813" stroke="none"/><rect width="115" height="1" x="948" y="302.813" stroke="none"/><rect width="116" height="1" x="948" y="377.75" fill="#ADA58C" stroke="none"/><rect width="1" height="74.938" x="1063" y="302.813" fill="#ADA58C" stroke="none"/></g></g><g id="y.node.21"><g fill="#fff" stroke="#fff" transform="matrix(0.9836,0,0,0.9836,11.8033,9.8361)"><rect width="87" height="41" x="961" y="321" stroke="none"/><rect width="87" height="41" x="961" y="321" fill="none" stroke="#000"/></g><g id="bla"><g font-family="sans-serif"><text x="981.5" y="339.951" stroke="none" transform="matrix(0.9836,0,0,0.9836,11.8033,9.8361)" xml:space="preserve">STRIGD</text><text x="969" y="353.92" stroke="none" transform="matrix(0.9836,0,0,0.9836,11.8033,9.8361)" xml:space="preserve">(mpprmd.f)</text></g></g></g><g id="y.node.22"><g fill="#F8ECC9" stroke="#F8ECC9" transform="matrix(0.9836,0,0,0.9836,11.8033,9.8361)"><rect width="117" height="75.938" x="1084" y="302.813" stroke="none"/></g><g id="bla"><g fill="#404040" stroke="#404040" transform="matrix(0.9836,0,0,0.9836,11.8033,9.8361)"><rect width="117" height="4" x="1084" y="302.813" stroke="none"/></g></g><g fill="#fff" stroke="#fff" transform="matrix(0.9836,0,0,0.9836,11.8033,9.8361)"><rect width="1" height="75.938" x="1084" y="302.813" stroke="none"/><rect width="115" height="1" x="1085" y="302.813" stroke="none"/><rect width="116" height="1" x="1085" y="377.75" fill="#ADA58C" stroke="none"/><rect width="1" height="74.938" x="1200" y="302.813" fill="#ADA58C" stroke="none"/></g></g><g id="y.node.23"><g fill="#fff" stroke="#fff" transform="matrix(0.9836,0,0,0.9836,11.8033,9.8361)"><rect width="87" height="41" x="1099" y="321" stroke="none"/><rect width="87" height="41" x="1099" y="321" fill="none" stroke="#000"/></g><g id="bla"><g font-family="sans-serif"><text x="1119.5" y="339.951" stroke="none" transform="matrix(0.9836,0,0,0.9836,11.8033,9.8361)" xml:space="preserve">SARGD</text><text x="1106" y="353.92" stroke="none" transform="matrix(0.9836,0,0,0.9836,11.8033,9.8361)" xml:space="preserve">(mpprmd.f)</text></g></g></g><g id="y.node.24"><g fill="#fff" stroke="#fff" transform="matrix(0.9836,0,0,0.9836,11.8033,9.8361)"><rect width="87" height="41" x="1030" y="220" stroke="none"/><rect width="87" height="41" x="1030" y="220" fill="none" stroke="#000"/></g><g id="bla"><g font-family="sans-serif"><text x="1045.5" y="239.014" stroke="none" transform="matrix(0.9836,0,0,0.9836,11.8033,9.8361)" xml:space="preserve">MPPRMD</text><text x="1037.5" y="252.982" stroke="none" transform="matrix(0.9836,0,0,0.9836,11.8033,9.8361)" xml:space="preserve">(mpprmd.f)</text></g></g></g><g id="y.node.9"><g fill="#F8ECC9" stroke="#F8ECC9" transform="matrix(0.9836,0,0,0.9836,11.8033,9.8361)"><rect width="104" height="115.938" x="808" y="239.844" stroke="none"/></g><g id="bla"><g fill="#404040" stroke="#404040" transform="matrix(0.9836,0,0,0.9836,11.8033,9.8361)"><rect width="104" height="4" x="808" y="239.844" stroke="none"/></g></g><g fill="#fff" stroke="#fff" transform="matrix(0.9836,0,0,0.9836,11.8033,9.8361)"><rect width="1" height="115.938" x="808" y="239.844" stroke="none"/><rect width="102" height="1" x="809" y="239.844" stroke="none"/><rect width="103" height="1" x="809" y="354.781" fill="#ADA58C" stroke="none"/><rect width="1" height="114.938" x="911" y="239.844" fill="#ADA58C" stroke="none"/></g></g><g id="y.node.19"><g fill="#fff" stroke="#fff" transform="matrix(0.9836,0,0,0.9836,11.8033,9.8361)"><rect width="74" height="41" x="822" y="258" stroke="none"/><rect width="74" height="41" x="822" y="258" fill="none" stroke="#000"/></g><g id="bla"><g font-family="sans-serif"><text x="834" y="276.982" stroke="none" transform="matrix(0.9836,0,0,0.9836,11.8033,9.8361)" xml:space="preserve">OUTCRT</text><text x="830" y="290.951" stroke="none" transform="matrix(0.9836,0,0,0.9836,11.8033,9.8361)" xml:space="preserve">(outcrt.f)</text></g></g></g><g id="y.node.8"><g fill="#F8ECC9" stroke="#F8ECC9" transform="matrix(0.9836,0,0,0.9836,11.8033,9.8361)"><rect width="100" height="75.938" x="688" y="259.844" stroke="none"/></g><g id="bla"><g fill="#404040" stroke="#404040" transform="matrix(0.9836,0,0,0.9836,11.8033,9.8361)"><rect width="100" height="4" x="688" y="259.844" stroke="none"/></g></g><g fill="#fff" stroke="#fff" transform="matrix(0.9836,0,0,0.9836,11.8033,9.8361)"><rect width="1" height="75.938" x="688" y="259.844" stroke="none"/><rect width="98" height="1" x="689" y="259.844" stroke="none"/><rect width="99" height="1" x="689" y="334.781" fill="#ADA58C" stroke="none"/><rect width="1" height="74.938" x="787" y="259.844" fill="#ADA58C" stroke="none"/></g></g><g id="y.node.18"><g fill="#fff" stroke="#fff" transform="matrix(0.9836,0,0,0.9836,11.8033,9.8361)"><rect width="70" height="41" x="702" y="278" stroke="none"/><rect width="70" height="41" x="702" y="278" fill="none" stroke="#000"/></g><g id="bla"><g font-family="sans-serif"><text x="714" y="296.982" stroke="none" transform="matrix(0.9836,0,0,0.9836,11.8033,9.8361)" xml:space="preserve">SORTID</text><text x="710" y="310.951" stroke="none" transform="matrix(0.9836,0,0,0.9836,11.8033,9.8361)" xml:space="preserve">(sortix.f)</text></g></g></g><g id="y.node.7"><g fill="#F8ECC9" stroke="#F8ECC9" transform="matrix(0.9836,0,0,0.9836,11.8033,9.8361)"><rect width="272" height="191.875" x="396" y="201.875" stroke="none"/></g><g id="bla"><g fill="#404040" stroke="#404040" transform="matrix(0.9836,0,0,0.9836,11.8033,9.8361)"><rect width="272" height="4" x="396" y="201.875" stroke="none"/></g></g><g fill="#fff" stroke="#fff" transform="matrix(0.9836,0,0,0.9836,11.8033,9.8361)"><rect width="1" height="191.875" x="396" y="201.875" stroke="none"/><rect width="270" height="1" x="397" y="201.875" stroke="none"/><rect width="271" height="1" x="397" y="392.75" fill="#ADA58C" stroke="none"/><rect width="1" height="190.875" x="667" y="201.875" fill="#ADA58C" stroke="none"/></g></g><g id="y.node.13"><g fill="#F8ECC9" stroke="#F8ECC9" transform="matrix(0.9836,0,0,0.9836,11.8033,9.8361)"><rect width="105" height="75.938" x="411" y="302.813" stroke="none"/></g><g id="bla"><g fill="#404040" stroke="#404040" transform="matrix(0.9836,0,0,0.9836,11.8033,9.8361)"><rect width="105" height="4" x="411" y="302.813" stroke="none"/></g></g><g fill="#fff" stroke="#fff" transform="matrix(0.9836,0,0,0.9836,11.8033,9.8361)"><rect width="1" height="75.938" x="411" y="302.813" stroke="none"/><rect width="103" height="1" x="412" y="302.813" stroke="none"/><rect width="104" height="1" x="412" y="377.75" fill="#ADA58C" stroke="none"/><rect width="1" height="74.938" x="515" y="302.813" fill="#ADA58C" stroke="none"/></g></g><g id="y.node.14"><g fill="#fff" stroke="#fff" transform="matrix(0.9836,0,0,0.9836,11.8033,9.8361)"><rect width="75" height="41" x="425" y="321" stroke="none"/><rect width="75" height="41" x="425" y="321" fill="none" stroke="#000"/></g><g id="bla"><g font-family="sans-serif"><text x="440.5" y="339.951" stroke="none" transform="matrix(0.9836,0,0,0.9836,11.8033,9.8361)" xml:space="preserve">PHASH</text><text x="433" y="353.92" stroke="none" transform="matrix(0.9836,0,0,0.9836,11.8033,9.8361)" xml:space="preserve">(phash.f)</text></g></g></g><g id="y.node.15"><g fill="#F8ECC9" stroke="#F8ECC9" transform="matrix(0.9836,0,0,0.9836,11.8033,9.8361)"><rect width="117" height="75.938" x="536" y="302.813" stroke="none"/></g><g id="bla"><g fill="#404040" stroke="#404040" transform="matrix(0.9836,0,0,0.9836,11.8033,9.8361)"><rect width="117" height="4" x="536" y="302.813" stroke="none"/></g></g><g fill="#fff" stroke="#fff" transform="matrix(0.9836,0,0,0.9836,11.8033,9.8361)"><rect width="1" height="75.938" x="536" y="302.813" stroke="none"/><rect width="115" height="1" x="537" y="302.813" stroke="none"/><rect width="116" height="1" x="537" y="377.75" fill="#ADA58C" stroke="none"/><rect width="1" height="74.938" x="652" y="302.813" fill="#ADA58C" stroke="none"/></g></g><g id="y.node.16"><g fill="#fff" stroke="#fff" transform="matrix(0.9836,0,0,0.9836,11.8033,9.8361)"><rect width="87" height="41" x="550" y="321" stroke="none"/><rect width="87" height="41" x="550" y="321" fill="none" stroke="#000"/></g><g id="bla"><g font-family="sans-serif"><text x="566.5" y="339.951" stroke="none" transform="matrix(0.9836,0,0,0.9836,11.8033,9.8361)" xml:space="preserve">MPPRMP</text><text x="558" y="353.92" stroke="none" transform="matrix(0.9836,0,0,0.9836,11.8033,9.8361)" xml:space="preserve">(mpprmp.f)</text></g></g></g><g id="y.node.17"><g fill="#fff" stroke="#fff" transform="matrix(0.9836,0,0,0.9836,11.8033,9.8361)"><rect width="76" height="41" x="490" y="220" stroke="none"/><rect width="76" height="41" x="490" y="220" fill="none" stroke="#000"/></g><g id="bla"><g font-family="sans-serif"><text x="505" y="239.014" stroke="none" transform="matrix(0.9836,0,0,0.9836,11.8033,9.8361)" xml:space="preserve">TIMREP</text><text x="498" y="252.982" stroke="none" transform="matrix(0.9836,0,0,0.9836,11.8033,9.8361)" xml:space="preserve">(timrep.f)</text></g></g></g><g id="y.node.6"><g fill="#F8ECC9" stroke="#F8ECC9" transform="matrix(0.9836,0,0,0.9836,11.8033,9.8361)"><rect width="99" height="75.938" x="277" y="259.844" stroke="none"/></g><g id="bla"><g fill="#404040" stroke="#404040" transform="matrix(0.9836,0,0,0.9836,11.8033,9.8361)"><rect width="99" height="4" x="277" y="259.844" stroke="none"/></g></g><g fill="#fff" stroke="#fff" transform="matrix(0.9836,0,0,0.9836,11.8033,9.8361)"><rect width="1" height="75.938" x="277" y="259.844" stroke="none"/><rect width="97" height="1" x="278" y="259.844" stroke="none"/><rect width="98" height="1" x="278" y="334.781" fill="#ADA58C" stroke="none"/><rect width="1" height="74.938" x="375" y="259.844" fill="#ADA58C" stroke="none"/></g></g><g id="y.node.12"><g fill="#fff" stroke="#fff" transform="matrix(0.9836,0,0,0.9836,11.8033,9.8361)"><rect width="69" height="41" x="291" y="278" stroke="none"/><rect width="69" height="41" x="291" y="278" fill="none" stroke="#000"/></g><g id="bla"><g font-family="sans-serif"><text x="304.5" y="296.982" stroke="none" transform="matrix(0.9836,0,0,0.9836,11.8033,9.8361)" xml:space="preserve">UPACK</text><text x="299" y="310.951" stroke="none" transform="matrix(0.9836,0,0,0.9836,11.8033,9.8361)" xml:space="preserve">(ipack.f)</text></g></g></g><g id="y.node.11"><g fill="#fff" stroke="#fff" transform="matrix(0.9836,0,0,0.9836,11.8033,9.8361)"><rect width="80" height="41" x="697" y="119" stroke="none"/><rect width="80" height="41" x="697" y="119" fill="none" stroke="#000"/></g><g id="bla"><g font-family="sans-serif"><text x="711.5" y="138.076" stroke="none" transform="matrix(0.9836,0,0,0.9836,11.8033,9.8361)" xml:space="preserve">PATHSD</text><text x="705" y="152.045" stroke="none" transform="matrix(0.9836,0,0,0.9836,11.8033,9.8361)" xml:space="preserve">(pathsd.f)</text></g></g></g><g id="y.node.1"><g fill="#fff" stroke="#fff" transform="matrix(0.9836,0,0,0.9836,11.8033,9.8361)"><rect width="79" height="41" x="423" y="19" stroke="none"/><rect width="79" height="41" x="423" y="19" fill="none" stroke="#000"/></g><g id="bla"><g font-family="sans-serif"><text x="436" y="37.139" stroke="none" transform="matrix(0.9836,0,0,0.9836,11.8033,9.8361)" xml:space="preserve">FFMOD4</text><text x="430.5" y="51.107" stroke="none" transform="matrix(0.9836,0,0,0.9836,11.8033,9.8361)" xml:space="preserve">(ffmod4.f)</text></g></g></g><g id="y.edge.0"><g stroke-linecap="butt" stroke-miterlimit="1.45"><path fill="none" d="M835.3477 300.8203 L850 340.7812 L850 408.75 L859.0423 448.75 L859.0423 509.6875 L688.1288 549.6875 L688.1288 727.5938 L677.2003 759.9747" transform="matrix(0.9836,0,0,0.9836,11.8033,9.8361)"/><path stroke="none" d="M674.642 767.5547 L683.2169 757.7837 L677.52 759.0273 L673.7419 754.5859 Z" transform="matrix(0.9836,0,0,0.9836,11.8033,9.8361)"/></g></g><g id="y.edge.1"><g stroke-linecap="butt" stroke-miterlimit="1.45"><path fill="none" d="M860 300.8076 L860 408.75 L870.0423 448.75 L870.0423 509.6875 L797.947 549.6875 L797.947 610.625 L824.1288 650.625 L824.1288 669.625 L816.0789 701.8248" transform="matrix(0.9836,0,0,0.9836,11.8033,9.8361)"/><path stroke="none" d="M814.1385 709.5859 L821.8997 699.1569 L816.3214 700.8546 L812.1983 696.7315 Z" transform="matrix(0.9836,0,0,0.9836,11.8033,9.8361)"/></g></g><g id="y.edge.2"><g stroke-linecap="butt" stroke-miterlimit="1.45"><path fill="none" d="M548.0227 262.832 L594.5 302.8125 L594.5 313.7754" transform="matrix(0.9836,0,0,0.9836,11.8033,9.8361)"/><path stroke="none" d="M594.5 321.7754 L599.5 309.7754 L594.5 312.7754 L589.5 309.7754 Z" transform="matrix(0.9836,0,0,0.9836,11.8033,9.8361)"/></g></g><g id="y.edge.3"><g stroke-linecap="butt" stroke-miterlimit="1.45"><path fill="none" d="M509.9773 262.832 L463.5 302.8125 L463.5 313.7754" transform="matrix(0.9836,0,0,0.9836,11.8033,9.8361)"/><path stroke="none" d="M463.5 321.7754 L468.5 309.7754 L463.5 312.7754 L458.5 309.7754 Z" transform="matrix(0.9836,0,0,0.9836,11.8033,9.8361)"/></g></g><g id="y.edge.4"><g stroke-linecap="butt" stroke-miterlimit="1.45"><path fill="none" d="M738 161.9036 L738 270.8152" transform="matrix(0.9836,0,0,0.9836,11.8033,9.8361)"/><path stroke="none" d="M738 278.8152 L743 266.8152 L738 269.8152 L733 266.8152 Z" transform="matrix(0.9836,0,0,0.9836,11.8033,9.8361)"/></g></g><g id="y.edge.5"><g stroke-linecap="butt" stroke-miterlimit="1.45"><path fill="none" d="M721.9529 161.8848 L529 201.875 L529 212.8379" transform="matrix(0.9836,0,0,0.9836,11.8033,9.8361)"/><path stroke="none" d="M529 220.8379 L534 208.8379 L529 211.8379 L524 208.8379 Z" transform="matrix(0.9836,0,0,0.9836,11.8033,9.8361)"/></g></g><g id="y.edge.6"><g stroke-linecap="butt" stroke-miterlimit="1.45"><path fill="none" d="M770.0371 161.8799 L1074 201.875 L1074 212.8379" transform="matrix(0.9836,0,0,0.9836,11.8033,9.8361)"/><path stroke="none" d="M1074 220.8379 L1079 208.8379 L1074 211.8379 L1069 208.8379 Z" transform="matrix(0.9836,0,0,0.9836,11.8033,9.8361)"/></g></g><g id="y.edge.7"><g stroke-linecap="butt" stroke-miterlimit="1.45"><path fill="none" d="M754.0259 161.8848 L860 201.875 L860 250.8159" transform="matrix(0.9836,0,0,0.9836,11.8033,9.8361)"/><path stroke="none" d="M860 258.8159 L865 246.8159 L860 249.8159 L855 246.8159 Z" transform="matrix(0.9836,0,0,0.9836,11.8033,9.8361)"/></g></g><g id="y.edge.8"><g stroke-linecap="butt" stroke-miterlimit="1.45"><path fill="none" d="M492.6707 60.9399 L1241.5 100.9375 L1241.5 408.75 L1231.4578 448.75 L1231.4578 459.7129" transform="matrix(0.9836,0,0,0.9836,11.8033,9.8361)"/><path stroke="none" d="M1231.4578 467.7129 L1236.4578 455.7129 L1231.4578 458.7129 L1226.4578 455.7129 Z" transform="matrix(0.9836,0,0,0.9836,11.8033,9.8361)"/></g></g><g id="y.edge.9"><g stroke-linecap="butt" stroke-miterlimit="1.45"><path fill="none" d="M472.9073 60.9424 L738 100.9375 L738 111.9004" transform="matrix(0.9836,0,0,0.9836,11.8033,9.8361)"/><path stroke="none" d="M738 119.9004 L743 107.9004 L738 110.9004 L733 107.9004 Z" transform="matrix(0.9836,0,0,0.9836,11.8033,9.8361)"/></g></g><g id="y.edge.10"><g stroke-linecap="butt" stroke-miterlimit="1.45"><path fill="none" d="M433.33 60.9424 L64.5 100.9375 L64.5 227.8421" transform="matrix(0.9836,0,0,0.9836,11.8033,9.8361)"/><path stroke="none" d="M64.5 235.8421 L69.5 223.8421 L64.5 226.8421 L59.5 223.8421 Z" transform="matrix(0.9836,0,0,0.9836,11.8033,9.8361)"/></g></g><g id="y.edge.11"><g stroke-linecap="butt" stroke-miterlimit="1.45"><path fill="none" d="M453.0926 60.9424 L188 100.9375 L188 227.8421" transform="matrix(0.9836,0,0,0.9836,11.8033,9.8361)"/><path stroke="none" d="M188 235.8421 L193 223.8421 L188 226.8421 L183 223.8421 Z" transform="matrix(0.9836,0,0,0.9836,11.8033,9.8361)"/></g></g><g id="y.edge.12"><g stroke-linecap="butt" stroke-miterlimit="1.45"><path fill="none" d="M1202.6146 509.6924 L850.1288 549.6875 L850.1288 560.6504" transform="matrix(0.9836,0,0,0.9836,11.8033,9.8361)"/><path stroke="none" d="M850.1288 568.6504 L855.1288 556.6504 L850.1288 559.6504 L845.1288 556.6504 Z" transform="matrix(0.9836,0,0,0.9836,11.8033,9.8361)"/></g></g><g id="y.edge.13"><g stroke-linecap="butt" stroke-miterlimit="1.45"><path fill="none" d="M1260.292 509.6973 L1400.6288 549.6875 L1400.6288 897.5 L1339.5038 937.5 L1339.5038 948.4629" transform="matrix(0.9836,0,0,0.9836,11.8033,9.8361)"/><path stroke="none" d="M1339.5038 956.4629 L1344.5038 944.4629 L1339.5038 947.4629 L1334.5038 944.4629 Z" transform="matrix(0.9836,0,0,0.9836,11.8033,9.8361)"/></g></g><g id="y.edge.14"><g stroke-linecap="butt" stroke-miterlimit="1.45"><path fill="none" d="M1245.881 509.6973 L1341.1288 549.6875 L1341.1288 676.592" transform="matrix(0.9836,0,0,0.9836,11.8033,9.8361)"/><path stroke="none" d="M1341.1288 684.592 L1346.1288 672.592 L1341.1288 675.592 L1336.1288 672.592 Z" transform="matrix(0.9836,0,0,0.9836,11.8033,9.8361)"/></g></g><g id="y.edge.15"><g stroke-linecap="butt" stroke-miterlimit="1.45"><path fill="none" d="M1231.4491 509.7266 L1222.6288 549.6875 L1222.6288 696.5872" transform="matrix(0.9836,0,0,0.9836,11.8033,9.8361)"/><path stroke="none" d="M1222.6288 704.5872 L1227.6288 692.5872 L1222.6288 695.5872 L1217.6288 692.5872 Z" transform="matrix(0.9836,0,0,0.9836,11.8033,9.8361)"/></g></g><g id="y.edge.16"><g stroke-linecap="butt" stroke-miterlimit="1.45"><path fill="none" d="M1217.0299 509.6973 L1103.1288 549.6875 L1103.1288 696.5872" transform="matrix(0.9836,0,0,0.9836,11.8033,9.8361)"/><path stroke="none" d="M1103.1288 704.5872 L1108.1288 692.5872 L1103.1288 695.5872 L1098.1288 692.5872 Z" transform="matrix(0.9836,0,0,0.9836,11.8033,9.8361)"/></g></g><g id="y.edge.17"><g stroke-linecap="butt" stroke-miterlimit="1.45"><path fill="none" d="M1356.5243 998.457 L1398.5038 1038.4375 L1398.5038 1057.4375 L1408.1934 1089.7358" transform="matrix(0.9836,0,0,0.9836,11.8033,9.8361)"/><path stroke="none" d="M1410.4922 1097.3984 L1411.8331 1084.4678 L1407.906 1088.778 L1402.2549 1087.3413 Z" transform="matrix(0.9836,0,0,0.9836,11.8033,9.8361)"/></g></g><g id="y.edge.18"><g stroke-linecap="butt" stroke-miterlimit="1.45"><path fill="none" d="M1324.1405 726.6016 L1336.1288 766.5625 L1336.1288 897.5 L1261.7538 937.5 L1261.7538 998.4375 L1270.5038 1038.4375 L1270.5038 1057.4375 L1260.8143 1089.7358" transform="matrix(0.9836,0,0,0.9836,11.8033,9.8361)"/><path stroke="none" d="M1258.5155 1097.3984 L1266.7528 1087.3413 L1261.1016 1088.778 L1257.1746 1084.4678 Z" transform="matrix(0.9836,0,0,0.9836,11.8033,9.8361)"/></g></g><g id="y.edge.19"><g stroke-linecap="butt" stroke-miterlimit="1.45"><path fill="none" d="M1358.1171 726.6016 L1346.1288 766.5625 L1346.1288 897.5 L1407.2538 937.5 L1407.2538 998.4375 L1388.5038 1038.4375 L1388.5038 1057.4375 L1378.8143 1089.7358" transform="matrix(0.9836,0,0,0.9836,11.8033,9.8361)"/><path stroke="none" d="M1376.5155 1097.3984 L1384.7528 1087.3413 L1379.1016 1088.778 L1375.1746 1084.4678 Z" transform="matrix(0.9836,0,0,0.9836,11.8033,9.8361)"/></g></g><g id="y.edge.20"><g stroke-linecap="butt" stroke-miterlimit="1.45"><path fill="none" d="M829.0969 610.6348 L698.1288 650.625 L698.1288 727.5938 L709.0574 759.9747" transform="matrix(0.9836,0,0,0.9836,11.8033,9.8361)"/><path stroke="none" d="M711.6156 767.5547 L712.5157 754.5859 L708.7376 759.0273 L703.0408 757.7836 Z" transform="matrix(0.9836,0,0,0.9836,11.8033,9.8361)"/></g></g><g id="y.edge.21"><g stroke-linecap="butt" stroke-miterlimit="1.45"><path fill="none" d="M850.1132 610.6641 L834.1288 650.625 L834.1288 669.625 L842.1788 701.8248" transform="matrix(0.9836,0,0,0.9836,11.8033,9.8361)"/><path stroke="none" d="M844.1191 709.5859 L846.0594 696.7316 L841.9363 700.8547 L836.358 699.1569 Z" transform="matrix(0.9836,0,0,0.9836,11.8033,9.8361)"/></g></g><g id="y.edge.22"><g stroke-linecap="butt" stroke-miterlimit="1.45"><path fill="none" d="M829.1288 751.5913 L829.1288 802.5337" transform="matrix(0.9836,0,0,0.9836,11.8033,9.8361)"/><path stroke="none" d="M829.1288 810.5337 L834.1288 798.5337 L829.1288 801.5337 L824.1288 798.5337 Z" transform="matrix(0.9836,0,0,0.9836,11.8033,9.8361)"/></g></g><g id="y.edge.23"><g stroke-linecap="butt" stroke-miterlimit="1.45"><path fill="none" d="M1322.4833 998.457 L1280.5038 1038.4375 L1280.5038 1057.4375 L1290.1934 1089.7358" transform="matrix(0.9836,0,0,0.9836,11.8033,9.8361)"/><path stroke="none" d="M1292.4922 1097.3984 L1293.8331 1084.4678 L1289.906 1088.778 L1284.2549 1087.3413 Z" transform="matrix(0.9836,0,0,0.9836,11.8033,9.8361)"/></g></g><g id="y.edge.24"><g stroke-linecap="butt" stroke-miterlimit="1.45"><path fill="none" d="M705.9537 161.8799 L326.5 201.875 L326.5 270.8062" transform="matrix(0.9836,0,0,0.9836,11.8033,9.8361)"/><path stroke="none" d="M326.5 278.8062 L331.5 266.8062 L326.5 269.8062 L321.5 266.8062 Z" transform="matrix(0.9836,0,0,0.9836,11.8033,9.8361)"/></g></g><g id="y.edge.25"><g stroke-linecap="butt" stroke-miterlimit="1.45"><path fill="none" d="M1095.7728 262.832 L1142.5 302.8125 L1142.5 313.7754" transform="matrix(0.9836,0,0,0.9836,11.8033,9.8361)"/><path stroke="none" d="M1142.5 321.7754 L1147.5 309.7754 L1142.5 312.7754 L1137.5 309.7754 Z" transform="matrix(0.9836,0,0,0.9836,11.8033,9.8361)"/></g></g><g id="y.edge.26"><g stroke-linecap="butt" stroke-miterlimit="1.45"><path fill="none" d="M1052.2272 262.832 L1005.5 302.8125 L1005.5 313.7754" transform="matrix(0.9836,0,0,0.9836,11.8033,9.8361)"/><path stroke="none" d="M1005.5 321.7754 L1010.5 309.7754 L1005.5 312.7754 L1000.5 309.7754 Z" transform="matrix(0.9836,0,0,0.9836,11.8033,9.8361)"/></g></g><g id="y.edge.27"><g stroke-linecap="butt" stroke-miterlimit="1.45"><path fill="none" d="M884.6523 300.8203 L870 340.7812 L870 408.75 L881.0423 448.75 L881.0423 509.6875 L965.7197 549.6875 L965.7197 610.625 L960.6288 650.625 L960.6288 727.5938 L949.4929 759.9892" transform="matrix(0.9836,0,0,0.9836,11.8033,9.8361)"/><path stroke="none" d="M946.8922 767.5547 L955.5216 757.8318 L949.8179 759.0435 L946.0648 754.5811 Z" transform="matrix(0.9836,0,0,0.9836,11.8033,9.8361)"/></g></g><g id="y.edge.28"><g stroke-linecap="butt" stroke-miterlimit="1.45"><path fill="none" d="M871.1531 610.6348 L970.6288 650.625 L970.6288 727.5938 L981.7648 759.9892" transform="matrix(0.9836,0,0,0.9836,11.8033,9.8361)"/><path stroke="none" d="M984.3654 767.5547 L985.1929 754.5811 L981.4397 759.0435 L975.736 757.8318 Z" transform="matrix(0.9836,0,0,0.9836,11.8033,9.8361)"/></g></g></g></svg>