<svg xmlns="http://www.w3.org/2000/svg" xmlns:xlink="http://www.w3.org/1999/xlink" width="1578" height="741" fill="#000" fill-opacity="1" stroke="#000" stroke-dasharray="none" stroke-dashoffset="0" stroke-linecap="square" stroke-linejoin="miter" stroke-miterlimit="10" stroke-opacity="1" stroke-width="1" color-interpolation="auto" color-rendering="auto" font-family="'Dialog'" font-size="12" font-style="normal" font-weight="normal" image-rendering="auto" shape-rendering="auto" text-rendering="auto"><g><defs id="defs1"><clipPath id="clipPath1" clipPathUnits="userSpaceOnUse"><path d="M0 0 L1578 0 L1578 741 L0 741 L0 0 Z"/></clipPath></defs><g id="y.node.0"><g fill="#F8ECC9" stroke="#F8ECC9" transform="matrix(0.9737,0,0,0.9737,20.4481,9.7372)"><rect width="1578" height="619.688" x="0" y="0" stroke="none"/></g><g id="bla"><g fill="#404040" stroke="#404040" transform="matrix(0.9737,0,0,0.9737,20.4481,9.7372)"><rect width="1578" height="4" x="0" y="0" stroke="none"/></g></g><g fill="#fff" stroke="#fff" transform="matrix(0.9737,0,0,0.9737,20.4481,9.7372)"><rect width="1" height="619.688" x="0" y="0" stroke="none"/></g><g fill="#fff" stroke="#fff" transform="matrix(0.9737,0,0,0.9737,20.4481,9.7372)"><rect width="1576" height="1" x="1" y="0" stroke="none"/><rect width="1577" height="1" x="1" y="618.688" fill="#ADA58C" stroke="none"/><rect width="1" height="618.688" x="1577" y="0" fill="#ADA58C" stroke="none"/></g></g><g id="y.node.24"><g fill="#F8ECC9" stroke="#F8ECC9" transform="matrix(0.9737,0,0,0.9737,20.4481,9.7372)"><rect width="640" height="307.813" x="923" y="198.906" stroke="none"/></g><g id="bla"><g fill="#404040" stroke="#404040" transform="matrix(0.9737,0,0,0.9737,20.4481,9.7372)"><rect width="640" height="4" x="923" y="198.906" stroke="none"/></g></g><g fill="#fff" stroke="#fff" transform="matrix(0.9737,0,0,0.9737,20.4481,9.7372)"><rect width="1" height="307.813" x="923" y="198.906" stroke="none"/><rect width="638" height="1" x="924" y="198.906" stroke="none"/><rect width="639" height="1" x="924" y="505.719" fill="#ADA58C" stroke="none"/><rect width="1" height="306.813" x="1562" y="198.906" fill="#ADA58C" stroke="none"/></g></g><g id="y.node.34"><g fill="#F8ECC9" stroke="#F8ECC9" transform="matrix(0.9737,0,0,0.9737,20.4481,9.7372)"><rect width="130" height="191.875" x="1418" y="299.844" stroke="none"/></g><g id="bla"><g fill="#404040" stroke="#404040" transform="matrix(0.9737,0,0,0.9737,20.4481,9.7372)"><rect width="130" height="4" x="1418" y="299.844" stroke="none"/></g></g><g fill="#fff" stroke="#fff" transform="matrix(0.9737,0,0,0.9737,20.4481,9.7372)"><rect width="1" height="191.875" x="1418" y="299.844" stroke="none"/><rect width="128" height="1" x="1419" y="299.844" stroke="none"/><rect width="129" height="1" x="1419" y="490.719" fill="#ADA58C" stroke="none"/><rect width="1" height="190.875" x="1547" y="299.844" fill="#ADA58C" stroke="none"/></g></g><g id="y.node.36"><g fill="#F8ECC9" stroke="#F8ECC9" transform="matrix(0.9737,0,0,0.9737,20.4481,9.7372)"><rect width="100" height="75.938" x="1433" y="400.781" stroke="none"/></g><g id="bla"><g fill="#404040" stroke="#404040" transform="matrix(0.9737,0,0,0.9737,20.4481,9.7372)"><rect width="100" height="4" x="1433" y="400.781" stroke="none"/></g></g><g fill="#fff" stroke="#fff" transform="matrix(0.9737,0,0,0.9737,20.4481,9.7372)"><rect width="1" height="75.938" x="1433" y="400.781" stroke="none"/><rect width="98" height="1" x="1434" y="400.781" stroke="none"/><rect width="99" height="1" x="1434" y="475.719" fill="#ADA58C" stroke="none"/><rect width="1" height="74.938" x="1532" y="400.781" fill="#ADA58C" stroke="none"/></g></g><g id="y.node.37"><g fill="#fff" stroke="#fff" transform="matrix(0.9737,0,0,0.9737,20.4481,9.7372)"><rect width="70" height="41" x="1448" y="419" stroke="none"/><rect width="70" height="41" x="1448" y="419" fill="none" stroke="#000"/></g><g id="bla"><g font-family="sans-serif"><text x="1459" y="437.92" stroke="none" transform="matrix(0.9737,0,0,0.9737,20.4481,9.7372)" xml:space="preserve">XFCTST</text><text x="1455" y="451.889" stroke="none" transform="matrix(0.9737,0,0,0.9737,20.4481,9.7372)" xml:space="preserve">(xstaff.f)</text></g></g></g><g id="y.node.35"><g fill="#fff" stroke="#fff" transform="matrix(0.9737,0,0,0.9737,20.4481,9.7372)"><rect width="70" height="41" x="1448" y="318" stroke="none"/><rect width="70" height="41" x="1448" y="318" fill="none" stroke="#000"/></g><g id="bla"><g font-family="sans-serif"><text x="1461" y="336.982" stroke="none" transform="matrix(0.9737,0,0,0.9737,20.4481,9.7372)" xml:space="preserve">XANLM</text><text x="1455" y="350.951" stroke="none" transform="matrix(0.9737,0,0,0.9737,20.4481,9.7372)" xml:space="preserve">(xstaff.f)</text></g></g></g><g id="y.node.32"><g fill="#F8ECC9" stroke="#F8ECC9" transform="matrix(0.9737,0,0,0.9737,20.4481,9.7372)"><rect width="100" height="75.938" x="1298" y="357.813" stroke="none"/></g><g id="bla"><g fill="#404040" stroke="#404040" transform="matrix(0.9737,0,0,0.9737,20.4481,9.7372)"><rect width="100" height="4" x="1298" y="357.813" stroke="none"/></g></g><g fill="#fff" stroke="#fff" transform="matrix(0.9737,0,0,0.9737,20.4481,9.7372)"><rect width="1" height="75.938" x="1298" y="357.813" stroke="none"/><rect width="98" height="1" x="1299" y="357.813" stroke="none"/><rect width="99" height="1" x="1299" y="432.75" fill="#ADA58C" stroke="none"/><rect width="1" height="74.938" x="1397" y="357.813" fill="#ADA58C" stroke="none"/></g></g><g id="y.node.33"><g fill="#fff" stroke="#fff" transform="matrix(0.9737,0,0,0.9737,20.4481,9.7372)"><rect width="70" height="41" x="1313" y="376" stroke="none"/><rect width="70" height="41" x="1313" y="376" fill="none" stroke="#000"/></g><g id="bla"><g font-family="sans-serif"><text x="1322" y="394.951" stroke="none" transform="matrix(0.9737,0,0,0.9737,20.4481,9.7372)" xml:space="preserve">ROTXAN</text><text x="1320" y="408.92" stroke="none" transform="matrix(0.9737,0,0,0.9737,20.4481,9.7372)" xml:space="preserve">(xstaff.f)</text></g></g></g><g id="y.node.30"><g fill="#F8ECC9" stroke="#F8ECC9" transform="matrix(0.9737,0,0,0.9737,20.4481,9.7372)"><rect width="100" height="75.938" x="1178" y="357.813" stroke="none"/></g><g id="bla"><g fill="#404040" stroke="#404040" transform="matrix(0.9737,0,0,0.9737,20.4481,9.7372)"><rect width="100" height="4" x="1178" y="357.813" stroke="none"/></g></g><g fill="#fff" stroke="#fff" transform="matrix(0.9737,0,0,0.9737,20.4481,9.7372)"><rect width="1" height="75.938" x="1178" y="357.813" stroke="none"/><rect width="98" height="1" x="1179" y="357.813" stroke="none"/><rect width="99" height="1" x="1179" y="432.75" fill="#ADA58C" stroke="none"/><rect width="1" height="74.938" x="1277" y="357.813" fill="#ADA58C" stroke="none"/></g></g><g id="y.node.31"><g fill="#fff" stroke="#fff" transform="matrix(0.9737,0,0,0.9737,20.4481,9.7372)"><rect width="70" height="41" x="1193" y="376" stroke="none"/><rect width="70" height="41" x="1193" y="376" fill="none" stroke="#000"/></g><g id="bla"><g font-family="sans-serif"><text x="1204.5" y="394.951" stroke="none" transform="matrix(0.9737,0,0,0.9737,20.4481,9.7372)" xml:space="preserve">ROTINT</text><text x="1200" y="408.92" stroke="none" transform="matrix(0.9737,0,0,0.9737,20.4481,9.7372)" xml:space="preserve">(xstaff.f)</text></g></g></g><g id="y.node.28"><g fill="#F8ECC9" stroke="#F8ECC9" transform="matrix(0.9737,0,0,0.9737,20.4481,9.7372)"><rect width="100" height="75.938" x="1058" y="357.813" stroke="none"/></g><g id="bla"><g fill="#404040" stroke="#404040" transform="matrix(0.9737,0,0,0.9737,20.4481,9.7372)"><rect width="100" height="4" x="1058" y="357.813" stroke="none"/></g></g><g fill="#fff" stroke="#fff" transform="matrix(0.9737,0,0,0.9737,20.4481,9.7372)"><rect width="1" height="75.938" x="1058" y="357.813" stroke="none"/><rect width="98" height="1" x="1059" y="357.813" stroke="none"/><rect width="99" height="1" x="1059" y="432.75" fill="#ADA58C" stroke="none"/><rect width="1" height="74.938" x="1157" y="357.813" fill="#ADA58C" stroke="none"/></g></g><g id="y.node.29"><g fill="#fff" stroke="#fff" transform="matrix(0.9737,0,0,0.9737,20.4481,9.7372)"><rect width="70" height="41" x="1073" y="376" stroke="none"/><rect width="70" height="41" x="1073" y="376" fill="none" stroke="#000"/></g><g id="bla"><g font-family="sans-serif"><text x="1081" y="394.951" stroke="none" transform="matrix(0.9737,0,0,0.9737,20.4481,9.7372)" xml:space="preserve">GETANG</text><text x="1080" y="408.92" stroke="none" transform="matrix(0.9737,0,0,0.9737,20.4481,9.7372)" xml:space="preserve">(xstaff.f)</text></g></g></g><g id="y.node.26"><g fill="#F8ECC9" stroke="#F8ECC9" transform="matrix(0.9737,0,0,0.9737,20.4481,9.7372)"><rect width="100" height="75.938" x="938" y="357.813" stroke="none"/></g><g id="bla"><g fill="#404040" stroke="#404040" transform="matrix(0.9737,0,0,0.9737,20.4481,9.7372)"><rect width="100" height="4" x="938" y="357.813" stroke="none"/></g></g><g fill="#fff" stroke="#fff" transform="matrix(0.9737,0,0,0.9737,20.4481,9.7372)"><rect width="1" height="75.938" x="938" y="357.813" stroke="none"/><rect width="98" height="1" x="939" y="357.813" stroke="none"/><rect width="99" height="1" x="939" y="432.75" fill="#ADA58C" stroke="none"/><rect width="1" height="74.938" x="1037" y="357.813" fill="#ADA58C" stroke="none"/></g></g><g id="y.node.27"><g fill="#fff" stroke="#fff" transform="matrix(0.9737,0,0,0.9737,20.4481,9.7372)"><rect width="70" height="41" x="953" y="376" stroke="none"/><rect width="70" height="41" x="953" y="376" fill="none" stroke="#000"/></g><g id="bla"><g font-family="sans-serif"><text x="962" y="394.951" stroke="none" transform="matrix(0.9737,0,0,0.9737,20.4481,9.7372)" xml:space="preserve">ATHEAP</text><text x="960" y="408.92" stroke="none" transform="matrix(0.9737,0,0,0.9737,20.4481,9.7372)" xml:space="preserve">(xstaff.f)</text></g></g></g><g id="y.node.25"><g fill="#fff" stroke="#fff" transform="matrix(0.9737,0,0,0.9737,20.4481,9.7372)"><rect width="71" height="41" x="1192" y="217" stroke="none"/><rect width="71" height="41" x="1192" y="217" fill="none" stroke="#000"/></g><g id="bla"><g font-family="sans-serif"><text x="1206.5" y="236.045" stroke="none" transform="matrix(0.9737,0,0,0.9737,20.4481,9.7372)" xml:space="preserve">YPREP</text><text x="1199.5" y="250.014" stroke="none" transform="matrix(0.9737,0,0,0.9737,20.4481,9.7372)" xml:space="preserve">(yprep.f)</text></g></g></g><g id="y.node.2"><g fill="#F8ECC9" stroke="#F8ECC9" transform="matrix(0.9737,0,0,0.9737,20.4481,9.7372)"><rect width="888" height="503.75" x="15" y="100.938" stroke="none"/></g><g id="bla"><g fill="#404040" stroke="#404040" transform="matrix(0.9737,0,0,0.9737,20.4481,9.7372)"><rect width="888" height="4" x="15" y="100.938" stroke="none"/></g></g><g fill="#fff" stroke="#fff" transform="matrix(0.9737,0,0,0.9737,20.4481,9.7372)"><rect width="1" height="503.75" x="15" y="100.938" stroke="none"/><rect width="886" height="1" x="16" y="100.938" stroke="none"/><rect width="887" height="1" x="16" y="603.688" fill="#ADA58C" stroke="none"/><rect width="1" height="502.75" x="902" y="100.938" fill="#ADA58C" stroke="none"/></g></g><g id="y.node.22"><g fill="#F8ECC9" stroke="#F8ECC9" transform="matrix(0.9737,0,0,0.9737,20.4481,9.7372)"><rect width="118" height="75.938" x="419" y="221.875" stroke="none"/></g><g id="bla"><g fill="#404040" stroke="#404040" transform="matrix(0.9737,0,0,0.9737,20.4481,9.7372)"><rect width="118" height="4" x="419" y="221.875" stroke="none"/></g></g><g fill="#fff" stroke="#fff" transform="matrix(0.9737,0,0,0.9737,20.4481,9.7372)"><rect width="1" height="75.938" x="419" y="221.875" stroke="none"/><rect width="116" height="1" x="420" y="221.875" stroke="none"/><rect width="117" height="1" x="420" y="296.813" fill="#ADA58C" stroke="none"/><rect width="1" height="74.938" x="536" y="221.875" fill="#ADA58C" stroke="none"/></g></g><g id="y.node.23"><g fill="#fff" stroke="#fff" transform="matrix(0.9737,0,0,0.9737,20.4481,9.7372)"><rect width="88" height="41" x="434" y="240" stroke="none"/><rect width="88" height="41" x="434" y="240" fill="none" stroke="#000"/></g><g id="bla"><g font-family="sans-serif"><text x="457" y="259.014" stroke="none" transform="matrix(0.9737,0,0,0.9737,20.4481,9.7372)" xml:space="preserve">XGLLM</text><text x="441" y="272.982" stroke="none" transform="matrix(0.9737,0,0,0.9737,20.4481,9.7372)" xml:space="preserve">(fmspack.f)</text></g></g></g><g id="y.node.20"><g fill="#F8ECC9" stroke="#F8ECC9" transform="matrix(0.9737,0,0,0.9737,20.4481,9.7372)"><rect width="118" height="75.938" x="281" y="221.875" stroke="none"/></g><g id="bla"><g fill="#404040" stroke="#404040" transform="matrix(0.9737,0,0,0.9737,20.4481,9.7372)"><rect width="118" height="4" x="281" y="221.875" stroke="none"/></g></g><g fill="#fff" stroke="#fff" transform="matrix(0.9737,0,0,0.9737,20.4481,9.7372)"><rect width="1" height="75.938" x="281" y="221.875" stroke="none"/><rect width="116" height="1" x="282" y="221.875" stroke="none"/><rect width="117" height="1" x="282" y="296.813" fill="#ADA58C" stroke="none"/><rect width="1" height="74.938" x="398" y="221.875" fill="#ADA58C" stroke="none"/></g></g><g id="y.node.21"><g fill="#fff" stroke="#fff" transform="matrix(0.9737,0,0,0.9737,20.4481,9.7372)"><rect width="88" height="41" x="296" y="240" stroke="none"/><rect width="88" height="41" x="296" y="240" fill="none" stroke="#000"/></g><g id="bla"><g font-family="sans-serif"><text x="318" y="259.014" stroke="none" transform="matrix(0.9737,0,0,0.9737,20.4481,9.7372)" xml:space="preserve">XCLMZ</text><text x="303" y="272.982" stroke="none" transform="matrix(0.9737,0,0,0.9737,20.4481,9.7372)" xml:space="preserve">(fmspack.f)</text></g></g></g><g id="y.node.18"><g fill="#F8ECC9" stroke="#F8ECC9" transform="matrix(0.9737,0,0,0.9737,20.4481,9.7372)"><rect width="91" height="115.938" x="797" y="201.875" stroke="none"/></g><g id="bla"><g fill="#404040" stroke="#404040" transform="matrix(0.9737,0,0,0.9737,20.4481,9.7372)"><rect width="91" height="4" x="797" y="201.875" stroke="none"/></g></g><g fill="#fff" stroke="#fff" transform="matrix(0.9737,0,0,0.9737,20.4481,9.7372)"><rect width="1" height="115.938" x="797" y="201.875" stroke="none"/><rect width="89" height="1" x="798" y="201.875" stroke="none"/><rect width="90" height="1" x="798" y="316.813" fill="#ADA58C" stroke="none"/><rect width="1" height="114.938" x="887" y="201.875" fill="#ADA58C" stroke="none"/></g></g><g id="y.node.19"><g fill="#fff" stroke="#fff" transform="matrix(0.9737,0,0,0.9737,20.4481,9.7372)"><rect width="61" height="41" x="812" y="220" stroke="none"/><rect width="61" height="41" x="812" y="220" fill="none" stroke="#000"/></g><g id="bla"><g font-family="sans-serif"><text x="824.5" y="239.014" stroke="none" transform="matrix(0.9737,0,0,0.9737,20.4481,9.7372)" xml:space="preserve">GGTF</text><text x="819" y="252.982" stroke="none" transform="matrix(0.9737,0,0,0.9737,20.4481,9.7372)" xml:space="preserve">(ggtf.f)</text></g></g></g><g id="y.node.16"><g fill="#F8ECC9" stroke="#F8ECC9" transform="matrix(0.9737,0,0,0.9737,20.4481,9.7372)"><rect width="98" height="115.938" x="678" y="201.875" stroke="none"/></g><g id="bla"><g fill="#404040" stroke="#404040" transform="matrix(0.9737,0,0,0.9737,20.4481,9.7372)"><rect width="98" height="4" x="678" y="201.875" stroke="none"/></g></g><g fill="#fff" stroke="#fff" transform="matrix(0.9737,0,0,0.9737,20.4481,9.7372)"><rect width="1" height="115.938" x="678" y="201.875" stroke="none"/><rect width="96" height="1" x="679" y="201.875" stroke="none"/><rect width="97" height="1" x="679" y="316.813" fill="#ADA58C" stroke="none"/><rect width="1" height="114.938" x="775" y="201.875" fill="#ADA58C" stroke="none"/></g></g><g id="y.node.17"><g fill="#fff" stroke="#fff" transform="matrix(0.9737,0,0,0.9737,20.4481,9.7372)"><rect width="68" height="41" x="693" y="220" stroke="none"/><rect width="68" height="41" x="693" y="220" fill="none" stroke="#000"/></g><g id="bla"><g font-family="sans-serif"><text x="707" y="239.014" stroke="none" transform="matrix(0.9737,0,0,0.9737,20.4481,9.7372)" xml:space="preserve">GGRM</text><text x="700" y="252.982" stroke="none" transform="matrix(0.9737,0,0,0.9737,20.4481,9.7372)" xml:space="preserve">(ggrm.f)</text></g></g></g><g id="y.node.14"><g fill="#F8ECC9" stroke="#F8ECC9" transform="matrix(0.9737,0,0,0.9737,20.4481,9.7372)"><rect width="93" height="75.938" x="168" y="221.875" stroke="none"/></g><g id="bla"><g fill="#404040" stroke="#404040" transform="matrix(0.9737,0,0,0.9737,20.4481,9.7372)"><rect width="93" height="4" x="168" y="221.875" stroke="none"/></g></g><g fill="#fff" stroke="#fff" transform="matrix(0.9737,0,0,0.9737,20.4481,9.7372)"><rect width="1" height="75.938" x="168" y="221.875" stroke="none"/><rect width="91" height="1" x="169" y="221.875" stroke="none"/><rect width="92" height="1" x="169" y="296.813" fill="#ADA58C" stroke="none"/><rect width="1" height="74.938" x="260" y="221.875" fill="#ADA58C" stroke="none"/></g></g><g id="y.node.15"><g fill="#fff" stroke="#fff" transform="matrix(0.9737,0,0,0.9737,20.4481,9.7372)"><rect width="63" height="41" x="183" y="240" stroke="none"/><rect width="63" height="41" x="183" y="240" fill="none" stroke="#000"/></g><g id="bla"><g font-family="sans-serif"><text x="196" y="259.014" stroke="none" transform="matrix(0.9737,0,0,0.9737,20.4481,9.7372)" xml:space="preserve">GGLU</text><text x="190" y="272.982" stroke="none" transform="matrix(0.9737,0,0,0.9737,20.4481,9.7372)" xml:space="preserve">(gglu.f)</text></g></g></g><g id="y.node.12"><g fill="#F8ECC9" stroke="#F8ECC9" transform="matrix(0.9737,0,0,0.9737,20.4481,9.7372)"><rect width="101" height="115.938" x="557" y="201.875" stroke="none"/></g><g id="bla"><g fill="#404040" stroke="#404040" transform="matrix(0.9737,0,0,0.9737,20.4481,9.7372)"><rect width="101" height="4" x="557" y="201.875" stroke="none"/></g></g><g fill="#fff" stroke="#fff" transform="matrix(0.9737,0,0,0.9737,20.4481,9.7372)"><rect width="1" height="115.938" x="557" y="201.875" stroke="none"/><rect width="99" height="1" x="558" y="201.875" stroke="none"/><rect width="100" height="1" x="558" y="316.813" fill="#ADA58C" stroke="none"/><rect width="1" height="114.938" x="657" y="201.875" fill="#ADA58C" stroke="none"/></g></g><g id="y.node.13"><g fill="#fff" stroke="#fff" transform="matrix(0.9737,0,0,0.9737,20.4481,9.7372)"><rect width="71" height="41" x="572" y="220" stroke="none"/><rect width="71" height="41" x="572" y="220" fill="none" stroke="#000"/></g><g id="bla"><g font-family="sans-serif"><text x="587" y="239.014" stroke="none" transform="matrix(0.9737,0,0,0.9737,20.4481,9.7372)" xml:space="preserve">GGGM</text><text x="579" y="252.982" stroke="none" transform="matrix(0.9737,0,0,0.9737,20.4481,9.7372)" xml:space="preserve">(gggm.f)</text></g></g></g><g id="y.node.6"><g fill="#F8ECC9" stroke="#F8ECC9" transform="matrix(0.9737,0,0,0.9737,20.4481,9.7372)"><rect width="246" height="231.875" x="599.074" y="357.813" stroke="none"/></g><g id="bla"><g fill="#404040" stroke="#404040" transform="matrix(0.9737,0,0,0.9737,20.4481,9.7372)"><rect width="246" height="4" x="599.074" y="357.813" stroke="none"/></g></g><g fill="#fff" stroke="#fff" transform="matrix(0.9737,0,0,0.9737,20.4481,9.7372)"><rect width="1" height="231.875" x="599.074" y="357.813" stroke="none"/><rect width="244" height="1" x="600.074" y="357.813" stroke="none"/><rect width="245" height="1" x="600.074" y="588.688" fill="#ADA58C" stroke="none"/><rect width="1" height="230.875" x="844.074" y="357.813" fill="#ADA58C" stroke="none"/></g></g><g id="y.node.10"><g fill="#F8ECC9" stroke="#F8ECC9" transform="matrix(0.9737,0,0,0.9737,20.4481,9.7372)"><rect width="98" height="115.938" x="732.074" y="458.75" stroke="none"/></g><g id="bla"><g fill="#404040" stroke="#404040" transform="matrix(0.9737,0,0,0.9737,20.4481,9.7372)"><rect width="98" height="4" x="732.074" y="458.75" stroke="none"/></g></g><g fill="#fff" stroke="#fff" transform="matrix(0.9737,0,0,0.9737,20.4481,9.7372)"><rect width="1" height="115.938" x="732.074" y="458.75" stroke="none"/><rect width="96" height="1" x="733.074" y="458.75" stroke="none"/><rect width="97" height="1" x="733.074" y="573.688" fill="#ADA58C" stroke="none"/><rect width="1" height="114.938" x="829.074" y="458.75" fill="#ADA58C" stroke="none"/></g></g><g id="y.node.11"><g fill="#fff" stroke="#fff" transform="matrix(0.9737,0,0,0.9737,20.4481,9.7372)"><rect width="68" height="41" x="747" y="517" stroke="none"/><rect width="68" height="41" x="747" y="517" fill="none" stroke="#000"/></g><g id="bla"><g font-family="sans-serif"><text x="754.574" y="535.889" stroke="none" transform="matrix(0.9737,0,0,0.9737,20.4481,9.7372)" xml:space="preserve">MATVEC</text><text x="754.074" y="549.857" stroke="none" transform="matrix(0.9737,0,0,0.9737,20.4481,9.7372)" xml:space="preserve">(ggrm.f)</text></g></g></g><g id="y.node.8"><g fill="#F8ECC9" stroke="#F8ECC9" transform="matrix(0.9737,0,0,0.9737,20.4481,9.7372)"><rect width="98" height="115.938" x="614.074" y="458.75" stroke="none"/></g><g id="bla"><g fill="#404040" stroke="#404040" transform="matrix(0.9737,0,0,0.9737,20.4481,9.7372)"><rect width="98" height="4" x="614.074" y="458.75" stroke="none"/></g></g><g fill="#fff" stroke="#fff" transform="matrix(0.9737,0,0,0.9737,20.4481,9.7372)"><rect width="1" height="115.938" x="614.074" y="458.75" stroke="none"/><rect width="96" height="1" x="615.074" y="458.75" stroke="none"/><rect width="97" height="1" x="615.074" y="573.688" fill="#ADA58C" stroke="none"/><rect width="1" height="114.938" x="711.074" y="458.75" fill="#ADA58C" stroke="none"/></g></g><g id="y.node.9"><g fill="#fff" stroke="#fff" transform="matrix(0.9737,0,0,0.9737,20.4481,9.7372)"><rect width="68" height="41" x="629" y="517" stroke="none"/><rect width="68" height="41" x="629" y="517" fill="none" stroke="#000"/></g><g id="bla"><g font-family="sans-serif"><text x="644.574" y="535.889" stroke="none" transform="matrix(0.9737,0,0,0.9737,20.4481,9.7372)" xml:space="preserve">CDOT</text><text x="636.074" y="549.857" stroke="none" transform="matrix(0.9737,0,0,0.9737,20.4481,9.7372)" xml:space="preserve">(ggrm.f)</text></g></g></g><g id="y.node.7"><g fill="#fff" stroke="#fff" transform="matrix(0.9737,0,0,0.9737,20.4481,9.7372)"><rect width="63" height="41" x="686" y="376" stroke="none"/><rect width="63" height="41" x="686" y="376" fill="none" stroke="#000"/></g><g id="bla"><g font-family="sans-serif"><text x="701.074" y="394.951" stroke="none" transform="matrix(0.9737,0,0,0.9737,20.4481,9.7372)" xml:space="preserve">GGBI</text><text x="693.074" y="408.92" stroke="none" transform="matrix(0.9737,0,0,0.9737,20.4481,9.7372)" xml:space="preserve">(ggbi.f)</text></g></g></g><g id="y.node.4"><g fill="#F8ECC9" stroke="#F8ECC9" transform="matrix(0.9737,0,0,0.9737,20.4481,9.7372)"><rect width="118" height="75.938" x="30" y="221.875" stroke="none"/></g><g id="bla"><g fill="#404040" stroke="#404040" transform="matrix(0.9737,0,0,0.9737,20.4481,9.7372)"><rect width="118" height="4" x="30" y="221.875" stroke="none"/></g></g><g fill="#fff" stroke="#fff" transform="matrix(0.9737,0,0,0.9737,20.4481,9.7372)"><rect width="1" height="75.938" x="30" y="221.875" stroke="none"/><rect width="116" height="1" x="31" y="221.875" stroke="none"/><rect width="117" height="1" x="31" y="296.813" fill="#ADA58C" stroke="none"/><rect width="1" height="74.938" x="147" y="221.875" fill="#ADA58C" stroke="none"/></g></g><g id="y.node.5"><g fill="#fff" stroke="#fff" transform="matrix(0.9737,0,0,0.9737,20.4481,9.7372)"><rect width="88" height="41" x="45" y="240" stroke="none"/><rect width="88" height="41" x="45" y="240" fill="none" stroke="#000"/></g><g id="bla"><g font-family="sans-serif"><text x="64" y="259.014" stroke="none" transform="matrix(0.9737,0,0,0.9737,20.4481,9.7372)" xml:space="preserve">GETKTS</text><text x="52" y="272.982" stroke="none" transform="matrix(0.9737,0,0,0.9737,20.4481,9.7372)" xml:space="preserve">(fmspack.f)</text></g></g></g><g id="y.node.3"><g fill="#fff" stroke="#fff" transform="matrix(0.9737,0,0,0.9737,20.4481,9.7372)"><rect width="88" height="41" x="498" y="119" stroke="none"/><rect width="88" height="41" x="498" y="119" fill="none" stroke="#000"/></g><g id="bla"><g font-family="sans-serif"><text x="528.25" y="138.076" stroke="none" transform="matrix(0.9737,0,0,0.9737,20.4481,9.7372)" xml:space="preserve">FMS</text><text x="505.75" y="152.045" stroke="none" transform="matrix(0.9737,0,0,0.9737,20.4481,9.7372)" xml:space="preserve">(fmspack.f)</text></g></g></g><g id="y.node.1"><g fill="#fff" stroke="#fff" transform="matrix(0.9737,0,0,0.9737,20.4481,9.7372)"><rect width="69" height="41" x="850" y="19" stroke="none"/><rect width="69" height="41" x="850" y="19" fill="none" stroke="#000"/></g><g id="bla"><g font-family="sans-serif"><text x="865.375" y="37.139" stroke="none" transform="matrix(0.9737,0,0,0.9737,20.4481,9.7372)" xml:space="preserve">FMSIE</text><text x="857.875" y="51.107" stroke="none" transform="matrix(0.9737,0,0,0.9737,20.4481,9.7372)" xml:space="preserve">(fmsie.f)</text></g></g></g><g id="y.node.38"><g fill="#F8ECC9" stroke="#F8ECC9" transform="matrix(0.9737,0,0,0.9737,20.4481,9.7372)"><rect width="98" height="75.938" x="145" y="664.688" stroke="none"/></g><g id="bla"><g fill="#404040" stroke="#404040" transform="matrix(0.9737,0,0,0.9737,20.4481,9.7372)"><rect width="98" height="4" x="145" y="664.688" stroke="none"/></g></g><g fill="#fff" stroke="#fff" transform="matrix(0.9737,0,0,0.9737,20.4481,9.7372)"><rect width="1" height="75.938" x="145" y="664.688" stroke="none"/><rect width="96" height="1" x="146" y="664.688" stroke="none"/><rect width="97" height="1" x="146" y="739.625" fill="#ADA58C" stroke="none"/><rect width="1" height="74.938" x="242" y="664.688" fill="#ADA58C" stroke="none"/></g></g><g id="y.node.39"><g fill="#fff" stroke="#fff" transform="matrix(0.9737,0,0,0.9737,20.4481,9.7372)"><rect width="68" height="41" x="160" y="683" stroke="none"/><rect width="68" height="41" x="160" y="683" fill="none" stroke="#000"/></g><g id="bla"><g font-family="sans-serif"><text x="168" y="701.826" stroke="none" transform="matrix(0.9737,0,0,0.9737,20.4481,9.7372)" xml:space="preserve">VECVEC</text><text x="167" y="715.795" stroke="none" transform="matrix(0.9737,0,0,0.9737,20.4481,9.7372)" xml:space="preserve">(ggrm.f)</text></g></g></g><g id="y.node.40"><g fill="#F8ECC9" stroke="#F8ECC9" transform="matrix(0.9737,0,0,0.9737,20.4481,9.7372)"><rect width="100" height="75.938" x="0" y="664.688" stroke="none"/></g><g id="bla"><g fill="#404040" stroke="#404040" transform="matrix(0.9737,0,0,0.9737,20.4481,9.7372)"><rect width="100" height="4" x="0" y="664.688" stroke="none"/></g></g><g fill="#fff" stroke="#fff" transform="matrix(0.9737,0,0,0.9737,20.4481,9.7372)"><rect width="1" height="75.938" x="0" y="664.688" stroke="none"/><rect width="98" height="1" x="1" y="664.688" stroke="none"/><rect width="99" height="1" x="1" y="739.625" fill="#ADA58C" stroke="none"/><rect width="1" height="74.938" x="99" y="664.688" fill="#ADA58C" stroke="none"/></g></g><g id="y.node.41"><g fill="#fff" stroke="#fff" transform="matrix(0.9737,0,0,0.9737,20.4481,9.7372)"><rect width="70" height="41" x="15" y="683" stroke="none"/><rect width="70" height="41" x="15" y="683" fill="none" stroke="#000"/></g><g id="bla"><g font-family="sans-serif"><text x="24.5" y="701.826" stroke="none" transform="matrix(0.9737,0,0,0.9737,20.4481,9.7372)" xml:space="preserve">SORTAT</text><text x="22" y="715.795" stroke="none" transform="matrix(0.9737,0,0,0.9737,20.4481,9.7372)" xml:space="preserve">(xstaff.f)</text></g></g></g><g id="y.edge.0"><g stroke-linecap="butt" stroke-miterlimit="1.45"><path fill="none" d="M868.0853 60.9424 L542.75 100.9375 L542.75 111.9004" transform="matrix(0.9737,0,0,0.9737,20.4481,9.7372)"/><path stroke="none" d="M542.75 119.9004 L547.75 107.9004 L542.75 110.9004 L537.75 107.9004 Z" transform="matrix(0.9737,0,0,0.9737,20.4481,9.7372)"/></g></g><g id="y.edge.1"><g stroke-linecap="butt" stroke-miterlimit="1.45"><path fill="none" d="M902.6647 60.9424 L1228 100.9375 L1228 209.8777" transform="matrix(0.9737,0,0,0.9737,20.4481,9.7372)"/><path stroke="none" d="M1228 217.8777 L1233 205.8777 L1228 208.8777 L1223 205.8777 Z" transform="matrix(0.9737,0,0,0.9737,20.4481,9.7372)"/></g></g><g id="y.edge.2"><g stroke-linecap="butt" stroke-miterlimit="1.45"><path fill="none" d="M504.2247 161.8774 L89 201.875 L89 232.8369" transform="matrix(0.9737,0,0,0.9737,20.4481,9.7372)"/><path stroke="none" d="M89 240.8369 L94 228.8369 L89 231.8369 L84 228.8369 Z" transform="matrix(0.9737,0,0,0.9737,20.4481,9.7372)"/></g></g><g id="y.edge.3"><g stroke-linecap="butt" stroke-miterlimit="1.45"><path fill="none" d="M570.2764 161.8799 L786.5 201.875 L786.5 317.8125 L717.5739 357.8125 L717.5739 368.7754" transform="matrix(0.9737,0,0,0.9737,20.4481,9.7372)"/><path stroke="none" d="M717.5739 376.7754 L722.5739 364.7754 L717.5739 367.7754 L712.5739 364.7754 Z" transform="matrix(0.9737,0,0,0.9737,20.4481,9.7372)"/></g></g><g id="y.edge.4"><g stroke-linecap="butt" stroke-miterlimit="1.45"><path fill="none" d="M548.2789 161.8945 L607.5 201.875 L607.5 212.8379" transform="matrix(0.9737,0,0,0.9737,20.4481,9.7372)"/><path stroke="none" d="M607.5 220.8379 L612.5 208.8379 L607.5 211.8379 L602.5 208.8379 Z" transform="matrix(0.9737,0,0,0.9737,20.4481,9.7372)"/></g></g><g id="y.edge.5"><g stroke-linecap="butt" stroke-miterlimit="1.45"><path fill="none" d="M515.2133 161.8799 L214.5 201.875 L214.5 232.8369" transform="matrix(0.9737,0,0,0.9737,20.4481,9.7372)"/><path stroke="none" d="M214.5 240.8369 L219.5 228.8369 L214.5 231.8369 L209.5 228.8369 Z" transform="matrix(0.9737,0,0,0.9737,20.4481,9.7372)"/></g></g><g id="y.edge.6"><g stroke-linecap="butt" stroke-miterlimit="1.45"><path fill="none" d="M559.291 161.8848 L727 201.875 L727 212.8379" transform="matrix(0.9737,0,0,0.9737,20.4481,9.7372)"/><path stroke="none" d="M727 220.8379 L732 208.8379 L727 211.8379 L722 208.8379 Z" transform="matrix(0.9737,0,0,0.9737,20.4481,9.7372)"/></g></g><g id="y.edge.7"><g stroke-linecap="butt" stroke-miterlimit="1.45"><path fill="none" d="M581.2819 161.8799 L842.5 201.875 L842.5 212.8379" transform="matrix(0.9737,0,0,0.9737,20.4481,9.7372)"/><path stroke="none" d="M842.5 220.8379 L847.5 208.8379 L842.5 211.8379 L837.5 208.8379 Z" transform="matrix(0.9737,0,0,0.9737,20.4481,9.7372)"/></g></g><g id="y.edge.8"><g stroke-linecap="butt" stroke-miterlimit="1.45"><path fill="none" d="M526.2045 161.8848 L340 201.875 L340 232.8369" transform="matrix(0.9737,0,0,0.9737,20.4481,9.7372)"/><path stroke="none" d="M340 240.8369 L345 228.8369 L340 231.8369 L335 228.8369 Z" transform="matrix(0.9737,0,0,0.9737,20.4481,9.7372)"/></g></g><g id="y.edge.9"><g stroke-linecap="butt" stroke-miterlimit="1.45"><path fill="none" d="M537.2211 161.8945 L478 201.875 L478 232.8369" transform="matrix(0.9737,0,0,0.9737,20.4481,9.7372)"/><path stroke="none" d="M478 240.8369 L483 228.8369 L478 231.8369 L473 228.8369 Z" transform="matrix(0.9737,0,0,0.9737,20.4481,9.7372)"/></g></g><g id="y.edge.10"><g stroke-linecap="butt" stroke-miterlimit="1.45"><path fill="none" d="M701.8074 418.7695 L668.0739 458.75 L668.0739 477.75 L670.8731 509.7414" transform="matrix(0.9737,0,0,0.9737,20.4481,9.7372)"/><path stroke="none" d="M671.5704 517.7109 L675.5054 505.3208 L670.7859 508.7452 L665.5435 506.1924 Z" transform="matrix(0.9737,0,0,0.9737,20.4481,9.7372)"/></g></g><g id="y.edge.11"><g stroke-linecap="butt" stroke-miterlimit="1.45"><path fill="none" d="M733.3496 418.7695 L786.0739 458.75 L786.0739 477.75 L788.8731 509.7414" transform="matrix(0.9737,0,0,0.9737,20.4481,9.7372)"/><path stroke="none" d="M789.5704 517.7109 L793.5054 505.3208 L788.7859 508.7452 L783.5435 506.1924 Z" transform="matrix(0.9737,0,0,0.9737,20.4481,9.7372)"/></g></g><g id="y.edge.12"><g stroke-linecap="butt" stroke-miterlimit="1.45"><path fill="none" d="M589.7625 262.8516 L602.5 302.8125 L602.5 317.8125 L642.0739 357.8125 L642.0739 418.75 L648.0739 458.75 L648.0739 477.75 L639.6153 509.9731" transform="matrix(0.9737,0,0,0.9737,20.4481,9.7372)"/><path stroke="none" d="M637.5841 517.7109 L645.467 507.3737 L639.8692 509.0059 L635.7947 504.8347 Z" transform="matrix(0.9737,0,0,0.9737,20.4481,9.7372)"/></g></g><g id="y.edge.13"><g stroke-linecap="butt" stroke-miterlimit="1.45"><path fill="none" d="M625.2375 262.8516 L612.5 302.8125 L612.5 317.8125 L778.1989 357.8125 L778.1989 418.75 L766.0739 458.75 L766.0739 477.75 L757.6153 509.9731" transform="matrix(0.9737,0,0,0.9737,20.4481,9.7372)"/><path stroke="none" d="M755.5841 517.7109 L763.467 507.3737 L757.8692 509.0059 L753.7947 504.8347 Z" transform="matrix(0.9737,0,0,0.9737,20.4481,9.7372)"/></g></g><g id="y.edge.14"><g stroke-linecap="butt" stroke-miterlimit="1.45"><path fill="none" d="M710.0117 262.8516 L722 302.8125 L722 317.8125 L652.0739 357.8125 L652.0739 418.75 L658.0739 458.75 L658.0739 477.75 L655.2746 509.7414" transform="matrix(0.9737,0,0,0.9737,20.4481,9.7372)"/><path stroke="none" d="M654.5773 517.7109 L660.6042 506.1924 L655.3618 508.7452 L650.6423 505.3208 Z" transform="matrix(0.9737,0,0,0.9737,20.4481,9.7372)"/></g></g><g id="y.edge.15"><g stroke-linecap="butt" stroke-miterlimit="1.45"><path fill="none" d="M743.9883 262.8516 L732 302.8125 L732 317.8125 L788.1989 357.8125 L788.1989 418.75 L776.0739 458.75 L776.0739 477.75 L773.2746 509.7414" transform="matrix(0.9737,0,0,0.9737,20.4481,9.7372)"/><path stroke="none" d="M772.5773 517.7109 L778.6042 506.1924 L773.3618 508.7452 L768.6423 505.3208 Z" transform="matrix(0.9737,0,0,0.9737,20.4481,9.7372)"/></g></g><g id="y.edge.16"><g stroke-linecap="butt" stroke-miterlimit="1.45"><path fill="none" d="M827.26 262.8516 L837.5 302.8125 L837.5 317.8125 L663.0739 357.8125 L663.0739 418.75 L678.0739 458.75 L678.0739 477.75 L686.5324 509.9731" transform="matrix(0.9737,0,0,0.9737,20.4481,9.7372)"/><path stroke="none" d="M688.5636 517.7109 L690.353 504.8347 L686.2785 509.0059 L680.6807 507.3737 Z" transform="matrix(0.9737,0,0,0.9737,20.4481,9.7372)"/></g></g><g id="y.edge.17"><g stroke-linecap="butt" stroke-miterlimit="1.45"><path fill="none" d="M857.74 262.8516 L847.5 302.8125 L847.5 317.8125 L799.1989 357.8125 L799.1989 418.75 L796.0739 458.75 L796.0739 477.75 L804.5324 509.9731" transform="matrix(0.9737,0,0,0.9737,20.4481,9.7372)"/><path stroke="none" d="M806.5636 517.7109 L808.353 504.8347 L804.2785 509.0059 L798.6807 507.3737 Z" transform="matrix(0.9737,0,0,0.9737,20.4481,9.7372)"/></g></g><g id="y.edge.18"><g stroke-linecap="butt" stroke-miterlimit="1.45"><path fill="none" d="M1199.5742 259.8486 L988 299.8438 L988 368.7749" transform="matrix(0.9737,0,0,0.9737,20.4481,9.7372)"/><path stroke="none" d="M988 376.7749 L993 364.7749 L988 367.7749 L983 364.7749 Z" transform="matrix(0.9737,0,0,0.9737,20.4481,9.7372)"/></g></g><g id="y.edge.19"><g stroke-linecap="butt" stroke-miterlimit="1.45"><path fill="none" d="M1213.7742 259.8535 L1108 299.8438 L1108 368.7749" transform="matrix(0.9737,0,0,0.9737,20.4481,9.7372)"/><path stroke="none" d="M1108 376.7749 L1113 364.7749 L1108 367.7749 L1103 364.7749 Z" transform="matrix(0.9737,0,0,0.9737,20.4481,9.7372)"/></g></g><g id="y.edge.20"><g stroke-linecap="butt" stroke-miterlimit="1.45"><path fill="none" d="M1228 259.8723 L1228 368.7839" transform="matrix(0.9737,0,0,0.9737,20.4481,9.7372)"/><path stroke="none" d="M1228 376.7839 L1233 364.7839 L1228 367.7839 L1223 364.7839 Z" transform="matrix(0.9737,0,0,0.9737,20.4481,9.7372)"/></g></g><g id="y.edge.21"><g stroke-linecap="butt" stroke-miterlimit="1.45"><path fill="none" d="M1242.2258 259.8535 L1348 299.8438 L1348 368.7749" transform="matrix(0.9737,0,0,0.9737,20.4481,9.7372)"/><path stroke="none" d="M1348 376.7749 L1353 364.7749 L1348 367.7749 L1343 364.7749 Z" transform="matrix(0.9737,0,0,0.9737,20.4481,9.7372)"/></g></g><g id="y.edge.22"><g stroke-linecap="butt" stroke-miterlimit="1.45"><path fill="none" d="M1256.4276 259.8486 L1483 299.8438 L1483 310.8066" transform="matrix(0.9737,0,0,0.9737,20.4481,9.7372)"/><path stroke="none" d="M1483 318.8066 L1488 306.8066 L1483 309.8066 L1478 306.8066 Z" transform="matrix(0.9737,0,0,0.9737,20.4481,9.7372)"/></g></g><g id="y.edge.23"><g stroke-linecap="butt" stroke-miterlimit="1.45"><path fill="none" d="M1483 360.8101 L1483 411.7524" transform="matrix(0.9737,0,0,0.9737,20.4481,9.7372)"/><path stroke="none" d="M1483 419.7524 L1488 407.7524 L1483 410.7524 L1478 407.7524 Z" transform="matrix(0.9737,0,0,0.9737,20.4481,9.7372)"/></g></g></g></svg>