<svg xmlns="http://www.w3.org/2000/svg" xmlns:xlink="http://www.w3.org/1999/xlink" width="1573" height="1396" fill="#000" fill-opacity="1" stroke="#000" stroke-dasharray="none" stroke-dashoffset="0" stroke-linecap="square" stroke-linejoin="miter" stroke-miterlimit="10" stroke-opacity="1" stroke-width="1" color-interpolation="auto" color-rendering="auto" font-family="'Dialog'" font-size="12" font-style="normal" font-weight="normal" image-rendering="auto" shape-rendering="auto" text-rendering="auto"><g><defs id="defs1"><clipPath id="clipPath1" clipPathUnits="userSpaceOnUse"><path d="M0 0 L1573 0 L1573 1396 L0 1396 L0 0 Z"/></clipPath></defs><g id="y.node.0"><g fill="#F8ECC9" stroke="#F8ECC9" transform="matrix(0.9859,0,0,0.9859,10.8446,9.8588)"><rect width="1572.165" height="1395.313" x="0" y="0" stroke="none"/></g><g id="bla"><g fill="#404040" stroke="#404040" transform="matrix(0.9859,0,0,0.9859,10.8446,9.8588)"><rect width="1572.165" height="4" x="0" y="0" stroke="none"/></g></g><g fill="#fff" stroke="#fff" transform="matrix(0.9859,0,0,0.9859,10.8446,9.8588)"><rect width="1" height="1395.313" x="0" y="0" stroke="none"/></g><g fill="#fff" stroke="#fff" transform="matrix(0.9859,0,0,0.9859,10.8446,9.8588)"><rect width="1570.165" height="1" x="1" y="0" stroke="none"/><rect width="1571.165" height="1" x="1" y="1394.313" fill="#ADA58C" stroke="none"/><rect width="1" height="1394.313" x="1571.165" y="0" fill="#ADA58C" stroke="none"/></g></g><g id="y.node.2"><g fill="#F8ECC9" stroke="#F8ECC9" transform="matrix(0.9859,0,0,0.9859,10.8446,9.8588)"><rect width="1414.165" height="1279.375" x="15" y="100.938" stroke="none"/></g><g id="bla"><g fill="#404040" stroke="#404040" transform="matrix(0.9859,0,0,0.9859,10.8446,9.8588)"><rect width="1414.165" height="4" x="15" y="100.938" stroke="none"/></g></g><g fill="#fff" stroke="#fff" transform="matrix(0.9859,0,0,0.9859,10.8446,9.8588)"><rect width="1" height="1279.375" x="15" y="100.938" stroke="none"/><rect width="1412.165" height="1" x="16" y="100.938" stroke="none"/><rect width="1413.165" height="1" x="16" y="1379.313" fill="#ADA58C" stroke="none"/><rect width="1" height="1278.375" x="1428.165" y="100.938" fill="#ADA58C" stroke="none"/></g></g><g id="y.node.13"><g fill="#F8ECC9" stroke="#F8ECC9" transform="matrix(0.9859,0,0,0.9859,10.8446,9.8588)"><rect width="557" height="503.75" x="857.165" y="201.875" stroke="none"/></g><g id="bla"><g fill="#404040" stroke="#404040" transform="matrix(0.9859,0,0,0.9859,10.8446,9.8588)"><rect width="557" height="4" x="857.165" y="201.875" stroke="none"/></g></g><g fill="#fff" stroke="#fff" transform="matrix(0.9859,0,0,0.9859,10.8446,9.8588)"><rect width="1" height="503.75" x="857.165" y="201.875" stroke="none"/><rect width="555" height="1" x="858.165" y="201.875" stroke="none"/><rect width="556" height="1" x="858.165" y="704.625" fill="#ADA58C" stroke="none"/><rect width="1" height="502.75" x="1413.165" y="201.875" fill="#ADA58C" stroke="none"/></g></g><g id="y.node.39"><g fill="#F8ECC9" stroke="#F8ECC9" transform="matrix(0.9859,0,0,0.9859,10.8446,9.8588)"><rect width="527" height="387.813" x="872.165" y="302.813" stroke="none"/></g><g id="bla"><g fill="#404040" stroke="#404040" transform="matrix(0.9859,0,0,0.9859,10.8446,9.8588)"><rect width="527" height="4" x="872.165" y="302.813" stroke="none"/></g></g><g fill="#fff" stroke="#fff" transform="matrix(0.9859,0,0,0.9859,10.8446,9.8588)"><rect width="1" height="387.813" x="872.165" y="302.813" stroke="none"/><rect width="525" height="1" x="873.165" y="302.813" stroke="none"/><rect width="526" height="1" x="873.165" y="689.625" fill="#ADA58C" stroke="none"/><rect width="1" height="386.813" x="1398.165" y="302.813" fill="#ADA58C" stroke="none"/></g></g><g id="y.node.40"><g fill="#F8ECC9" stroke="#F8ECC9" transform="matrix(0.9859,0,0,0.9859,10.8446,9.8588)"><rect width="90" height="75.938" x="887.165" y="443.75" stroke="none"/></g><g id="bla"><g fill="#404040" stroke="#404040" transform="matrix(0.9859,0,0,0.9859,10.8446,9.8588)"><rect width="90" height="4" x="887.165" y="443.75" stroke="none"/></g></g><g fill="#fff" stroke="#fff" transform="matrix(0.9859,0,0,0.9859,10.8446,9.8588)"><rect width="1" height="75.938" x="887.165" y="443.75" stroke="none"/><rect width="88" height="1" x="888.165" y="443.75" stroke="none"/><rect width="89" height="1" x="888.165" y="518.688" fill="#ADA58C" stroke="none"/><rect width="1" height="74.938" x="976.165" y="443.75" fill="#ADA58C" stroke="none"/></g></g><g id="y.node.41"><g fill="#fff" stroke="#fff" transform="matrix(0.9859,0,0,0.9859,10.8446,9.8588)"><rect width="60" height="41" x="902" y="462" stroke="none"/><rect width="60" height="41" x="902" y="462" fill="none" stroke="#000"/></g><g id="bla"><g font-family="sans-serif"><text x="916.665" y="480.889" stroke="none" transform="matrix(0.9859,0,0,0.9859,10.8446,9.8588)" xml:space="preserve">SIDX</text><text x="909.165" y="494.857" stroke="none" transform="matrix(0.9859,0,0,0.9859,10.8446,9.8588)" xml:space="preserve">(sidx.f)</text></g></g></g><g id="y.node.42"><g fill="#F8ECC9" stroke="#F8ECC9" transform="matrix(0.9859,0,0,0.9859,10.8446,9.8588)"><rect width="112" height="75.938" x="997.165" y="443.75" stroke="none"/></g><g id="bla"><g fill="#404040" stroke="#404040" transform="matrix(0.9859,0,0,0.9859,10.8446,9.8588)"><rect width="112" height="4" x="997.165" y="443.75" stroke="none"/></g></g><g fill="#fff" stroke="#fff" transform="matrix(0.9859,0,0,0.9859,10.8446,9.8588)"><rect width="1" height="75.938" x="997.165" y="443.75" stroke="none"/><rect width="110" height="1" x="998.165" y="443.75" stroke="none"/><rect width="111" height="1" x="998.165" y="518.688" fill="#ADA58C" stroke="none"/><rect width="1" height="74.938" x="1108.165" y="443.75" fill="#ADA58C" stroke="none"/></g></g><g id="y.node.43"><g fill="#fff" stroke="#fff" transform="matrix(0.9859,0,0,0.9859,10.8446,9.8588)"><rect width="82" height="41" x="1012" y="462" stroke="none"/><rect width="82" height="41" x="1012" y="462" fill="none" stroke="#000"/></g><g id="bla"><g font-family="sans-serif"><text x="1026.165" y="480.889" stroke="none" transform="matrix(0.9859,0,0,0.9859,10.8446,9.8588)" xml:space="preserve">OVP2MT</text><text x="1019.165" y="494.857" stroke="none" transform="matrix(0.9859,0,0,0.9859,10.8446,9.8588)" xml:space="preserve">(ovp2mt.f)</text></g></g></g><g id="y.node.44"><g fill="#F8ECC9" stroke="#F8ECC9" transform="matrix(0.9859,0,0,0.9859,10.8446,9.8588)"><rect width="107" height="75.938" x="1246.165" y="443.75" stroke="none"/></g><g id="bla"><g fill="#404040" stroke="#404040" transform="matrix(0.9859,0,0,0.9859,10.8446,9.8588)"><rect width="107" height="4" x="1246.165" y="443.75" stroke="none"/></g></g><g fill="#fff" stroke="#fff" transform="matrix(0.9859,0,0,0.9859,10.8446,9.8588)"><rect width="1" height="75.938" x="1246.165" y="443.75" stroke="none"/><rect width="105" height="1" x="1247.165" y="443.75" stroke="none"/><rect width="106" height="1" x="1247.165" y="518.688" fill="#ADA58C" stroke="none"/><rect width="1" height="74.938" x="1352.165" y="443.75" fill="#ADA58C" stroke="none"/></g></g><g id="y.node.45"><g fill="#fff" stroke="#fff" transform="matrix(0.9859,0,0,0.9859,10.8446,9.8588)"><rect width="77" height="41" x="1261" y="462" stroke="none"/><rect width="77" height="41" x="1261" y="462" fill="none" stroke="#000"/></g><g id="bla"><g font-family="sans-serif"><text x="1273.165" y="480.889" stroke="none" transform="matrix(0.9859,0,0,0.9859,10.8446,9.8588)" xml:space="preserve">MOVRLP</text><text x="1268.165" y="494.857" stroke="none" transform="matrix(0.9859,0,0,0.9859,10.8446,9.8588)" xml:space="preserve">(movrlp.f)</text></g></g></g><g id="y.node.46"><g fill="#F8ECC9" stroke="#F8ECC9" transform="matrix(0.9859,0,0,0.9859,10.8446,9.8588)"><rect width="97" height="75.938" x="1129.165" y="443.75" stroke="none"/></g><g id="bla"><g fill="#404040" stroke="#404040" transform="matrix(0.9859,0,0,0.9859,10.8446,9.8588)"><rect width="97" height="4" x="1129.165" y="443.75" stroke="none"/></g></g><g fill="#fff" stroke="#fff" transform="matrix(0.9859,0,0,0.9859,10.8446,9.8588)"><rect width="1" height="75.938" x="1129.165" y="443.75" stroke="none"/><rect width="95" height="1" x="1130.165" y="443.75" stroke="none"/><rect width="96" height="1" x="1130.165" y="518.688" fill="#ADA58C" stroke="none"/><rect width="1" height="74.938" x="1225.165" y="443.75" fill="#ADA58C" stroke="none"/></g></g><g id="y.node.47"><g fill="#fff" stroke="#fff" transform="matrix(0.9859,0,0,0.9859,10.8446,9.8588)"><rect width="67" height="41" x="1144" y="462" stroke="none"/><rect width="67" height="41" x="1144" y="462" fill="none" stroke="#000"/></g><g id="bla"><g font-family="sans-serif"><text x="1157.665" y="480.889" stroke="none" transform="matrix(0.9859,0,0,0.9859,10.8446,9.8588)" xml:space="preserve">FERMI</text><text x="1151.165" y="494.857" stroke="none" transform="matrix(0.9859,0,0,0.9859,10.8446,9.8588)" xml:space="preserve">(fermi.f)</text></g></g></g><g id="y.node.48"><g fill="#F8ECC9" stroke="#F8ECC9" transform="matrix(0.9859,0,0,0.9859,10.8446,9.8588)"><rect width="105" height="115.938" x="1279.165" y="559.688" stroke="none"/></g><g id="bla"><g fill="#404040" stroke="#404040" transform="matrix(0.9859,0,0,0.9859,10.8446,9.8588)"><rect width="105" height="4" x="1279.165" y="559.688" stroke="none"/></g></g><g fill="#fff" stroke="#fff" transform="matrix(0.9859,0,0,0.9859,10.8446,9.8588)"><rect width="1" height="115.938" x="1279.165" y="559.688" stroke="none"/><rect width="103" height="1" x="1280.165" y="559.688" stroke="none"/><rect width="104" height="1" x="1280.165" y="674.625" fill="#ADA58C" stroke="none"/><rect width="1" height="114.938" x="1383.165" y="559.688" fill="#ADA58C" stroke="none"/></g></g><g id="y.node.49"><g fill="#fff" stroke="#fff" transform="matrix(0.9859,0,0,0.9859,10.8446,9.8588)"><rect width="75" height="41" x="1294" y="618" stroke="none"/><rect width="75" height="41" x="1294" y="618" fill="none" stroke="#000"/></g><g id="bla"><g font-family="sans-serif"><text x="1307.665" y="636.826" stroke="none" transform="matrix(0.9859,0,0,0.9859,10.8446,9.8588)" xml:space="preserve">CALCVL</text><text x="1301.165" y="650.795" stroke="none" transform="matrix(0.9859,0,0,0.9859,10.8446,9.8588)" xml:space="preserve">(istprm.f)</text></g></g></g><g id="y.node.50"><g fill="#fff" stroke="#fff" transform="matrix(0.9859,0,0,0.9859,10.8446,9.8588)"><rect width="75" height="41" x="1140" y="361" stroke="none"/><rect width="75" height="41" x="1140" y="361" fill="none" stroke="#000"/></g><g id="bla"><g font-family="sans-serif"><text x="1153.665" y="379.951" stroke="none" transform="matrix(0.9859,0,0,0.9859,10.8446,9.8588)" xml:space="preserve">ISTPRM</text><text x="1147.165" y="393.92" stroke="none" transform="matrix(0.9859,0,0,0.9859,10.8446,9.8588)" xml:space="preserve">(istprm.f)</text></g></g></g><g id="y.node.51"><g fill="#fff" stroke="#fff" transform="matrix(0.9859,0,0,0.9859,10.8446,9.8588)"><rect width="67" height="41" x="1166" y="220" stroke="none"/><rect width="67" height="41" x="1166" y="220" fill="none" stroke="#000"/></g><g id="bla"><g font-family="sans-serif"><text x="1178.665" y="239.014" stroke="none" transform="matrix(0.9859,0,0,0.9859,10.8446,9.8588)" xml:space="preserve">AFOLP</text><text x="1173.165" y="252.982" stroke="none" transform="matrix(0.9859,0,0,0.9859,10.8446,9.8588)" xml:space="preserve">(afolp.f)</text></g></g></g><g id="y.node.12"><g fill="#F8ECC9" stroke="#F8ECC9" transform="matrix(0.9859,0,0,0.9859,10.8446,9.8588)"><rect width="164" height="231.875" x="231.488" y="1133.438" stroke="none"/></g><g id="bla"><g fill="#404040" stroke="#404040" transform="matrix(0.9859,0,0,0.9859,10.8446,9.8588)"><rect width="164" height="4" x="231.488" y="1133.438" stroke="none"/></g></g><g fill="#fff" stroke="#fff" transform="matrix(0.9859,0,0,0.9859,10.8446,9.8588)"><rect width="1" height="231.875" x="231.488" y="1133.438" stroke="none"/><rect width="162" height="1" x="232.488" y="1133.438" stroke="none"/><rect width="163" height="1" x="232.488" y="1364.313" fill="#ADA58C" stroke="none"/><rect width="1" height="230.875" x="394.488" y="1133.438" fill="#ADA58C" stroke="none"/></g></g><g id="y.node.36"><g fill="#F8ECC9" stroke="#F8ECC9" transform="matrix(0.9859,0,0,0.9859,10.8446,9.8588)"><rect width="101" height="115.938" x="279.488" y="1234.375" stroke="none"/></g><g id="bla"><g fill="#404040" stroke="#404040" transform="matrix(0.9859,0,0,0.9859,10.8446,9.8588)"><rect width="101" height="4" x="279.488" y="1234.375" stroke="none"/></g></g><g fill="#fff" stroke="#fff" transform="matrix(0.9859,0,0,0.9859,10.8446,9.8588)"><rect width="1" height="115.938" x="279.488" y="1234.375" stroke="none"/><rect width="99" height="1" x="280.488" y="1234.375" stroke="none"/><rect width="100" height="1" x="280.488" y="1349.313" fill="#ADA58C" stroke="none"/><rect width="1" height="114.938" x="379.488" y="1234.375" fill="#ADA58C" stroke="none"/></g></g><g id="y.node.37"><g fill="#fff" stroke="#fff" transform="matrix(0.9859,0,0,0.9859,10.8446,9.8588)"><rect width="71" height="41" x="294" y="1293" stroke="none"/><rect width="71" height="41" x="294" y="1293" fill="none" stroke="#000"/></g><g id="bla"><g font-family="sans-serif"><text x="306.488" y="1311.514" stroke="none" transform="matrix(0.9859,0,0,0.9859,10.8446,9.8588)" xml:space="preserve">RHOLIE</text><text x="301.488" y="1325.482" stroke="none" transform="matrix(0.9859,0,0,0.9859,10.8446,9.8588)" xml:space="preserve">(rholie.f)</text></g></g></g><g id="y.node.38"><g fill="#fff" stroke="#fff" transform="matrix(0.9859,0,0,0.9859,10.8446,9.8588)"><rect width="73" height="41" x="246" y="1152" stroke="none"/><rect width="73" height="41" x="246" y="1152" fill="none" stroke="#000"/></g><g id="bla"><g font-family="sans-serif"><text x="257.488" y="1170.576" stroke="none" transform="matrix(0.9859,0,0,0.9859,10.8446,9.8588)" xml:space="preserve">CORVAL</text><text x="253.488" y="1184.545" stroke="none" transform="matrix(0.9859,0,0,0.9859,10.8446,9.8588)" xml:space="preserve">(corval.f)</text></g></g></g><g id="y.node.11"><g fill="#F8ECC9" stroke="#F8ECC9" transform="matrix(0.9859,0,0,0.9859,10.8446,9.8588)"><rect width="101" height="75.938" x="588.403" y="415.781" stroke="none"/></g><g id="bla"><g fill="#404040" stroke="#404040" transform="matrix(0.9859,0,0,0.9859,10.8446,9.8588)"><rect width="101" height="4" x="588.403" y="415.781" stroke="none"/></g></g><g fill="#fff" stroke="#fff" transform="matrix(0.9859,0,0,0.9859,10.8446,9.8588)"><rect width="1" height="75.938" x="588.403" y="415.781" stroke="none"/><rect width="99" height="1" x="589.403" y="415.781" stroke="none"/><rect width="100" height="1" x="589.403" y="490.719" fill="#ADA58C" stroke="none"/><rect width="1" height="74.938" x="688.403" y="415.781" fill="#ADA58C" stroke="none"/></g></g><g id="y.node.35"><g fill="#fff" stroke="#fff" transform="matrix(0.9859,0,0,0.9859,10.8446,9.8588)"><rect width="71" height="41" x="603" y="434" stroke="none"/><rect width="71" height="41" x="603" y="434" fill="none" stroke="#000"/></g><g id="bla"><g font-family="sans-serif"><text x="617.403" y="452.92" stroke="none" transform="matrix(0.9859,0,0,0.9859,10.8446,9.8588)" xml:space="preserve">INIPOT</text><text x="610.403" y="466.889" stroke="none" transform="matrix(0.9859,0,0,0.9859,10.8446,9.8588)" xml:space="preserve">(inipot.f)</text></g></g></g><g id="y.node.10"><g fill="#F8ECC9" stroke="#F8ECC9" transform="matrix(0.9859,0,0,0.9859,10.8446,9.8588)"><rect width="107" height="75.938" x="268.665" y="415.781" stroke="none"/></g><g id="bla"><g fill="#404040" stroke="#404040" transform="matrix(0.9859,0,0,0.9859,10.8446,9.8588)"><rect width="107" height="4" x="268.665" y="415.781" stroke="none"/></g></g><g fill="#fff" stroke="#fff" transform="matrix(0.9859,0,0,0.9859,10.8446,9.8588)"><rect width="1" height="75.938" x="268.665" y="415.781" stroke="none"/><rect width="105" height="1" x="269.665" y="415.781" stroke="none"/><rect width="106" height="1" x="269.665" y="490.719" fill="#ADA58C" stroke="none"/><rect width="1" height="74.938" x="374.665" y="415.781" fill="#ADA58C" stroke="none"/></g></g><g id="y.node.34"><g fill="#fff" stroke="#fff" transform="matrix(0.9859,0,0,0.9859,10.8446,9.8588)"><rect width="77" height="41" x="283" y="434" stroke="none"/><rect width="77" height="41" x="283" y="434" fill="none" stroke="#000"/></g><g id="bla"><g font-family="sans-serif"><text x="298.165" y="452.92" stroke="none" transform="matrix(0.9859,0,0,0.9859,10.8446,9.8588)" xml:space="preserve">MOVEH</text><text x="290.665" y="466.889" stroke="none" transform="matrix(0.9859,0,0,0.9859,10.8446,9.8588)" xml:space="preserve">(moveh.f)</text></g></g></g><g id="y.node.9"><g fill="#F8ECC9" stroke="#F8ECC9" transform="matrix(0.9859,0,0,0.9859,10.8446,9.8588)"><rect width="255" height="231.875" x="707.665" y="1133.438" stroke="none"/></g><g id="bla"><g fill="#404040" stroke="#404040" transform="matrix(0.9859,0,0,0.9859,10.8446,9.8588)"><rect width="255" height="4" x="707.665" y="1133.438" stroke="none"/></g></g><g fill="#fff" stroke="#fff" transform="matrix(0.9859,0,0,0.9859,10.8446,9.8588)"><rect width="1" height="231.875" x="707.665" y="1133.438" stroke="none"/><rect width="253" height="1" x="708.665" y="1133.438" stroke="none"/><rect width="254" height="1" x="708.665" y="1364.313" fill="#ADA58C" stroke="none"/><rect width="1" height="230.875" x="961.665" y="1133.438" fill="#ADA58C" stroke="none"/></g></g><g id="y.node.29"><g fill="#F8ECC9" stroke="#F8ECC9" transform="matrix(0.9859,0,0,0.9859,10.8446,9.8588)"><rect width="106" height="75.938" x="841.665" y="1254.375" stroke="none"/></g><g id="bla"><g fill="#404040" stroke="#404040" transform="matrix(0.9859,0,0,0.9859,10.8446,9.8588)"><rect width="106" height="4" x="841.665" y="1254.375" stroke="none"/></g></g><g fill="#fff" stroke="#fff" transform="matrix(0.9859,0,0,0.9859,10.8446,9.8588)"><rect width="1" height="75.938" x="841.665" y="1254.375" stroke="none"/><rect width="104" height="1" x="842.665" y="1254.375" stroke="none"/><rect width="105" height="1" x="842.665" y="1329.313" fill="#ADA58C" stroke="none"/><rect width="1" height="74.938" x="946.665" y="1254.375" fill="#ADA58C" stroke="none"/></g></g><g id="y.node.30"><g fill="#fff" stroke="#fff" transform="matrix(0.9859,0,0,0.9859,10.8446,9.8588)"><rect width="76" height="41" x="856" y="1273" stroke="none"/><rect width="76" height="41" x="856" y="1273" fill="none" stroke="#000"/></g><g id="bla"><g font-family="sans-serif"><text x="871.665" y="1291.514" stroke="none" transform="matrix(0.9859,0,0,0.9859,10.8446,9.8588)" xml:space="preserve">SUMAX</text><text x="863.665" y="1305.482" stroke="none" transform="matrix(0.9859,0,0,0.9859,10.8446,9.8588)" xml:space="preserve">(sumax.f)</text></g></g></g><g id="y.node.31"><g fill="#F8ECC9" stroke="#F8ECC9" transform="matrix(0.9859,0,0,0.9859,10.8446,9.8588)"><rect width="99" height="115.938" x="722.665" y="1234.375" stroke="none"/></g><g id="bla"><g fill="#404040" stroke="#404040" transform="matrix(0.9859,0,0,0.9859,10.8446,9.8588)"><rect width="99" height="4" x="722.665" y="1234.375" stroke="none"/></g></g><g fill="#fff" stroke="#fff" transform="matrix(0.9859,0,0,0.9859,10.8446,9.8588)"><rect width="1" height="115.938" x="722.665" y="1234.375" stroke="none"/><rect width="97" height="1" x="723.665" y="1234.375" stroke="none"/><rect width="98" height="1" x="723.665" y="1349.313" fill="#ADA58C" stroke="none"/><rect width="1" height="114.938" x="820.665" y="1234.375" fill="#ADA58C" stroke="none"/></g></g><g id="y.node.32"><g fill="#fff" stroke="#fff" transform="matrix(0.9859,0,0,0.9859,10.8446,9.8588)"><rect width="69" height="41" x="737" y="1293" stroke="none"/><rect width="69" height="41" x="737" y="1293" fill="none" stroke="#000"/></g><g id="bla"><g font-family="sans-serif"><text x="749.165" y="1311.514" stroke="none" transform="matrix(0.9859,0,0,0.9859,10.8446,9.8588)" xml:space="preserve">FRNRM</text><text x="744.665" y="1325.482" stroke="none" transform="matrix(0.9859,0,0,0.9859,10.8446,9.8588)" xml:space="preserve">(frnrm.f)</text></g></g></g><g id="y.node.33"><g fill="#fff" stroke="#fff" transform="matrix(0.9859,0,0,0.9859,10.8446,9.8588)"><rect width="66" height="41" x="845" y="1152" stroke="none"/><rect width="66" height="41" x="845" y="1152" fill="none" stroke="#000"/></g><g id="bla"><g font-family="sans-serif"><text x="856.665" y="1170.576" stroke="none" transform="matrix(0.9859,0,0,0.9859,10.8446,9.8588)" xml:space="preserve">OVRLP</text><text x="852.165" y="1184.545" stroke="none" transform="matrix(0.9859,0,0,0.9859,10.8446,9.8588)" xml:space="preserve">(ovrlp.f)</text></g></g></g><g id="y.node.8"><g fill="#F8ECC9" stroke="#F8ECC9" transform="matrix(0.9859,0,0,0.9859,10.8446,9.8588)"><rect width="546" height="347.813" x="290.165" y="745.625" stroke="none"/></g><g id="bla"><g fill="#404040" stroke="#404040" transform="matrix(0.9859,0,0,0.9859,10.8446,9.8588)"><rect width="546" height="4" x="290.165" y="745.625" stroke="none"/></g></g><g fill="#fff" stroke="#fff" transform="matrix(0.9859,0,0,0.9859,10.8446,9.8588)"><rect width="1" height="347.813" x="290.165" y="745.625" stroke="none"/><rect width="544" height="1" x="291.165" y="745.625" stroke="none"/><rect width="545" height="1" x="291.165" y="1092.438" fill="#ADA58C" stroke="none"/><rect width="1" height="346.813" x="835.165" y="745.625" fill="#ADA58C" stroke="none"/></g></g><g id="y.node.18"><g fill="#F8ECC9" stroke="#F8ECC9" transform="matrix(0.9859,0,0,0.9859,10.8446,9.8588)"><rect width="97" height="115.938" x="305.165" y="904.531" stroke="none"/></g><g id="bla"><g fill="#404040" stroke="#404040" transform="matrix(0.9859,0,0,0.9859,10.8446,9.8588)"><rect width="97" height="4" x="305.165" y="904.531" stroke="none"/></g></g><g fill="#fff" stroke="#fff" transform="matrix(0.9859,0,0,0.9859,10.8446,9.8588)"><rect width="1" height="115.938" x="305.165" y="904.531" stroke="none"/><rect width="95" height="1" x="306.165" y="904.531" stroke="none"/><rect width="96" height="1" x="306.165" y="1019.469" fill="#ADA58C" stroke="none"/><rect width="1" height="114.938" x="401.165" y="904.531" fill="#ADA58C" stroke="none"/></g></g><g id="y.node.19"><g fill="#fff" stroke="#fff" transform="matrix(0.9859,0,0,0.9859,10.8446,9.8588)"><rect width="67" height="41" x="320" y="963" stroke="none"/><rect width="67" height="41" x="320" y="963" fill="none" stroke="#000"/></g><g id="bla"><g font-family="sans-serif"><text x="333.165" y="981.67" stroke="none" transform="matrix(0.9859,0,0,0.9859,10.8446,9.8588)" xml:space="preserve">GRIDS</text><text x="327.165" y="995.639" stroke="none" transform="matrix(0.9859,0,0,0.9859,10.8446,9.8588)" xml:space="preserve">(grids.f)</text></g></g></g><g id="y.node.20"><g fill="#F8ECC9" stroke="#F8ECC9" transform="matrix(0.9859,0,0,0.9859,10.8446,9.8588)"><rect width="90" height="115.938" x="552.165" y="904.531" stroke="none"/></g><g id="bla"><g fill="#404040" stroke="#404040" transform="matrix(0.9859,0,0,0.9859,10.8446,9.8588)"><rect width="90" height="4" x="552.165" y="904.531" stroke="none"/></g></g><g fill="#fff" stroke="#fff" transform="matrix(0.9859,0,0,0.9859,10.8446,9.8588)"><rect width="1" height="115.938" x="552.165" y="904.531" stroke="none"/><rect width="88" height="1" x="553.165" y="904.531" stroke="none"/><rect width="89" height="1" x="553.165" y="1019.469" fill="#ADA58C" stroke="none"/><rect width="1" height="114.938" x="641.165" y="904.531" fill="#ADA58C" stroke="none"/></g></g><g id="y.node.21"><g fill="#fff" stroke="#fff" transform="matrix(0.9859,0,0,0.9859,10.8446,9.8588)"><rect width="60" height="41" x="567" y="963" stroke="none"/><rect width="60" height="41" x="567" y="963" fill="none" stroke="#000"/></g><g id="bla"><g font-family="sans-serif"><text x="579.665" y="981.67" stroke="none" transform="matrix(0.9859,0,0,0.9859,10.8446,9.8588)" xml:space="preserve">FF2G</text><text x="574.165" y="995.639" stroke="none" transform="matrix(0.9859,0,0,0.9859,10.8446,9.8588)" xml:space="preserve">(ff2g.f)</text></g></g></g><g id="y.node.22"><g fill="#F8ECC9" stroke="#F8ECC9" transform="matrix(0.9859,0,0,0.9859,10.8446,9.8588)"><rect width="159" height="231.875" x="662.165" y="846.563" stroke="none"/></g><g id="bla"><g fill="#404040" stroke="#404040" transform="matrix(0.9859,0,0,0.9859,10.8446,9.8588)"><rect width="159" height="4" x="662.165" y="846.563" stroke="none"/></g></g><g fill="#fff" stroke="#fff" transform="matrix(0.9859,0,0,0.9859,10.8446,9.8588)"><rect width="1" height="231.875" x="662.165" y="846.563" stroke="none"/><rect width="157" height="1" x="663.165" y="846.563" stroke="none"/><rect width="158" height="1" x="663.165" y="1077.438" fill="#ADA58C" stroke="none"/><rect width="1" height="230.875" x="820.165" y="846.563" fill="#ADA58C" stroke="none"/></g></g><g id="y.node.23"><g fill="#F8ECC9" stroke="#F8ECC9" transform="matrix(0.9859,0,0,0.9859,10.8446,9.8588)"><rect width="111" height="75.938" x="677.165" y="987.5" stroke="none"/></g><g id="bla"><g fill="#404040" stroke="#404040" transform="matrix(0.9859,0,0,0.9859,10.8446,9.8588)"><rect width="111" height="4" x="677.165" y="987.5" stroke="none"/></g></g><g fill="#fff" stroke="#fff" transform="matrix(0.9859,0,0,0.9859,10.8446,9.8588)"><rect width="1" height="75.938" x="677.165" y="987.5" stroke="none"/><rect width="109" height="1" x="678.165" y="987.5" stroke="none"/><rect width="110" height="1" x="678.165" y="1062.438" fill="#ADA58C" stroke="none"/><rect width="1" height="74.938" x="787.165" y="987.5" fill="#ADA58C" stroke="none"/></g></g><g id="y.node.24"><g fill="#fff" stroke="#fff" transform="matrix(0.9859,0,0,0.9859,10.8446,9.8588)"><rect width="81" height="41" x="692" y="1006" stroke="none"/><rect width="81" height="41" x="692" y="1006" fill="none" stroke="#000"/></g><g id="bla"><g font-family="sans-serif"><text x="719.165" y="1024.639" stroke="none" transform="matrix(0.9859,0,0,0.9859,10.8446,9.8588)" xml:space="preserve">FAB</text><text x="699.165" y="1038.607" stroke="none" transform="matrix(0.9859,0,0,0.9859,10.8446,9.8588)" xml:space="preserve">(coulom.f)</text></g></g></g><g id="y.node.25"><g fill="#fff" stroke="#fff" transform="matrix(0.9859,0,0,0.9859,10.8446,9.8588)"><rect width="81" height="41" x="725" y="905" stroke="none"/><rect width="81" height="41" x="725" y="905" fill="none" stroke="#000"/></g><g id="bla"><g font-family="sans-serif"><text x="738.165" y="923.701" stroke="none" transform="matrix(0.9859,0,0,0.9859,10.8446,9.8588)" xml:space="preserve">COULOM</text><text x="732.165" y="937.67" stroke="none" transform="matrix(0.9859,0,0,0.9859,10.8446,9.8588)" xml:space="preserve">(coulom.f)</text></g></g></g><g id="y.node.26"><g fill="#F8ECC9" stroke="#F8ECC9" transform="matrix(0.9859,0,0,0.9859,10.8446,9.8588)"><rect width="109" height="115.938" x="422.165" y="904.531" stroke="none"/></g><g id="bla"><g fill="#404040" stroke="#404040" transform="matrix(0.9859,0,0,0.9859,10.8446,9.8588)"><rect width="109" height="4" x="422.165" y="904.531" stroke="none"/></g></g><g fill="#fff" stroke="#fff" transform="matrix(0.9859,0,0,0.9859,10.8446,9.8588)"><rect width="1" height="115.938" x="422.165" y="904.531" stroke="none"/><rect width="107" height="1" x="423.165" y="904.531" stroke="none"/><rect width="108" height="1" x="423.165" y="1019.469" fill="#ADA58C" stroke="none"/><rect width="1" height="114.938" x="530.165" y="904.531" fill="#ADA58C" stroke="none"/></g></g><g id="y.node.27"><g fill="#fff" stroke="#fff" transform="matrix(0.9859,0,0,0.9859,10.8446,9.8588)"><rect width="79" height="41" x="437" y="963" stroke="none"/><rect width="79" height="41" x="437" y="963" fill="none" stroke="#000"/></g><g id="bla"><g font-family="sans-serif"><text x="449.665" y="981.67" stroke="none" transform="matrix(0.9859,0,0,0.9859,10.8446,9.8588)" xml:space="preserve">BROYDN</text><text x="444.165" y="995.639" stroke="none" transform="matrix(0.9859,0,0,0.9859,10.8446,9.8588)" xml:space="preserve">(broydn.f)</text></g></g></g><g id="y.node.28"><g fill="#fff" stroke="#fff" transform="matrix(0.9859,0,0,0.9859,10.8446,9.8588)"><rect width="66" height="41" x="508" y="764" stroke="none"/><rect width="66" height="41" x="508" y="764" fill="none" stroke="#000"/></g><g id="bla"><g font-family="sans-serif"><text x="523.165" y="782.764" stroke="none" transform="matrix(0.9859,0,0,0.9859,10.8446,9.8588)" xml:space="preserve">SCMT</text><text x="515.665" y="796.732" stroke="none" transform="matrix(0.9859,0,0,0.9859,10.8446,9.8588)" xml:space="preserve">(scmt.f)</text></g></g></g><g id="y.node.7"><g fill="#F8ECC9" stroke="#F8ECC9" transform="matrix(0.9859,0,0,0.9859,10.8446,9.8588)"><rect width="115" height="115.938" x="395.665" y="395.781" stroke="none"/></g><g id="bla"><g fill="#404040" stroke="#404040" transform="matrix(0.9859,0,0,0.9859,10.8446,9.8588)"><rect width="115" height="4" x="395.665" y="395.781" stroke="none"/></g></g><g fill="#fff" stroke="#fff" transform="matrix(0.9859,0,0,0.9859,10.8446,9.8588)"><rect width="1" height="115.938" x="395.665" y="395.781" stroke="none"/><rect width="113" height="1" x="396.665" y="395.781" stroke="none"/><rect width="114" height="1" x="396.665" y="510.719" fill="#ADA58C" stroke="none"/><rect width="1" height="114.938" x="509.665" y="395.781" fill="#ADA58C" stroke="none"/></g></g><g id="y.node.17"><g fill="#fff" stroke="#fff" transform="matrix(0.9859,0,0,0.9859,10.8446,9.8588)"><rect width="85" height="41" x="410" y="414" stroke="none"/><rect width="85" height="41" x="410" y="414" fill="none" stroke="#000"/></g><g id="bla"><g font-family="sans-serif"><text x="425.665" y="432.92" stroke="none" transform="matrix(0.9859,0,0,0.9859,10.8446,9.8588)" xml:space="preserve">SCMTMP</text><text x="417.665" y="446.889" stroke="none" transform="matrix(0.9859,0,0,0.9859,10.8446,9.8588)" xml:space="preserve">(scmtmp.f)</text></g></g></g><g id="y.node.6"><g fill="#F8ECC9" stroke="#F8ECC9" transform="matrix(0.9859,0,0,0.9859,10.8446,9.8588)"><rect width="96" height="75.938" x="152.665" y="415.781" stroke="none"/></g><g id="bla"><g fill="#404040" stroke="#404040" transform="matrix(0.9859,0,0,0.9859,10.8446,9.8588)"><rect width="96" height="4" x="152.665" y="415.781" stroke="none"/></g></g><g fill="#fff" stroke="#fff" transform="matrix(0.9859,0,0,0.9859,10.8446,9.8588)"><rect width="1" height="75.938" x="152.665" y="415.781" stroke="none"/><rect width="94" height="1" x="153.665" y="415.781" stroke="none"/><rect width="95" height="1" x="153.665" y="490.719" fill="#ADA58C" stroke="none"/><rect width="1" height="74.938" x="247.665" y="415.781" fill="#ADA58C" stroke="none"/></g></g><g id="y.node.16"><g fill="#fff" stroke="#fff" transform="matrix(0.9859,0,0,0.9859,10.8446,9.8588)"><rect width="66" height="41" x="167" y="434" stroke="none"/><rect width="66" height="41" x="167" y="434" fill="none" stroke="#000"/></g><g id="bla"><g font-family="sans-serif"><text x="181.165" y="452.92" stroke="none" transform="matrix(0.9859,0,0,0.9859,10.8446,9.8588)" xml:space="preserve">WPOT</text><text x="174.665" y="466.889" stroke="none" transform="matrix(0.9859,0,0,0.9859,10.8446,9.8588)" xml:space="preserve">(wpot.f)</text></g></g></g><g id="y.node.5"><g fill="#F8ECC9" stroke="#F8ECC9" transform="matrix(0.9859,0,0,0.9859,10.8446,9.8588)"><rect width="101" height="75.938" x="30" y="415.781" stroke="none"/></g><g id="bla"><g fill="#404040" stroke="#404040" transform="matrix(0.9859,0,0,0.9859,10.8446,9.8588)"><rect width="101" height="4" x="30" y="415.781" stroke="none"/></g></g><g fill="#fff" stroke="#fff" transform="matrix(0.9859,0,0,0.9859,10.8446,9.8588)"><rect width="1" height="75.938" x="30" y="415.781" stroke="none"/><rect width="99" height="1" x="31" y="415.781" stroke="none"/><rect width="100" height="1" x="31" y="490.719" fill="#ADA58C" stroke="none"/><rect width="1" height="74.938" x="130" y="415.781" fill="#ADA58C" stroke="none"/></g></g><g id="y.node.15"><g fill="#fff" stroke="#fff" transform="matrix(0.9859,0,0,0.9859,10.8446,9.8588)"><rect width="71" height="41" x="45" y="434" stroke="none"/><rect width="71" height="41" x="45" y="434" fill="none" stroke="#000"/></g><g id="bla"><g font-family="sans-serif"><text x="57" y="452.92" stroke="none" transform="matrix(0.9859,0,0,0.9859,10.8446,9.8588)" xml:space="preserve">WRPOT</text><text x="52" y="466.889" stroke="none" transform="matrix(0.9859,0,0,0.9859,10.8446,9.8588)" xml:space="preserve">(wrpot.f)</text></g></g></g><g id="y.node.14"><g fill="#fff" stroke="#fff" transform="matrix(0.9859,0,0,0.9859,10.8446,9.8588)"><rect width="57" height="41" x="478" y="119" stroke="none"/><rect width="57" height="41" x="478" y="119" fill="none" stroke="#000"/></g><g id="bla"><g font-family="sans-serif"><text x="492.665" y="138.076" stroke="none" transform="matrix(0.9859,0,0,0.9859,10.8446,9.8588)" xml:space="preserve">POT</text><text x="485.165" y="152.045" stroke="none" transform="matrix(0.9859,0,0,0.9859,10.8446,9.8588)" xml:space="preserve">(pot.f)</text></g></g></g><g id="y.node.3"><g fill="#F8ECC9" stroke="#F8ECC9" transform="matrix(0.9859,0,0,0.9859,10.8446,9.8588)"><rect width="108" height="75.938" x="1449.165" y="702.656" stroke="none"/></g><g id="bla"><g fill="#404040" stroke="#404040" transform="matrix(0.9859,0,0,0.9859,10.8446,9.8588)"><rect width="108" height="4" x="1449.165" y="702.656" stroke="none"/></g></g><g fill="#fff" stroke="#fff" transform="matrix(0.9859,0,0,0.9859,10.8446,9.8588)"><rect width="1" height="75.938" x="1449.165" y="702.656" stroke="none"/><rect width="106" height="1" x="1450.165" y="702.656" stroke="none"/><rect width="107" height="1" x="1450.165" y="777.594" fill="#ADA58C" stroke="none"/><rect width="1" height="74.938" x="1556.165" y="702.656" fill="#ADA58C" stroke="none"/></g></g><g id="y.node.4"><g fill="#fff" stroke="#fff" transform="matrix(0.9859,0,0,0.9859,10.8446,9.8588)"><rect width="78" height="41" x="1464" y="721" stroke="none"/><rect width="78" height="41" x="1464" y="721" fill="none" stroke="#000"/></g><g id="bla"><g font-family="sans-serif"><text x="1477.165" y="739.795" stroke="none" transform="matrix(0.9859,0,0,0.9859,10.8446,9.8588)" xml:space="preserve">REAPOT</text><text x="1471.165" y="753.764" stroke="none" transform="matrix(0.9859,0,0,0.9859,10.8446,9.8588)" xml:space="preserve">(reapot.f)</text></g></g></g><g id="y.node.1"><g fill="#fff" stroke="#fff" transform="matrix(0.9859,0,0,0.9859,10.8446,9.8588)"><rect width="79" height="41" x="965" y="19" stroke="none"/><rect width="79" height="41" x="965" y="19" fill="none" stroke="#000"/></g><g id="bla"><g font-family="sans-serif"><text x="977.915" y="37.139" stroke="none" transform="matrix(0.9859,0,0,0.9859,10.8446,9.8588)" xml:space="preserve">FFMOD1</text><text x="972.415" y="51.107" stroke="none" transform="matrix(0.9859,0,0,0.9859,10.8446,9.8588)" xml:space="preserve">(ffmod1.f)</text></g></g></g><g id="y.edge.0"><g stroke-linecap="butt" stroke-miterlimit="1.45"><path fill="none" d="M436.1715 456.7578 L443.1647 496.7188 L443.1647 705.625 L348.6647 745.625 L348.6647 923.5312 L339.1809 955.8165" transform="matrix(0.9859,0,0,0.9859,10.8446,9.8588)"/><path stroke="none" d="M336.9262 963.4922 L345.1056 953.3879 L339.4627 954.8571 L335.511 950.5695 Z" transform="matrix(0.9859,0,0,0.9859,10.8446,9.8588)"/></g></g><g id="y.edge.1"><g stroke-linecap="butt" stroke-miterlimit="1.45"><path fill="none" d="M419.1784 456.7578 L433.1647 496.7188 L433.1647 705.625 L225.6647 745.625 L225.6647 1093.4375 L329.9882 1133.4375 L329.9882 1285.3359" transform="matrix(0.9859,0,0,0.9859,10.8446,9.8588)"/><path stroke="none" d="M329.9882 1293.3359 L334.9882 1281.3359 L329.9882 1284.3359 L324.9882 1281.3359 Z" transform="matrix(0.9859,0,0,0.9859,10.8446,9.8588)"/></g></g><g id="y.edge.2"><g stroke-linecap="butt" stroke-miterlimit="1.45"><path fill="none" d="M1024.694 60.9399 L1503.1647 100.9375 L1503.1647 713.6183" transform="matrix(0.9859,0,0,0.9859,10.8446,9.8588)"/><path stroke="none" d="M1503.1647 721.6183 L1508.1647 709.6183 L1503.1647 712.6183 L1498.1647 709.6183 Z" transform="matrix(0.9859,0,0,0.9859,10.8446,9.8588)"/></g></g><g id="y.edge.3"><g stroke-linecap="butt" stroke-miterlimit="1.45"><path fill="none" d="M532.3554 161.8774 L1199.6647 201.875 L1199.6647 212.8379" transform="matrix(0.9859,0,0,0.9859,10.8446,9.8588)"/><path stroke="none" d="M1199.6647 220.8379 L1204.6647 208.8379 L1199.6647 211.8379 L1194.6647 208.8379 Z" transform="matrix(0.9859,0,0,0.9859,10.8446,9.8588)"/></g></g><g id="y.edge.4"><g stroke-linecap="butt" stroke-miterlimit="1.45"><path fill="none" d="M486.6726 161.8799 L141.5 201.875 L141.5 1093.4375 L282.9882 1133.4375 L282.9882 1144.4004" transform="matrix(0.9859,0,0,0.9859,10.8446,9.8588)"/><path stroke="none" d="M282.9882 1152.4004 L287.9882 1140.4004 L282.9882 1143.4004 L277.9882 1140.4004 Z" transform="matrix(0.9859,0,0,0.9859,10.8446,9.8588)"/></g></g><g id="y.edge.5"><g stroke-linecap="butt" stroke-miterlimit="1.45"><path fill="none" d="M515.2449 161.8848 L638.903 201.875 L638.903 426.7528" transform="matrix(0.9859,0,0,0.9859,10.8446,9.8588)"/><path stroke="none" d="M638.903 434.7528 L643.903 422.7528 L638.903 425.7528 L633.903 422.7528 Z" transform="matrix(0.9859,0,0,0.9859,10.8446,9.8588)"/></g></g><g id="y.edge.6"><g stroke-linecap="butt" stroke-miterlimit="1.45"><path fill="none" d="M492.3791 161.8799 L200.6647 201.875 L200.6647 426.7528" transform="matrix(0.9859,0,0,0.9859,10.8446,9.8588)"/><path stroke="none" d="M200.6647 434.7528 L205.6647 422.7528 L200.6647 425.7528 L195.6647 422.7528 Z" transform="matrix(0.9859,0,0,0.9859,10.8446,9.8588)"/></g></g><g id="y.edge.7"><g stroke-linecap="butt" stroke-miterlimit="1.45"><path fill="none" d="M480.9658 161.8799 L80.5 201.875 L80.5 426.7528" transform="matrix(0.9859,0,0,0.9859,10.8446,9.8588)"/><path stroke="none" d="M80.5 434.7528 L85.5 422.7528 L80.5 425.7528 L75.5 422.7528 Z" transform="matrix(0.9859,0,0,0.9859,10.8446,9.8588)"/></g></g><g id="y.edge.8"><g stroke-linecap="butt" stroke-miterlimit="1.45"><path fill="none" d="M1199.6481 262.8516 L1182.6647 302.8125 L1182.6647 321.8125 L1193.8007 354.2079" transform="matrix(0.9859,0,0,0.9859,10.8446,9.8588)"/><path stroke="none" d="M1196.4014 361.7734 L1197.2289 348.7998 L1193.4756 353.2623 L1187.772 352.0506 Z" transform="matrix(0.9859,0,0,0.9859,10.8446,9.8588)"/></g></g><g id="y.edge.9"><g stroke-linecap="butt" stroke-miterlimit="1.45"><path fill="none" d="M1162.6379 403.7598 L1053.1647 443.75 L1053.1647 454.7129" transform="matrix(0.9859,0,0,0.9859,10.8446,9.8588)"/><path stroke="none" d="M1053.1647 462.7129 L1058.1647 450.7129 L1053.1647 453.7129 L1048.1647 450.7129 Z" transform="matrix(0.9859,0,0,0.9859,10.8446,9.8588)"/></g></g><g id="y.edge.10"><g stroke-linecap="butt" stroke-miterlimit="1.45"><path fill="none" d="M1147.6384 403.7549 L932.1647 443.75 L932.1647 454.7129" transform="matrix(0.9859,0,0,0.9859,10.8446,9.8588)"/><path stroke="none" d="M932.1647 462.7129 L937.1647 450.7129 L932.1647 453.7129 L927.1647 450.7129 Z" transform="matrix(0.9859,0,0,0.9859,10.8446,9.8588)"/></g></g><g id="y.edge.11"><g stroke-linecap="butt" stroke-miterlimit="1.45"><path fill="none" d="M1299.6647 504.7168 L1299.6647 519.6875 L1326.6647 559.6875 L1326.6647 578.6875 L1315.5288 611.0829" transform="matrix(0.9859,0,0,0.9859,10.8446,9.8588)"/><path stroke="none" d="M1312.9282 618.6484 L1321.5576 608.9256 L1315.8539 610.1373 L1312.1007 605.6748 Z" transform="matrix(0.9859,0,0,0.9859,10.8446,9.8588)"/></g></g><g id="y.edge.12"><g stroke-linecap="butt" stroke-miterlimit="1.45"><path fill="none" d="M1207.7028 403.7598 L1363.6647 443.75 L1363.6647 519.6875 L1336.6647 559.6875 L1336.6647 578.6875 L1347.8007 611.0829" transform="matrix(0.9859,0,0,0.9859,10.8446,9.8588)"/><path stroke="none" d="M1350.4014 618.6484 L1351.2289 605.6748 L1347.4756 610.1373 L1341.772 608.9256 Z" transform="matrix(0.9859,0,0,0.9859,10.8446,9.8588)"/></g></g><g id="y.edge.13"><g stroke-linecap="butt" stroke-miterlimit="1.45"><path fill="none" d="M1177.6647 403.7788 L1177.6647 454.7212" transform="matrix(0.9859,0,0,0.9859,10.8446,9.8588)"/><path stroke="none" d="M1177.6647 462.7212 L1182.6647 450.7212 L1177.6647 453.7212 L1172.6647 450.7212 Z" transform="matrix(0.9859,0,0,0.9859,10.8446,9.8588)"/></g></g><g id="y.edge.14"><g stroke-linecap="butt" stroke-miterlimit="1.45"><path fill="none" d="M1192.6908 403.7598 L1299.6647 443.75 L1299.6647 454.7129" transform="matrix(0.9859,0,0,0.9859,10.8446,9.8588)"/><path stroke="none" d="M1299.6647 462.7129 L1304.6647 450.7129 L1299.6647 453.7129 L1294.6647 450.7129 Z" transform="matrix(0.9859,0,0,0.9859,10.8446,9.8588)"/></g></g><g id="y.edge.15"><g stroke-linecap="butt" stroke-miterlimit="1.45"><path fill="none" d="M541.6647 806.5975 L541.6647 1093.4375 L339.9882 1133.4375 L339.9882 1253.375 L351.055 1285.7656" transform="matrix(0.9859,0,0,0.9859,10.8446,9.8588)"/><path stroke="none" d="M353.6415 1293.3359 L354.4932 1280.3639 L350.7317 1284.8193 L345.0303 1283.597 Z" transform="matrix(0.9859,0,0,0.9859,10.8446,9.8588)"/></g></g><g id="y.edge.16"><g stroke-linecap="butt" stroke-miterlimit="1.45"><path fill="none" d="M745.4023 947.5391 L732.6647 987.5 L732.6647 998.4629" transform="matrix(0.9859,0,0,0.9859,10.8446,9.8588)"/><path stroke="none" d="M732.6647 1006.4629 L737.6647 994.4629 L732.6647 997.4629 L727.6647 994.4629 Z" transform="matrix(0.9859,0,0,0.9859,10.8446,9.8588)"/></g></g><g id="y.edge.17"><g stroke-linecap="butt" stroke-miterlimit="1.45"><path fill="none" d="M785.9272 947.5391 L798.6647 987.5 L798.6647 1093.4375 L767.1647 1133.4375 L767.1647 1253.375 L757.2693 1285.6866" transform="matrix(0.9859,0,0,0.9859,10.8446,9.8588)"/><path stroke="none" d="M754.9267 1293.3359 L763.2214 1283.326 L757.5621 1284.7305 L753.6598 1280.3978 Z" transform="matrix(0.9859,0,0,0.9859,10.8446,9.8588)"/></g></g><g id="y.edge.18"><g stroke-linecap="butt" stroke-miterlimit="1.45"><path fill="none" d="M283.0063 1194.3945 L319.9882 1234.375 L319.9882 1253.375 L308.9214 1285.7656" transform="matrix(0.9859,0,0,0.9859,10.8446,9.8588)"/><path stroke="none" d="M306.3349 1293.3359 L314.9462 1283.597 L309.2448 1284.8193 L305.4832 1280.3639 Z" transform="matrix(0.9859,0,0,0.9859,10.8446,9.8588)"/></g></g><g id="y.edge.19"><g stroke-linecap="butt" stroke-miterlimit="1.45"><path fill="none" d="M861.6235 1194.3945 L777.1647 1234.375 L777.1647 1253.375 L787.0601 1285.6866" transform="matrix(0.9859,0,0,0.9859,10.8446,9.8588)"/><path stroke="none" d="M789.4027 1293.3359 L790.6697 1280.3978 L786.7673 1284.7305 L781.108 1283.326 Z" transform="matrix(0.9859,0,0,0.9859,10.8446,9.8588)"/></g></g><g id="y.edge.20"><g stroke-linecap="butt" stroke-miterlimit="1.45"><path fill="none" d="M894.6647 1194.4136 L894.6647 1265.3364" transform="matrix(0.9859,0,0,0.9859,10.8446,9.8588)"/><path stroke="none" d="M894.6647 1273.3364 L899.6647 1261.3364 L894.6647 1264.3364 L889.6647 1261.3364 Z" transform="matrix(0.9859,0,0,0.9859,10.8446,9.8588)"/></g></g><g id="y.edge.21"><g stroke-linecap="butt" stroke-miterlimit="1.45"><path fill="none" d="M526.6531 161.8774 L1155.6647 201.875 L1155.6647 262.8125 L1172.6647 302.8125 L1172.6647 321.8125 L1161.5288 354.2079" transform="matrix(0.9859,0,0,0.9859,10.8446,9.8588)"/><path stroke="none" d="M1158.9282 361.7734 L1167.5576 352.0506 L1161.8539 353.2622 L1158.1007 348.7998 Z" transform="matrix(0.9859,0,0,0.9859,10.8446,9.8588)"/></g></g><g id="y.edge.22"><g stroke-linecap="butt" stroke-miterlimit="1.45"><path fill="none" d="M498.0717 161.8848 L322.1647 201.875 L322.1647 426.7528" transform="matrix(0.9859,0,0,0.9859,10.8446,9.8588)"/><path stroke="none" d="M322.1647 434.7528 L327.1647 422.7528 L322.1647 425.7528 L317.1647 422.7528 Z" transform="matrix(0.9859,0,0,0.9859,10.8446,9.8588)"/></g></g><g id="y.edge.23"><g stroke-linecap="butt" stroke-miterlimit="1.45"><path fill="none" d="M520.9545 161.8799 L846.6647 201.875 L846.6647 1093.4375 L878.1647 1133.4375 L878.1647 1144.4004" transform="matrix(0.9859,0,0,0.9859,10.8446,9.8588)"/><path stroke="none" d="M878.1647 1152.4004 L883.1647 1140.4004 L878.1647 1143.4004 L873.1647 1140.4004 Z" transform="matrix(0.9859,0,0,0.9859,10.8446,9.8588)"/></g></g><g id="y.edge.24"><g stroke-linecap="butt" stroke-miterlimit="1.45"><path fill="none" d="M509.5451 161.9141 L540.6647 201.875 L541.6505 756.5906" transform="matrix(0.9859,0,0,0.9859,10.8446,9.8588)"/><path stroke="none" d="M541.6647 764.5906 L546.6434 752.5818 L541.6487 755.5906 L536.6434 752.5995 Z" transform="matrix(0.9859,0,0,0.9859,10.8446,9.8588)"/></g></g><g id="y.edge.25"><g stroke-linecap="butt" stroke-miterlimit="1.45"><path fill="none" d="M503.79 161.8945 L453.1647 201.875 L453.1647 406.7552" transform="matrix(0.9859,0,0,0.9859,10.8446,9.8588)"/><path stroke="none" d="M453.1647 414.7552 L458.1647 402.7552 L453.1647 405.7552 L448.1647 402.7552 Z" transform="matrix(0.9859,0,0,0.9859,10.8446,9.8588)"/></g></g><g id="y.edge.26"><g stroke-linecap="butt" stroke-miterlimit="1.45"><path fill="none" d="M453.1647 456.7491 L453.1647 705.625 L471.6647 745.625 L471.6647 923.5312 L459.6969 955.9863" transform="matrix(0.9859,0,0,0.9859,10.8446,9.8588)"/><path stroke="none" d="M456.9291 963.4922 L465.772 953.9631 L460.0429 955.048 L456.3896 950.5034 Z" transform="matrix(0.9859,0,0,0.9859,10.8446,9.8588)"/></g></g><g id="y.edge.27"><g stroke-linecap="butt" stroke-miterlimit="1.45"><path fill="none" d="M487.151 456.7578 L473.1647 496.7188 L473.1647 705.625 L760.6647 745.625 L760.6647 865.5625 L748.2795 898.0483" transform="matrix(0.9859,0,0,0.9859,10.8446,9.8588)"/><path stroke="none" d="M745.4296 905.5234 L754.3764 896.0919 L748.6357 897.1139 L745.0325 892.5295 Z" transform="matrix(0.9859,0,0,0.9859,10.8446,9.8588)"/></g></g><g id="y.edge.28"><g stroke-linecap="butt" stroke-miterlimit="1.45"><path fill="none" d="M470.1579 456.7578 L463.1647 496.7188 L463.1647 705.625 L592.1647 745.625 L592.1647 923.5312 L584.1147 955.731" transform="matrix(0.9859,0,0,0.9859,10.8446,9.8588)"/><path stroke="none" d="M582.1744 963.4921 L589.9356 953.0631 L584.3573 954.7609 L580.2342 950.6378 Z" transform="matrix(0.9859,0,0,0.9859,10.8446,9.8588)"/></g></g><g id="y.edge.29"><g stroke-linecap="butt" stroke-miterlimit="1.45"><path fill="none" d="M985.1355 60.9399 L506.6647 100.9375 L506.6647 111.9004" transform="matrix(0.9859,0,0,0.9859,10.8446,9.8588)"/><path stroke="none" d="M506.6647 119.9004 L511.6647 107.9004 L506.6647 110.9004 L501.6647 107.9004 Z" transform="matrix(0.9859,0,0,0.9859,10.8446,9.8588)"/></g></g><g id="y.edge.30"><g stroke-linecap="butt" stroke-miterlimit="1.45"><path fill="none" d="M528.4418 806.582 L481.6647 846.5625 L481.6647 923.5312 L493.6325 955.9863" transform="matrix(0.9859,0,0,0.9859,10.8446,9.8588)"/><path stroke="none" d="M496.4003 963.4922 L496.9398 950.5034 L493.2865 955.048 L487.5574 953.9631 Z" transform="matrix(0.9859,0,0,0.9859,10.8446,9.8588)"/></g></g><g id="y.edge.31"><g stroke-linecap="butt" stroke-miterlimit="1.45"><path fill="none" d="M568.0894 806.5674 L770.6647 846.5625 L770.6647 865.5625 L783.0499 898.0483" transform="matrix(0.9859,0,0,0.9859,10.8446,9.8588)"/><path stroke="none" d="M785.8998 905.5234 L786.2969 892.5295 L782.6937 897.1139 L776.953 896.0919 Z" transform="matrix(0.9859,0,0,0.9859,10.8446,9.8588)"/></g></g><g id="y.edge.32"><g stroke-linecap="butt" stroke-miterlimit="1.45"><path fill="none" d="M554.8878 806.582 L602.1647 846.5625 L602.1647 923.5312 L610.2147 955.731" transform="matrix(0.9859,0,0,0.9859,10.8446,9.8588)"/><path stroke="none" d="M612.155 963.4922 L614.0953 950.6378 L609.9722 954.7609 L604.3939 953.0632 Z" transform="matrix(0.9859,0,0,0.9859,10.8446,9.8588)"/></g></g><g id="y.edge.33"><g stroke-linecap="butt" stroke-miterlimit="1.45"><path fill="none" d="M515.2265 806.5723 L358.6647 846.5625 L358.6647 923.5312 L368.1485 955.8165" transform="matrix(0.9859,0,0,0.9859,10.8446,9.8588)"/><path stroke="none" d="M370.4032 963.4922 L371.8184 950.5695 L367.8667 954.8571 L362.2238 953.3879 Z" transform="matrix(0.9859,0,0,0.9859,10.8446,9.8588)"/></g></g></g></svg>