<svg xmlns="http://www.w3.org/2000/svg" xmlns:xlink="http://www.w3.org/1999/xlink" width="1010" height="1240" fill="#000" fill-opacity="1" stroke="#000" stroke-dasharray="none" stroke-dashoffset="0" stroke-linecap="square" stroke-linejoin="miter" stroke-miterlimit="10" stroke-opacity="1" stroke-width="1" color-interpolation="auto" color-rendering="auto" font-family="'Dialog'" font-size="12" font-style="normal" font-weight="normal" image-rendering="auto" shape-rendering="auto" text-rendering="auto"><g><defs id="defs1"><clipPath id="clipPath1" clipPathUnits="userSpaceOnUse"><path d="M0 0 L1010 0 L1010 1240 L0 1240 L0 0 Z"/></clipPath></defs><g id="y.node.0"><g fill="#F8ECC9" stroke="#F8ECC9" transform="matrix(0.9806,0,0,0.9806,9.8058,11.767)"><rect width="970" height="1007.5" x="39.5" y="231.875" stroke="none"/></g><g id="bla"><g fill="#404040" stroke="#404040" transform="matrix(0.9806,0,0,0.9806,9.8058,11.767)"><rect width="970" height="4" x="39.5" y="231.875" stroke="none"/></g></g><g fill="#fff" stroke="#fff" transform="matrix(0.9806,0,0,0.9806,9.8058,11.767)"><rect width="1" height="1007.5" x="39.5" y="231.875" stroke="none"/></g><g fill="#fff" stroke="#fff" transform="matrix(0.9806,0,0,0.9806,9.8058,11.767)"><rect width="968" height="1" x="40.5" y="231.875" stroke="none"/><rect width="969" height="1" x="40.5" y="1238.375" fill="#ADA58C" stroke="none"/><rect width="1" height="1006.5" x="1008.5" y="231.875" fill="#ADA58C" stroke="none"/></g></g><g id="y.node.24"><g fill="#F8ECC9" stroke="#F8ECC9" transform="matrix(0.9806,0,0,0.9806,9.8058,11.767)"><rect width="314.5" height="307.813" x="300.5" y="410.781" stroke="none"/></g><g id="bla"><g fill="#404040" stroke="#404040" transform="matrix(0.9806,0,0,0.9806,9.8058,11.767)"><rect width="314.5" height="4" x="300.5" y="410.781" stroke="none"/></g></g><g fill="#fff" stroke="#fff" transform="matrix(0.9806,0,0,0.9806,9.8058,11.767)"><rect width="1" height="307.813" x="300.5" y="410.781" stroke="none"/><rect width="312.5" height="1" x="301.5" y="410.781" stroke="none"/><rect width="313.5" height="1" x="301.5" y="717.594" fill="#ADA58C" stroke="none"/><rect width="1" height="306.813" x="614" y="410.781" fill="#ADA58C" stroke="none"/></g></g><g id="y.node.28"><g fill="#F8ECC9" stroke="#F8ECC9" transform="matrix(0.9806,0,0,0.9806,9.8058,11.767)"><rect width="141" height="191.875" x="448.5" y="511.719" stroke="none"/></g><g id="bla"><g fill="#404040" stroke="#404040" transform="matrix(0.9806,0,0,0.9806,9.8058,11.767)"><rect width="141" height="4" x="448.5" y="511.719" stroke="none"/></g></g><g fill="#fff" stroke="#fff" transform="matrix(0.9806,0,0,0.9806,9.8058,11.767)"><rect width="1" height="191.875" x="448.5" y="511.719" stroke="none"/><rect width="139" height="1" x="449.5" y="511.719" stroke="none"/><rect width="140" height="1" x="449.5" y="702.594" fill="#ADA58C" stroke="none"/><rect width="1" height="190.875" x="588.5" y="511.719" fill="#ADA58C" stroke="none"/></g></g><g id="y.node.30"><g fill="#F8ECC9" stroke="#F8ECC9" transform="matrix(0.9806,0,0,0.9806,9.8058,11.767)"><rect width="111" height="75.938" x="463.5" y="612.656" stroke="none"/></g><g id="bla"><g fill="#404040" stroke="#404040" transform="matrix(0.9806,0,0,0.9806,9.8058,11.767)"><rect width="111" height="4" x="463.5" y="612.656" stroke="none"/></g></g><g fill="#fff" stroke="#fff" transform="matrix(0.9806,0,0,0.9806,9.8058,11.767)"><rect width="1" height="75.938" x="463.5" y="612.656" stroke="none"/><rect width="109" height="1" x="464.5" y="612.656" stroke="none"/><rect width="110" height="1" x="464.5" y="687.594" fill="#ADA58C" stroke="none"/><rect width="1" height="74.938" x="573.5" y="612.656" fill="#ADA58C" stroke="none"/></g></g><g id="y.node.31"><g fill="#fff" stroke="#fff" transform="matrix(0.9806,0,0,0.9806,9.8058,11.767)"><rect width="81" height="41" x="478" y="631" stroke="none"/><rect width="81" height="41" x="478" y="631" fill="none" stroke="#000"/></g><g id="bla"><g font-family="sans-serif"><text x="492.5" y="649.795" stroke="none" transform="matrix(0.9806,0,0,0.9806,9.8058,11.767)" xml:space="preserve">APRDEP</text><text x="485.5" y="663.764" stroke="none" transform="matrix(0.9806,0,0,0.9806,9.8058,11.767)" xml:space="preserve">(aprdep.f)</text></g></g></g><g id="y.node.29"><g fill="#fff" stroke="#fff" transform="matrix(0.9806,0,0,0.9806,9.8058,11.767)"><rect width="79" height="41" x="479" y="530" stroke="none"/><rect width="79" height="41" x="479" y="530" fill="none" stroke="#000"/></g><g id="bla"><g font-family="sans-serif"><text x="492.5" y="548.857" stroke="none" transform="matrix(0.9806,0,0,0.9806,9.8058,11.767)" xml:space="preserve">POTDVP</text><text x="486.5" y="562.826" stroke="none" transform="matrix(0.9806,0,0,0.9806,9.8058,11.767)" xml:space="preserve">(potdvp.f)</text></g></g></g><g id="y.node.26"><g fill="#F8ECC9" stroke="#F8ECC9" transform="matrix(0.9806,0,0,0.9806,9.8058,11.767)"><rect width="112" height="75.938" x="315.5" y="569.688" stroke="none"/></g><g id="bla"><g fill="#404040" stroke="#404040" transform="matrix(0.9806,0,0,0.9806,9.8058,11.767)"><rect width="112" height="4" x="315.5" y="569.688" stroke="none"/></g></g><g fill="#fff" stroke="#fff" transform="matrix(0.9806,0,0,0.9806,9.8058,11.767)"><rect width="1" height="75.938" x="315.5" y="569.688" stroke="none"/><rect width="110" height="1" x="316.5" y="569.688" stroke="none"/><rect width="111" height="1" x="316.5" y="644.625" fill="#ADA58C" stroke="none"/><rect width="1" height="74.938" x="426.5" y="569.688" fill="#ADA58C" stroke="none"/></g></g><g id="y.node.27"><g fill="#fff" stroke="#fff" transform="matrix(0.9806,0,0,0.9806,9.8058,11.767)"><rect width="82" height="41" x="330" y="588" stroke="none"/><rect width="82" height="41" x="330" y="588" fill="none" stroke="#000"/></g><g id="bla"><g font-family="sans-serif"><text x="344" y="606.826" stroke="none" transform="matrix(0.9806,0,0,0.9806,9.8058,11.767)" xml:space="preserve">NUCDEC</text><text x="337.5" y="620.795" stroke="none" transform="matrix(0.9806,0,0,0.9806,9.8058,11.767)" xml:space="preserve">(nucdec.f)</text></g></g></g><g id="y.node.25"><g fill="#fff" stroke="#fff" transform="matrix(0.9806,0,0,0.9806,9.8058,11.767)"><rect width="72" height="41" x="442" y="429" stroke="none"/><rect width="72" height="41" x="442" y="429" fill="none" stroke="#000"/></g><g id="bla"><g font-family="sans-serif"><text x="453.5" y="447.92" stroke="none" transform="matrix(0.9806,0,0,0.9806,9.8058,11.767)" xml:space="preserve">WFIRDC</text><text x="449.5" y="461.889" stroke="none" transform="matrix(0.9806,0,0,0.9806,9.8058,11.767)" xml:space="preserve">(wfirdc.f)</text></g></g></g><g id="y.node.20"><g fill="#F8ECC9" stroke="#F8ECC9" transform="matrix(0.9806,0,0,0.9806,9.8058,11.767)"><rect width="150" height="231.875" x="269.054" y="836.563" stroke="none"/></g><g id="bla"><g fill="#404040" stroke="#404040" transform="matrix(0.9806,0,0,0.9806,9.8058,11.767)"><rect width="150" height="4" x="269.054" y="836.563" stroke="none"/></g></g><g fill="#fff" stroke="#fff" transform="matrix(0.9806,0,0,0.9806,9.8058,11.767)"><rect width="1" height="231.875" x="269.054" y="836.563" stroke="none"/><rect width="148" height="1" x="270.054" y="836.563" stroke="none"/><rect width="149" height="1" x="270.054" y="1067.438" fill="#ADA58C" stroke="none"/><rect width="1" height="230.875" x="418.054" y="836.563" fill="#ADA58C" stroke="none"/></g></g><g id="y.node.22"><g fill="#F8ECC9" stroke="#F8ECC9" transform="matrix(0.9806,0,0,0.9806,9.8058,11.767)"><rect width="103" height="75.938" x="284.054" y="977.5" stroke="none"/></g><g id="bla"><g fill="#404040" stroke="#404040" transform="matrix(0.9806,0,0,0.9806,9.8058,11.767)"><rect width="103" height="4" x="284.054" y="977.5" stroke="none"/></g></g><g fill="#fff" stroke="#fff" transform="matrix(0.9806,0,0,0.9806,9.8058,11.767)"><rect width="1" height="75.938" x="284.054" y="977.5" stroke="none"/><rect width="101" height="1" x="285.054" y="977.5" stroke="none"/><rect width="102" height="1" x="285.054" y="1052.438" fill="#ADA58C" stroke="none"/><rect width="1" height="74.938" x="386.054" y="977.5" fill="#ADA58C" stroke="none"/></g></g><g id="y.node.23"><g fill="#fff" stroke="#fff" transform="matrix(0.9806,0,0,0.9806,9.8058,11.767)"><rect width="73" height="41" x="299" y="996" stroke="none"/><rect width="73" height="41" x="299" y="996" fill="none" stroke="#000"/></g><g id="bla"><g font-family="sans-serif"><text x="311.554" y="1014.639" stroke="none" transform="matrix(0.9806,0,0,0.9806,9.8058,11.767)" xml:space="preserve">INTOUT</text><text x="306.054" y="1028.607" stroke="none" transform="matrix(0.9806,0,0,0.9806,9.8058,11.767)" xml:space="preserve">(intout.f)</text></g></g></g><g id="y.node.21"><g fill="#fff" stroke="#fff" transform="matrix(0.9806,0,0,0.9806,9.8058,11.767)"><rect width="75" height="41" x="329" y="895" stroke="none"/><rect width="75" height="41" x="329" y="895" fill="none" stroke="#000"/></g><g id="bla"><g font-family="sans-serif"><text x="340.554" y="913.701" stroke="none" transform="matrix(0.9806,0,0,0.9806,9.8058,11.767)" xml:space="preserve">SOLOUT</text><text x="336.054" y="927.67" stroke="none" transform="matrix(0.9806,0,0,0.9806,9.8058,11.767)" xml:space="preserve">(solout.f)</text></g></g></g><g id="y.node.18"><g fill="#F8ECC9" stroke="#F8ECC9" transform="matrix(0.9806,0,0,0.9806,9.8058,11.767)"><rect width="95" height="115.938" x="620.304" y="894.531" stroke="none"/></g><g id="bla"><g fill="#404040" stroke="#404040" transform="matrix(0.9806,0,0,0.9806,9.8058,11.767)"><rect width="95" height="4" x="620.304" y="894.531" stroke="none"/></g></g><g fill="#fff" stroke="#fff" transform="matrix(0.9806,0,0,0.9806,9.8058,11.767)"><rect width="1" height="115.938" x="620.304" y="894.531" stroke="none"/><rect width="93" height="1" x="621.304" y="894.531" stroke="none"/><rect width="94" height="1" x="621.304" y="1009.469" fill="#ADA58C" stroke="none"/><rect width="1" height="114.938" x="714.304" y="894.531" fill="#ADA58C" stroke="none"/></g></g><g id="y.node.19"><g fill="#fff" stroke="#fff" transform="matrix(0.9806,0,0,0.9806,9.8058,11.767)"><rect width="65" height="41" x="635" y="953" stroke="none"/><rect width="65" height="41" x="635" y="953" fill="none" stroke="#000"/></g><g id="bla"><g font-family="sans-serif"><text x="648.304" y="971.67" stroke="none" transform="matrix(0.9806,0,0,0.9806,9.8058,11.767)" xml:space="preserve">SOLIN</text><text x="642.304" y="985.639" stroke="none" transform="matrix(0.9806,0,0,0.9806,9.8058,11.767)" xml:space="preserve">(solin.f)</text></g></g></g><g id="y.node.10"><g fill="#F8ECC9" stroke="#F8ECC9" transform="matrix(0.9806,0,0,0.9806,9.8058,11.767)"><rect width="225" height="463.75" x="54.5" y="332.813" stroke="none"/></g><g id="bla"><g fill="#404040" stroke="#404040" transform="matrix(0.9806,0,0,0.9806,9.8058,11.767)"><rect width="225" height="4" x="54.5" y="332.813" stroke="none"/></g></g><g fill="#fff" stroke="#fff" transform="matrix(0.9806,0,0,0.9806,9.8058,11.767)"><rect width="1" height="463.75" x="54.5" y="332.813" stroke="none"/><rect width="223" height="1" x="55.5" y="332.813" stroke="none"/><rect width="224" height="1" x="55.5" y="795.563" fill="#ADA58C" stroke="none"/><rect width="1" height="462.75" x="278.5" y="332.813" fill="#ADA58C" stroke="none"/></g></g><g id="y.node.14"><g fill="#F8ECC9" stroke="#F8ECC9" transform="matrix(0.9806,0,0,0.9806,9.8058,11.767)"><rect width="150.25" height="191.875" x="80" y="433.75" stroke="none"/></g><g id="bla"><g fill="#404040" stroke="#404040" transform="matrix(0.9806,0,0,0.9806,9.8058,11.767)"><rect width="150.25" height="4" x="80" y="433.75" stroke="none"/></g></g><g fill="#fff" stroke="#fff" transform="matrix(0.9806,0,0,0.9806,9.8058,11.767)"><rect width="1" height="191.875" x="80" y="433.75" stroke="none"/><rect width="148.25" height="1" x="81" y="433.75" stroke="none"/><rect width="149.25" height="1" x="81" y="624.625" fill="#ADA58C" stroke="none"/><rect width="1" height="190.875" x="229.25" y="433.75" fill="#ADA58C" stroke="none"/></g></g><g id="y.node.16"><g fill="#F8ECC9" stroke="#F8ECC9" transform="matrix(0.9806,0,0,0.9806,9.8058,11.767)"><rect width="104" height="75.938" x="95" y="534.688" stroke="none"/></g><g id="bla"><g fill="#404040" stroke="#404040" transform="matrix(0.9806,0,0,0.9806,9.8058,11.767)"><rect width="104" height="4" x="95" y="534.688" stroke="none"/></g></g><g fill="#fff" stroke="#fff" transform="matrix(0.9806,0,0,0.9806,9.8058,11.767)"><rect width="1" height="75.938" x="95" y="534.688" stroke="none"/><rect width="102" height="1" x="96" y="534.688" stroke="none"/><rect width="103" height="1" x="96" y="609.625" fill="#ADA58C" stroke="none"/><rect width="1" height="74.938" x="198" y="534.688" fill="#ADA58C" stroke="none"/></g></g><g id="y.node.17"><g fill="#fff" stroke="#fff" transform="matrix(0.9806,0,0,0.9806,9.8058,11.767)"><rect width="74" height="41" x="110" y="553" stroke="none"/><rect width="74" height="41" x="110" y="553" fill="none" stroke="#000"/></g><g id="bla"><g font-family="sans-serif"><text x="122" y="571.826" stroke="none" transform="matrix(0.9806,0,0,0.9806,9.8058,11.767)" xml:space="preserve">YZKTEC</text><text x="117" y="585.795" stroke="none" transform="matrix(0.9806,0,0,0.9806,9.8058,11.767)" xml:space="preserve">(yzktec.f)</text></g></g></g><g id="y.node.15"><g fill="#fff" stroke="#fff" transform="matrix(0.9806,0,0,0.9806,9.8058,11.767)"><rect width="74" height="41" x="141" y="452" stroke="none"/><rect width="74" height="41" x="141" y="452" fill="none" stroke="#000"/></g><g id="bla"><g font-family="sans-serif"><text x="152.25" y="470.889" stroke="none" transform="matrix(0.9806,0,0,0.9806,9.8058,11.767)" xml:space="preserve">YZKRDC</text><text x="148.25" y="484.857" stroke="none" transform="matrix(0.9806,0,0,0.9806,9.8058,11.767)" xml:space="preserve">(yzkrdc.f)</text></g></g></g><g id="y.node.12"><g fill="#F8ECC9" stroke="#F8ECC9" transform="matrix(0.9806,0,0,0.9806,9.8058,11.767)"><rect width="110" height="115.938" x="154.5" y="665.625" stroke="none"/></g><g id="bla"><g fill="#404040" stroke="#404040" transform="matrix(0.9806,0,0,0.9806,9.8058,11.767)"><rect width="110" height="4" x="154.5" y="665.625" stroke="none"/></g></g><g fill="#fff" stroke="#fff" transform="matrix(0.9806,0,0,0.9806,9.8058,11.767)"><rect width="1" height="115.938" x="154.5" y="665.625" stroke="none"/><rect width="108" height="1" x="155.5" y="665.625" stroke="none"/><rect width="109" height="1" x="155.5" y="780.563" fill="#ADA58C" stroke="none"/><rect width="1" height="114.938" x="263.5" y="665.625" fill="#ADA58C" stroke="none"/></g></g><g id="y.node.13"><g fill="#fff" stroke="#fff" transform="matrix(0.9806,0,0,0.9806,9.8058,11.767)"><rect width="80" height="41" x="169" y="724" stroke="none"/><rect width="80" height="41" x="169" y="724" fill="none" stroke="#000"/></g><g id="bla"><g font-family="sans-serif"><text x="183" y="742.764" stroke="none" transform="matrix(0.9806,0,0,0.9806,9.8058,11.767)" xml:space="preserve">APRDEC</text><text x="176.5" y="756.732" stroke="none" transform="matrix(0.9806,0,0,0.9806,9.8058,11.767)" xml:space="preserve">(aprdec.f)</text></g></g></g><g id="y.node.11"><g fill="#fff" stroke="#fff" transform="matrix(0.9806,0,0,0.9806,9.8058,11.767)"><rect width="71" height="41" x="180" y="351" stroke="none"/><rect width="71" height="41" x="180" y="351" fill="none" stroke="#000"/></g><g id="bla"><g font-family="sans-serif"><text x="194.797" y="369.951" stroke="none" transform="matrix(0.9806,0,0,0.9806,9.8058,11.767)" xml:space="preserve">POTEX</text><text x="187.797" y="383.92" stroke="none" transform="matrix(0.9806,0,0,0.9806,9.8058,11.767)" xml:space="preserve">(potex.f)</text></g></g></g><g id="y.node.8"><g fill="#F8ECC9" stroke="#F8ECC9" transform="matrix(0.9806,0,0,0.9806,9.8058,11.767)"><rect width="112" height="75.938" x="872" y="526.719" stroke="none"/></g><g id="bla"><g fill="#404040" stroke="#404040" transform="matrix(0.9806,0,0,0.9806,9.8058,11.767)"><rect width="112" height="4" x="872" y="526.719" stroke="none"/></g></g><g fill="#fff" stroke="#fff" transform="matrix(0.9806,0,0,0.9806,9.8058,11.767)"><rect width="1" height="75.938" x="872" y="526.719" stroke="none"/><rect width="110" height="1" x="873" y="526.719" stroke="none"/><rect width="111" height="1" x="873" y="601.656" fill="#ADA58C" stroke="none"/><rect width="1" height="74.938" x="983" y="526.719" fill="#ADA58C" stroke="none"/></g></g><g id="y.node.9"><g fill="#fff" stroke="#fff" transform="matrix(0.9806,0,0,0.9806,9.8058,11.767)"><rect width="82" height="41" x="887" y="545" stroke="none"/><rect width="82" height="41" x="887" y="545" fill="none" stroke="#000"/></g><g id="bla"><g font-family="sans-serif"><text x="901" y="563.857" stroke="none" transform="matrix(0.9806,0,0,0.9806,9.8058,11.767)" xml:space="preserve">MUATCC</text><text x="894" y="577.826" stroke="none" transform="matrix(0.9806,0,0,0.9806,9.8058,11.767)" xml:space="preserve">(muatcc.f)</text></g></g></g><g id="y.node.6"><g fill="#F8ECC9" stroke="#F8ECC9" transform="matrix(0.9806,0,0,0.9806,9.8058,11.767)"><rect width="111" height="75.938" x="741" y="526.719" stroke="none"/></g><g id="bla"><g fill="#404040" stroke="#404040" transform="matrix(0.9806,0,0,0.9806,9.8058,11.767)"><rect width="111" height="4" x="741" y="526.719" stroke="none"/></g></g><g fill="#fff" stroke="#fff" transform="matrix(0.9806,0,0,0.9806,9.8058,11.767)"><rect width="1" height="75.938" x="741" y="526.719" stroke="none"/><rect width="109" height="1" x="742" y="526.719" stroke="none"/><rect width="110" height="1" x="742" y="601.656" fill="#ADA58C" stroke="none"/><rect width="1" height="74.938" x="851" y="526.719" fill="#ADA58C" stroke="none"/></g></g><g id="y.node.7"><g fill="#fff" stroke="#fff" transform="matrix(0.9806,0,0,0.9806,9.8058,11.767)"><rect width="81" height="41" x="756" y="545" stroke="none"/><rect width="81" height="41" x="756" y="545" fill="none" stroke="#000"/></g><g id="bla"><g font-family="sans-serif"><text x="771" y="563.857" stroke="none" transform="matrix(0.9806,0,0,0.9806,9.8058,11.767)" xml:space="preserve">INMUAC</text><text x="763" y="577.826" stroke="none" transform="matrix(0.9806,0,0,0.9806,9.8058,11.767)" xml:space="preserve">(inmuac.f)</text></g></g></g><g id="y.node.4"><g fill="#F8ECC9" stroke="#F8ECC9" transform="matrix(0.9806,0,0,0.9806,9.8058,11.767)"><rect width="105" height="115.938" x="616.075" y="1108.438" stroke="none"/></g><g id="bla"><g fill="#404040" stroke="#404040" transform="matrix(0.9806,0,0,0.9806,9.8058,11.767)"><rect width="105" height="4" x="616.075" y="1108.438" stroke="none"/></g></g><g fill="#fff" stroke="#fff" transform="matrix(0.9806,0,0,0.9806,9.8058,11.767)"><rect width="1" height="115.938" x="616.075" y="1108.438" stroke="none"/><rect width="103" height="1" x="617.075" y="1108.438" stroke="none"/><rect width="104" height="1" x="617.075" y="1223.375" fill="#ADA58C" stroke="none"/><rect width="1" height="114.938" x="720.075" y="1108.438" fill="#ADA58C" stroke="none"/></g></g><g id="y.node.5"><g fill="#fff" stroke="#fff" transform="matrix(0.9806,0,0,0.9806,9.8058,11.767)"><rect width="75" height="41" x="631" y="1167" stroke="none"/><rect width="75" height="41" x="631" y="1167" fill="none" stroke="#000"/></g><g id="bla"><g font-family="sans-serif"><text x="648.575" y="1185.576" stroke="none" transform="matrix(0.9806,0,0,0.9806,9.8058,11.767)" xml:space="preserve">FLATV</text><text x="638.075" y="1199.545" stroke="none" transform="matrix(0.9806,0,0,0.9806,9.8058,11.767)" xml:space="preserve">(dfovrg.f)</text></g></g></g><g id="y.node.2"><g fill="#F8ECC9" stroke="#F8ECC9" transform="matrix(0.9806,0,0,0.9806,9.8058,11.767)"><rect width="85" height="75.938" x="635" y="526.719" stroke="none"/></g><g id="bla"><g fill="#404040" stroke="#404040" transform="matrix(0.9806,0,0,0.9806,9.8058,11.767)"><rect width="85" height="4" x="635" y="526.719" stroke="none"/></g></g><g fill="#fff" stroke="#fff" transform="matrix(0.9806,0,0,0.9806,9.8058,11.767)"><rect width="1" height="75.938" x="635" y="526.719" stroke="none"/><rect width="83" height="1" x="636" y="526.719" stroke="none"/><rect width="84" height="1" x="636" y="601.656" fill="#ADA58C" stroke="none"/><rect width="1" height="74.938" x="719" y="526.719" fill="#ADA58C" stroke="none"/></g></g><g id="y.node.3"><g fill="#fff" stroke="#fff" transform="matrix(0.9806,0,0,0.9806,9.8058,11.767)"><rect width="55" height="41" x="650" y="545" stroke="none"/><rect width="55" height="41" x="650" y="545" fill="none" stroke="#000"/></g><g id="bla"><g font-family="sans-serif"><text x="662.5" y="563.857" stroke="none" transform="matrix(0.9806,0,0,0.9806,9.8058,11.767)" xml:space="preserve">DIFF</text><text x="657" y="577.826" stroke="none" transform="matrix(0.9806,0,0,0.9806,9.8058,11.767)" xml:space="preserve">(diff.f)</text></g></g></g><g id="y.node.1"><g fill="#fff" stroke="#fff" transform="matrix(0.9806,0,0,0.9806,9.8058,11.767)"><rect width="75" height="41" x="665" y="250" stroke="none"/><rect width="75" height="41" x="665" y="250" fill="none" stroke="#000"/></g><g id="bla"><g font-family="sans-serif"><text x="676.229" y="269.014" stroke="none" transform="matrix(0.9806,0,0,0.9806,9.8058,11.767)" xml:space="preserve">DFOVRG</text><text x="672.729" y="282.982" stroke="none" transform="matrix(0.9806,0,0,0.9806,9.8058,11.767)" xml:space="preserve">(dfovrg.f)</text></g></g></g><g id="y.node.32"><g fill="#F8ECC9" stroke="#F8ECC9" transform="matrix(0.9806,0,0,0.9806,9.8058,11.767)"><rect width="139" height="191.875" x="0" y="0" stroke="none"/></g><g id="bla"><g fill="#404040" stroke="#404040" transform="matrix(0.9806,0,0,0.9806,9.8058,11.767)"><rect width="139" height="4" x="0" y="0" stroke="none"/></g></g><g fill="#fff" stroke="#fff" transform="matrix(0.9806,0,0,0.9806,9.8058,11.767)"><rect width="1" height="191.875" x="0" y="0" stroke="none"/><rect width="137" height="1" x="1" y="0" stroke="none"/><rect width="138" height="1" x="1" y="190.875" fill="#ADA58C" stroke="none"/><rect width="1" height="190.875" x="138" y="0" fill="#ADA58C" stroke="none"/></g></g><g id="y.node.34"><g fill="#F8ECC9" stroke="#F8ECC9" transform="matrix(0.9806,0,0,0.9806,9.8058,11.767)"><rect width="109" height="75.938" x="15" y="100.938" stroke="none"/></g><g id="bla"><g fill="#404040" stroke="#404040" transform="matrix(0.9806,0,0,0.9806,9.8058,11.767)"><rect width="109" height="4" x="15" y="100.938" stroke="none"/></g></g><g fill="#fff" stroke="#fff" transform="matrix(0.9806,0,0,0.9806,9.8058,11.767)"><rect width="1" height="75.938" x="15" y="100.938" stroke="none"/><rect width="107" height="1" x="16" y="100.938" stroke="none"/><rect width="108" height="1" x="16" y="175.875" fill="#ADA58C" stroke="none"/><rect width="1" height="74.938" x="123" y="100.938" fill="#ADA58C" stroke="none"/></g></g><g id="y.node.35"><g fill="#fff" stroke="#fff" transform="matrix(0.9806,0,0,0.9806,9.8058,11.767)"><rect width="79" height="41" x="30" y="119" stroke="none"/><rect width="79" height="41" x="30" y="119" fill="none" stroke="#000"/></g><g id="bla"><g font-family="sans-serif"><text x="42" y="138.076" stroke="none" transform="matrix(0.9806,0,0,0.9806,9.8058,11.767)" xml:space="preserve">DSORDC</text><text x="37" y="152.045" stroke="none" transform="matrix(0.9806,0,0,0.9806,9.8058,11.767)" xml:space="preserve">(dsordc.f)</text></g></g></g><g id="y.node.33"><g fill="#fff" stroke="#fff" transform="matrix(0.9806,0,0,0.9806,9.8058,11.767)"><rect width="77" height="41" x="31" y="19" stroke="none"/><rect width="77" height="41" x="31" y="19" fill="none" stroke="#000"/></g><g id="bla"><g font-family="sans-serif"><text x="43" y="37.139" stroke="none" transform="matrix(0.9806,0,0,0.9806,9.8058,11.767)" xml:space="preserve">ORTDAC</text><text x="38" y="51.107" stroke="none" transform="matrix(0.9806,0,0,0.9806,9.8058,11.767)" xml:space="preserve">(ortdac.f)</text></g></g></g><g id="y.edge.0"><g stroke-linecap="butt" stroke-miterlimit="1.45"><path fill="none" d="M698.5211 292.8516 L677.5 332.8125 L677.5 537.6927" transform="matrix(0.9806,0,0,0.9806,9.8058,11.767)"/><path stroke="none" d="M677.5 545.6927 L682.5 533.6927 L677.5 536.6927 L672.5 533.6927 Z" transform="matrix(0.9806,0,0,0.9806,9.8058,11.767)"/></g></g><g id="y.edge.1"><g stroke-linecap="butt" stroke-miterlimit="1.45"><path fill="none" d="M736.0732 292.8174 L994.5 332.8125 L994.5 1068.4375 L678.575 1108.4375 L678.575 1127.4375 L690.7513 1159.9078" transform="matrix(0.9806,0,0,0.9806,9.8058,11.767)"/><path stroke="none" d="M693.5603 1167.3984 L694.0285 1154.4069 L690.4002 1158.9714 L684.6652 1157.9181 Z" transform="matrix(0.9806,0,0,0.9806,9.8058,11.767)"/></g></g><g id="y.edge.2"><g stroke-linecap="butt" stroke-miterlimit="1.45"><path fill="none" d="M717.3303 292.832 L796.5 332.8125 L796.5 537.6927" transform="matrix(0.9806,0,0,0.9806,9.8058,11.767)"/><path stroke="none" d="M796.5 545.6927 L801.5 533.6927 L796.5 536.6927 L791.5 533.6927 Z" transform="matrix(0.9806,0,0,0.9806,9.8058,11.767)"/></g></g><g id="y.edge.3"><g stroke-linecap="butt" stroke-miterlimit="1.45"><path fill="none" d="M726.6912 292.8174 L928 332.8125 L928 537.6927" transform="matrix(0.9806,0,0,0.9806,9.8058,11.767)"/><path stroke="none" d="M928 545.6927 L933 533.6927 L928 536.6927 L923 533.6927 Z" transform="matrix(0.9806,0,0,0.9806,9.8058,11.767)"/></g></g><g id="y.edge.4"><g stroke-linecap="butt" stroke-miterlimit="1.45"><path fill="none" d="M670.389 292.8149 L216.2969 332.8125 L216.2969 343.7754" transform="matrix(0.9806,0,0,0.9806,9.8058,11.767)"/><path stroke="none" d="M216.2969 351.7754 L221.2969 339.7754 L216.2969 342.7754 L211.2969 339.7754 Z" transform="matrix(0.9806,0,0,0.9806,9.8058,11.767)"/></g></g><g id="y.edge.5"><g stroke-linecap="butt" stroke-miterlimit="1.45"><path fill="none" d="M707.9387 292.8516 L730.5 332.8125 L730.5 796.5625 L672.8041 836.5625 L672.8041 913.5312 L681.8772 945.791" transform="matrix(0.9806,0,0,0.9806,9.8058,11.767)"/><path stroke="none" d="M684.0432 953.4922 L685.6075 940.5867 L681.6064 944.8283 L675.981 943.2941 Z" transform="matrix(0.9806,0,0,0.9806,9.8058,11.767)"/></g></g><g id="y.edge.6"><g stroke-linecap="butt" stroke-miterlimit="1.45"><path fill="none" d="M679.7441 292.8174 L290 332.8125 L290 796.5625 L361.5542 836.5625 L361.5542 855.5625 L350.4182 887.9579" transform="matrix(0.9806,0,0,0.9806,9.8058,11.767)"/><path stroke="none" d="M347.8176 895.5234 L356.447 885.8006 L350.7433 887.0123 L346.9901 882.5498 Z" transform="matrix(0.9806,0,0,0.9806,9.8058,11.767)"/></g></g><g id="y.edge.7"><g stroke-linecap="butt" stroke-miterlimit="1.45"><path fill="none" d="M689.1409 292.8174 L478.5 332.8125 L478.5 421.7339" transform="matrix(0.9806,0,0,0.9806,9.8058,11.767)"/><path stroke="none" d="M478.5 429.7339 L483.5 417.7339 L478.5 420.7339 L473.5 417.7339 Z" transform="matrix(0.9806,0,0,0.9806,9.8058,11.767)"/></g></g><g id="y.edge.8"><g stroke-linecap="butt" stroke-miterlimit="1.45"><path fill="none" d="M234.0534 393.7891 L240.75 433.75 L240.75 625.625 L219.5 665.625 L219.5 684.625 L233.0735 717.2013" transform="matrix(0.9806,0,0,0.9806,9.8058,11.767)"/><path stroke="none" d="M236.1504 724.5859 L236.1504 711.5859 L232.6888 716.2783 L226.9196 715.4321 Z" transform="matrix(0.9806,0,0,0.9806,9.8058,11.767)"/></g></g><g id="y.edge.9"><g stroke-linecap="butt" stroke-miterlimit="1.45"><path fill="none" d="M198.5271 393.7891 L178.25 433.75 L178.25 444.7129" transform="matrix(0.9806,0,0,0.9806,9.8058,11.767)"/><path stroke="none" d="M178.25 452.7129 L183.25 440.7129 L178.25 443.7129 L173.25 440.7129 Z" transform="matrix(0.9806,0,0,0.9806,9.8058,11.767)"/></g></g><g id="y.edge.10"><g stroke-linecap="butt" stroke-miterlimit="1.45"><path fill="none" d="M196.7625 494.7266 L209.5 534.6875 L209.5 716.5786" transform="matrix(0.9806,0,0,0.9806,9.8058,11.767)"/><path stroke="none" d="M209.5 724.5786 L214.5 712.5786 L209.5 715.5786 L204.5 712.5786 Z" transform="matrix(0.9806,0,0,0.9806,9.8058,11.767)"/></g></g><g id="y.edge.11"><g stroke-linecap="butt" stroke-miterlimit="1.45"><path fill="none" d="M159.7375 494.7266 L147 534.6875 L147 545.6504" transform="matrix(0.9806,0,0,0.9806,9.8058,11.767)"/><path stroke="none" d="M147 553.6504 L152 541.6504 L147 544.6504 L142 541.6504 Z" transform="matrix(0.9806,0,0,0.9806,9.8058,11.767)"/></g></g><g id="y.edge.12"><g stroke-linecap="butt" stroke-miterlimit="1.45"><path fill="none" d="M667.8044 995.501 L668.575 1127.4375 L668.575 1159.3984" transform="matrix(0.9806,0,0,0.9806,9.8058,11.767)"/><path stroke="none" d="M668.575 1167.3984 L673.575 1155.3984 L668.575 1158.3984 L663.575 1155.3984 Z" transform="matrix(0.9806,0,0,0.9806,9.8058,11.767)"/></g></g><g id="y.edge.13"><g stroke-linecap="butt" stroke-miterlimit="1.45"><path fill="none" d="M385.3161 937.5391 L397.5542 977.5 L397.5542 1068.4375 L658.575 1108.4375 L658.575 1127.4375 L646.3986 1159.9078" transform="matrix(0.9806,0,0,0.9806,9.8058,11.767)"/><path stroke="none" d="M643.5896 1167.3984 L652.4847 1157.9181 L646.7497 1158.9714 L643.1215 1154.4069 Z" transform="matrix(0.9806,0,0,0.9806,9.8058,11.767)"/></g></g><g id="y.edge.14"><g stroke-linecap="butt" stroke-miterlimit="1.45"><path fill="none" d="M347.7922 937.5391 L335.5542 977.5 L335.5542 988.4629" transform="matrix(0.9806,0,0,0.9806,9.8058,11.767)"/><path stroke="none" d="M335.5542 996.4629 L340.5542 984.4629 L335.5542 987.4629 L330.5542 984.4629 Z" transform="matrix(0.9806,0,0,0.9806,9.8058,11.767)"/></g></g><g id="y.edge.15"><g stroke-linecap="butt" stroke-miterlimit="1.45"><path fill="none" d="M451.4609 471.7383 L371.5 511.7188 L371.5 580.6499" transform="matrix(0.9806,0,0,0.9806,9.8058,11.767)"/><path stroke="none" d="M371.5 588.6499 L376.5 576.6499 L371.5 579.6499 L366.5 576.6499 Z" transform="matrix(0.9806,0,0,0.9806,9.8058,11.767)"/></g></g><g id="y.edge.16"><g stroke-linecap="butt" stroke-miterlimit="1.45"><path fill="none" d="M487.5308 471.7578 L519 511.7188 L519 522.6816" transform="matrix(0.9806,0,0,0.9806,9.8058,11.767)"/><path stroke="none" d="M519 530.6816 L524 518.6816 L519 521.6816 L514 518.6816 Z" transform="matrix(0.9806,0,0,0.9806,9.8058,11.767)"/></g></g><g id="y.edge.17"><g stroke-linecap="butt" stroke-miterlimit="1.45"><path fill="none" d="M505.5231 471.7285 L600 511.7188 L600 796.5625 L662.8041 836.5625 L662.8041 913.5312 L653.7311 945.791" transform="matrix(0.9806,0,0,0.9806,9.8058,11.767)"/><path stroke="none" d="M651.5652 953.4922 L659.6274 943.2941 L654.0019 944.8283 L650.0009 940.5867 Z" transform="matrix(0.9806,0,0,0.9806,9.8058,11.767)"/></g></g><g id="y.edge.18"><g stroke-linecap="butt" stroke-miterlimit="1.45"><path fill="none" d="M469.4692 471.7578 L438 511.7188 L438 796.5625 L371.5542 836.5625 L371.5542 855.5625 L382.6901 887.9579" transform="matrix(0.9806,0,0,0.9806,9.8058,11.767)"/><path stroke="none" d="M385.2907 895.5234 L386.1182 882.5498 L382.365 887.0123 L376.6613 885.8006 Z" transform="matrix(0.9806,0,0,0.9806,9.8058,11.767)"/></g></g><g id="y.edge.19"><g stroke-linecap="butt" stroke-miterlimit="1.45"><path fill="none" d="M519 572.6851 L519 623.6274" transform="matrix(0.9806,0,0,0.9806,9.8058,11.767)"/><path stroke="none" d="M519 631.6274 L524 619.6274 L519 622.6274 L514 619.6274 Z" transform="matrix(0.9806,0,0,0.9806,9.8058,11.767)"/></g></g><g id="y.edge.20"><g stroke-linecap="butt" stroke-miterlimit="1.45"><path fill="none" d="M69.5 60.9663 L69.5 111.9087" transform="matrix(0.9806,0,0,0.9806,9.8058,11.767)"/><path stroke="none" d="M69.5 119.9087 L74.5 107.9087 L69.5 110.9087 L64.5 107.9087 Z" transform="matrix(0.9806,0,0,0.9806,9.8058,11.767)"/></g></g><g id="y.edge.21"><g stroke-linecap="butt" stroke-miterlimit="1.45"><path fill="none" d="M69.5 161.9033 L69.5 625.625 L199.5 665.625 L199.5 684.625 L185.9265 717.2013" transform="matrix(0.9806,0,0,0.9806,9.8058,11.767)"/><path stroke="none" d="M182.8496 724.5859 L192.0804 715.4321 L186.3112 716.2783 L182.8496 711.5859 Z" transform="matrix(0.9806,0,0,0.9806,9.8058,11.767)"/></g></g></g></svg>