<svg xmlns="http://www.w3.org/2000/svg" xmlns:xlink="http://www.w3.org/1999/xlink" width="2307" height="1597" fill="#000" fill-opacity="1" stroke="#000" stroke-dasharray="none" stroke-dashoffset="0" stroke-linecap="square" stroke-linejoin="miter" stroke-miterlimit="10" stroke-opacity="1" stroke-width="1" color-interpolation="auto" color-rendering="auto" font-family="'Dialog'" font-size="12" font-style="normal" font-weight="normal" image-rendering="auto" shape-rendering="auto" text-rendering="auto"><g><defs id="defs1"><clipPath id="clipPath1" clipPathUnits="userSpaceOnUse"><path d="M0 0 L2307 0 L2307 1597 L0 1597 L0 0 Z"/></clipPath></defs><g id="y.node.0"><g fill="#F8ECC9" stroke="#F8ECC9" transform="matrix(0.9876,0,0,0.9876,13.8268,9.8763)"><rect width="350" height="307.813" x="473.28" y="1051.563" stroke="none"/></g><g id="bla"><g fill="#404040" stroke="#404040" transform="matrix(0.9876,0,0,0.9876,13.8268,9.8763)"><rect width="350" height="4" x="473.28" y="1051.563" stroke="none"/></g></g><g fill="#fff" stroke="#fff" transform="matrix(0.9876,0,0,0.9876,13.8268,9.8763)"><rect width="1" height="307.813" x="473.28" y="1051.563" stroke="none"/></g><g fill="#fff" stroke="#fff" transform="matrix(0.9876,0,0,0.9876,13.8268,9.8763)"><rect width="348" height="1" x="474.28" y="1051.563" stroke="none"/><rect width="349" height="1" x="474.28" y="1358.375" fill="#ADA58C" stroke="none"/><rect width="1" height="306.813" x="822.28" y="1051.563" fill="#ADA58C" stroke="none"/></g></g><g id="y.node.2"><g fill="#F8ECC9" stroke="#F8ECC9" transform="matrix(0.9876,0,0,0.9876,13.8268,9.8763)"><rect width="245" height="191.875" x="563.28" y="1152.5" stroke="none"/></g><g id="bla"><g fill="#404040" stroke="#404040" transform="matrix(0.9876,0,0,0.9876,13.8268,9.8763)"><rect width="245" height="4" x="563.28" y="1152.5" stroke="none"/></g></g><g fill="#fff" stroke="#fff" transform="matrix(0.9876,0,0,0.9876,13.8268,9.8763)"><rect width="1" height="191.875" x="563.28" y="1152.5" stroke="none"/><rect width="243" height="1" x="564.28" y="1152.5" stroke="none"/><rect width="244" height="1" x="564.28" y="1343.375" fill="#ADA58C" stroke="none"/><rect width="1" height="190.875" x="807.28" y="1152.5" fill="#ADA58C" stroke="none"/></g></g><g id="y.node.4"><g fill="#F8ECC9" stroke="#F8ECC9" transform="matrix(0.9876,0,0,0.9876,13.8268,9.8763)"><rect width="89" height="75.938" x="673.78" y="1253.438" stroke="none"/></g><g id="bla"><g fill="#404040" stroke="#404040" transform="matrix(0.9876,0,0,0.9876,13.8268,9.8763)"><rect width="89" height="4" x="673.78" y="1253.438" stroke="none"/></g></g><g fill="#fff" stroke="#fff" transform="matrix(0.9876,0,0,0.9876,13.8268,9.8763)"><rect width="1" height="75.938" x="673.78" y="1253.438" stroke="none"/><rect width="87" height="1" x="674.78" y="1253.438" stroke="none"/><rect width="88" height="1" x="674.78" y="1328.375" fill="#ADA58C" stroke="none"/><rect width="1" height="74.938" x="761.78" y="1253.438" fill="#ADA58C" stroke="none"/></g></g><g id="y.node.5"><g fill="#fff" stroke="#fff" transform="matrix(0.9876,0,0,0.9876,13.8268,9.8763)"><rect width="59" height="41" x="688" y="1272" stroke="none"/><rect width="59" height="41" x="688" y="1272" fill="none" stroke="#000"/></g><g id="bla"><g font-family="sans-serif"><text x="695.78" y="1290.576" stroke="none" transform="matrix(0.9876,0,0,0.9876,13.8268,9.8763)" xml:space="preserve">ISTRLN</text><text x="698.78" y="1304.545" stroke="none" transform="matrix(0.9876,0,0,0.9876,13.8268,9.8763)" xml:space="preserve">(str.f)</text></g></g></g><g id="y.node.3"><g fill="#fff" stroke="#fff" transform="matrix(0.9876,0,0,0.9876,13.8268,9.8763)"><rect width="64" height="41" x="598" y="1171" stroke="none"/><rect width="64" height="41" x="598" y="1171" fill="none" stroke="#000"/></g><g id="bla"><g font-family="sans-serif"><text x="611.28" y="1189.639" stroke="none" transform="matrix(0.9876,0,0,0.9876,13.8268,9.8763)" xml:space="preserve">WLOG</text><text x="605.78" y="1203.607" stroke="none" transform="matrix(0.9876,0,0,0.9876,13.8268,9.8763)" xml:space="preserve">(wlog.f)</text></g></g></g><g id="y.node.1"><g fill="#fff" stroke="#fff" transform="matrix(0.9876,0,0,0.9876,13.8268,9.8763)"><rect width="72" height="41" x="539" y="1070" stroke="none"/><rect width="72" height="41" x="539" y="1070" fill="none" stroke="#000"/></g><g id="bla"><g font-family="sans-serif"><text x="552.78" y="1088.701" stroke="none" transform="matrix(0.9876,0,0,0.9876,13.8268,9.8763)" xml:space="preserve">FIXDSP</text><text x="546.78" y="1102.67" stroke="none" transform="matrix(0.9876,0,0,0.9876,13.8268,9.8763)" xml:space="preserve">(fixdsp.f)</text></g></g></g><g id="y.node.6"><g fill="#F8ECC9" stroke="#F8ECC9" transform="matrix(0.9876,0,0,0.9876,13.8268,9.8763)"><rect width="100" height="75.938" x="1516" y="1404.375" stroke="none"/></g><g id="bla"><g fill="#404040" stroke="#404040" transform="matrix(0.9876,0,0,0.9876,13.8268,9.8763)"><rect width="100" height="4" x="1516" y="1404.375" stroke="none"/></g></g><g fill="#fff" stroke="#fff" transform="matrix(0.9876,0,0,0.9876,13.8268,9.8763)"><rect width="1" height="75.938" x="1516" y="1404.375" stroke="none"/><rect width="98" height="1" x="1517" y="1404.375" stroke="none"/><rect width="99" height="1" x="1517" y="1479.313" fill="#ADA58C" stroke="none"/><rect width="1" height="74.938" x="1615" y="1404.375" fill="#ADA58C" stroke="none"/></g></g><g id="y.node.7"><g fill="#fff" stroke="#fff" transform="matrix(0.9876,0,0,0.9876,13.8268,9.8763)"><rect width="70" height="41" x="1531" y="1423" stroke="none"/><rect width="70" height="41" x="1531" y="1423" fill="none" stroke="#000"/></g><g id="bla"><g font-family="sans-serif"><text x="1543.5" y="1441.514" stroke="none" transform="matrix(0.9876,0,0,0.9876,13.8268,9.8763)" xml:space="preserve">FIXDSX</text><text x="1538" y="1455.482" stroke="none" transform="matrix(0.9876,0,0,0.9876,13.8268,9.8763)" xml:space="preserve">(fixdsx.f)</text></g></g></g><g id="y.node.8"><g fill="#F8ECC9" stroke="#F8ECC9" transform="matrix(0.9876,0,0,0.9876,13.8268,9.8763)"><rect width="98" height="75.938" x="1806" y="1404.375" stroke="none"/></g><g id="bla"><g fill="#404040" stroke="#404040" transform="matrix(0.9876,0,0,0.9876,13.8268,9.8763)"><rect width="98" height="4" x="1806" y="1404.375" stroke="none"/></g></g><g fill="#fff" stroke="#fff" transform="matrix(0.9876,0,0,0.9876,13.8268,9.8763)"><rect width="1" height="75.938" x="1806" y="1404.375" stroke="none"/><rect width="96" height="1" x="1807" y="1404.375" stroke="none"/><rect width="97" height="1" x="1807" y="1479.313" fill="#ADA58C" stroke="none"/><rect width="1" height="74.938" x="1903" y="1404.375" fill="#ADA58C" stroke="none"/></g></g><g id="y.node.9"><g fill="#fff" stroke="#fff" transform="matrix(0.9876,0,0,0.9876,13.8268,9.8763)"><rect width="68" height="41" x="1821" y="1423" stroke="none"/><rect width="68" height="41" x="1821" y="1423" fill="none" stroke="#000"/></g><g id="bla"><g font-family="sans-serif"><text x="1832.5" y="1441.514" stroke="none" transform="matrix(0.9876,0,0,0.9876,13.8268,9.8763)" xml:space="preserve">FIXVAR</text><text x="1828" y="1455.482" stroke="none" transform="matrix(0.9876,0,0,0.9876,13.8268,9.8763)" xml:space="preserve">(fixvar.f)</text></g></g></g><g id="y.node.10"><g fill="#F8ECC9" stroke="#F8ECC9" transform="matrix(0.9876,0,0,0.9876,13.8268,9.8763)"><rect width="108" height="75.938" x="184" y="799.688" stroke="none"/></g><g id="bla"><g fill="#404040" stroke="#404040" transform="matrix(0.9876,0,0,0.9876,13.8268,9.8763)"><rect width="108" height="4" x="184" y="799.688" stroke="none"/></g></g><g fill="#fff" stroke="#fff" transform="matrix(0.9876,0,0,0.9876,13.8268,9.8763)"><rect width="1" height="75.938" x="184" y="799.688" stroke="none"/><rect width="106" height="1" x="185" y="799.688" stroke="none"/><rect width="107" height="1" x="185" y="874.625" fill="#ADA58C" stroke="none"/><rect width="1" height="74.938" x="291" y="799.688" fill="#ADA58C" stroke="none"/></g></g><g id="y.node.11"><g fill="#fff" stroke="#fff" transform="matrix(0.9876,0,0,0.9876,13.8268,9.8763)"><rect width="78" height="41" x="199" y="818" stroke="none"/><rect width="78" height="41" x="199" y="818" fill="none" stroke="#000"/></g><g id="bla"><g font-family="sans-serif"><text x="211.5" y="836.826" stroke="none" transform="matrix(0.9876,0,0,0.9876,13.8268,9.8763)" xml:space="preserve">GETORB</text><text x="206" y="850.795" stroke="none" transform="matrix(0.9876,0,0,0.9876,13.8268,9.8763)" xml:space="preserve">(getorb.f)</text></g></g></g><g id="y.node.12"><g fill="#F8ECC9" stroke="#F8ECC9" transform="matrix(0.9876,0,0,0.9876,13.8268,9.8763)"><rect width="100" height="75.938" x="1661" y="1404.375" stroke="none"/></g><g id="bla"><g fill="#404040" stroke="#404040" transform="matrix(0.9876,0,0,0.9876,13.8268,9.8763)"><rect width="100" height="4" x="1661" y="1404.375" stroke="none"/></g></g><g fill="#fff" stroke="#fff" transform="matrix(0.9876,0,0,0.9876,13.8268,9.8763)"><rect width="1" height="75.938" x="1661" y="1404.375" stroke="none"/><rect width="98" height="1" x="1662" y="1404.375" stroke="none"/><rect width="99" height="1" x="1662" y="1479.313" fill="#ADA58C" stroke="none"/><rect width="1" height="74.938" x="1760" y="1404.375" fill="#ADA58C" stroke="none"/></g></g><g id="y.node.13"><g fill="#fff" stroke="#fff" transform="matrix(0.9876,0,0,0.9876,13.8268,9.8763)"><rect width="70" height="41" x="1676" y="1423" stroke="none"/><rect width="70" height="41" x="1676" y="1423" fill="none" stroke="#000"/></g><g id="bla"><g font-family="sans-serif"><text x="1690" y="1441.514" stroke="none" transform="matrix(0.9876,0,0,0.9876,13.8268,9.8763)" xml:space="preserve">GETXK</text><text x="1683" y="1455.482" stroke="none" transform="matrix(0.9876,0,0,0.9876,13.8268,9.8763)" xml:space="preserve">(getxk.f)</text></g></g></g><g id="y.node.14"><g fill="#F8ECC9" stroke="#F8ECC9" transform="matrix(0.9876,0,0,0.9876,13.8268,9.8763)"><rect width="98" height="75.938" x="588" y="799.688" stroke="none"/></g><g id="bla"><g fill="#404040" stroke="#404040" transform="matrix(0.9876,0,0,0.9876,13.8268,9.8763)"><rect width="98" height="4" x="588" y="799.688" stroke="none"/></g></g><g fill="#fff" stroke="#fff" transform="matrix(0.9876,0,0,0.9876,13.8268,9.8763)"><rect width="1" height="75.938" x="588" y="799.688" stroke="none"/><rect width="96" height="1" x="589" y="799.688" stroke="none"/><rect width="97" height="1" x="589" y="874.625" fill="#ADA58C" stroke="none"/><rect width="1" height="74.938" x="685" y="799.688" fill="#ADA58C" stroke="none"/></g></g><g id="y.node.15"><g fill="#fff" stroke="#fff" transform="matrix(0.9876,0,0,0.9876,13.8268,9.8763)"><rect width="68" height="41" x="603" y="818" stroke="none"/><rect width="68" height="41" x="603" y="818" fill="none" stroke="#000"/></g><g id="bla"><g font-family="sans-serif"><text x="610.5" y="836.826" stroke="none" transform="matrix(0.9876,0,0,0.9876,13.8268,9.8763)" xml:space="preserve">STHEAD</text><text x="610" y="850.795" stroke="none" transform="matrix(0.9876,0,0,0.9876,13.8268,9.8763)" xml:space="preserve">(head.f)</text></g></g></g><g id="y.node.16"><g fill="#F8ECC9" stroke="#F8ECC9" transform="matrix(0.9876,0,0,0.9876,13.8268,9.8763)"><rect width="100" height="75.938" x="707" y="799.688" stroke="none"/></g><g id="bla"><g fill="#404040" stroke="#404040" transform="matrix(0.9876,0,0,0.9876,13.8268,9.8763)"><rect width="100" height="4" x="707" y="799.688" stroke="none"/></g></g><g fill="#fff" stroke="#fff" transform="matrix(0.9876,0,0,0.9876,13.8268,9.8763)"><rect width="1" height="75.938" x="707" y="799.688" stroke="none"/><rect width="98" height="1" x="708" y="799.688" stroke="none"/><rect width="99" height="1" x="708" y="874.625" fill="#ADA58C" stroke="none"/><rect width="1" height="74.938" x="806" y="799.688" fill="#ADA58C" stroke="none"/></g></g><g id="y.node.17"><g fill="#fff" stroke="#fff" transform="matrix(0.9876,0,0,0.9876,13.8268,9.8763)"><rect width="70" height="41" x="722" y="818" stroke="none"/><rect width="70" height="41" x="722" y="818" fill="none" stroke="#000"/></g><g id="bla"><g font-family="sans-serif"><text x="729" y="836.826" stroke="none" transform="matrix(0.9876,0,0,0.9876,13.8268,9.8763)" xml:space="preserve">WTHEAD</text><text x="730" y="850.795" stroke="none" transform="matrix(0.9876,0,0,0.9876,13.8268,9.8763)" xml:space="preserve">(head.f)</text></g></g></g><g id="y.node.18"><g fill="#F8ECC9" stroke="#F8ECC9" transform="matrix(0.9876,0,0,0.9876,13.8268,9.8763)"><rect width="98" height="75.938" x="313" y="799.688" stroke="none"/></g><g id="bla"><g fill="#404040" stroke="#404040" transform="matrix(0.9876,0,0,0.9876,13.8268,9.8763)"><rect width="98" height="4" x="313" y="799.688" stroke="none"/></g></g><g fill="#fff" stroke="#fff" transform="matrix(0.9876,0,0,0.9876,13.8268,9.8763)"><rect width="1" height="75.938" x="313" y="799.688" stroke="none"/><rect width="96" height="1" x="314" y="799.688" stroke="none"/><rect width="97" height="1" x="314" y="874.625" fill="#ADA58C" stroke="none"/><rect width="1" height="74.938" x="410" y="799.688" fill="#ADA58C" stroke="none"/></g></g><g id="y.node.19"><g fill="#fff" stroke="#fff" transform="matrix(0.9876,0,0,0.9876,13.8268,9.8763)"><rect width="68" height="41" x="328" y="818" stroke="none"/><rect width="68" height="41" x="328" y="818" fill="none" stroke="#000"/></g><g id="bla"><g font-family="sans-serif"><text x="340.5" y="836.826" stroke="none" transform="matrix(0.9876,0,0,0.9876,13.8268,9.8763)" xml:space="preserve">INIPTZ</text><text x="335" y="850.795" stroke="none" transform="matrix(0.9876,0,0,0.9876,13.8268,9.8763)" xml:space="preserve">(iniptz.f)</text></g></g></g><g id="y.node.20"><g fill="#F8ECC9" stroke="#F8ECC9" transform="matrix(0.9876,0,0,0.9876,13.8268,9.8763)"><rect width="119" height="191.875" x="827" y="741.719" stroke="none"/></g><g id="bla"><g fill="#404040" stroke="#404040" transform="matrix(0.9876,0,0,0.9876,13.8268,9.8763)"><rect width="119" height="4" x="827" y="741.719" stroke="none"/></g></g><g fill="#fff" stroke="#fff" transform="matrix(0.9876,0,0,0.9876,13.8268,9.8763)"><rect width="1" height="191.875" x="827" y="741.719" stroke="none"/><rect width="117" height="1" x="828" y="741.719" stroke="none"/><rect width="118" height="1" x="828" y="932.594" fill="#ADA58C" stroke="none"/><rect width="1" height="190.875" x="945" y="741.719" fill="#ADA58C" stroke="none"/></g></g><g id="y.node.22"><g fill="#F8ECC9" stroke="#F8ECC9" transform="matrix(0.9876,0,0,0.9876,13.8268,9.8763)"><rect width="89" height="75.938" x="842" y="842.656" stroke="none"/></g><g id="bla"><g fill="#404040" stroke="#404040" transform="matrix(0.9876,0,0,0.9876,13.8268,9.8763)"><rect width="89" height="4" x="842" y="842.656" stroke="none"/></g></g><g fill="#fff" stroke="#fff" transform="matrix(0.9876,0,0,0.9876,13.8268,9.8763)"><rect width="1" height="75.938" x="842" y="842.656" stroke="none"/><rect width="87" height="1" x="843" y="842.656" stroke="none"/><rect width="88" height="1" x="843" y="917.594" fill="#ADA58C" stroke="none"/><rect width="1" height="74.938" x="930" y="842.656" fill="#ADA58C" stroke="none"/></g></g><g id="y.node.23"><g fill="#fff" stroke="#fff" transform="matrix(0.9876,0,0,0.9876,13.8268,9.8763)"><rect width="59" height="41" x="857" y="861" stroke="none"/><rect width="59" height="41" x="857" y="861" fill="none" stroke="#000"/></g><g id="bla"><g font-family="sans-serif"><text x="864" y="879.795" stroke="none" transform="matrix(0.9876,0,0,0.9876,13.8268,9.8763)" xml:space="preserve">UPPER</text><text x="867" y="893.764" stroke="none" transform="matrix(0.9876,0,0,0.9876,13.8268,9.8763)" xml:space="preserve">(str.f)</text></g></g></g><g id="y.node.21"><g fill="#fff" stroke="#fff" transform="matrix(0.9876,0,0,0.9876,13.8268,9.8763)"><rect width="75" height="41" x="849" y="760" stroke="none"/><rect width="75" height="41" x="849" y="760" fill="none" stroke="#000"/></g><g id="bla"><g font-family="sans-serif"><text x="863" y="778.857" stroke="none" transform="matrix(0.9876,0,0,0.9876,13.8268,9.8763)" xml:space="preserve">ITOKEN</text><text x="856" y="792.826" stroke="none" transform="matrix(0.9876,0,0,0.9876,13.8268,9.8763)" xml:space="preserve">(itoken.f)</text></g></g></g><g id="y.node.24"><g fill="#F8ECC9" stroke="#F8ECC9" transform="matrix(0.9876,0,0,0.9876,13.8268,9.8763)"><rect width="106" height="75.938" x="1071" y="1404.375" stroke="none"/></g><g id="bla"><g fill="#404040" stroke="#404040" transform="matrix(0.9876,0,0,0.9876,13.8268,9.8763)"><rect width="106" height="4" x="1071" y="1404.375" stroke="none"/></g></g><g fill="#fff" stroke="#fff" transform="matrix(0.9876,0,0,0.9876,13.8268,9.8763)"><rect width="1" height="75.938" x="1071" y="1404.375" stroke="none"/><rect width="104" height="1" x="1072" y="1404.375" stroke="none"/><rect width="105" height="1" x="1072" y="1479.313" fill="#ADA58C" stroke="none"/><rect width="1" height="74.938" x="1176" y="1404.375" fill="#ADA58C" stroke="none"/></g></g><g id="y.node.25"><g fill="#fff" stroke="#fff" transform="matrix(0.9876,0,0,0.9876,13.8268,9.8763)"><rect width="76" height="41" x="1086" y="1423" stroke="none"/><rect width="76" height="41" x="1086" y="1423" fill="none" stroke="#000"/></g><g id="bla"><g font-family="sans-serif"><text x="1098" y="1441.514" stroke="none" transform="matrix(0.9876,0,0,0.9876,13.8268,9.8763)" xml:space="preserve">NXTUNT</text><text x="1093" y="1455.482" stroke="none" transform="matrix(0.9876,0,0,0.9876,13.8268,9.8763)" xml:space="preserve">(nxtunt.f)</text></g></g></g><g id="y.node.26"><g fill="#F8ECC9" stroke="#F8ECC9" transform="matrix(0.9876,0,0,0.9876,13.8268,9.8763)"><rect width="153.25" height="231.875" x="1987.25" y="115.938" stroke="none"/></g><g id="bla"><g fill="#404040" stroke="#404040" transform="matrix(0.9876,0,0,0.9876,13.8268,9.8763)"><rect width="153.25" height="4" x="1987.25" y="115.938" stroke="none"/></g></g><g fill="#fff" stroke="#fff" transform="matrix(0.9876,0,0,0.9876,13.8268,9.8763)"><rect width="1" height="231.875" x="1987.25" y="115.938" stroke="none"/><rect width="151.25" height="1" x="1988.25" y="115.938" stroke="none"/><rect width="152.25" height="1" x="1988.25" y="346.813" fill="#ADA58C" stroke="none"/><rect width="1" height="230.875" x="2139.5" y="115.938" fill="#ADA58C" stroke="none"/></g></g><g id="y.node.28"><g fill="#F8ECC9" stroke="#F8ECC9" transform="matrix(0.9876,0,0,0.9876,13.8268,9.8763)"><rect width="104" height="115.938" x="2021.5" y="216.875" stroke="none"/></g><g id="bla"><g fill="#404040" stroke="#404040" transform="matrix(0.9876,0,0,0.9876,13.8268,9.8763)"><rect width="104" height="4" x="2021.5" y="216.875" stroke="none"/></g></g><g fill="#fff" stroke="#fff" transform="matrix(0.9876,0,0,0.9876,13.8268,9.8763)"><rect width="1" height="115.938" x="2021.5" y="216.875" stroke="none"/><rect width="102" height="1" x="2022.5" y="216.875" stroke="none"/><rect width="103" height="1" x="2022.5" y="331.813" fill="#ADA58C" stroke="none"/><rect width="1" height="114.938" x="2124.5" y="216.875" fill="#ADA58C" stroke="none"/></g></g><g id="y.node.29"><g fill="#fff" stroke="#fff" transform="matrix(0.9876,0,0,0.9876,13.8268,9.8763)"><rect width="74" height="41" x="2036" y="275" stroke="none"/><rect width="74" height="41" x="2036" y="275" fill="none" stroke="#000"/></g><g id="bla"><g font-family="sans-serif"><text x="2059" y="294.014" stroke="none" transform="matrix(0.9876,0,0,0.9876,13.8268,9.8763)" xml:space="preserve">PAD</text><text x="2043.5" y="307.982" stroke="none" transform="matrix(0.9876,0,0,0.9876,13.8268,9.8763)" xml:space="preserve">(padlib.f)</text></g></g></g><g id="y.node.27"><g fill="#fff" stroke="#fff" transform="matrix(0.9876,0,0,0.9876,13.8268,9.8763)"><rect width="74" height="41" x="2012" y="134" stroke="none"/><rect width="74" height="41" x="2012" y="134" fill="none" stroke="#000"/></g><g id="bla"><g font-family="sans-serif"><text x="2021.25" y="153.076" stroke="none" transform="matrix(0.9876,0,0,0.9876,13.8268,9.8763)" xml:space="preserve">WRPADD</text><text x="2019.75" y="167.045" stroke="none" transform="matrix(0.9876,0,0,0.9876,13.8268,9.8763)" xml:space="preserve">(padlib.f)</text></g></g></g><g id="y.node.30"><g fill="#F8ECC9" stroke="#F8ECC9" transform="matrix(0.9876,0,0,0.9876,13.8268,9.8763)"><rect width="104" height="75.938" x="2045.25" y="0" stroke="none"/></g><g id="bla"><g fill="#404040" stroke="#404040" transform="matrix(0.9876,0,0,0.9876,13.8268,9.8763)"><rect width="104" height="4" x="2045.25" y="0" stroke="none"/></g></g><g fill="#fff" stroke="#fff" transform="matrix(0.9876,0,0,0.9876,13.8268,9.8763)"><rect width="1" height="75.938" x="2045.25" y="0" stroke="none"/><rect width="102" height="1" x="2046.25" y="0" stroke="none"/><rect width="103" height="1" x="2046.25" y="74.938" fill="#ADA58C" stroke="none"/><rect width="1" height="74.938" x="2148.25" y="0" fill="#ADA58C" stroke="none"/></g></g><g id="y.node.31"><g fill="#fff" stroke="#fff" transform="matrix(0.9876,0,0,0.9876,13.8268,9.8763)"><rect width="74" height="41" x="2060" y="19" stroke="none"/><rect width="74" height="41" x="2060" y="19" fill="none" stroke="#000"/></g><g id="bla"><g font-family="sans-serif"><text x="2069.75" y="37.139" stroke="none" transform="matrix(0.9876,0,0,0.9876,13.8268,9.8763)" xml:space="preserve">WRPADX</text><text x="2067.25" y="51.107" stroke="none" transform="matrix(0.9876,0,0,0.9876,13.8268,9.8763)" xml:space="preserve">(padlib.f)</text></g></g></g><g id="y.node.32"><g fill="#F8ECC9" stroke="#F8ECC9" transform="matrix(0.9876,0,0,0.9876,13.8268,9.8763)"><rect width="104" height="75.938" x="2169.25" y="0" stroke="none"/></g><g id="bla"><g fill="#404040" stroke="#404040" transform="matrix(0.9876,0,0,0.9876,13.8268,9.8763)"><rect width="104" height="4" x="2169.25" y="0" stroke="none"/></g></g><g fill="#fff" stroke="#fff" transform="matrix(0.9876,0,0,0.9876,13.8268,9.8763)"><rect width="1" height="75.938" x="2169.25" y="0" stroke="none"/><rect width="102" height="1" x="2170.25" y="0" stroke="none"/><rect width="103" height="1" x="2170.25" y="74.938" fill="#ADA58C" stroke="none"/><rect width="1" height="74.938" x="2272.25" y="0" fill="#ADA58C" stroke="none"/></g></g><g id="y.node.33"><g fill="#fff" stroke="#fff" transform="matrix(0.9876,0,0,0.9876,13.8268,9.8763)"><rect width="74" height="41" x="2184" y="19" stroke="none"/><rect width="74" height="41" x="2184" y="19" fill="none" stroke="#000"/></g><g id="bla"><g font-family="sans-serif"><text x="2193.25" y="37.139" stroke="none" transform="matrix(0.9876,0,0,0.9876,13.8268,9.8763)" xml:space="preserve">WRPADR</text><text x="2191.25" y="51.107" stroke="none" transform="matrix(0.9876,0,0,0.9876,13.8268,9.8763)" xml:space="preserve">(padlib.f)</text></g></g></g><g id="y.node.34"><g fill="#F8ECC9" stroke="#F8ECC9" transform="matrix(0.9876,0,0,0.9876,13.8268,9.8763)"><rect width="104" height="75.938" x="1921.25" y="0" stroke="none"/></g><g id="bla"><g fill="#404040" stroke="#404040" transform="matrix(0.9876,0,0,0.9876,13.8268,9.8763)"><rect width="104" height="4" x="1921.25" y="0" stroke="none"/></g></g><g fill="#fff" stroke="#fff" transform="matrix(0.9876,0,0,0.9876,13.8268,9.8763)"><rect width="1" height="75.938" x="1921.25" y="0" stroke="none"/><rect width="102" height="1" x="1922.25" y="0" stroke="none"/><rect width="103" height="1" x="1922.25" y="74.938" fill="#ADA58C" stroke="none"/><rect width="1" height="74.938" x="2024.25" y="0" fill="#ADA58C" stroke="none"/></g></g><g id="y.node.35"><g fill="#fff" stroke="#fff" transform="matrix(0.9876,0,0,0.9876,13.8268,9.8763)"><rect width="74" height="41" x="1936" y="19" stroke="none"/><rect width="74" height="41" x="1936" y="19" fill="none" stroke="#000"/></g><g id="bla"><g font-family="sans-serif"><text x="1945.25" y="37.139" stroke="none" transform="matrix(0.9876,0,0,0.9876,13.8268,9.8763)" xml:space="preserve">WRPADC</text><text x="1943.25" y="51.107" stroke="none" transform="matrix(0.9876,0,0,0.9876,13.8268,9.8763)" xml:space="preserve">(padlib.f)</text></g></g></g><g id="y.node.36"><g fill="#F8ECC9" stroke="#F8ECC9" transform="matrix(0.9876,0,0,0.9876,13.8268,9.8763)"><rect width="428.75" height="347.813" x="966" y="663.75" stroke="none"/></g><g id="bla"><g fill="#404040" stroke="#404040" transform="matrix(0.9876,0,0,0.9876,13.8268,9.8763)"><rect width="428.75" height="4" x="966" y="663.75" stroke="none"/></g></g><g fill="#fff" stroke="#fff" transform="matrix(0.9876,0,0,0.9876,13.8268,9.8763)"><rect width="1" height="347.813" x="966" y="663.75" stroke="none"/><rect width="426.75" height="1" x="967" y="663.75" stroke="none"/><rect width="427.75" height="1" x="967" y="1010.563" fill="#ADA58C" stroke="none"/><rect width="1" height="346.813" x="1393.75" y="663.75" fill="#ADA58C" stroke="none"/></g></g><g id="y.node.44"><g fill="#F8ECC9" stroke="#F8ECC9" transform="matrix(0.9876,0,0,0.9876,13.8268,9.8763)"><rect width="104" height="115.938" x="1172.75" y="822.656" stroke="none"/></g><g id="bla"><g fill="#404040" stroke="#404040" transform="matrix(0.9876,0,0,0.9876,13.8268,9.8763)"><rect width="104" height="4" x="1172.75" y="822.656" stroke="none"/></g></g><g fill="#fff" stroke="#fff" transform="matrix(0.9876,0,0,0.9876,13.8268,9.8763)"><rect width="1" height="115.938" x="1172.75" y="822.656" stroke="none"/><rect width="102" height="1" x="1173.75" y="822.656" stroke="none"/><rect width="103" height="1" x="1173.75" y="937.594" fill="#ADA58C" stroke="none"/><rect width="1" height="114.938" x="1275.75" y="822.656" fill="#ADA58C" stroke="none"/></g></g><g id="y.node.45"><g fill="#fff" stroke="#fff" transform="matrix(0.9876,0,0,0.9876,13.8268,9.8763)"><rect width="74" height="41" x="1187" y="881" stroke="none"/><rect width="74" height="41" x="1187" y="881" fill="none" stroke="#000"/></g><g id="bla"><g font-family="sans-serif"><text x="1201.25" y="899.795" stroke="none" transform="matrix(0.9876,0,0,0.9876,13.8268,9.8763)" xml:space="preserve">UNPAD</text><text x="1194.75" y="913.764" stroke="none" transform="matrix(0.9876,0,0,0.9876,13.8268,9.8763)" xml:space="preserve">(padlib.f)</text></g></g></g><g id="y.node.42"><g fill="#F8ECC9" stroke="#F8ECC9" transform="matrix(0.9876,0,0,0.9876,13.8268,9.8763)"><rect width="83" height="75.938" x="1296.75" y="842.656" stroke="none"/></g><g id="bla"><g fill="#404040" stroke="#404040" transform="matrix(0.9876,0,0,0.9876,13.8268,9.8763)"><rect width="83" height="4" x="1296.75" y="842.656" stroke="none"/></g></g><g fill="#fff" stroke="#fff" transform="matrix(0.9876,0,0,0.9876,13.8268,9.8763)"><rect width="1" height="75.938" x="1296.75" y="842.656" stroke="none"/><rect width="81" height="1" x="1297.75" y="842.656" stroke="none"/><rect width="82" height="1" x="1297.75" y="917.594" fill="#ADA58C" stroke="none"/><rect width="1" height="74.938" x="1378.75" y="842.656" fill="#ADA58C" stroke="none"/></g></g><g id="y.node.43"><g fill="#fff" stroke="#fff" transform="matrix(0.9876,0,0,0.9876,13.8268,9.8763)"><rect width="53" height="41" x="1311" y="861" stroke="none"/><rect width="53" height="41" x="1311" y="861" fill="none" stroke="#000"/></g><g id="bla"><g font-family="sans-serif"><text x="1319.25" y="879.795" stroke="none" transform="matrix(0.9876,0,0,0.9876,13.8268,9.8763)" xml:space="preserve">TRIML</text><text x="1318.75" y="893.764" stroke="none" transform="matrix(0.9876,0,0,0.9876,13.8268,9.8763)" xml:space="preserve">(str.f)</text></g></g></g><g id="y.node.38"><g fill="#F8ECC9" stroke="#F8ECC9" transform="matrix(0.9876,0,0,0.9876,13.8268,9.8763)"><rect width="150.25" height="231.875" x="1002.5" y="764.688" stroke="none"/></g><g id="bla"><g fill="#404040" stroke="#404040" transform="matrix(0.9876,0,0,0.9876,13.8268,9.8763)"><rect width="150.25" height="4" x="1002.5" y="764.688" stroke="none"/></g></g><g fill="#fff" stroke="#fff" transform="matrix(0.9876,0,0,0.9876,13.8268,9.8763)"><rect width="1" height="231.875" x="1002.5" y="764.688" stroke="none"/><rect width="148.25" height="1" x="1003.5" y="764.688" stroke="none"/><rect width="149.25" height="1" x="1003.5" y="995.563" fill="#ADA58C" stroke="none"/><rect width="1" height="230.875" x="1151.75" y="764.688" fill="#ADA58C" stroke="none"/></g></g><g id="y.node.40"><g fill="#F8ECC9" stroke="#F8ECC9" transform="matrix(0.9876,0,0,0.9876,13.8268,9.8763)"><rect width="104" height="75.938" x="1017.5" y="905.625" stroke="none"/></g><g id="bla"><g fill="#404040" stroke="#404040" transform="matrix(0.9876,0,0,0.9876,13.8268,9.8763)"><rect width="104" height="4" x="1017.5" y="905.625" stroke="none"/></g></g><g fill="#fff" stroke="#fff" transform="matrix(0.9876,0,0,0.9876,13.8268,9.8763)"><rect width="1" height="75.938" x="1017.5" y="905.625" stroke="none"/><rect width="102" height="1" x="1018.5" y="905.625" stroke="none"/><rect width="103" height="1" x="1018.5" y="980.563" fill="#ADA58C" stroke="none"/><rect width="1" height="74.938" x="1120.5" y="905.625" fill="#ADA58C" stroke="none"/></g></g><g id="y.node.41"><g fill="#fff" stroke="#fff" transform="matrix(0.9876,0,0,0.9876,13.8268,9.8763)"><rect width="74" height="41" x="1032" y="924" stroke="none"/><rect width="74" height="41" x="1032" y="924" fill="none" stroke="#000"/></g><g id="bla"><g font-family="sans-serif"><text x="1044" y="942.764" stroke="none" transform="matrix(0.9876,0,0,0.9876,13.8268,9.8763)" xml:space="preserve">SCLEAN</text><text x="1039.5" y="956.732" stroke="none" transform="matrix(0.9876,0,0,0.9876,13.8268,9.8763)" xml:space="preserve">(padlib.f)</text></g></g></g><g id="y.node.39"><g fill="#fff" stroke="#fff" transform="matrix(0.9876,0,0,0.9876,13.8268,9.8763)"><rect width="74" height="41" x="1063" y="823" stroke="none"/><rect width="74" height="41" x="1063" y="823" fill="none" stroke="#000"/></g><g id="bla"><g font-family="sans-serif"><text x="1080.75" y="841.826" stroke="none" transform="matrix(0.9876,0,0,0.9876,13.8268,9.8763)" xml:space="preserve">IREAD</text><text x="1070.75" y="855.795" stroke="none" transform="matrix(0.9876,0,0,0.9876,13.8268,9.8763)" xml:space="preserve">(padlib.f)</text></g></g></g><g id="y.node.37"><g fill="#fff" stroke="#fff" transform="matrix(0.9876,0,0,0.9876,13.8268,9.8763)"><rect width="74" height="41" x="1005" y="682" stroke="none"/><rect width="74" height="41" x="1005" y="682" fill="none" stroke="#000"/></g><g id="bla"><g font-family="sans-serif"><text x="1015.502" y="700.889" stroke="none" transform="matrix(0.9876,0,0,0.9876,13.8268,9.8763)" xml:space="preserve">RDPADR</text><text x="1012.502" y="714.857" stroke="none" transform="matrix(0.9876,0,0,0.9876,13.8268,9.8763)" xml:space="preserve">(padlib.f)</text></g></g></g><g id="y.node.46"><g fill="#F8ECC9" stroke="#F8ECC9" transform="matrix(0.9876,0,0,0.9876,13.8268,9.8763)"><rect width="104" height="115.938" x="1043.463" y="409.844" stroke="none"/></g><g id="bla"><g fill="#404040" stroke="#404040" transform="matrix(0.9876,0,0,0.9876,13.8268,9.8763)"><rect width="104" height="4" x="1043.463" y="409.844" stroke="none"/></g></g><g fill="#fff" stroke="#fff" transform="matrix(0.9876,0,0,0.9876,13.8268,9.8763)"><rect width="1" height="115.938" x="1043.463" y="409.844" stroke="none"/><rect width="102" height="1" x="1044.463" y="409.844" stroke="none"/><rect width="103" height="1" x="1044.463" y="524.781" fill="#ADA58C" stroke="none"/><rect width="1" height="114.938" x="1146.463" y="409.844" fill="#ADA58C" stroke="none"/></g></g><g id="y.node.47"><g fill="#fff" stroke="#fff" transform="matrix(0.9876,0,0,0.9876,13.8268,9.8763)"><rect width="74" height="41" x="1058" y="428" stroke="none"/><rect width="74" height="41" x="1058" y="428" fill="none" stroke="#000"/></g><g id="bla"><g font-family="sans-serif"><text x="1068.463" y="446.982" stroke="none" transform="matrix(0.9876,0,0,0.9876,13.8268,9.8763)" xml:space="preserve">RDPADC</text><text x="1065.463" y="460.951" stroke="none" transform="matrix(0.9876,0,0,0.9876,13.8268,9.8763)" xml:space="preserve">(padlib.f)</text></g></g></g><g id="y.node.48"><g fill="#F8ECC9" stroke="#F8ECC9" transform="matrix(0.9876,0,0,0.9876,13.8268,9.8763)"><rect width="108" height="75.938" x="307" y="1404.375" stroke="none"/></g><g id="bla"><g fill="#404040" stroke="#404040" transform="matrix(0.9876,0,0,0.9876,13.8268,9.8763)"><rect width="108" height="4" x="307" y="1404.375" stroke="none"/></g></g><g fill="#fff" stroke="#fff" transform="matrix(0.9876,0,0,0.9876,13.8268,9.8763)"><rect width="1" height="75.938" x="307" y="1404.375" stroke="none"/><rect width="106" height="1" x="308" y="1404.375" stroke="none"/><rect width="107" height="1" x="308" y="1479.313" fill="#ADA58C" stroke="none"/><rect width="1" height="74.938" x="414" y="1404.375" fill="#ADA58C" stroke="none"/></g></g><g id="y.node.49"><g fill="#fff" stroke="#fff" transform="matrix(0.9876,0,0,0.9876,13.8268,9.8763)"><rect width="78" height="41" x="322" y="1423" stroke="none"/><rect width="78" height="41" x="322" y="1423" fill="none" stroke="#000"/></g><g id="bla"><g font-family="sans-serif"><text x="338" y="1441.514" stroke="none" transform="matrix(0.9876,0,0,0.9876,13.8268,9.8763)" xml:space="preserve">ATWTD</text><text x="329" y="1455.482" stroke="none" transform="matrix(0.9876,0,0,0.9876,13.8268,9.8763)" xml:space="preserve">(pertab.f)</text></g></g></g><g id="y.node.50"><g fill="#F8ECC9" stroke="#F8ECC9" transform="matrix(0.9876,0,0,0.9876,13.8268,9.8763)"><rect width="108" height="75.938" x="460" y="1404.375" stroke="none"/></g><g id="bla"><g fill="#404040" stroke="#404040" transform="matrix(0.9876,0,0,0.9876,13.8268,9.8763)"><rect width="108" height="4" x="460" y="1404.375" stroke="none"/></g></g><g fill="#fff" stroke="#fff" transform="matrix(0.9876,0,0,0.9876,13.8268,9.8763)"><rect width="1" height="75.938" x="460" y="1404.375" stroke="none"/><rect width="106" height="1" x="461" y="1404.375" stroke="none"/><rect width="107" height="1" x="461" y="1479.313" fill="#ADA58C" stroke="none"/><rect width="1" height="74.938" x="567" y="1404.375" fill="#ADA58C" stroke="none"/></g></g><g id="y.node.51"><g fill="#fff" stroke="#fff" transform="matrix(0.9876,0,0,0.9876,13.8268,9.8763)"><rect width="78" height="41" x="475" y="1423" stroke="none"/><rect width="78" height="41" x="475" y="1423" fill="none" stroke="#000"/></g><g id="bla"><g font-family="sans-serif"><text x="491.5" y="1441.514" stroke="none" transform="matrix(0.9876,0,0,0.9876,13.8268,9.8763)" xml:space="preserve">ATWTS</text><text x="482" y="1455.482" stroke="none" transform="matrix(0.9876,0,0,0.9876,13.8268,9.8763)" xml:space="preserve">(pertab.f)</text></g></g></g><g id="y.node.52"><g fill="#F8ECC9" stroke="#F8ECC9" transform="matrix(0.9876,0,0,0.9876,13.8268,9.8763)"><rect width="108" height="75.938" x="613" y="1404.375" stroke="none"/></g><g id="bla"><g fill="#404040" stroke="#404040" transform="matrix(0.9876,0,0,0.9876,13.8268,9.8763)"><rect width="108" height="4" x="613" y="1404.375" stroke="none"/></g></g><g fill="#fff" stroke="#fff" transform="matrix(0.9876,0,0,0.9876,13.8268,9.8763)"><rect width="1" height="75.938" x="613" y="1404.375" stroke="none"/><rect width="106" height="1" x="614" y="1404.375" stroke="none"/><rect width="107" height="1" x="614" y="1479.313" fill="#ADA58C" stroke="none"/><rect width="1" height="74.938" x="720" y="1404.375" fill="#ADA58C" stroke="none"/></g></g><g id="y.node.53"><g fill="#fff" stroke="#fff" transform="matrix(0.9876,0,0,0.9876,13.8268,9.8763)"><rect width="78" height="41" x="628" y="1423" stroke="none"/><rect width="78" height="41" x="628" y="1423" fill="none" stroke="#000"/></g><g id="bla"><g font-family="sans-serif"><text x="645" y="1441.514" stroke="none" transform="matrix(0.9876,0,0,0.9876,13.8268,9.8763)" xml:space="preserve">ATSYM</text><text x="635" y="1455.482" stroke="none" transform="matrix(0.9876,0,0,0.9876,13.8268,9.8763)" xml:space="preserve">(pertab.f)</text></g></g></g><g id="y.node.54"><g fill="#F8ECC9" stroke="#F8ECC9" transform="matrix(0.9876,0,0,0.9876,13.8268,9.8763)"><rect width="108" height="75.938" x="766" y="1404.375" stroke="none"/></g><g id="bla"><g fill="#404040" stroke="#404040" transform="matrix(0.9876,0,0,0.9876,13.8268,9.8763)"><rect width="108" height="4" x="766" y="1404.375" stroke="none"/></g></g><g fill="#fff" stroke="#fff" transform="matrix(0.9876,0,0,0.9876,13.8268,9.8763)"><rect width="1" height="75.938" x="766" y="1404.375" stroke="none"/><rect width="106" height="1" x="767" y="1404.375" stroke="none"/><rect width="107" height="1" x="767" y="1479.313" fill="#ADA58C" stroke="none"/><rect width="1" height="74.938" x="873" y="1404.375" fill="#ADA58C" stroke="none"/></g></g><g id="y.node.55"><g fill="#fff" stroke="#fff" transform="matrix(0.9876,0,0,0.9876,13.8268,9.8763)"><rect width="78" height="41" x="781" y="1423" stroke="none"/><rect width="78" height="41" x="781" y="1423" fill="none" stroke="#000"/></g><g id="bla"><g font-family="sans-serif"><text x="794" y="1441.514" stroke="none" transform="matrix(0.9876,0,0,0.9876,13.8268,9.8763)" xml:space="preserve">PRTBBD</text><text x="788" y="1455.482" stroke="none" transform="matrix(0.9876,0,0,0.9876,13.8268,9.8763)" xml:space="preserve">(pertab.f)</text></g></g></g><g id="y.node.56"><g fill="#F8ECC9" stroke="#F8ECC9" transform="matrix(0.9876,0,0,0.9876,13.8268,9.8763)"><rect width="107" height="75.938" x="919" y="1404.375" stroke="none"/></g><g id="bla"><g fill="#404040" stroke="#404040" transform="matrix(0.9876,0,0,0.9876,13.8268,9.8763)"><rect width="107" height="4" x="919" y="1404.375" stroke="none"/></g></g><g fill="#fff" stroke="#fff" transform="matrix(0.9876,0,0,0.9876,13.8268,9.8763)"><rect width="1" height="75.938" x="919" y="1404.375" stroke="none"/><rect width="105" height="1" x="920" y="1404.375" stroke="none"/><rect width="106" height="1" x="920" y="1479.313" fill="#ADA58C" stroke="none"/><rect width="1" height="74.938" x="1025" y="1404.375" fill="#ADA58C" stroke="none"/></g></g><g id="y.node.57"><g fill="#fff" stroke="#fff" transform="matrix(0.9876,0,0,0.9876,13.8268,9.8763)"><rect width="77" height="41" x="934" y="1423" stroke="none"/><rect width="77" height="41" x="934" y="1423" fill="none" stroke="#000"/></g><g id="bla"><g font-family="sans-serif"><text x="950" y="1441.514" stroke="none" transform="matrix(0.9876,0,0,0.9876,13.8268,9.8763)" xml:space="preserve">PIJUMP</text><text x="941" y="1455.482" stroke="none" transform="matrix(0.9876,0,0,0.9876,13.8268,9.8763)" xml:space="preserve">(pijump.f)</text></g></g></g><g id="y.node.58"><g fill="#F8ECC9" stroke="#F8ECC9" transform="matrix(0.9876,0,0,0.9876,13.8268,9.8763)"><rect width="102" height="75.938" x="1222" y="1404.375" stroke="none"/></g><g id="bla"><g fill="#404040" stroke="#404040" transform="matrix(0.9876,0,0,0.9876,13.8268,9.8763)"><rect width="102" height="4" x="1222" y="1404.375" stroke="none"/></g></g><g fill="#fff" stroke="#fff" transform="matrix(0.9876,0,0,0.9876,13.8268,9.8763)"><rect width="1" height="75.938" x="1222" y="1404.375" stroke="none"/><rect width="100" height="1" x="1223" y="1404.375" stroke="none"/><rect width="101" height="1" x="1223" y="1479.313" fill="#ADA58C" stroke="none"/><rect width="1" height="74.938" x="1323" y="1404.375" fill="#ADA58C" stroke="none"/></g></g><g id="y.node.59"><g fill="#fff" stroke="#fff" transform="matrix(0.9876,0,0,0.9876,13.8268,9.8763)"><rect width="72" height="41" x="1237" y="1423" stroke="none"/><rect width="72" height="41" x="1237" y="1423" fill="none" stroke="#000"/></g><g id="bla"><g font-family="sans-serif"><text x="1249" y="1441.514" stroke="none" transform="matrix(0.9876,0,0,0.9876,13.8268,9.8763)" xml:space="preserve">QSORTI</text><text x="1244" y="1455.482" stroke="none" transform="matrix(0.9876,0,0,0.9876,13.8268,9.8763)" xml:space="preserve">(qsorti.f)</text></g></g></g><g id="y.node.60"><g fill="#F8ECC9" stroke="#F8ECC9" transform="matrix(0.9876,0,0,0.9876,13.8268,9.8763)"><rect width="102" height="75.938" x="1369" y="1404.375" stroke="none"/></g><g id="bla"><g fill="#404040" stroke="#404040" transform="matrix(0.9876,0,0,0.9876,13.8268,9.8763)"><rect width="102" height="4" x="1369" y="1404.375" stroke="none"/></g></g><g fill="#fff" stroke="#fff" transform="matrix(0.9876,0,0,0.9876,13.8268,9.8763)"><rect width="1" height="75.938" x="1369" y="1404.375" stroke="none"/><rect width="100" height="1" x="1370" y="1404.375" stroke="none"/><rect width="101" height="1" x="1370" y="1479.313" fill="#ADA58C" stroke="none"/><rect width="1" height="74.938" x="1470" y="1404.375" fill="#ADA58C" stroke="none"/></g></g><g id="y.node.61"><g fill="#fff" stroke="#fff" transform="matrix(0.9876,0,0,0.9876,13.8268,9.8763)"><rect width="72" height="41" x="1384" y="1423" stroke="none"/><rect width="72" height="41" x="1384" y="1423" fill="none" stroke="#000"/></g><g id="bla"><g font-family="sans-serif"><text x="1397" y="1441.514" stroke="none" transform="matrix(0.9876,0,0,0.9876,13.8268,9.8763)" xml:space="preserve">RDCMT</text><text x="1391" y="1455.482" stroke="none" transform="matrix(0.9876,0,0,0.9876,13.8268,9.8763)" xml:space="preserve">(rdcmt.f)</text></g></g></g><g id="y.node.62"><g fill="#F8ECC9" stroke="#F8ECC9" transform="matrix(0.9876,0,0,0.9876,13.8268,9.8763)"><rect width="111" height="75.938" x="1414.75" y="799.688" stroke="none"/></g><g id="bla"><g fill="#404040" stroke="#404040" transform="matrix(0.9876,0,0,0.9876,13.8268,9.8763)"><rect width="111" height="4" x="1414.75" y="799.688" stroke="none"/></g></g><g fill="#fff" stroke="#fff" transform="matrix(0.9876,0,0,0.9876,13.8268,9.8763)"><rect width="1" height="75.938" x="1414.75" y="799.688" stroke="none"/><rect width="109" height="1" x="1415.75" y="799.688" stroke="none"/><rect width="110" height="1" x="1415.75" y="874.625" fill="#ADA58C" stroke="none"/><rect width="1" height="74.938" x="1524.75" y="799.688" fill="#ADA58C" stroke="none"/></g></g><g id="y.node.63"><g fill="#fff" stroke="#fff" transform="matrix(0.9876,0,0,0.9876,13.8268,9.8763)"><rect width="81" height="41" x="1429" y="818" stroke="none"/><rect width="81" height="41" x="1429" y="818" fill="none" stroke="#000"/></g><g id="bla"><g font-family="sans-serif"><text x="1442.75" y="836.826" stroke="none" transform="matrix(0.9876,0,0,0.9876,13.8268,9.8763)" xml:space="preserve">RDHEAD</text><text x="1436.75" y="850.795" stroke="none" transform="matrix(0.9876,0,0,0.9876,13.8268,9.8763)" xml:space="preserve">(rdhead.f)</text></g></g></g><g id="y.node.64"><g fill="#F8ECC9" stroke="#F8ECC9" transform="matrix(0.9876,0,0,0.9876,13.8268,9.8763)"><rect width="162" height="311.875" x="1465.403" y="311.875" stroke="none"/></g><g id="bla"><g fill="#404040" stroke="#404040" transform="matrix(0.9876,0,0,0.9876,13.8268,9.8763)"><rect width="162" height="4" x="1465.403" y="311.875" stroke="none"/></g></g><g fill="#fff" stroke="#fff" transform="matrix(0.9876,0,0,0.9876,13.8268,9.8763)"><rect width="1" height="311.875" x="1465.403" y="311.875" stroke="none"/><rect width="160" height="1" x="1466.403" y="311.875" stroke="none"/><rect width="161" height="1" x="1466.403" y="622.75" fill="#ADA58C" stroke="none"/><rect width="1" height="310.875" x="1626.403" y="311.875" fill="#ADA58C" stroke="none"/></g></g><g id="y.node.66"><g fill="#F8ECC9" stroke="#F8ECC9" transform="matrix(0.9876,0,0,0.9876,13.8268,9.8763)"><rect width="104" height="155.938" x="1480.403" y="412.813" stroke="none"/></g><g id="bla"><g fill="#404040" stroke="#404040" transform="matrix(0.9876,0,0,0.9876,13.8268,9.8763)"><rect width="104" height="4" x="1480.403" y="412.813" stroke="none"/></g></g><g fill="#fff" stroke="#fff" transform="matrix(0.9876,0,0,0.9876,13.8268,9.8763)"><rect width="1" height="155.938" x="1480.403" y="412.813" stroke="none"/><rect width="102" height="1" x="1481.403" y="412.813" stroke="none"/><rect width="103" height="1" x="1481.403" y="567.75" fill="#ADA58C" stroke="none"/><rect width="1" height="154.938" x="1583.403" y="412.813" fill="#ADA58C" stroke="none"/></g></g><g id="y.node.67"><g fill="#fff" stroke="#fff" transform="matrix(0.9876,0,0,0.9876,13.8268,9.8763)"><rect width="74" height="41" x="1495" y="471" stroke="none"/><rect width="74" height="41" x="1495" y="471" fill="none" stroke="#000"/></g><g id="bla"><g font-family="sans-serif"><text x="1504.903" y="489.951" stroke="none" transform="matrix(0.9876,0,0,0.9876,13.8268,9.8763)" xml:space="preserve">RDPADD</text><text x="1502.403" y="503.92" stroke="none" transform="matrix(0.9876,0,0,0.9876,13.8268,9.8763)" xml:space="preserve">(padlib.f)</text></g></g></g><g id="y.node.65"><g fill="#fff" stroke="#fff" transform="matrix(0.9876,0,0,0.9876,13.8268,9.8763)"><rect width="70" height="41" x="1542" y="330" stroke="none"/><rect width="70" height="41" x="1542" y="330" fill="none" stroke="#000"/></g><g id="bla"><g font-family="sans-serif"><text x="1554.903" y="349.014" stroke="none" transform="matrix(0.9876,0,0,0.9876,13.8268,9.8763)" xml:space="preserve">RDPOT</text><text x="1549.403" y="362.982" stroke="none" transform="matrix(0.9876,0,0,0.9876,13.8268,9.8763)" xml:space="preserve">(rdpot.f)</text></g></g></g><g id="y.node.68"><g fill="#F8ECC9" stroke="#F8ECC9" transform="matrix(0.9876,0,0,0.9876,13.8268,9.8763)"><rect width="277.5" height="271.875" x="782.618" y="0" stroke="none"/></g><g id="bla"><g fill="#404040" stroke="#404040" transform="matrix(0.9876,0,0,0.9876,13.8268,9.8763)"><rect width="277.5" height="4" x="782.618" y="0" stroke="none"/></g></g><g fill="#fff" stroke="#fff" transform="matrix(0.9876,0,0,0.9876,13.8268,9.8763)"><rect width="1" height="271.875" x="782.618" y="0" stroke="none"/><rect width="275.5" height="1" x="783.618" y="0" stroke="none"/><rect width="276.5" height="1" x="783.618" y="270.875" fill="#ADA58C" stroke="none"/><rect width="1" height="270.875" x="1059.118" y="0" fill="#ADA58C" stroke="none"/></g></g><g id="y.node.72"><g fill="#F8ECC9" stroke="#F8ECC9" transform="matrix(0.9876,0,0,0.9876,13.8268,9.8763)"><rect width="104" height="115.938" x="930.618" y="100.938" stroke="none"/></g><g id="bla"><g fill="#404040" stroke="#404040" transform="matrix(0.9876,0,0,0.9876,13.8268,9.8763)"><rect width="104" height="4" x="930.618" y="100.938" stroke="none"/></g></g><g fill="#fff" stroke="#fff" transform="matrix(0.9876,0,0,0.9876,13.8268,9.8763)"><rect width="1" height="115.938" x="930.618" y="100.938" stroke="none"/><rect width="102" height="1" x="931.618" y="100.938" stroke="none"/><rect width="103" height="1" x="931.618" y="215.875" fill="#ADA58C" stroke="none"/><rect width="1" height="114.938" x="1033.618" y="100.938" fill="#ADA58C" stroke="none"/></g></g><g id="y.node.73"><g fill="#fff" stroke="#fff" transform="matrix(0.9876,0,0,0.9876,13.8268,9.8763)"><rect width="74" height="41" x="945" y="119" stroke="none"/><rect width="74" height="41" x="945" y="119" fill="none" stroke="#000"/></g><g id="bla"><g font-family="sans-serif"><text x="956.118" y="138.076" stroke="none" transform="matrix(0.9876,0,0,0.9876,13.8268,9.8763)" xml:space="preserve">RDPADX</text><text x="952.618" y="152.045" stroke="none" transform="matrix(0.9876,0,0,0.9876,13.8268,9.8763)" xml:space="preserve">(padlib.f)</text></g></g></g><g id="y.node.70"><g fill="#F8ECC9" stroke="#F8ECC9" transform="matrix(0.9876,0,0,0.9876,13.8268,9.8763)"><rect width="113" height="115.938" x="797.618" y="100.938" stroke="none"/></g><g id="bla"><g fill="#404040" stroke="#404040" transform="matrix(0.9876,0,0,0.9876,13.8268,9.8763)"><rect width="113" height="4" x="797.618" y="100.938" stroke="none"/></g></g><g fill="#fff" stroke="#fff" transform="matrix(0.9876,0,0,0.9876,13.8268,9.8763)"><rect width="1" height="115.938" x="797.618" y="100.938" stroke="none"/><rect width="111" height="1" x="798.618" y="100.938" stroke="none"/><rect width="112" height="1" x="798.618" y="215.875" fill="#ADA58C" stroke="none"/><rect width="1" height="114.938" x="909.618" y="100.938" fill="#ADA58C" stroke="none"/></g></g><g id="y.node.71"><g fill="#fff" stroke="#fff" transform="matrix(0.9876,0,0,0.9876,13.8268,9.8763)"><rect width="83" height="41" x="812" y="119" stroke="none"/><rect width="83" height="41" x="812" y="119" fill="none" stroke="#000"/></g><g id="bla"><g font-family="sans-serif"><text x="826.618" y="138.076" stroke="none" transform="matrix(0.9876,0,0,0.9876,13.8268,9.8763)" xml:space="preserve">CHOPEN</text><text x="819.618" y="152.045" stroke="none" transform="matrix(0.9876,0,0,0.9876,13.8268,9.8763)" xml:space="preserve">(chopen.f)</text></g></g></g><g id="y.node.69"><g fill="#fff" stroke="#fff" transform="matrix(0.9876,0,0,0.9876,13.8268,9.8763)"><rect width="78" height="41" x="947" y="19" stroke="none"/><rect width="78" height="41" x="947" y="19" fill="none" stroke="#000"/></g><g id="bla"><g font-family="sans-serif"><text x="960.285" y="37.139" stroke="none" transform="matrix(0.9876,0,0,0.9876,13.8268,9.8763)" xml:space="preserve">RDXSPH</text><text x="954.785" y="51.107" stroke="none" transform="matrix(0.9876,0,0,0.9876,13.8268,9.8763)" xml:space="preserve">(rdxsph.f)</text></g></g></g><g id="y.node.74"><g fill="#F8ECC9" stroke="#F8ECC9" transform="matrix(0.9876,0,0,0.9876,13.8268,9.8763)"><rect width="113" height="75.938" x="432" y="799.688" stroke="none"/></g><g id="bla"><g fill="#404040" stroke="#404040" transform="matrix(0.9876,0,0,0.9876,13.8268,9.8763)"><rect width="113" height="4" x="432" y="799.688" stroke="none"/></g></g><g fill="#fff" stroke="#fff" transform="matrix(0.9876,0,0,0.9876,13.8268,9.8763)"><rect width="1" height="75.938" x="432" y="799.688" stroke="none"/><rect width="111" height="1" x="433" y="799.688" stroke="none"/><rect width="112" height="1" x="433" y="874.625" fill="#ADA58C" stroke="none"/><rect width="1" height="74.938" x="544" y="799.688" fill="#ADA58C" stroke="none"/></g></g><g id="y.node.75"><g fill="#fff" stroke="#fff" transform="matrix(0.9876,0,0,0.9876,13.8268,9.8763)"><rect width="83" height="41" x="447" y="818" stroke="none"/><rect width="83" height="41" x="447" y="818" fill="none" stroke="#000"/></g><g id="bla"><g font-family="sans-serif"><text x="461.5" y="836.826" stroke="none" transform="matrix(0.9876,0,0,0.9876,13.8268,9.8763)" xml:space="preserve">SETGAM</text><text x="454" y="850.795" stroke="none" transform="matrix(0.9876,0,0,0.9876,13.8268,9.8763)" xml:space="preserve">(setgam.f)</text></g></g></g><g id="y.node.76"><g fill="#F8ECC9" stroke="#F8ECC9" transform="matrix(0.9876,0,0,0.9876,13.8268,9.8763)"><rect width="109" height="75.938" x="153" y="1404.375" stroke="none"/></g><g id="bla"><g fill="#404040" stroke="#404040" transform="matrix(0.9876,0,0,0.9876,13.8268,9.8763)"><rect width="109" height="4" x="153" y="1404.375" stroke="none"/></g></g><g fill="#fff" stroke="#fff" transform="matrix(0.9876,0,0,0.9876,13.8268,9.8763)"><rect width="1" height="75.938" x="153" y="1404.375" stroke="none"/><rect width="107" height="1" x="154" y="1404.375" stroke="none"/><rect width="108" height="1" x="154" y="1479.313" fill="#ADA58C" stroke="none"/><rect width="1" height="74.938" x="261" y="1404.375" fill="#ADA58C" stroke="none"/></g></g><g id="y.node.77"><g fill="#fff" stroke="#fff" transform="matrix(0.9876,0,0,0.9876,13.8268,9.8763)"><rect width="79" height="41" x="168" y="1423" stroke="none"/><rect width="79" height="41" x="168" y="1423" fill="none" stroke="#000"/></g><g id="bla"><g font-family="sans-serif"><text x="182.5" y="1441.514" stroke="none" transform="matrix(0.9876,0,0,0.9876,13.8268,9.8763)" xml:space="preserve">SETKAP</text><text x="175" y="1455.482" stroke="none" transform="matrix(0.9876,0,0,0.9876,13.8268,9.8763)" xml:space="preserve">(setkap.f)</text></g></g></g><g id="y.node.78"><g fill="#F8ECC9" stroke="#F8ECC9" transform="matrix(0.9876,0,0,0.9876,13.8268,9.8763)"><rect width="163" height="347.813" x="0" y="663.75" stroke="none"/></g><g id="bla"><g fill="#404040" stroke="#404040" transform="matrix(0.9876,0,0,0.9876,13.8268,9.8763)"><rect width="163" height="4" x="0" y="663.75" stroke="none"/></g></g><g fill="#fff" stroke="#fff" transform="matrix(0.9876,0,0,0.9876,13.8268,9.8763)"><rect width="1" height="347.813" x="0" y="663.75" stroke="none"/><rect width="161" height="1" x="1" y="663.75" stroke="none"/><rect width="162" height="1" x="1" y="1010.563" fill="#ADA58C" stroke="none"/><rect width="1" height="346.813" x="162" y="663.75" fill="#ADA58C" stroke="none"/></g></g><g id="y.node.80"><g fill="#F8ECC9" stroke="#F8ECC9" transform="matrix(0.9876,0,0,0.9876,13.8268,9.8763)"><rect width="133" height="231.875" x="15" y="764.688" stroke="none"/></g><g id="bla"><g fill="#404040" stroke="#404040" transform="matrix(0.9876,0,0,0.9876,13.8268,9.8763)"><rect width="133" height="4" x="15" y="764.688" stroke="none"/></g></g><g fill="#fff" stroke="#fff" transform="matrix(0.9876,0,0,0.9876,13.8268,9.8763)"><rect width="1" height="231.875" x="15" y="764.688" stroke="none"/><rect width="131" height="1" x="16" y="764.688" stroke="none"/><rect width="132" height="1" x="16" y="995.563" fill="#ADA58C" stroke="none"/><rect width="1" height="230.875" x="147" y="764.688" fill="#ADA58C" stroke="none"/></g></g><g id="y.node.82"><g fill="#F8ECC9" stroke="#F8ECC9" transform="matrix(0.9876,0,0,0.9876,13.8268,9.8763)"><rect width="103" height="75.938" x="30" y="905.625" stroke="none"/></g><g id="bla"><g fill="#404040" stroke="#404040" transform="matrix(0.9876,0,0,0.9876,13.8268,9.8763)"><rect width="103" height="4" x="30" y="905.625" stroke="none"/></g></g><g fill="#fff" stroke="#fff" transform="matrix(0.9876,0,0,0.9876,13.8268,9.8763)"><rect width="1" height="75.938" x="30" y="905.625" stroke="none"/><rect width="101" height="1" x="31" y="905.625" stroke="none"/><rect width="102" height="1" x="31" y="980.563" fill="#ADA58C" stroke="none"/><rect width="1" height="74.938" x="132" y="905.625" fill="#ADA58C" stroke="none"/></g></g><g id="y.node.83"><g fill="#fff" stroke="#fff" transform="matrix(0.9876,0,0,0.9876,13.8268,9.8763)"><rect width="73" height="41" x="45" y="924" stroke="none"/><rect width="73" height="41" x="45" y="924" fill="none" stroke="#000"/></g><g id="bla"><g font-family="sans-serif"><text x="60" y="942.764" stroke="none" transform="matrix(0.9876,0,0,0.9876,13.8268,9.8763)" xml:space="preserve">ISNUM</text><text x="52" y="956.732" stroke="none" transform="matrix(0.9876,0,0,0.9876,13.8268,9.8763)" xml:space="preserve">(isnum.f)</text></g></g></g><g id="y.node.81"><g fill="#fff" stroke="#fff" transform="matrix(0.9876,0,0,0.9876,13.8268,9.8763)"><rect width="77" height="41" x="43" y="823" stroke="none"/><rect width="77" height="41" x="43" y="823" fill="none" stroke="#000"/></g><g id="bla"><g font-family="sans-serif"><text x="55.5" y="841.826" stroke="none" transform="matrix(0.9876,0,0,0.9876,13.8268,9.8763)" xml:space="preserve">STR2DP</text><text x="50" y="855.795" stroke="none" transform="matrix(0.9876,0,0,0.9876,13.8268,9.8763)" xml:space="preserve">(str2dp.f)</text></g></g></g><g id="y.node.79"><g fill="#fff" stroke="#fff" transform="matrix(0.9876,0,0,0.9876,13.8268,9.8763)"><rect width="77" height="41" x="67" y="682" stroke="none"/><rect width="77" height="41" x="67" y="682" fill="none" stroke="#000"/></g><g id="bla"><g font-family="sans-serif"><text x="80.5" y="700.889" stroke="none" transform="matrix(0.9876,0,0,0.9876,13.8268,9.8763)" xml:space="preserve">STR2RE</text><text x="74.5" y="714.857" stroke="none" transform="matrix(0.9876,0,0,0.9876,13.8268,9.8763)" xml:space="preserve">(str2dp.f)</text></g></g></g><g id="y.node.84"><g fill="#F8ECC9" stroke="#F8ECC9" transform="matrix(0.9876,0,0,0.9876,13.8268,9.8763)"><rect width="107" height="75.938" x="3.5" y="429.844" stroke="none"/></g><g id="bla"><g fill="#404040" stroke="#404040" transform="matrix(0.9876,0,0,0.9876,13.8268,9.8763)"><rect width="107" height="4" x="3.5" y="429.844" stroke="none"/></g></g><g fill="#fff" stroke="#fff" transform="matrix(0.9876,0,0,0.9876,13.8268,9.8763)"><rect width="1" height="75.938" x="3.5" y="429.844" stroke="none"/><rect width="105" height="1" x="4.5" y="429.844" stroke="none"/><rect width="106" height="1" x="4.5" y="504.781" fill="#ADA58C" stroke="none"/><rect width="1" height="74.938" x="109.5" y="429.844" fill="#ADA58C" stroke="none"/></g></g><g id="y.node.85"><g fill="#fff" stroke="#fff" transform="matrix(0.9876,0,0,0.9876,13.8268,9.8763)"><rect width="77" height="41" x="18" y="448" stroke="none"/><rect width="77" height="41" x="18" y="448" fill="none" stroke="#000"/></g><g id="bla"><g font-family="sans-serif"><text x="33.5" y="466.982" stroke="none" transform="matrix(0.9876,0,0,0.9876,13.8268,9.8763)" xml:space="preserve">STR2IN</text><text x="25.5" y="480.951" stroke="none" transform="matrix(0.9876,0,0,0.9876,13.8268,9.8763)" xml:space="preserve">(str2dp.f)</text></g></g></g><g id="y.node.86"><g fill="#F8ECC9" stroke="#F8ECC9" transform="matrix(0.9876,0,0,0.9876,13.8268,9.8763)"><rect width="90" height="75.938" x="1545.75" y="799.688" stroke="none"/></g><g id="bla"><g fill="#404040" stroke="#404040" transform="matrix(0.9876,0,0,0.9876,13.8268,9.8763)"><rect width="90" height="4" x="1545.75" y="799.688" stroke="none"/></g></g><g fill="#fff" stroke="#fff" transform="matrix(0.9876,0,0,0.9876,13.8268,9.8763)"><rect width="1" height="75.938" x="1545.75" y="799.688" stroke="none"/><rect width="88" height="1" x="1546.75" y="799.688" stroke="none"/><rect width="89" height="1" x="1546.75" y="874.625" fill="#ADA58C" stroke="none"/><rect width="1" height="74.938" x="1634.75" y="799.688" fill="#ADA58C" stroke="none"/></g></g><g id="y.node.87"><g fill="#fff" stroke="#fff" transform="matrix(0.9876,0,0,0.9876,13.8268,9.8763)"><rect width="60" height="41" x="1560" y="818" stroke="none"/><rect width="60" height="41" x="1560" y="818" fill="none" stroke="#000"/></g><g id="bla"><g font-family="sans-serif"><text x="1567.75" y="836.826" stroke="none" transform="matrix(0.9876,0,0,0.9876,13.8268,9.8763)" xml:space="preserve">LOWER</text><text x="1571.25" y="850.795" stroke="none" transform="matrix(0.9876,0,0,0.9876,13.8268,9.8763)" xml:space="preserve">(str.f)</text></g></g></g><g id="y.node.88"><g fill="#F8ECC9" stroke="#F8ECC9" transform="matrix(0.9876,0,0,0.9876,13.8268,9.8763)"><rect width="101" height="75.938" x="1655.75" y="799.688" stroke="none"/></g><g id="bla"><g fill="#404040" stroke="#404040" transform="matrix(0.9876,0,0,0.9876,13.8268,9.8763)"><rect width="101" height="4" x="1655.75" y="799.688" stroke="none"/></g></g><g fill="#fff" stroke="#fff" transform="matrix(0.9876,0,0,0.9876,13.8268,9.8763)"><rect width="1" height="75.938" x="1655.75" y="799.688" stroke="none"/><rect width="99" height="1" x="1656.75" y="799.688" stroke="none"/><rect width="100" height="1" x="1656.75" y="874.625" fill="#ADA58C" stroke="none"/><rect width="1" height="74.938" x="1755.75" y="799.688" fill="#ADA58C" stroke="none"/></g></g><g id="y.node.89"><g fill="#fff" stroke="#fff" transform="matrix(0.9876,0,0,0.9876,13.8268,9.8763)"><rect width="71" height="41" x="1670" y="818" stroke="none"/><rect width="71" height="41" x="1670" y="818" fill="none" stroke="#000"/></g><g id="bla"><g font-family="sans-serif"><text x="1677.75" y="836.826" stroke="none" transform="matrix(0.9876,0,0,0.9876,13.8268,9.8763)" xml:space="preserve">BWORDS</text><text x="1686.75" y="850.795" stroke="none" transform="matrix(0.9876,0,0,0.9876,13.8268,9.8763)" xml:space="preserve">(str.f)</text></g></g></g><g id="y.node.90"><g fill="#F8ECC9" stroke="#F8ECC9" transform="matrix(0.9876,0,0,0.9876,13.8268,9.8763)"><rect width="89" height="75.938" x="1776.75" y="799.688" stroke="none"/></g><g id="bla"><g fill="#404040" stroke="#404040" transform="matrix(0.9876,0,0,0.9876,13.8268,9.8763)"><rect width="89" height="4" x="1776.75" y="799.688" stroke="none"/></g></g><g fill="#fff" stroke="#fff" transform="matrix(0.9876,0,0,0.9876,13.8268,9.8763)"><rect width="1" height="75.938" x="1776.75" y="799.688" stroke="none"/><rect width="87" height="1" x="1777.75" y="799.688" stroke="none"/><rect width="88" height="1" x="1777.75" y="874.625" fill="#ADA58C" stroke="none"/><rect width="1" height="74.938" x="1864.75" y="799.688" fill="#ADA58C" stroke="none"/></g></g><g id="y.node.91"><g fill="#fff" stroke="#fff" transform="matrix(0.9876,0,0,0.9876,13.8268,9.8763)"><rect width="59" height="41" x="1791" y="818" stroke="none"/><rect width="59" height="41" x="1791" y="818" fill="none" stroke="#000"/></g><g id="bla"><g font-family="sans-serif"><text x="1798.75" y="836.826" stroke="none" transform="matrix(0.9876,0,0,0.9876,13.8268,9.8763)" xml:space="preserve">UNTAB</text><text x="1801.75" y="850.795" stroke="none" transform="matrix(0.9876,0,0,0.9876,13.8268,9.8763)" xml:space="preserve">(str.f)</text></g></g></g><g id="y.node.92"><g fill="#F8ECC9" stroke="#F8ECC9" transform="matrix(0.9876,0,0,0.9876,13.8268,9.8763)"><rect width="96" height="75.938" x="1949" y="1404.375" stroke="none"/></g><g id="bla"><g fill="#404040" stroke="#404040" transform="matrix(0.9876,0,0,0.9876,13.8268,9.8763)"><rect width="96" height="4" x="1949" y="1404.375" stroke="none"/></g></g><g fill="#fff" stroke="#fff" transform="matrix(0.9876,0,0,0.9876,13.8268,9.8763)"><rect width="1" height="75.938" x="1949" y="1404.375" stroke="none"/><rect width="94" height="1" x="1950" y="1404.375" stroke="none"/><rect width="95" height="1" x="1950" y="1479.313" fill="#ADA58C" stroke="none"/><rect width="1" height="74.938" x="2044" y="1404.375" fill="#ADA58C" stroke="none"/></g></g><g id="y.node.93"><g fill="#fff" stroke="#fff" transform="matrix(0.9876,0,0,0.9876,13.8268,9.8763)"><rect width="66" height="41" x="1964" y="1423" stroke="none"/><rect width="66" height="41" x="1964" y="1423" fill="none" stroke="#000"/></g><g id="bla"><g font-family="sans-serif"><text x="1971" y="1441.514" stroke="none" transform="matrix(0.9876,0,0,0.9876,13.8268,9.8763)" xml:space="preserve">ISCOMM</text><text x="1977.5" y="1455.482" stroke="none" transform="matrix(0.9876,0,0,0.9876,13.8268,9.8763)" xml:space="preserve">(str.f)</text></g></g></g><g id="y.node.94"><g fill="#F8ECC9" stroke="#F8ECC9" transform="matrix(0.9876,0,0,0.9876,13.8268,9.8763)"><rect width="94" height="75.938" x="2090" y="1404.375" stroke="none"/></g><g id="bla"><g fill="#404040" stroke="#404040" transform="matrix(0.9876,0,0,0.9876,13.8268,9.8763)"><rect width="94" height="4" x="2090" y="1404.375" stroke="none"/></g></g><g fill="#fff" stroke="#fff" transform="matrix(0.9876,0,0,0.9876,13.8268,9.8763)"><rect width="1" height="75.938" x="2090" y="1404.375" stroke="none"/><rect width="92" height="1" x="2091" y="1404.375" stroke="none"/><rect width="93" height="1" x="2091" y="1479.313" fill="#ADA58C" stroke="none"/><rect width="1" height="74.938" x="2183" y="1404.375" fill="#ADA58C" stroke="none"/></g></g><g id="y.node.95"><g fill="#fff" stroke="#fff" transform="matrix(0.9876,0,0,0.9876,13.8268,9.8763)"><rect width="64" height="41" x="2105" y="1423" stroke="none"/><rect width="64" height="41" x="2105" y="1423" fill="none" stroke="#000"/></g><g id="bla"><g font-family="sans-serif"><text x="2113" y="1441.514" stroke="none" transform="matrix(0.9876,0,0,0.9876,13.8268,9.8763)" xml:space="preserve">LBLANK</text><text x="2112" y="1455.482" stroke="none" transform="matrix(0.9876,0,0,0.9876,13.8268,9.8763)" xml:space="preserve">(wlog.f)</text></g></g></g><g id="y.node.96"><g fill="#F8ECC9" stroke="#F8ECC9" transform="matrix(0.9876,0,0,0.9876,13.8268,9.8763)"><rect width="108" height="191.875" x="0" y="1404.375" stroke="none"/></g><g id="bla"><g fill="#404040" stroke="#404040" transform="matrix(0.9876,0,0,0.9876,13.8268,9.8763)"><rect width="108" height="4" x="0" y="1404.375" stroke="none"/></g></g><g fill="#fff" stroke="#fff" transform="matrix(0.9876,0,0,0.9876,13.8268,9.8763)"><rect width="1" height="191.875" x="0" y="1404.375" stroke="none"/><rect width="106" height="1" x="1" y="1404.375" stroke="none"/><rect width="107" height="1" x="1" y="1595.25" fill="#ADA58C" stroke="none"/><rect width="1" height="190.875" x="107" y="1404.375" fill="#ADA58C" stroke="none"/></g></g><g id="y.node.98"><g fill="#F8ECC9" stroke="#F8ECC9" transform="matrix(0.9876,0,0,0.9876,13.8268,9.8763)"><rect width="78" height="75.938" x="15" y="1505.313" stroke="none"/></g><g id="bla"><g fill="#404040" stroke="#404040" transform="matrix(0.9876,0,0,0.9876,13.8268,9.8763)"><rect width="78" height="4" x="15" y="1505.313" stroke="none"/></g></g><g fill="#fff" stroke="#fff" transform="matrix(0.9876,0,0,0.9876,13.8268,9.8763)"><rect width="1" height="75.938" x="15" y="1505.313" stroke="none"/><rect width="76" height="1" x="16" y="1505.313" stroke="none"/><rect width="77" height="1" x="16" y="1580.25" fill="#ADA58C" stroke="none"/><rect width="1" height="74.938" x="92" y="1505.313" fill="#ADA58C" stroke="none"/></g></g><g id="y.node.99"><g fill="#fff" stroke="#fff" transform="matrix(0.9876,0,0,0.9876,13.8268,9.8763)"><rect width="48" height="41" x="30" y="1524" stroke="none"/><rect width="48" height="41" x="30" y="1524" fill="none" stroke="#000"/></g><g id="bla"><g font-family="sans-serif"><text x="45" y="1542.451" stroke="none" transform="matrix(0.9876,0,0,0.9876,13.8268,9.8763)" xml:space="preserve">XX</text><text x="37" y="1556.42" stroke="none" transform="matrix(0.9876,0,0,0.9876,13.8268,9.8763)" xml:space="preserve">(xx.f)</text></g></g></g><g id="y.node.97"><g fill="#fff" stroke="#fff" transform="matrix(0.9876,0,0,0.9876,13.8268,9.8763)"><rect width="48" height="41" x="30" y="1423" stroke="none"/><rect width="48" height="41" x="30" y="1423" fill="none" stroke="#000"/></g><g id="bla"><g font-family="sans-serif"><text x="44" y="1441.514" stroke="none" transform="matrix(0.9876,0,0,0.9876,13.8268,9.8763)" xml:space="preserve">RR</text><text x="37" y="1455.482" stroke="none" transform="matrix(0.9876,0,0,0.9876,13.8268,9.8763)" xml:space="preserve">(xx.f)</text></g></g></g><g id="y.node.100"><g fill="#F8ECC9" stroke="#F8ECC9" transform="matrix(0.9876,0,0,0.9876,13.8268,9.8763)"><rect width="78" height="75.938" x="2229" y="1404.375" stroke="none"/></g><g id="bla"><g fill="#404040" stroke="#404040" transform="matrix(0.9876,0,0,0.9876,13.8268,9.8763)"><rect width="78" height="4" x="2229" y="1404.375" stroke="none"/></g></g><g fill="#fff" stroke="#fff" transform="matrix(0.9876,0,0,0.9876,13.8268,9.8763)"><rect width="1" height="75.938" x="2229" y="1404.375" stroke="none"/><rect width="76" height="1" x="2230" y="1404.375" stroke="none"/><rect width="77" height="1" x="2230" y="1479.313" fill="#ADA58C" stroke="none"/><rect width="1" height="74.938" x="2306" y="1404.375" fill="#ADA58C" stroke="none"/></g></g><g id="y.node.101"><g fill="#fff" stroke="#fff" transform="matrix(0.9876,0,0,0.9876,13.8268,9.8763)"><rect width="48" height="41" x="2244" y="1423" stroke="none"/><rect width="48" height="41" x="2244" y="1423" fill="none" stroke="#000"/></g><g id="bla"><g font-family="sans-serif"><text x="2263" y="1441.514" stroke="none" transform="matrix(0.9876,0,0,0.9876,13.8268,9.8763)" xml:space="preserve">II</text><text x="2251" y="1455.482" stroke="none" transform="matrix(0.9876,0,0,0.9876,13.8268,9.8763)" xml:space="preserve">(xx.f)</text></g></g></g><g id="y.edge.0"><g stroke-linecap="butt" stroke-miterlimit="1.45"><path fill="none" d="M575.8027 1112.5195 L622.8549 1152.5 L622.8549 1171.5 L622.8549 1171.5" transform="matrix(0.9876,0,0,0.9876,13.8268,9.8763)"/></g></g><g id="y.edge.1"><g stroke-linecap="butt" stroke-miterlimit="1.45"><path fill="none" d="M630.8126 1213.457 L697.9985 1253.4375 L697.9985 1264.4004" transform="matrix(0.9876,0,0,0.9876,13.8268,9.8763)"/><path stroke="none" d="M697.9985 1272.4004 L702.9985 1260.4004 L697.9985 1263.4004 L692.9985 1260.4004 Z" transform="matrix(0.9876,0,0,0.9876,13.8268,9.8763)"/></g></g><g id="y.edge.2"><g stroke-linecap="butt" stroke-miterlimit="1.45"><path fill="none" d="M238 860.6619 L238 1011.5625 L509.2798 1051.5625 L509.2798 1112.5 L601.5216 1152.5 L601.5216 1171.5 L601.5216 1171.5" transform="matrix(0.9876,0,0,0.9876,13.8268,9.8763)"/></g></g><g id="y.edge.3"><g stroke-linecap="butt" stroke-miterlimit="1.45"><path fill="none" d="M637 860.6619 L637 1011.5625 L683.2797 1051.5625 L683.2797 1213.4375 L705.3735 1253.4375 L705.3735 1264.4004" transform="matrix(0.9876,0,0,0.9876,13.8268,9.8763)"/><path stroke="none" d="M705.3735 1272.4004 L710.3735 1260.4004 L705.3735 1263.4004 L700.3735 1260.4004 Z" transform="matrix(0.9876,0,0,0.9876,13.8268,9.8763)"/></g></g><g id="y.edge.4"><g stroke-linecap="butt" stroke-miterlimit="1.45"><path fill="none" d="M757 860.6619 L757 1011.5625 L703.2797 1051.5625 L703.2797 1213.4375 L712.7485 1253.4375 L712.7485 1264.4004" transform="matrix(0.9876,0,0,0.9876,13.8268,9.8763)"/><path stroke="none" d="M712.7485 1272.4004 L717.7485 1260.4004 L712.7485 1263.4004 L707.7485 1260.4004 Z" transform="matrix(0.9876,0,0,0.9876,13.8268,9.8763)"/></g></g><g id="y.edge.5"><g stroke-linecap="butt" stroke-miterlimit="1.45"><path fill="none" d="M362 860.6619 L362 1011.5625 L529.2797 1051.5625 L529.2797 1112.5 L615.7438 1152.5 L615.7438 1171.5 L615.7438 1171.5" transform="matrix(0.9876,0,0,0.9876,13.8268,9.8763)"/></g></g><g id="y.edge.6"><g stroke-linecap="butt" stroke-miterlimit="1.45"><path fill="none" d="M886.5 802.6851 L886.5 853.6274" transform="matrix(0.9876,0,0,0.9876,13.8268,9.8763)"/><path stroke="none" d="M886.5 861.6274 L891.5 849.6274 L886.5 852.6274 L881.5 849.6274 Z" transform="matrix(0.9876,0,0,0.9876,13.8268,9.8763)"/></g></g><g id="y.edge.7"><g stroke-linecap="butt" stroke-miterlimit="1.45"><path fill="none" d="M886.5 903.6201 L886.5 1011.5625 L713.2797 1051.5625 L713.2797 1213.4375 L716.436 1253.4375 L716.436 1264.4004" transform="matrix(0.9876,0,0,0.9876,13.8268,9.8763)"/><path stroke="none" d="M716.436 1272.4004 L721.436 1260.4004 L716.436 1263.4004 L711.436 1260.4004 Z" transform="matrix(0.9876,0,0,0.9876,13.8268,9.8763)"/></g></g><g id="y.edge.8"><g stroke-linecap="butt" stroke-miterlimit="1.45"><path fill="none" d="M2049.7683 176.9141 L2068.5 216.875 L2068.5 235.875 L2065.0994 267.8807" transform="matrix(0.9876,0,0,0.9876,13.8268,9.8763)"/><path stroke="none" d="M2064.2542 275.8359 L2070.4941 264.4314 L2065.2051 266.8863 L2060.55 263.3748 Z" transform="matrix(0.9876,0,0,0.9876,13.8268,9.8763)"/></g></g><g id="y.edge.9"><g stroke-linecap="butt" stroke-miterlimit="1.45"><path fill="none" d="M2097.25 60.9658 L2097.25 176.875 L2078.5 216.875 L2078.5 235.875 L2081.9006 267.8807" transform="matrix(0.9876,0,0,0.9876,13.8268,9.8763)"/><path stroke="none" d="M2082.7458 275.8359 L2086.45 263.3748 L2081.7949 266.8863 L2076.5059 264.4314 Z" transform="matrix(0.9876,0,0,0.9876,13.8268,9.8763)"/></g></g><g id="y.edge.10"><g stroke-linecap="butt" stroke-miterlimit="1.45"><path fill="none" d="M2221.25 60.9668 L2221.25 75.9375 L2107.25 115.9375 L2107.25 176.875 L2088.5 216.875 L2088.5 235.875 L2098.8081 268.2138" transform="matrix(0.9876,0,0,0.9876,13.8268,9.8763)"/><path stroke="none" d="M2101.2378 275.8359 L2102.3572 262.8842 L2098.5044 267.261 L2092.8296 265.9212 Z" transform="matrix(0.9876,0,0,0.9876,13.8268,9.8763)"/></g></g><g id="y.edge.11"><g stroke-linecap="butt" stroke-miterlimit="1.45"><path fill="none" d="M1973.25 60.9668 L1973.25 75.9375 L2002.25 115.9375 L2002.25 176.875 L2058.5 216.875 L2058.5 235.875 L2048.1919 268.2138" transform="matrix(0.9876,0,0,0.9876,13.8268,9.8763)"/><path stroke="none" d="M2045.7623 275.8359 L2054.1707 265.9212 L2048.4956 267.261 L2044.6428 262.8842 Z" transform="matrix(0.9876,0,0,0.9876,13.8268,9.8763)"/></g></g><g id="y.edge.12"><g stroke-linecap="butt" stroke-miterlimit="1.45"><path fill="none" d="M1042.5277 724.707 L1095.75 764.6875 L1095.75 783.6875 L1092.3494 815.6932" transform="matrix(0.9876,0,0,0.9876,13.8268,9.8763)"/><path stroke="none" d="M1091.5042 823.6484 L1097.744 812.2439 L1092.4551 814.6988 L1087.8 811.1873 Z" transform="matrix(0.9876,0,0,0.9876,13.8268,9.8763)"/></g></g><g id="y.edge.13"><g stroke-linecap="butt" stroke-miterlimit="1.45"><path fill="none" d="M1027.6842 724.707 L992 764.6875 L992 1011.5625 L723.2797 1051.5625 L723.2797 1213.4375 L720.1235 1253.4375 L720.1235 1264.4004" transform="matrix(0.9876,0,0,0.9876,13.8268,9.8763)"/><path stroke="none" d="M720.1235 1272.4004 L725.1235 1260.4004 L720.1235 1263.4004 L715.1235 1260.4004 Z" transform="matrix(0.9876,0,0,0.9876,13.8268,9.8763)"/></g></g><g id="y.edge.14"><g stroke-linecap="butt" stroke-miterlimit="1.45"><path fill="none" d="M1072.1317 724.6924 L1318.25 764.6875 L1318.25 861.6562 L1318.25 861.6562" transform="matrix(0.9876,0,0,0.9876,13.8268,9.8763)"/></g></g><g id="y.edge.15"><g stroke-linecap="butt" stroke-miterlimit="1.45"><path fill="none" d="M1057.3389 724.6973 L1209.75 764.6875 L1209.75 841.6562 L1199.442 873.9951" transform="matrix(0.9876,0,0,0.9876,13.8268,9.8763)"/><path stroke="none" d="M1197.0125 881.6172 L1205.4207 871.7025 L1199.7457 873.0422 L1195.8929 868.6655 Z" transform="matrix(0.9876,0,0,0.9876,13.8268,9.8763)"/></g></g><g id="y.edge.16"><g stroke-linecap="butt" stroke-miterlimit="1.45"><path fill="none" d="M1012.8705 724.7266 L981 764.6875 L981 1011.5625 L652.2797 1051.5625 L652.2797 1070.5625 L653.7194 1171.5 L653.7194 1171.5" transform="matrix(0.9876,0,0,0.9876,13.8268,9.8763)"/></g></g><g id="y.edge.17"><g stroke-linecap="butt" stroke-miterlimit="1.45"><path fill="none" d="M1119.2625 865.6641 L1132 905.625 L1132 1011.5625 L733.2797 1051.5625 L733.2797 1213.4375 L723.811 1253.4375 L723.811 1264.4004" transform="matrix(0.9876,0,0,0.9876,13.8268,9.8763)"/><path stroke="none" d="M723.811 1272.4004 L728.811 1260.4004 L723.811 1263.4004 L718.811 1260.4004 Z" transform="matrix(0.9876,0,0,0.9876,13.8268,9.8763)"/></g></g><g id="y.edge.18"><g stroke-linecap="butt" stroke-miterlimit="1.45"><path fill="none" d="M1082.2375 865.6641 L1069.5 905.625 L1069.5 916.5879" transform="matrix(0.9876,0,0,0.9876,13.8268,9.8763)"/><path stroke="none" d="M1069.5 924.5879 L1074.5 912.5879 L1069.5 915.5879 L1064.5 912.5879 Z" transform="matrix(0.9876,0,0,0.9876,13.8268,9.8763)"/></g></g><g id="y.edge.19"><g stroke-linecap="butt" stroke-miterlimit="1.45"><path fill="none" d="M1338.25 903.6201 L1338.25 1011.5625 L743.2797 1051.5625 L743.2797 1213.4375 L727.4985 1253.4375 L727.4985 1264.4004" transform="matrix(0.9876,0,0,0.9876,13.8268,9.8763)"/><path stroke="none" d="M727.4985 1272.4004 L732.4985 1260.4004 L727.4985 1263.4004 L722.4985 1260.4004 Z" transform="matrix(0.9876,0,0,0.9876,13.8268,9.8763)"/></g></g><g id="y.edge.20"><g stroke-linecap="butt" stroke-miterlimit="1.45"><path fill="none" d="M1095.463 470.8186 L1095.463 623.75 L995.0016 663.75 L995.0016 724.6875 L1085.75 764.6875 L1085.75 783.6875 L1075.442 816.0263" transform="matrix(0.9876,0,0,0.9876,13.8268,9.8763)"/><path stroke="none" d="M1073.0125 823.6484 L1081.4207 813.7337 L1075.7457 815.0735 L1071.8929 810.6967 Z" transform="matrix(0.9876,0,0,0.9876,13.8268,9.8763)"/></g></g><g id="y.edge.21"><g stroke-linecap="butt" stroke-miterlimit="1.45"><path fill="none" d="M1065.8723 470.8203 L1075.463 510.7812 L1075.463 623.75 L173.5 663.75 L173.5 1011.5625 L498.2798 1051.5625 L498.2798 1112.5 L588.2797 1152.5 L588.2797 1213.4375 L694.311 1253.4375 L694.311 1264.4004" transform="matrix(0.9876,0,0,0.9876,13.8268,9.8763)"/><path stroke="none" d="M694.311 1272.4004 L699.311 1260.4004 L694.311 1263.4004 L689.311 1260.4004 Z" transform="matrix(0.9876,0,0,0.9876,13.8268,9.8763)"/></g></g><g id="y.edge.22"><g stroke-linecap="butt" stroke-miterlimit="1.45"><path fill="none" d="M1125.0536 470.8203 L1115.463 510.7812 L1115.463 623.75 L1319.5 663.75 L1319.5 724.6875 L1328.25 764.6875 L1328.25 861.6562 L1328.25 861.6562" transform="matrix(0.9876,0,0,0.9876,13.8268,9.8763)"/></g></g><g id="y.edge.23"><g stroke-linecap="butt" stroke-miterlimit="1.45"><path fill="none" d="M1110.2583 470.8203 L1105.463 510.7812 L1105.463 623.75 L1219.75 663.75 L1219.75 841.6562 L1216.3494 873.662" transform="matrix(0.9876,0,0,0.9876,13.8268,9.8763)"/><path stroke="none" d="M1215.5042 881.6172 L1221.744 870.2126 L1216.4551 872.6675 L1211.8 869.1561 Z" transform="matrix(0.9876,0,0,0.9876,13.8268,9.8763)"/></g></g><g id="y.edge.24"><g stroke-linecap="butt" stroke-miterlimit="1.45"><path fill="none" d="M1080.6676 470.8203 L1085.463 510.7812 L1085.463 623.75 L421.5 663.75 L421.5 1011.5625 L622.2797 1051.5625 L622.2797 1112.5 L630.7797 1152.5 L630.7797 1163.4629" transform="matrix(0.9876,0,0,0.9876,13.8268,9.8763)"/><path stroke="none" d="M630.7797 1171.4629 L635.7797 1159.4629 L630.7797 1162.4629 L625.7797 1159.4629 Z" transform="matrix(0.9876,0,0,0.9876,13.8268,9.8763)"/></g></g><g id="y.edge.25"><g stroke-linecap="butt" stroke-miterlimit="1.45"><path fill="none" d="M1470.25 860.6619 L1470.25 1011.5625 L753.2797 1051.5625 L753.2797 1213.4375 L731.186 1253.4375 L731.186 1264.4004" transform="matrix(0.9876,0,0,0.9876,13.8268,9.8763)"/><path stroke="none" d="M731.186 1272.4004 L736.186 1260.4004 L731.186 1263.4004 L726.186 1260.4004 Z" transform="matrix(0.9876,0,0,0.9876,13.8268,9.8763)"/></g></g><g id="y.edge.26"><g stroke-linecap="butt" stroke-miterlimit="1.45"><path fill="none" d="M1559.881 372.8516 L1537.403 412.8125 L1537.403 431.8125 L1548.3315 464.1935" transform="matrix(0.9876,0,0,0.9876,13.8268,9.8763)"/><path stroke="none" d="M1550.8898 471.7734 L1551.7899 458.8046 L1548.0117 463.246 L1542.3149 462.0024 Z" transform="matrix(0.9876,0,0,0.9876,13.8268,9.8763)"/></g></g><g id="y.edge.27"><g stroke-linecap="butt" stroke-miterlimit="1.45"><path fill="none" d="M1594.903 372.8604 L1594.903 568.75 L1592.9712 608.75 L1592.9712 623.75 L1358.25 663.75 L1358.25 861.6562 L1358.25 861.6562" transform="matrix(0.9876,0,0,0.9876,13.8268,9.8763)"/></g></g><g id="y.edge.28"><g stroke-linecap="butt" stroke-miterlimit="1.45"><path fill="none" d="M1517.6077 513.7891 L1522.403 553.75 L1522.403 623.75 L1152.5767 663.75 L1152.5767 724.6875 L1115.75 764.6875 L1115.75 783.6875 L1126.058 816.0263" transform="matrix(0.9876,0,0,0.9876,13.8268,9.8763)"/><path stroke="none" d="M1128.4875 823.6484 L1129.6071 810.6967 L1125.7543 815.0735 L1120.0793 813.7337 Z" transform="matrix(0.9876,0,0,0.9876,13.8268,9.8763)"/></g></g><g id="y.edge.29"><g stroke-linecap="butt" stroke-miterlimit="1.45"><path fill="none" d="M1561.9935 513.7891 L1552.403 553.75 L1552.403 568.75 L1602.9712 608.75 L1602.9712 623.75 L1876.25 663.75 L1876.25 1011.5625 L793.2797 1051.5625 L793.2797 1213.4375 L745.936 1253.4375 L745.936 1264.4004" transform="matrix(0.9876,0,0,0.9876,13.8268,9.8763)"/><path stroke="none" d="M745.936 1272.4004 L750.936 1260.4004 L745.936 1263.4004 L740.936 1260.4004 Z" transform="matrix(0.9876,0,0,0.9876,13.8268,9.8763)"/></g></g><g id="y.edge.30"><g stroke-linecap="butt" stroke-miterlimit="1.45"><path fill="none" d="M1547.1982 513.7891 L1542.403 553.75 L1543.9939 608.75 L1543.9939 623.75 L1348.25 663.75 L1348.25 861.6562 L1348.25 861.6562" transform="matrix(0.9876,0,0,0.9876,13.8268,9.8763)"/></g></g><g id="y.edge.31"><g stroke-linecap="butt" stroke-miterlimit="1.45"><path fill="none" d="M1532.403 513.7769 L1532.403 623.75 L1247.8267 663.75 L1247.8267 724.6875 L1239.75 764.6875 L1239.75 841.6562 L1250.058 873.9951" transform="matrix(0.9876,0,0,0.9876,13.8268,9.8763)"/><path stroke="none" d="M1252.4875 881.6172 L1253.6071 868.6655 L1249.7543 873.0422 L1244.0793 871.7025 Z" transform="matrix(0.9876,0,0,0.9876,13.8268,9.8763)"/></g></g><g id="y.edge.32"><g stroke-linecap="butt" stroke-miterlimit="1.45"><path fill="none" d="M1502.8124 513.7891 L1512.403 553.75 L1512.403 623.75 L566.5 663.75 L566.5 1011.5625 L662.2797 1051.5625 L662.2797 1070.5625 L660.8306 1171.5 L660.8306 1171.5" transform="matrix(0.9876,0,0,0.9876,13.8268,9.8763)"/></g></g><g id="y.edge.33"><g stroke-linecap="butt" stroke-miterlimit="1.45"><path fill="none" d="M960.759 60.9473 L854.1184 100.9375 L854.1184 111.9004" transform="matrix(0.9876,0,0,0.9876,13.8268,9.8763)"/><path stroke="none" d="M854.1184 119.9004 L859.1184 107.9004 L854.1184 110.9004 L849.1184 107.9004 Z" transform="matrix(0.9876,0,0,0.9876,13.8268,9.8763)"/></g></g><g id="y.edge.34"><g stroke-linecap="butt" stroke-miterlimit="1.45"><path fill="none" d="M1012.8008 60.957 L1045.1184 100.9375 L1045.1184 271.875 L1527.403 311.875 L1527.403 431.8125 L1516.4744 464.1935" transform="matrix(0.9876,0,0,0.9876,13.8268,9.8763)"/><path stroke="none" d="M1513.9161 471.7734 L1522.491 462.0024 L1516.7942 463.246 L1513.016 458.8046 Z" transform="matrix(0.9876,0,0,0.9876,13.8268,9.8763)"/></g></g><g id="y.edge.35"><g stroke-linecap="butt" stroke-miterlimit="1.45"><path fill="none" d="M986.781 60.9766 L982.6184 100.9375 L982.6184 111.9004" transform="matrix(0.9876,0,0,0.9876,13.8268,9.8763)"/><path stroke="none" d="M982.6184 119.9004 L987.6184 107.9004 L982.6184 110.9004 L977.6184 107.9004 Z" transform="matrix(0.9876,0,0,0.9876,13.8268,9.8763)"/></g></g><g id="y.edge.36"><g stroke-linecap="butt" stroke-miterlimit="1.45"><path fill="none" d="M874.853 161.9141 L859.1184 201.875 L859.1184 216.875 L869.4725 256.875 L869.4725 271.875 L577.5 311.875 L577.5 1011.5625 L673.2797 1051.5625 L673.2797 1213.4375 L701.686 1253.4375 L701.686 1264.4004" transform="matrix(0.9876,0,0,0.9876,13.8268,9.8763)"/><path stroke="none" d="M701.686 1272.4004 L706.686 1260.4004 L701.686 1263.4004 L696.686 1260.4004 Z" transform="matrix(0.9876,0,0,0.9876,13.8268,9.8763)"/></g></g><g id="y.edge.37"><g stroke-linecap="butt" stroke-miterlimit="1.45"><path fill="none" d="M833.3838 161.9141 L849.1184 201.875 L849.1184 216.875 L839.5559 256.875 L839.5559 271.875 L302.5 311.875 L302.5 1011.5625 L519.2797 1051.5625 L519.2797 1112.5 L608.6328 1152.5 L608.6328 1171.5 L608.6328 1171.5" transform="matrix(0.9876,0,0,0.9876,13.8268,9.8763)"/></g></g><g id="y.edge.38"><g stroke-linecap="butt" stroke-miterlimit="1.45"><path fill="none" d="M982.6184 161.9141 L982.6184 201.875 L983.0559 256.875 L983.0559 271.875 L1157.963 311.875 L1157.963 623.75 L1113.8267 663.75 L1113.8267 724.6875 L1105.75 764.6875 L1105.75 783.6875 L1109.1506 815.6932" transform="matrix(0.9876,0,0,0.9876,13.8268,9.8763)"/><path stroke="none" d="M1109.9958 823.6484 L1113.7 811.1873 L1109.0449 814.6988 L1103.756 812.2439 Z" transform="matrix(0.9876,0,0,0.9876,13.8268,9.8763)"/></g></g><g id="y.edge.39"><g stroke-linecap="butt" stroke-miterlimit="1.45"><path fill="none" d="M967.8231 161.9141 L972.6184 201.875 L971.8684 256.875 L971.8684 271.875 L696.5 311.875 L696.5 1011.5625 L693.2797 1051.5625 L693.2797 1213.4375 L709.061 1253.4375 L709.061 1264.4004" transform="matrix(0.9876,0,0,0.9876,13.8268,9.8763)"/><path stroke="none" d="M709.061 1272.4004 L714.061 1260.4004 L709.061 1263.4004 L704.061 1260.4004 Z" transform="matrix(0.9876,0,0,0.9876,13.8268,9.8763)"/></g></g><g id="y.edge.40"><g stroke-linecap="butt" stroke-miterlimit="1.45"><path fill="none" d="M1012.209 161.9141 L1002.6184 201.875 L1002.6184 216.875 L1007.9725 256.875 L1007.9725 271.875 L1249.4546 311.875 L1249.4546 623.75 L1338.25 663.75 L1338.25 853.6079" transform="matrix(0.9876,0,0,0.9876,13.8268,9.8763)"/><path stroke="none" d="M1338.25 861.6079 L1343.25 849.6079 L1338.25 852.6079 L1333.25 849.6079 Z" transform="matrix(0.9876,0,0,0.9876,13.8268,9.8763)"/></g></g><g id="y.edge.41"><g stroke-linecap="butt" stroke-miterlimit="1.45"><path fill="none" d="M997.4137 161.9141 L992.6184 201.875 L992.6184 216.875 L997.9725 256.875 L997.9725 271.875 L1239.4546 311.875 L1239.4546 623.75 L1229.75 663.75 L1229.75 841.6562 L1233.1506 873.662" transform="matrix(0.9876,0,0,0.9876,13.8268,9.8763)"/><path stroke="none" d="M1233.9958 881.6172 L1237.7 869.1561 L1233.0449 872.6675 L1227.756 870.2126 Z" transform="matrix(0.9876,0,0,0.9876,13.8268,9.8763)"/></g></g><g id="y.edge.42"><g stroke-linecap="butt" stroke-miterlimit="1.45"><path fill="none" d="M953.0278 161.9141 L962.6184 201.875 L962.6184 216.875 L859.4725 256.875 L859.4725 271.875 L555.5 311.875 L555.5 1011.5625 L642.2797 1051.5625 L642.2797 1112.5 L646.6083 1152.5 L646.6083 1171.5 L646.6083 1171.5" transform="matrix(0.9876,0,0,0.9876,13.8268,9.8763)"/></g></g><g id="y.edge.43"><g stroke-linecap="butt" stroke-miterlimit="1.45"><path fill="none" d="M488.5 860.6619 L488.5 1011.5625 L632.2797 1051.5625 L632.2797 1112.5 L639.4972 1152.5 L639.4972 1171.5 L639.4972 1171.5" transform="matrix(0.9876,0,0,0.9876,13.8268,9.8763)"/></g></g><g id="y.edge.44"><g stroke-linecap="butt" stroke-miterlimit="1.45"><path fill="none" d="M105.981 724.7266 L86.5 764.6875 L86.5 783.6875 L98.0514 816.1124" transform="matrix(0.9876,0,0,0.9876,13.8268,9.8763)"/><path stroke="none" d="M100.7361 823.6484 L101.419 810.6664 L97.7158 815.1703 L91.999 814.0223 Z" transform="matrix(0.9876,0,0,0.9876,13.8268,9.8763)"/></g></g><g id="y.edge.45"><g stroke-linecap="butt" stroke-miterlimit="1.45"><path fill="none" d="M81.5 865.6538 L81.5 916.5962" transform="matrix(0.9876,0,0,0.9876,13.8268,9.8763)"/><path stroke="none" d="M81.5 924.5962 L86.5 912.5962 L81.5 915.5962 L76.5 912.5962 Z" transform="matrix(0.9876,0,0,0.9876,13.8268,9.8763)"/></g></g><g id="y.edge.46"><g stroke-linecap="butt" stroke-miterlimit="1.45"><path fill="none" d="M81.5 966.6064 L81.5 1011.5625 L488.2798 1051.5625 L488.2798 1112.5 L578.2797 1152.5 L578.2797 1213.4375 L690.6235 1253.4375 L690.6235 1264.4004" transform="matrix(0.9876,0,0,0.9876,13.8268,9.8763)"/><path stroke="none" d="M690.6235 1272.4004 L695.6235 1260.4004 L690.6235 1263.4004 L685.6235 1260.4004 Z" transform="matrix(0.9876,0,0,0.9876,13.8268,9.8763)"/></g></g><g id="y.edge.47"><g stroke-linecap="butt" stroke-miterlimit="1.45"><path fill="none" d="M57 490.8098 L57 724.6875 L76.5 764.6875 L76.5 783.6875 L64.9486 816.1124" transform="matrix(0.9876,0,0,0.9876,13.8268,9.8763)"/><path stroke="none" d="M62.2639 823.6484 L71.001 814.0223 L65.2842 815.1703 L61.581 810.6664 Z" transform="matrix(0.9876,0,0,0.9876,13.8268,9.8763)"/></g></g><g id="y.edge.48"><g stroke-linecap="butt" stroke-miterlimit="1.45"><path fill="none" d="M1590.75 860.6619 L1590.75 1011.5625 L763.2797 1051.5625 L763.2797 1213.4375 L734.8735 1253.4375 L734.8735 1264.4004" transform="matrix(0.9876,0,0,0.9876,13.8268,9.8763)"/><path stroke="none" d="M734.8735 1272.4004 L739.8735 1260.4004 L734.8735 1263.4004 L729.8735 1260.4004 Z" transform="matrix(0.9876,0,0,0.9876,13.8268,9.8763)"/></g></g><g id="y.edge.49"><g stroke-linecap="butt" stroke-miterlimit="1.45"><path fill="none" d="M1706.25 860.6619 L1706.25 1011.5625 L773.2797 1051.5625 L773.2797 1213.4375 L738.561 1253.4375 L738.561 1264.4004" transform="matrix(0.9876,0,0,0.9876,13.8268,9.8763)"/><path stroke="none" d="M738.561 1272.4004 L743.561 1260.4004 L738.561 1263.4004 L733.561 1260.4004 Z" transform="matrix(0.9876,0,0,0.9876,13.8268,9.8763)"/></g></g><g id="y.edge.50"><g stroke-linecap="butt" stroke-miterlimit="1.45"><path fill="none" d="M1821.25 860.6619 L1821.25 1011.5625 L783.2797 1051.5625 L783.2797 1213.4375 L742.2485 1253.4375 L742.2485 1264.4004" transform="matrix(0.9876,0,0,0.9876,13.8268,9.8763)"/><path stroke="none" d="M742.2485 1272.4004 L747.2485 1260.4004 L742.2485 1263.4004 L737.2485 1260.4004 Z" transform="matrix(0.9876,0,0,0.9876,13.8268,9.8763)"/></g></g><g id="y.edge.51"><g stroke-linecap="butt" stroke-miterlimit="1.45"><path fill="none" d="M54 1465.3413 L54 1516.2837" transform="matrix(0.9876,0,0,0.9876,13.8268,9.8763)"/><path stroke="none" d="M54 1524.2837 L59 1512.2837 L54 1515.2837 L49 1512.2837 Z" transform="matrix(0.9876,0,0,0.9876,13.8268,9.8763)"/></g></g></g></svg>