<svg xmlns="http://www.w3.org/2000/svg" xmlns:xlink="http://www.w3.org/1999/xlink" width="1944" height="1325" fill="#000" fill-opacity="1" stroke="#000" stroke-dasharray="none" stroke-dashoffset="0" stroke-linecap="square" stroke-linejoin="miter" stroke-miterlimit="10" stroke-opacity="1" stroke-width="1" color-interpolation="auto" color-rendering="auto" font-family="'Dialog'" font-size="12" font-style="normal" font-weight="normal" image-rendering="auto" shape-rendering="auto" text-rendering="auto"><g><defs id="defs1"><clipPath id="clipPath1" clipPathUnits="userSpaceOnUse"><path d="M0 0 L1944 0 L1944 1325 L0 1325 L0 0 Z"/></clipPath></defs><g id="y.node.0"><g fill="#F8ECC9" stroke="#F8ECC9" transform="matrix(0.9851,0,0,0.9851,13.7918,9.8513)"><rect width="90" height="75.938" x="0" y="1248.438" stroke="none"/></g><g id="bla"><g fill="#404040" stroke="#404040" transform="matrix(0.9851,0,0,0.9851,13.7918,9.8513)"><rect width="90" height="4" x="0" y="1248.438" stroke="none"/></g></g><g fill="#fff" stroke="#fff" transform="matrix(0.9851,0,0,0.9851,13.7918,9.8513)"><rect width="1" height="75.938" x="0" y="1248.438" stroke="none"/></g><g fill="#fff" stroke="#fff" transform="matrix(0.9851,0,0,0.9851,13.7918,9.8513)"><rect width="88" height="1" x="1" y="1248.438" stroke="none"/><rect width="89" height="1" x="1" y="1323.375" fill="#ADA58C" stroke="none"/><rect width="1" height="74.938" x="89" y="1248.438" fill="#ADA58C" stroke="none"/></g></g><g id="y.node.1"><g fill="#fff" stroke="#fff" transform="matrix(0.9851,0,0,0.9851,13.7918,9.8513)"><rect width="60" height="41" x="15" y="1267" stroke="none"/><rect width="60" height="41" x="15" y="1267" fill="none" stroke="#000"/></g><g id="bla"><g font-family="sans-serif"><text x="28" y="1285.576" stroke="none" transform="matrix(0.9851,0,0,0.9851,13.7918,9.8513)" xml:space="preserve">FPF0</text><text x="22" y="1299.545" stroke="none" transform="matrix(0.9851,0,0,0.9851,13.7918,9.8513)" xml:space="preserve">(fpf0.f)</text></g></g></g><g id="y.node.2"><g fill="#F8ECC9" stroke="#F8ECC9" transform="matrix(0.9851,0,0,0.9851,13.7918,9.8513)"><rect width="1943.75" height="1203.438" x="0" y="0" stroke="none"/></g><g id="bla"><g fill="#404040" stroke="#404040" transform="matrix(0.9851,0,0,0.9851,13.7918,9.8513)"><rect width="1943.75" height="4" x="0" y="0" stroke="none"/></g></g><g fill="#fff" stroke="#fff" transform="matrix(0.9851,0,0,0.9851,13.7918,9.8513)"><rect width="1" height="1203.438" x="0" y="0" stroke="none"/><rect width="1941.75" height="1" x="1" y="0" stroke="none"/><rect width="1942.75" height="1" x="1" y="1202.438" fill="#ADA58C" stroke="none"/><rect width="1" height="1202.438" x="1942.75" y="0" fill="#ADA58C" stroke="none"/></g></g><g id="y.node.13"><g fill="#F8ECC9" stroke="#F8ECC9" transform="matrix(0.9851,0,0,0.9851,13.7918,9.8513)"><rect width="106" height="75.938" x="1558.75" y="158.906" stroke="none"/></g><g id="bla"><g fill="#404040" stroke="#404040" transform="matrix(0.9851,0,0,0.9851,13.7918,9.8513)"><rect width="106" height="4" x="1558.75" y="158.906" stroke="none"/></g></g><g fill="#fff" stroke="#fff" transform="matrix(0.9851,0,0,0.9851,13.7918,9.8513)"><rect width="1" height="75.938" x="1558.75" y="158.906" stroke="none"/><rect width="104" height="1" x="1559.75" y="158.906" stroke="none"/><rect width="105" height="1" x="1559.75" y="233.844" fill="#ADA58C" stroke="none"/><rect width="1" height="74.938" x="1663.75" y="158.906" fill="#ADA58C" stroke="none"/></g></g><g id="y.node.59"><g fill="#fff" stroke="#fff" transform="matrix(0.9851,0,0,0.9851,13.7918,9.8513)"><rect width="76" height="41" x="1573" y="177" stroke="none"/><rect width="76" height="41" x="1573" y="177" fill="none" stroke="#000"/></g><g id="bla"><g font-family="sans-serif"><text x="1585.25" y="196.045" stroke="none" transform="matrix(0.9851,0,0,0.9851,13.7918,9.8513)" xml:space="preserve">POTSLW</text><text x="1580.75" y="210.014" stroke="none" transform="matrix(0.9851,0,0,0.9851,13.7918,9.8513)" xml:space="preserve">(potslw.f)</text></g></g></g><g id="y.node.7"><g fill="#F8ECC9" stroke="#F8ECC9" transform="matrix(0.9851,0,0,0.9851,13.7918,9.8513)"><rect width="109" height="75.938" x="498.5" y="158.906" stroke="none"/></g><g id="bla"><g fill="#404040" stroke="#404040" transform="matrix(0.9851,0,0,0.9851,13.7918,9.8513)"><rect width="109" height="4" x="498.5" y="158.906" stroke="none"/></g></g><g fill="#fff" stroke="#fff" transform="matrix(0.9851,0,0,0.9851,13.7918,9.8513)"><rect width="1" height="75.938" x="498.5" y="158.906" stroke="none"/><rect width="107" height="1" x="499.5" y="158.906" stroke="none"/><rect width="108" height="1" x="499.5" y="233.844" fill="#ADA58C" stroke="none"/><rect width="1" height="74.938" x="606.5" y="158.906" fill="#ADA58C" stroke="none"/></g></g><g id="y.node.58"><g fill="#fff" stroke="#fff" transform="matrix(0.9851,0,0,0.9851,13.7918,9.8513)"><rect width="79" height="41" x="513" y="177" stroke="none"/><rect width="79" height="41" x="513" y="177" fill="none" stroke="#000"/></g><g id="bla"><g font-family="sans-serif"><text x="528" y="196.045" stroke="none" transform="matrix(0.9851,0,0,0.9851,13.7918,9.8513)" xml:space="preserve">INMUAT</text><text x="520.5" y="210.014" stroke="none" transform="matrix(0.9851,0,0,0.9851,13.7918,9.8513)" xml:space="preserve">(inmuat.f)</text></g></g></g><g id="y.node.14"><g fill="#F8ECC9" stroke="#F8ECC9" transform="matrix(0.9851,0,0,0.9851,13.7918,9.8513)"><rect width="132" height="191.875" x="1685.75" y="100.938" stroke="none"/></g><g id="bla"><g fill="#404040" stroke="#404040" transform="matrix(0.9851,0,0,0.9851,13.7918,9.8513)"><rect width="132" height="4" x="1685.75" y="100.938" stroke="none"/></g></g><g fill="#fff" stroke="#fff" transform="matrix(0.9851,0,0,0.9851,13.7918,9.8513)"><rect width="1" height="191.875" x="1685.75" y="100.938" stroke="none"/><rect width="130" height="1" x="1686.75" y="100.938" stroke="none"/><rect width="131" height="1" x="1686.75" y="291.813" fill="#ADA58C" stroke="none"/><rect width="1" height="190.875" x="1816.75" y="100.938" fill="#ADA58C" stroke="none"/></g></g><g id="y.node.55"><g fill="#F8ECC9" stroke="#F8ECC9" transform="matrix(0.9851,0,0,0.9851,13.7918,9.8513)"><rect width="102" height="75.938" x="1700.75" y="201.875" stroke="none"/></g><g id="bla"><g fill="#404040" stroke="#404040" transform="matrix(0.9851,0,0,0.9851,13.7918,9.8513)"><rect width="102" height="4" x="1700.75" y="201.875" stroke="none"/></g></g><g fill="#fff" stroke="#fff" transform="matrix(0.9851,0,0,0.9851,13.7918,9.8513)"><rect width="1" height="75.938" x="1700.75" y="201.875" stroke="none"/><rect width="100" height="1" x="1701.75" y="201.875" stroke="none"/><rect width="101" height="1" x="1701.75" y="276.813" fill="#ADA58C" stroke="none"/><rect width="1" height="74.938" x="1801.75" y="201.875" fill="#ADA58C" stroke="none"/></g></g><g id="y.node.57"><g fill="#fff" stroke="#fff" transform="matrix(0.9851,0,0,0.9851,13.7918,9.8513)"><rect width="72" height="41" x="1715" y="220" stroke="none"/><rect width="72" height="41" x="1715" y="220" fill="none" stroke="#000"/></g><g id="bla"><g font-family="sans-serif"><text x="1730.25" y="239.014" stroke="none" transform="matrix(0.9851,0,0,0.9851,13.7918,9.8513)" xml:space="preserve">ELIMIN</text><text x="1722.75" y="252.982" stroke="none" transform="matrix(0.9851,0,0,0.9851,13.7918,9.8513)" xml:space="preserve">(s02at.f)</text></g></g></g><g id="y.node.56"><g fill="#fff" stroke="#fff" transform="matrix(0.9851,0,0,0.9851,13.7918,9.8513)"><rect width="72" height="41" x="1715" y="119" stroke="none"/><rect width="72" height="41" x="1715" y="119" fill="none" stroke="#000"/></g><g id="bla"><g font-family="sans-serif"><text x="1730.25" y="138.076" stroke="none" transform="matrix(0.9851,0,0,0.9851,13.7918,9.8513)" xml:space="preserve">S02AT</text><text x="1722.75" y="152.045" stroke="none" transform="matrix(0.9851,0,0,0.9851,13.7918,9.8513)" xml:space="preserve">(s02at.f)</text></g></g></g><g id="y.node.9"><g fill="#F8ECC9" stroke="#F8ECC9" transform="matrix(0.9851,0,0,0.9851,13.7918,9.8513)"><rect width="112" height="115.938" x="151" y="546.719" stroke="none"/></g><g id="bla"><g fill="#404040" stroke="#404040" transform="matrix(0.9851,0,0,0.9851,13.7918,9.8513)"><rect width="112" height="4" x="151" y="546.719" stroke="none"/></g></g><g fill="#fff" stroke="#fff" transform="matrix(0.9851,0,0,0.9851,13.7918,9.8513)"><rect width="1" height="115.938" x="151" y="546.719" stroke="none"/><rect width="110" height="1" x="152" y="546.719" stroke="none"/><rect width="111" height="1" x="152" y="661.656" fill="#ADA58C" stroke="none"/><rect width="1" height="114.938" x="262" y="546.719" fill="#ADA58C" stroke="none"/></g></g><g id="y.node.54"><g fill="#fff" stroke="#fff" transform="matrix(0.9851,0,0,0.9851,13.7918,9.8513)"><rect width="82" height="41" x="166" y="605" stroke="none"/><rect width="82" height="41" x="166" y="605" fill="none" stroke="#000"/></g><g id="bla"><g font-family="sans-serif"><text x="180" y="623.857" stroke="none" transform="matrix(0.9851,0,0,0.9851,13.7918,9.8513)" xml:space="preserve">MESSER</text><text x="173" y="637.826" stroke="none" transform="matrix(0.9851,0,0,0.9851,13.7918,9.8513)" xml:space="preserve">(messer.f)</text></g></g></g><g id="y.node.10"><g fill="#F8ECC9" stroke="#F8ECC9" transform="matrix(0.9851,0,0,0.9851,13.7918,9.8513)"><rect width="113" height="75.938" x="1124.588" y="158.906" stroke="none"/></g><g id="bla"><g fill="#404040" stroke="#404040" transform="matrix(0.9851,0,0,0.9851,13.7918,9.8513)"><rect width="113" height="4" x="1124.588" y="158.906" stroke="none"/></g></g><g fill="#fff" stroke="#fff" transform="matrix(0.9851,0,0,0.9851,13.7918,9.8513)"><rect width="1" height="75.938" x="1124.588" y="158.906" stroke="none"/><rect width="111" height="1" x="1125.588" y="158.906" stroke="none"/><rect width="112" height="1" x="1125.588" y="233.844" fill="#ADA58C" stroke="none"/><rect width="1" height="74.938" x="1236.588" y="158.906" fill="#ADA58C" stroke="none"/></g></g><g id="y.node.53"><g fill="#fff" stroke="#fff" transform="matrix(0.9851,0,0,0.9851,13.7918,9.8513)"><rect width="83" height="41" x="1139" y="177" stroke="none"/><rect width="83" height="41" x="1139" y="177" fill="none" stroke="#000"/></g><g id="bla"><g font-family="sans-serif"><text x="1153.588" y="196.045" stroke="none" transform="matrix(0.9851,0,0,0.9851,13.7918,9.8513)" xml:space="preserve">MUATCO</text><text x="1146.588" y="210.014" stroke="none" transform="matrix(0.9851,0,0,0.9851,13.7918,9.8513)" xml:space="preserve">(muatco.f)</text></g></g></g><g id="y.node.11"><g fill="#F8ECC9" stroke="#F8ECC9" transform="matrix(0.9851,0,0,0.9851,13.7918,9.8513)"><rect width="105" height="75.938" x="1495.75" y="566.719" stroke="none"/></g><g id="bla"><g fill="#404040" stroke="#404040" transform="matrix(0.9851,0,0,0.9851,13.7918,9.8513)"><rect width="105" height="4" x="1495.75" y="566.719" stroke="none"/></g></g><g fill="#fff" stroke="#fff" transform="matrix(0.9851,0,0,0.9851,13.7918,9.8513)"><rect width="1" height="75.938" x="1495.75" y="566.719" stroke="none"/><rect width="103" height="1" x="1496.75" y="566.719" stroke="none"/><rect width="104" height="1" x="1496.75" y="641.656" fill="#ADA58C" stroke="none"/><rect width="1" height="74.938" x="1599.75" y="566.719" fill="#ADA58C" stroke="none"/></g></g><g id="y.node.52"><g fill="#fff" stroke="#fff" transform="matrix(0.9851,0,0,0.9851,13.7918,9.8513)"><rect width="75" height="41" x="1510" y="585" stroke="none"/><rect width="75" height="41" x="1510" y="585" fill="none" stroke="#000"/></g><g id="bla"><g font-family="sans-serif"><text x="1522.25" y="603.857" stroke="none" transform="matrix(0.9851,0,0,0.9851,13.7918,9.8513)" xml:space="preserve">ORTDAT</text><text x="1517.75" y="617.826" stroke="none" transform="matrix(0.9851,0,0,0.9851,13.7918,9.8513)" xml:space="preserve">(ortdat.f)</text></g></g></g><g id="y.node.18"><g fill="#F8ECC9" stroke="#F8ECC9" transform="matrix(0.9851,0,0,0.9851,13.7918,9.8513)"><rect width="279.5" height="191.875" x="144" y="100.938" stroke="none"/></g><g id="bla"><g fill="#404040" stroke="#404040" transform="matrix(0.9851,0,0,0.9851,13.7918,9.8513)"><rect width="279.5" height="4" x="144" y="100.938" stroke="none"/></g></g><g fill="#fff" stroke="#fff" transform="matrix(0.9851,0,0,0.9851,13.7918,9.8513)"><rect width="1" height="191.875" x="144" y="100.938" stroke="none"/><rect width="277.5" height="1" x="145" y="100.938" stroke="none"/><rect width="278.5" height="1" x="145" y="291.813" fill="#ADA58C" stroke="none"/><rect width="1" height="190.875" x="422.5" y="100.938" fill="#ADA58C" stroke="none"/></g></g><g id="y.node.48"><g fill="#F8ECC9" stroke="#F8ECC9" transform="matrix(0.9851,0,0,0.9851,13.7918,9.8513)"><rect width="107" height="75.938" x="291" y="201.875" stroke="none"/></g><g id="bla"><g fill="#404040" stroke="#404040" transform="matrix(0.9851,0,0,0.9851,13.7918,9.8513)"><rect width="107" height="4" x="291" y="201.875" stroke="none"/></g></g><g fill="#fff" stroke="#fff" transform="matrix(0.9851,0,0,0.9851,13.7918,9.8513)"><rect width="1" height="75.938" x="291" y="201.875" stroke="none"/><rect width="105" height="1" x="292" y="201.875" stroke="none"/><rect width="106" height="1" x="292" y="276.813" fill="#ADA58C" stroke="none"/><rect width="1" height="74.938" x="397" y="201.875" fill="#ADA58C" stroke="none"/></g></g><g id="y.node.51"><g fill="#fff" stroke="#fff" transform="matrix(0.9851,0,0,0.9851,13.7918,9.8513)"><rect width="77" height="41" x="306" y="220" stroke="none"/><rect width="77" height="41" x="306" y="220" fill="none" stroke="#000"/></g><g id="bla"><g font-family="sans-serif"><text x="318.5" y="239.014" stroke="none" transform="matrix(0.9851,0,0,0.9851,13.7918,9.8513)" xml:space="preserve">DENTFA</text><text x="313" y="252.982" stroke="none" transform="matrix(0.9851,0,0,0.9851,13.7918,9.8513)" xml:space="preserve">(dentfa.f)</text></g></g></g><g id="y.node.47"><g fill="#F8ECC9" stroke="#F8ECC9" transform="matrix(0.9851,0,0,0.9851,13.7918,9.8513)"><rect width="111" height="75.938" x="159" y="201.875" stroke="none"/></g><g id="bla"><g fill="#404040" stroke="#404040" transform="matrix(0.9851,0,0,0.9851,13.7918,9.8513)"><rect width="111" height="4" x="159" y="201.875" stroke="none"/></g></g><g fill="#fff" stroke="#fff" transform="matrix(0.9851,0,0,0.9851,13.7918,9.8513)"><rect width="1" height="75.938" x="159" y="201.875" stroke="none"/><rect width="109" height="1" x="160" y="201.875" stroke="none"/><rect width="110" height="1" x="160" y="276.813" fill="#ADA58C" stroke="none"/><rect width="1" height="74.938" x="269" y="201.875" fill="#ADA58C" stroke="none"/></g></g><g id="y.node.50"><g fill="#fff" stroke="#fff" transform="matrix(0.9851,0,0,0.9851,13.7918,9.8513)"><rect width="81" height="41" x="174" y="220" stroke="none"/><rect width="81" height="41" x="174" y="220" fill="none" stroke="#000"/></g><g id="bla"><g font-family="sans-serif"><text x="187" y="239.014" stroke="none" transform="matrix(0.9851,0,0,0.9851,13.7918,9.8513)" xml:space="preserve">NUCDEV</text><text x="181" y="252.982" stroke="none" transform="matrix(0.9851,0,0,0.9851,13.7918,9.8513)" xml:space="preserve">(nucdev.f)</text></g></g></g><g id="y.node.49"><g fill="#fff" stroke="#fff" transform="matrix(0.9851,0,0,0.9851,13.7918,9.8513)"><rect width="69" height="41" x="278" y="119" stroke="none"/><rect width="69" height="41" x="278" y="119" fill="none" stroke="#000"/></g><g id="bla"><g font-family="sans-serif"><text x="288" y="138.076" stroke="none" transform="matrix(0.9851,0,0,0.9851,13.7918,9.8513)" xml:space="preserve">WFIRDF</text><text x="285" y="152.045" stroke="none" transform="matrix(0.9851,0,0,0.9851,13.7918,9.8513)" xml:space="preserve">(wfirdf.f)</text></g></g></g><g id="y.node.8"><g fill="#F8ECC9" stroke="#F8ECC9" transform="matrix(0.9851,0,0,0.9851,13.7918,9.8513)"><rect width="106" height="115.938" x="881.431" y="138.906" stroke="none"/></g><g id="bla"><g fill="#404040" stroke="#404040" transform="matrix(0.9851,0,0,0.9851,13.7918,9.8513)"><rect width="106" height="4" x="881.431" y="138.906" stroke="none"/></g></g><g fill="#fff" stroke="#fff" transform="matrix(0.9851,0,0,0.9851,13.7918,9.8513)"><rect width="1" height="115.938" x="881.431" y="138.906" stroke="none"/><rect width="104" height="1" x="882.431" y="138.906" stroke="none"/><rect width="105" height="1" x="882.431" y="253.844" fill="#ADA58C" stroke="none"/><rect width="1" height="114.938" x="986.431" y="138.906" fill="#ADA58C" stroke="none"/></g></g><g id="y.node.46"><g fill="#fff" stroke="#fff" transform="matrix(0.9851,0,0,0.9851,13.7918,9.8513)"><rect width="76" height="41" x="896" y="157" stroke="none"/><rect width="76" height="41" x="896" y="157" fill="none" stroke="#000"/></g><g id="bla"><g font-family="sans-serif"><text x="908.931" y="176.045" stroke="none" transform="matrix(0.9851,0,0,0.9851,13.7918,9.8513)" xml:space="preserve">LAGDAT</text><text x="903.431" y="190.014" stroke="none" transform="matrix(0.9851,0,0,0.9851,13.7918,9.8513)" xml:space="preserve">(lagdat.f)</text></g></g></g><g id="y.node.5"><g fill="#F8ECC9" stroke="#F8ECC9" transform="matrix(0.9851,0,0,0.9851,13.7918,9.8513)"><rect width="139" height="271.875" x="1401.721" y="916.563" stroke="none"/></g><g id="bla"><g fill="#404040" stroke="#404040" transform="matrix(0.9851,0,0,0.9851,13.7918,9.8513)"><rect width="139" height="4" x="1401.721" y="916.563" stroke="none"/></g></g><g fill="#fff" stroke="#fff" transform="matrix(0.9851,0,0,0.9851,13.7918,9.8513)"><rect width="1" height="271.875" x="1401.721" y="916.563" stroke="none"/><rect width="137" height="1" x="1402.721" y="916.563" stroke="none"/><rect width="138" height="1" x="1402.721" y="1187.438" fill="#ADA58C" stroke="none"/><rect width="1" height="270.875" x="1539.721" y="916.563" fill="#ADA58C" stroke="none"/></g></g><g id="y.node.43"><g fill="#F8ECC9" stroke="#F8ECC9" transform="matrix(0.9851,0,0,0.9851,13.7918,9.8513)"><rect width="109" height="115.938" x="1416.721" y="1057.5" stroke="none"/></g><g id="bla"><g fill="#404040" stroke="#404040" transform="matrix(0.9851,0,0,0.9851,13.7918,9.8513)"><rect width="109" height="4" x="1416.721" y="1057.5" stroke="none"/></g></g><g fill="#fff" stroke="#fff" transform="matrix(0.9851,0,0,0.9851,13.7918,9.8513)"><rect width="1" height="115.938" x="1416.721" y="1057.5" stroke="none"/><rect width="107" height="1" x="1417.721" y="1057.5" stroke="none"/><rect width="108" height="1" x="1417.721" y="1172.438" fill="#ADA58C" stroke="none"/><rect width="1" height="114.938" x="1524.721" y="1057.5" fill="#ADA58C" stroke="none"/></g></g><g id="y.node.45"><g fill="#fff" stroke="#fff" transform="matrix(0.9851,0,0,0.9851,13.7918,9.8513)"><rect width="79" height="41" x="1431" y="1116" stroke="none"/><rect width="79" height="41" x="1431" y="1116" fill="none" stroke="#000"/></g><g id="bla"><g font-family="sans-serif"><text x="1444.721" y="1134.639" stroke="none" transform="matrix(0.9851,0,0,0.9851,13.7918,9.8513)" xml:space="preserve">APRDEV</text><text x="1438.721" y="1148.607" stroke="none" transform="matrix(0.9851,0,0,0.9851,13.7918,9.8513)" xml:space="preserve">(aprdev.f)</text></g></g></g><g id="y.node.44"><g fill="#fff" stroke="#fff" transform="matrix(0.9851,0,0,0.9851,13.7918,9.8513)"><rect width="76" height="41" x="1433" y="975" stroke="none"/><rect width="76" height="41" x="1433" y="975" fill="none" stroke="#000"/></g><g id="bla"><g font-family="sans-serif"><text x="1444.221" y="993.701" stroke="none" transform="matrix(0.9851,0,0,0.9851,13.7918,9.8513)" xml:space="preserve">DSORDF</text><text x="1440.221" y="1007.67" stroke="none" transform="matrix(0.9851,0,0,0.9851,13.7918,9.8513)" xml:space="preserve">(dsordf.f)</text></g></g></g><g id="y.node.4"><g fill="#F8ECC9" stroke="#F8ECC9" transform="matrix(0.9851,0,0,0.9851,13.7918,9.8513)"><rect width="108" height="75.938" x="15" y="158.906" stroke="none"/></g><g id="bla"><g fill="#404040" stroke="#404040" transform="matrix(0.9851,0,0,0.9851,13.7918,9.8513)"><rect width="108" height="4" x="15" y="158.906" stroke="none"/></g></g><g fill="#fff" stroke="#fff" transform="matrix(0.9851,0,0,0.9851,13.7918,9.8513)"><rect width="1" height="75.938" x="15" y="158.906" stroke="none"/><rect width="106" height="1" x="16" y="158.906" stroke="none"/><rect width="107" height="1" x="16" y="233.844" fill="#ADA58C" stroke="none"/><rect width="1" height="74.938" x="122" y="158.906" fill="#ADA58C" stroke="none"/></g></g><g id="y.node.42"><g fill="#fff" stroke="#fff" transform="matrix(0.9851,0,0,0.9851,13.7918,9.8513)"><rect width="78" height="41" x="30" y="177" stroke="none"/><rect width="78" height="41" x="30" y="177" fill="none" stroke="#000"/></g><g id="bla"><g font-family="sans-serif"><text x="42" y="196.045" stroke="none" transform="matrix(0.9851,0,0,0.9851,13.7918,9.8513)" xml:space="preserve">COFCON</text><text x="37" y="210.014" stroke="none" transform="matrix(0.9851,0,0,0.9851,13.7918,9.8513)" xml:space="preserve">(cofcon.f)</text></g></g></g><g id="y.node.12"><g fill="#F8ECC9" stroke="#F8ECC9" transform="matrix(0.9851,0,0,0.9851,13.7918,9.8513)"><rect width="104" height="115.938" x="1257.588" y="138.906" stroke="none"/></g><g id="bla"><g fill="#404040" stroke="#404040" transform="matrix(0.9851,0,0,0.9851,13.7918,9.8513)"><rect width="104" height="4" x="1257.588" y="138.906" stroke="none"/></g></g><g fill="#fff" stroke="#fff" transform="matrix(0.9851,0,0,0.9851,13.7918,9.8513)"><rect width="1" height="115.938" x="1257.588" y="138.906" stroke="none"/><rect width="102" height="1" x="1258.588" y="138.906" stroke="none"/><rect width="103" height="1" x="1258.588" y="253.844" fill="#ADA58C" stroke="none"/><rect width="1" height="114.938" x="1360.588" y="138.906" fill="#ADA58C" stroke="none"/></g></g><g id="y.node.41"><g fill="#fff" stroke="#fff" transform="matrix(0.9851,0,0,0.9851,13.7918,9.8513)"><rect width="74" height="41" x="1272" y="157" stroke="none"/><rect width="74" height="41" x="1272" y="157" fill="none" stroke="#000"/></g><g id="bla"><g font-family="sans-serif"><text x="1283.588" y="176.045" stroke="none" transform="matrix(0.9851,0,0,0.9851,13.7918,9.8513)" xml:space="preserve">POTRDF</text><text x="1279.588" y="190.014" stroke="none" transform="matrix(0.9851,0,0,0.9851,13.7918,9.8513)" xml:space="preserve">(potrdf.f)</text></g></g></g><g id="y.node.6"><g fill="#F8ECC9" stroke="#F8ECC9" transform="matrix(0.9851,0,0,0.9851,13.7918,9.8513)"><rect width="762.5" height="543.75" x="713.25" y="332.813" stroke="none"/></g><g id="bla"><g fill="#404040" stroke="#404040" transform="matrix(0.9851,0,0,0.9851,13.7918,9.8513)"><rect width="762.5" height="4" x="713.25" y="332.813" stroke="none"/></g></g><g fill="#fff" stroke="#fff" transform="matrix(0.9851,0,0,0.9851,13.7918,9.8513)"><rect width="1" height="543.75" x="713.25" y="332.813" stroke="none"/><rect width="760.5" height="1" x="714.25" y="332.813" stroke="none"/><rect width="761.5" height="1" x="714.25" y="875.563" fill="#ADA58C" stroke="none"/><rect width="1" height="542.75" x="1474.75" y="332.813" fill="#ADA58C" stroke="none"/></g></g><g id="y.node.30"><g fill="#F8ECC9" stroke="#F8ECC9" transform="matrix(0.9851,0,0,0.9851,13.7918,9.8513)"><rect width="110" height="115.938" x="858.25" y="569.688" stroke="none"/></g><g id="bla"><g fill="#404040" stroke="#404040" transform="matrix(0.9851,0,0,0.9851,13.7918,9.8513)"><rect width="110" height="4" x="858.25" y="569.688" stroke="none"/></g></g><g fill="#fff" stroke="#fff" transform="matrix(0.9851,0,0,0.9851,13.7918,9.8513)"><rect width="1" height="115.938" x="858.25" y="569.688" stroke="none"/><rect width="108" height="1" x="859.25" y="569.688" stroke="none"/><rect width="109" height="1" x="859.25" y="684.625" fill="#ADA58C" stroke="none"/><rect width="1" height="114.938" x="967.25" y="569.688" fill="#ADA58C" stroke="none"/></g></g><g id="y.node.40"><g fill="#fff" stroke="#fff" transform="matrix(0.9851,0,0,0.9851,13.7918,9.8513)"><rect width="80" height="41" x="873" y="628" stroke="none"/><rect width="80" height="41" x="873" y="628" fill="none" stroke="#000"/></g><g id="bla"><g font-family="sans-serif"><text x="887.75" y="646.826" stroke="none" transform="matrix(0.9851,0,0,0.9851,13.7918,9.8513)" xml:space="preserve">AKEATO</text><text x="880.25" y="660.795" stroke="none" transform="matrix(0.9851,0,0,0.9851,13.7918,9.8513)" xml:space="preserve">(akeato.f)</text></g></g></g><g id="y.node.29"><g fill="#F8ECC9" stroke="#F8ECC9" transform="matrix(0.9851,0,0,0.9851,13.7918,9.8513)"><rect width="110" height="115.938" x="728.25" y="569.688" stroke="none"/></g><g id="bla"><g fill="#404040" stroke="#404040" transform="matrix(0.9851,0,0,0.9851,13.7918,9.8513)"><rect width="110" height="4" x="728.25" y="569.688" stroke="none"/></g></g><g fill="#fff" stroke="#fff" transform="matrix(0.9851,0,0,0.9851,13.7918,9.8513)"><rect width="1" height="115.938" x="728.25" y="569.688" stroke="none"/><rect width="108" height="1" x="729.25" y="569.688" stroke="none"/><rect width="109" height="1" x="729.25" y="684.625" fill="#ADA58C" stroke="none"/><rect width="1" height="114.938" x="837.25" y="569.688" fill="#ADA58C" stroke="none"/></g></g><g id="y.node.39"><g fill="#fff" stroke="#fff" transform="matrix(0.9851,0,0,0.9851,13.7918,9.8513)"><rect width="80" height="41" x="743" y="628" stroke="none"/><rect width="80" height="41" x="743" y="628" fill="none" stroke="#000"/></g><g id="bla"><g font-family="sans-serif"><text x="757.75" y="646.826" stroke="none" transform="matrix(0.9851,0,0,0.9851,13.7918,9.8513)" xml:space="preserve">BKEATO</text><text x="750.25" y="660.795" stroke="none" transform="matrix(0.9851,0,0,0.9851,13.7918,9.8513)" xml:space="preserve">(akeato.f)</text></g></g></g><g id="y.node.28"><g fill="#F8ECC9" stroke="#F8ECC9" transform="matrix(0.9851,0,0,0.9851,13.7918,9.8513)"><rect width="109" height="75.938" x="988.25" y="589.688" stroke="none"/></g><g id="bla"><g fill="#404040" stroke="#404040" transform="matrix(0.9851,0,0,0.9851,13.7918,9.8513)"><rect width="109" height="4" x="988.25" y="589.688" stroke="none"/></g></g><g fill="#fff" stroke="#fff" transform="matrix(0.9851,0,0,0.9851,13.7918,9.8513)"><rect width="1" height="75.938" x="988.25" y="589.688" stroke="none"/><rect width="107" height="1" x="989.25" y="589.688" stroke="none"/><rect width="108" height="1" x="989.25" y="664.625" fill="#ADA58C" stroke="none"/><rect width="1" height="74.938" x="1096.25" y="589.688" fill="#ADA58C" stroke="none"/></g></g><g id="y.node.38"><g fill="#fff" stroke="#fff" transform="matrix(0.9851,0,0,0.9851,13.7918,9.8513)"><rect width="79" height="41" x="1003" y="608" stroke="none"/><rect width="79" height="41" x="1003" y="608" fill="none" stroke="#000"/></g><g id="bla"><g font-family="sans-serif"><text x="1016.25" y="626.826" stroke="none" transform="matrix(0.9851,0,0,0.9851,13.7918,9.8513)" xml:space="preserve">BKMRDF</text><text x="1010.25" y="640.795" stroke="none" transform="matrix(0.9851,0,0,0.9851,13.7918,9.8513)" xml:space="preserve">(bkmrdf.f)</text></g></g></g><g id="y.node.27"><g fill="#F8ECC9" stroke="#F8ECC9" transform="matrix(0.9851,0,0,0.9851,13.7918,9.8513)"><rect width="111" height="75.938" x="1117.25" y="589.688" stroke="none"/></g><g id="bla"><g fill="#404040" stroke="#404040" transform="matrix(0.9851,0,0,0.9851,13.7918,9.8513)"><rect width="111" height="4" x="1117.25" y="589.688" stroke="none"/></g></g><g fill="#fff" stroke="#fff" transform="matrix(0.9851,0,0,0.9851,13.7918,9.8513)"><rect width="1" height="75.938" x="1117.25" y="589.688" stroke="none"/><rect width="109" height="1" x="1118.25" y="589.688" stroke="none"/><rect width="110" height="1" x="1118.25" y="664.625" fill="#ADA58C" stroke="none"/><rect width="1" height="74.938" x="1227.25" y="589.688" fill="#ADA58C" stroke="none"/></g></g><g id="y.node.37"><g fill="#fff" stroke="#fff" transform="matrix(0.9851,0,0,0.9851,13.7918,9.8513)"><rect width="81" height="41" x="1132" y="608" stroke="none"/><rect width="81" height="41" x="1132" y="608" fill="none" stroke="#000"/></g><g id="bla"><g font-family="sans-serif"><text x="1145.25" y="626.826" stroke="none" transform="matrix(0.9851,0,0,0.9851,13.7918,9.8513)" xml:space="preserve">FDMOCC</text><text x="1139.25" y="640.795" stroke="none" transform="matrix(0.9851,0,0,0.9851,13.7918,9.8513)" xml:space="preserve">(fdmocc.f)</text></g></g></g><g id="y.node.26"><g fill="#F8ECC9" stroke="#F8ECC9" transform="matrix(0.9851,0,0,0.9851,13.7918,9.8513)"><rect width="212.5" height="387.813" x="1248.25" y="433.75" stroke="none"/></g><g id="bla"><g fill="#404040" stroke="#404040" transform="matrix(0.9851,0,0,0.9851,13.7918,9.8513)"><rect width="212.5" height="4" x="1248.25" y="433.75" stroke="none"/></g></g><g fill="#fff" stroke="#fff" transform="matrix(0.9851,0,0,0.9851,13.7918,9.8513)"><rect width="1" height="387.813" x="1248.25" y="433.75" stroke="none"/><rect width="210.5" height="1" x="1249.25" y="433.75" stroke="none"/><rect width="211.5" height="1" x="1249.25" y="820.563" fill="#ADA58C" stroke="none"/><rect width="1" height="386.813" x="1459.75" y="433.75" fill="#ADA58C" stroke="none"/></g></g><g id="y.node.32"><g fill="#F8ECC9" stroke="#F8ECC9" transform="matrix(0.9851,0,0,0.9851,13.7918,9.8513)"><rect width="149.5" height="231.875" x="1263.25" y="574.688" stroke="none"/></g><g id="bla"><g fill="#404040" stroke="#404040" transform="matrix(0.9851,0,0,0.9851,13.7918,9.8513)"><rect width="149.5" height="4" x="1263.25" y="574.688" stroke="none"/></g></g><g fill="#fff" stroke="#fff" transform="matrix(0.9851,0,0,0.9851,13.7918,9.8513)"><rect width="1" height="231.875" x="1263.25" y="574.688" stroke="none"/><rect width="147.5" height="1" x="1264.25" y="574.688" stroke="none"/><rect width="148.5" height="1" x="1264.25" y="805.563" fill="#ADA58C" stroke="none"/><rect width="1" height="230.875" x="1411.75" y="574.688" fill="#ADA58C" stroke="none"/></g></g><g id="y.node.33"><g fill="#F8ECC9" stroke="#F8ECC9" transform="matrix(0.9851,0,0,0.9851,13.7918,9.8513)"><rect width="105" height="75.938" x="1278.25" y="715.625" stroke="none"/></g><g id="bla"><g fill="#404040" stroke="#404040" transform="matrix(0.9851,0,0,0.9851,13.7918,9.8513)"><rect width="105" height="4" x="1278.25" y="715.625" stroke="none"/></g></g><g fill="#fff" stroke="#fff" transform="matrix(0.9851,0,0,0.9851,13.7918,9.8513)"><rect width="1" height="75.938" x="1278.25" y="715.625" stroke="none"/><rect width="103" height="1" x="1279.25" y="715.625" stroke="none"/><rect width="104" height="1" x="1279.25" y="790.563" fill="#ADA58C" stroke="none"/><rect width="1" height="74.938" x="1382.25" y="715.625" fill="#ADA58C" stroke="none"/></g></g><g id="y.node.34"><g fill="#fff" stroke="#fff" transform="matrix(0.9851,0,0,0.9851,13.7918,9.8513)"><rect width="75" height="41" x="1293" y="734" stroke="none"/><rect width="75" height="41" x="1293" y="734" fill="none" stroke="#000"/></g><g id="bla"><g font-family="sans-serif"><text x="1305.25" y="752.764" stroke="none" transform="matrix(0.9851,0,0,0.9851,13.7918,9.8513)" xml:space="preserve">YZKTEG</text><text x="1300.25" y="766.732" stroke="none" transform="matrix(0.9851,0,0,0.9851,13.7918,9.8513)" xml:space="preserve">(yzkteg.f)</text></g></g></g><g id="y.node.35"><g fill="#fff" stroke="#fff" transform="matrix(0.9851,0,0,0.9851,13.7918,9.8513)"><rect width="71" height="41" x="1326" y="633" stroke="none"/><rect width="71" height="41" x="1326" y="633" fill="none" stroke="#000"/></g><g id="bla"><g font-family="sans-serif"><text x="1336.75" y="651.826" stroke="none" transform="matrix(0.9851,0,0,0.9851,13.7918,9.8513)" xml:space="preserve">YZKRDF</text><text x="1333.75" y="665.795" stroke="none" transform="matrix(0.9851,0,0,0.9851,13.7918,9.8513)" xml:space="preserve">(yzkrdf.f)</text></g></g></g><g id="y.node.36"><g fill="#fff" stroke="#fff" transform="matrix(0.9851,0,0,0.9851,13.7918,9.8513)"><rect width="68" height="41" x="1377" y="492" stroke="none"/><rect width="68" height="41" x="1377" y="492" fill="none" stroke="#000"/></g><g id="bla"><g font-family="sans-serif"><text x="1388.75" y="510.889" stroke="none" transform="matrix(0.9851,0,0,0.9851,13.7918,9.8513)" xml:space="preserve">FDRIRK</text><text x="1384.75" y="524.857" stroke="none" transform="matrix(0.9851,0,0,0.9851,13.7918,9.8513)" xml:space="preserve">(fdrirk.f)</text></g></g></g><g id="y.node.31"><g fill="#fff" stroke="#fff" transform="matrix(0.9851,0,0,0.9851,13.7918,9.8513)"><rect width="73" height="41" x="1015" y="351" stroke="none"/><rect width="73" height="41" x="1015" y="351" fill="none" stroke="#000"/></g><g id="bla"><g font-family="sans-serif"><text x="1027.298" y="369.951" stroke="none" transform="matrix(0.9851,0,0,0.9851,13.7918,9.8513)" xml:space="preserve">ETOTAL</text><text x="1022.298" y="383.92" stroke="none" transform="matrix(0.9851,0,0,0.9851,13.7918,9.8513)" xml:space="preserve">(etotal.f)</text></g></g></g><g id="y.node.17"><g fill="#F8ECC9" stroke="#F8ECC9" transform="matrix(0.9851,0,0,0.9851,13.7918,9.8513)"><rect width="91" height="75.938" x="1837.75" y="158.906" stroke="none"/></g><g id="bla"><g fill="#404040" stroke="#404040" transform="matrix(0.9851,0,0,0.9851,13.7918,9.8513)"><rect width="91" height="4" x="1837.75" y="158.906" stroke="none"/></g></g><g fill="#fff" stroke="#fff" transform="matrix(0.9851,0,0,0.9851,13.7918,9.8513)"><rect width="1" height="75.938" x="1837.75" y="158.906" stroke="none"/><rect width="89" height="1" x="1838.75" y="158.906" stroke="none"/><rect width="90" height="1" x="1838.75" y="233.844" fill="#ADA58C" stroke="none"/><rect width="1" height="74.938" x="1927.75" y="158.906" fill="#ADA58C" stroke="none"/></g></g><g id="y.node.25"><g fill="#fff" stroke="#fff" transform="matrix(0.9851,0,0,0.9851,13.7918,9.8513)"><rect width="61" height="41" x="1852" y="177" stroke="none"/><rect width="61" height="41" x="1852" y="177" fill="none" stroke="#000"/></g><g id="bla"><g font-family="sans-serif"><text x="1865.75" y="196.045" stroke="none" transform="matrix(0.9851,0,0,0.9851,13.7918,9.8513)" xml:space="preserve">VLDA</text><text x="1859.75" y="210.014" stroke="none" transform="matrix(0.9851,0,0,0.9851,13.7918,9.8513)" xml:space="preserve">(vlda.f)</text></g></g></g><g id="y.node.16"><g fill="#F8ECC9" stroke="#F8ECC9" transform="matrix(0.9851,0,0,0.9851,13.7918,9.8513)"><rect width="105" height="75.938" x="588.25" y="566.719" stroke="none"/></g><g id="bla"><g fill="#404040" stroke="#404040" transform="matrix(0.9851,0,0,0.9851,13.7918,9.8513)"><rect width="105" height="4" x="588.25" y="566.719" stroke="none"/></g></g><g fill="#fff" stroke="#fff" transform="matrix(0.9851,0,0,0.9851,13.7918,9.8513)"><rect width="1" height="75.938" x="588.25" y="566.719" stroke="none"/><rect width="103" height="1" x="589.25" y="566.719" stroke="none"/><rect width="104" height="1" x="589.25" y="641.656" fill="#ADA58C" stroke="none"/><rect width="1" height="74.938" x="692.25" y="566.719" fill="#ADA58C" stroke="none"/></g></g><g id="y.node.24"><g fill="#fff" stroke="#fff" transform="matrix(0.9851,0,0,0.9851,13.7918,9.8513)"><rect width="75" height="41" x="603" y="585" stroke="none"/><rect width="75" height="41" x="603" y="585" fill="none" stroke="#000"/></g><g id="bla"><g font-family="sans-serif"><text x="615.75" y="603.857" stroke="none" transform="matrix(0.9851,0,0,0.9851,13.7918,9.8513)" xml:space="preserve">TABRAT</text><text x="610.25" y="617.826" stroke="none" transform="matrix(0.9851,0,0,0.9851,13.7918,9.8513)" xml:space="preserve">(tabrat.f)</text></g></g></g><g id="y.node.15"><g fill="#F8ECC9" stroke="#F8ECC9" transform="matrix(0.9851,0,0,0.9851,13.7918,9.8513)"><rect width="248" height="231.875" x="320.25" y="488.75" stroke="none"/></g><g id="bla"><g fill="#404040" stroke="#404040" transform="matrix(0.9851,0,0,0.9851,13.7918,9.8513)"><rect width="248" height="4" x="320.25" y="488.75" stroke="none"/></g></g><g fill="#fff" stroke="#fff" transform="matrix(0.9851,0,0,0.9851,13.7918,9.8513)"><rect width="1" height="231.875" x="320.25" y="488.75" stroke="none"/><rect width="246" height="1" x="321.25" y="488.75" stroke="none"/><rect width="247" height="1" x="321.25" y="719.625" fill="#ADA58C" stroke="none"/><rect width="1" height="230.875" x="567.25" y="488.75" fill="#ADA58C" stroke="none"/></g></g><g id="y.node.20"><g fill="#F8ECC9" stroke="#F8ECC9" transform="matrix(0.9851,0,0,0.9851,13.7918,9.8513)"><rect width="98" height="75.938" x="455.25" y="629.688" stroke="none"/></g><g id="bla"><g fill="#404040" stroke="#404040" transform="matrix(0.9851,0,0,0.9851,13.7918,9.8513)"><rect width="98" height="4" x="455.25" y="629.688" stroke="none"/></g></g><g fill="#fff" stroke="#fff" transform="matrix(0.9851,0,0,0.9851,13.7918,9.8513)"><rect width="1" height="75.938" x="455.25" y="629.688" stroke="none"/><rect width="96" height="1" x="456.25" y="629.688" stroke="none"/><rect width="97" height="1" x="456.25" y="704.625" fill="#ADA58C" stroke="none"/><rect width="1" height="74.938" x="552.25" y="629.688" fill="#ADA58C" stroke="none"/></g></g><g id="y.node.23"><g fill="#fff" stroke="#fff" transform="matrix(0.9851,0,0,0.9851,13.7918,9.8513)"><rect width="68" height="41" x="470" y="648" stroke="none"/><rect width="68" height="41" x="470" y="648" fill="none" stroke="#000"/></g><g id="bla"><g font-family="sans-serif"><text x="482.75" y="666.826" stroke="none" transform="matrix(0.9851,0,0,0.9851,13.7918,9.8513)" xml:space="preserve">INTDIR</text><text x="477.25" y="680.795" stroke="none" transform="matrix(0.9851,0,0,0.9851,13.7918,9.8513)" xml:space="preserve">(intdir.f)</text></g></g></g><g id="y.node.19"><g fill="#F8ECC9" stroke="#F8ECC9" transform="matrix(0.9851,0,0,0.9851,13.7918,9.8513)"><rect width="100" height="75.938" x="335.25" y="629.688" stroke="none"/></g><g id="bla"><g fill="#404040" stroke="#404040" transform="matrix(0.9851,0,0,0.9851,13.7918,9.8513)"><rect width="100" height="4" x="335.25" y="629.688" stroke="none"/></g></g><g fill="#fff" stroke="#fff" transform="matrix(0.9851,0,0,0.9851,13.7918,9.8513)"><rect width="1" height="75.938" x="335.25" y="629.688" stroke="none"/><rect width="98" height="1" x="336.25" y="629.688" stroke="none"/><rect width="99" height="1" x="336.25" y="704.625" fill="#ADA58C" stroke="none"/><rect width="1" height="74.938" x="434.25" y="629.688" fill="#ADA58C" stroke="none"/></g></g><g id="y.node.22"><g fill="#fff" stroke="#fff" transform="matrix(0.9851,0,0,0.9851,13.7918,9.8513)"><rect width="70" height="41" x="350" y="648" stroke="none"/><rect width="70" height="41" x="350" y="648" fill="none" stroke="#000"/></g><g id="bla"><g font-family="sans-serif"><text x="365.25" y="666.826" stroke="none" transform="matrix(0.9851,0,0,0.9851,13.7918,9.8513)" xml:space="preserve">NORM</text><text x="357.25" y="680.795" stroke="none" transform="matrix(0.9851,0,0,0.9851,13.7918,9.8513)" xml:space="preserve">(soldir.f)</text></g></g></g><g id="y.node.21"><g fill="#fff" stroke="#fff" transform="matrix(0.9851,0,0,0.9851,13.7918,9.8513)"><rect width="70" height="41" x="409" y="547" stroke="none"/><rect width="70" height="41" x="409" y="547" fill="none" stroke="#000"/></g><g id="bla"><g font-family="sans-serif"><text x="421.25" y="565.889" stroke="none" transform="matrix(0.9851,0,0,0.9851,13.7918,9.8513)" xml:space="preserve">SOLDIR</text><text x="416.75" y="579.857" stroke="none" transform="matrix(0.9851,0,0,0.9851,13.7918,9.8513)" xml:space="preserve">(soldir.f)</text></g></g></g><g id="y.node.3"><g fill="#fff" stroke="#fff" transform="matrix(0.9851,0,0,0.9851,13.7918,9.8513)"><rect width="75" height="41" x="1034" y="19" stroke="none"/><rect width="75" height="41" x="1034" y="19" fill="none" stroke="#000"/></g><g id="bla"><g font-family="sans-serif"><text x="1046.074" y="37.139" stroke="none" transform="matrix(0.9851,0,0,0.9851,13.7918,9.8513)" xml:space="preserve">SCFDAT</text><text x="1041.074" y="51.107" stroke="none" transform="matrix(0.9851,0,0,0.9851,13.7918,9.8513)" xml:space="preserve">(scfdat.f)</text></g></g></g><g id="y.edge.0"><g stroke-linecap="butt" stroke-miterlimit="1.45"><path fill="none" d="M1046.5291 60.9399 L312.5 100.9375 L312.5 111.9004" transform="matrix(0.9851,0,0,0.9851,13.7918,9.8513)"/><path stroke="none" d="M312.5 119.9004 L317.5 107.9004 L312.5 110.9004 L307.5 107.9004 Z" transform="matrix(0.9851,0,0,0.9851,13.7918,9.8513)"/></g></g><g id="y.edge.1"><g stroke-linecap="butt" stroke-miterlimit="1.45"><path fill="none" d="M1471.2213 1017.5483 L1471.2213 1108.4517" transform="matrix(0.9851,0,0,0.9851,13.7918,9.8513)"/><path stroke="none" d="M1471.2213 1116.4517 L1476.2213 1104.4517 L1471.2213 1107.4517 L1466.2213 1104.4517 Z" transform="matrix(0.9851,0,0,0.9851,13.7918,9.8513)"/></g></g><g id="y.edge.2"><g stroke-linecap="butt" stroke-miterlimit="1.45"><path fill="none" d="M1394.7317 534.707 L1357.25 574.6875 L1357.25 593.6875 L1346.942 626.0263" transform="matrix(0.9851,0,0,0.9851,13.7918,9.8513)"/><path stroke="none" d="M1344.5125 633.6484 L1352.9207 623.7337 L1347.2457 625.0735 L1343.3929 620.6967 Z" transform="matrix(0.9851,0,0,0.9851,13.7918,9.8513)"/></g></g><g id="y.edge.3"><g stroke-linecap="butt" stroke-miterlimit="1.45"><path fill="none" d="M1380.0134 675.6641 L1393.75 715.625 L1393.75 821.5625 L1406.8976 861.5625 L1406.8976 876.5625 L1422.7213 916.5625 L1422.7213 1017.5 L1461.2213 1057.5 L1461.2213 1076.5 L1447.9281 1109.0546" transform="matrix(0.9851,0,0,0.9851,13.7918,9.8513)"/><path stroke="none" d="M1444.9038 1116.4609 L1454.0692 1107.2416 L1448.3062 1108.1288 L1444.8113 1103.4613 Z" transform="matrix(0.9851,0,0,0.9851,13.7918,9.8513)"/></g></g><g id="y.edge.4"><g stroke-linecap="butt" stroke-miterlimit="1.45"><path fill="none" d="M427.2295 589.707 L385.25 629.6875 L385.25 640.6504" transform="matrix(0.9851,0,0,0.9851,13.7918,9.8513)"/><path stroke="none" d="M385.25 648.6504 L390.25 636.6504 L385.25 639.6504 L380.25 636.6504 Z" transform="matrix(0.9851,0,0,0.9851,13.7918,9.8513)"/></g></g><g id="y.edge.5"><g stroke-linecap="butt" stroke-miterlimit="1.45"><path fill="none" d="M640.75 627.6866 L640.75 876.5625 L1454.4962 916.5625 L1454.4962 935.5625 L1444.9919 967.8491" transform="matrix(0.9851,0,0,0.9851,13.7918,9.8513)"/><path stroke="none" d="M1442.7328 975.5234 L1450.918 965.4238 L1445.2743 966.8898 L1441.325 962.5999 Z" transform="matrix(0.9851,0,0,0.9851,13.7918,9.8513)"/></g></g><g id="y.edge.6"><g stroke-linecap="butt" stroke-miterlimit="1.45"><path fill="none" d="M1300.342 199.8828 L1304.5879 239.8438 L1304.5879 292.8125 L918.75 332.8125 L918.75 393.75 L923.25 433.75 L923.25 588.6875 L936.8235 621.2638" transform="matrix(0.9851,0,0,0.9851,13.7918,9.8513)"/><path stroke="none" d="M939.9004 628.6484 L939.9004 615.6484 L936.4388 620.3407 L930.6696 619.4946 Z" transform="matrix(0.9851,0,0,0.9851,13.7918,9.8513)"/></g></g><g id="y.edge.7"><g stroke-linecap="butt" stroke-miterlimit="1.45"><path fill="none" d="M1337.3254 199.8828 L1324.5879 239.8438 L1324.5879 292.8125 L1686.25 332.8125 L1686.25 876.5625 L1519.7213 916.5625 L1519.7213 1017.5 L1481.2213 1057.5 L1481.2213 1076.5 L1494.5144 1109.0546" transform="matrix(0.9851,0,0,0.9851,13.7918,9.8513)"/><path stroke="none" d="M1497.5387 1116.4609 L1497.6312 1103.4613 L1494.1365 1108.1288 L1488.3734 1107.2416 Z" transform="matrix(0.9851,0,0,0.9851,13.7918,9.8513)"/></g></g><g id="y.edge.8"><g stroke-linecap="butt" stroke-miterlimit="1.45"><path fill="none" d="M1036.5443 60.9387 L69 100.9375 L69 169.8687" transform="matrix(0.9851,0,0,0.9851,13.7918,9.8513)"/><path stroke="none" d="M69 177.8687 L74 165.8687 L69 168.8687 L64 165.8687 Z" transform="matrix(0.9851,0,0,0.9851,13.7918,9.8513)"/></g></g><g id="y.edge.9"><g stroke-linecap="butt" stroke-miterlimit="1.45"><path fill="none" d="M1096.6091 60.9399 L1675.25 100.9375 L1675.25 876.5625 L1487.9463 916.5625 L1487.9463 935.5625 L1497.4506 967.8491" transform="matrix(0.9851,0,0,0.9851,13.7918,9.8513)"/><path stroke="none" d="M1499.7097 975.5234 L1501.1176 962.5999 L1497.1682 966.8898 L1491.5245 965.4238 Z" transform="matrix(0.9851,0,0,0.9851,13.7918,9.8513)"/></g></g><g id="y.edge.10"><g stroke-linecap="butt" stroke-miterlimit="1.45"><path fill="none" d="M1071.553 60.9766 L1050.2706 100.9375 L1050.2706 292.8125 L1051.5898 343.7864" transform="matrix(0.9851,0,0,0.9851,13.7918,9.8513)"/><path stroke="none" d="M1051.7969 351.7837 L1056.4847 339.6584 L1051.5641 342.7867 L1046.488 339.9171 Z" transform="matrix(0.9851,0,0,0.9851,13.7918,9.8513)"/></g></g><g id="y.edge.11"><g stroke-linecap="butt" stroke-miterlimit="1.45"><path fill="none" d="M1056.5431 60.9399 L553 100.9375 L553 169.8687" transform="matrix(0.9851,0,0,0.9851,13.7918,9.8513)"/><path stroke="none" d="M553 177.8687 L558 165.8687 L553 168.8687 L548 165.8687 Z" transform="matrix(0.9851,0,0,0.9851,13.7918,9.8513)"/></g></g><g id="y.edge.12"><g stroke-linecap="butt" stroke-miterlimit="1.45"><path fill="none" d="M1066.5415 60.9473 L934.431 100.9375 L934.431 149.8784" transform="matrix(0.9851,0,0,0.9851,13.7918,9.8513)"/><path stroke="none" d="M934.431 157.8784 L939.431 145.8784 L934.431 148.8784 L929.431 145.8784 Z" transform="matrix(0.9851,0,0,0.9851,13.7918,9.8513)"/></g></g><g id="y.edge.13"><g stroke-linecap="butt" stroke-miterlimit="1.45"><path fill="none" d="M1041.5461 60.9387 L133.5 100.9375 L133.5 292.8125 L202 332.8125 L202 565.7188 L189.4057 598.2202" transform="matrix(0.9851,0,0,0.9851,13.7918,9.8513)"/><path stroke="none" d="M186.5151 605.6797 L195.5132 596.297 L189.767 597.2877 L186.1888 592.6838 Z" transform="matrix(0.9851,0,0,0.9851,13.7918,9.8513)"/></g></g><g id="y.edge.14"><g stroke-linecap="butt" stroke-miterlimit="1.45"><path fill="none" d="M1076.5994 60.9473 L1181.0879 100.9375 L1181.0879 169.8687" transform="matrix(0.9851,0,0,0.9851,13.7918,9.8513)"/><path stroke="none" d="M1181.0879 177.8687 L1186.0879 165.8687 L1181.0879 168.8687 L1176.0879 165.8687 Z" transform="matrix(0.9851,0,0,0.9851,13.7918,9.8513)"/></g></g><g id="y.edge.15"><g stroke-linecap="butt" stroke-miterlimit="1.45"><path fill="none" d="M1086.6019 60.9399 L1548.25 100.9375 L1548.25 577.6891" transform="matrix(0.9851,0,0,0.9851,13.7918,9.8513)"/><path stroke="none" d="M1548.25 585.6891 L1553.25 573.6891 L1548.25 576.6891 L1543.25 573.6891 Z" transform="matrix(0.9851,0,0,0.9851,13.7918,9.8513)"/></g></g><g id="y.edge.16"><g stroke-linecap="butt" stroke-miterlimit="1.45"><path fill="none" d="M1081.6017 60.9424 L1309.5879 100.9375 L1309.5879 149.8784" transform="matrix(0.9851,0,0,0.9851,13.7918,9.8513)"/><path stroke="none" d="M1309.5879 157.8784 L1314.5879 145.8784 L1309.5879 148.8784 L1304.5879 145.8784 Z" transform="matrix(0.9851,0,0,0.9851,13.7918,9.8513)"/></g></g><g id="y.edge.17"><g stroke-linecap="butt" stroke-miterlimit="1.45"><path fill="none" d="M1091.6056 60.9399 L1611.75 100.9375 L1611.75 169.8687" transform="matrix(0.9851,0,0,0.9851,13.7918,9.8513)"/><path stroke="none" d="M1611.75 177.8687 L1616.75 165.8687 L1611.75 168.8687 L1606.75 165.8687 Z" transform="matrix(0.9851,0,0,0.9851,13.7918,9.8513)"/></g></g><g id="y.edge.18"><g stroke-linecap="butt" stroke-miterlimit="1.45"><path fill="none" d="M1101.6135 60.9399 L1751.75 100.9375 L1751.75 111.9004" transform="matrix(0.9851,0,0,0.9851,13.7918,9.8513)"/><path stroke="none" d="M1751.75 119.9004 L1756.75 107.9004 L1751.75 110.9004 L1746.75 107.9004 Z" transform="matrix(0.9851,0,0,0.9851,13.7918,9.8513)"/></g></g><g id="y.edge.19"><g stroke-linecap="butt" stroke-miterlimit="1.45"><path fill="none" d="M1051.5376 60.9399 L457.5 100.9375 L457.5 292.8125 L449.75 332.8125 L449.75 507.75 L459.8516 540.0751" transform="matrix(0.9851,0,0,0.9851,13.7918,9.8513)"/><path stroke="none" d="M462.2378 547.7109 L463.4309 534.7658 L459.5533 539.1206 L453.8861 537.7485 Z" transform="matrix(0.9851,0,0,0.9851,13.7918,9.8513)"/></g></g><g id="y.edge.20"><g stroke-linecap="butt" stroke-miterlimit="1.45"><path fill="none" d="M1061.5481 60.9399 L640.75 100.9375 L640.75 577.6891" transform="matrix(0.9851,0,0,0.9851,13.7918,9.8513)"/><path stroke="none" d="M640.75 585.6891 L645.75 573.6891 L640.75 576.6891 L635.75 573.6891 Z" transform="matrix(0.9851,0,0,0.9851,13.7918,9.8513)"/></g></g><g id="y.edge.21"><g stroke-linecap="butt" stroke-miterlimit="1.45"><path fill="none" d="M1106.6212 60.9399 L1883.25 100.9375 L1883.25 169.8687" transform="matrix(0.9851,0,0,0.9851,13.7918,9.8513)"/><path stroke="none" d="M1883.25 177.8687 L1888.25 165.8687 L1883.25 168.8687 L1878.25 165.8687 Z" transform="matrix(0.9851,0,0,0.9851,13.7918,9.8513)"/></g></g><g id="y.edge.22"><g stroke-linecap="butt" stroke-miterlimit="1.45"><path fill="none" d="M1066.4236 393.7598 L1172.75 433.75 L1172.75 600.6448" transform="matrix(0.9851,0,0,0.9851,13.7918,9.8513)"/><path stroke="none" d="M1172.75 608.6448 L1177.75 596.6448 L1172.75 599.6448 L1167.75 596.6448 Z" transform="matrix(0.9851,0,0,0.9851,13.7918,9.8513)"/></g></g><g id="y.edge.23"><g stroke-linecap="butt" stroke-miterlimit="1.45"><path fill="none" d="M1081.0386 393.7549 L1416.75 433.75 L1416.75 452.75 L1426.4395 485.0483" transform="matrix(0.9851,0,0,0.9851,13.7918,9.8513)"/><path stroke="none" d="M1428.7383 492.711 L1430.0792 479.7803 L1426.1522 484.0905 L1420.501 482.6538 Z" transform="matrix(0.9851,0,0,0.9851,13.7918,9.8513)"/></g></g><g id="y.edge.24"><g stroke-linecap="butt" stroke-miterlimit="1.45"><path fill="none" d="M1428.75 534.7225 L1428.75 821.5625 L1416.8976 861.5625 L1416.8976 876.5625 L1466.2213 916.5625 L1466.2213 935.5625 L1462.62 967.5736" transform="matrix(0.9851,0,0,0.9851,13.7918,9.8513)"/><path stroke="none" d="M1461.7256 975.5234 L1468.0358 964.1577 L1462.7318 966.5798 L1458.0985 963.0397 Z" transform="matrix(0.9851,0,0,0.9851,13.7918,9.8513)"/></g></g><g id="y.edge.25"><g stroke-linecap="butt" stroke-miterlimit="1.45"><path fill="none" d="M909.1126 199.8828 L924.431 239.8438 L924.431 292.8125 L777.75 332.8125 L777.75 393.75 L773.25 433.75 L773.25 588.6875 L759.6765 621.2638" transform="matrix(0.9851,0,0,0.9851,13.7918,9.8513)"/><path stroke="none" d="M756.5996 628.6484 L765.8304 619.4946 L760.0612 620.3407 L756.5996 615.6484 Z" transform="matrix(0.9851,0,0,0.9851,13.7918,9.8513)"/></g></g><g id="y.edge.26"><g stroke-linecap="butt" stroke-miterlimit="1.45"><path fill="none" d="M959.7493 199.8828 L944.431 239.8438 L944.431 292.8125 L1387.2976 332.8125 L1387.2976 393.75 L1406.75 433.75 L1406.75 452.75 L1397.0605 485.0483" transform="matrix(0.9851,0,0,0.9851,13.7918,9.8513)"/><path stroke="none" d="M1394.7617 492.711 L1402.999 482.6538 L1397.3478 484.0905 L1393.4208 479.7803 Z" transform="matrix(0.9851,0,0,0.9851,13.7918,9.8513)"/></g></g><g id="y.edge.27"><g stroke-linecap="butt" stroke-miterlimit="1.45"><path fill="none" d="M1548.25 627.6866 L1548.25 876.5625 L1476.2213 916.5625 L1476.2213 935.5625 L1479.8225 967.5736" transform="matrix(0.9851,0,0,0.9851,13.7918,9.8513)"/><path stroke="none" d="M1480.7168 975.5234 L1484.344 963.0397 L1479.7107 966.5798 L1474.4066 964.1577 Z" transform="matrix(0.9851,0,0,0.9851,13.7918,9.8513)"/></g></g><g id="y.edge.28"><g stroke-linecap="butt" stroke-miterlimit="1.45"><path fill="none" d="M321.1478 161.9141 L344.5 201.875 L344.5 212.8379" transform="matrix(0.9851,0,0,0.9851,13.7918,9.8513)"/><path stroke="none" d="M344.5 220.8379 L349.5 208.8379 L344.5 211.8379 L339.5 208.8379 Z" transform="matrix(0.9851,0,0,0.9851,13.7918,9.8513)"/></g></g><g id="y.edge.29"><g stroke-linecap="butt" stroke-miterlimit="1.45"><path fill="none" d="M303.8522 161.9141 L280.5 201.875 L280.5 292.8125 L212 332.8125 L212 565.7188 L224.5943 598.2202" transform="matrix(0.9851,0,0,0.9851,13.7918,9.8513)"/><path stroke="none" d="M227.4849 605.6797 L227.8112 592.6838 L224.233 597.2877 L218.4868 596.297 Z" transform="matrix(0.9851,0,0,0.9851,13.7918,9.8513)"/></g></g><g id="y.edge.30"><g stroke-linecap="butt" stroke-miterlimit="1.45"><path fill="none" d="M1281.8503 199.8828 L1294.5879 239.8438 L1294.5879 292.8125 L788.75 332.8125 L788.75 393.75 L793.25 433.75 L793.25 588.6875 L806.8235 621.2638" transform="matrix(0.9851,0,0,0.9851,13.7918,9.8513)"/><path stroke="none" d="M809.9004 628.6484 L809.9004 615.6484 L806.4388 620.3407 L800.6696 619.4946 Z" transform="matrix(0.9851,0,0,0.9851,13.7918,9.8513)"/></g></g><g id="y.edge.31"><g stroke-linecap="butt" stroke-miterlimit="1.45"><path fill="none" d="M1318.8337 199.8828 L1314.5879 239.8438 L1314.5879 292.8125 L1376.2976 332.8125 L1376.2976 393.75 L1367.25 433.75 L1367.25 593.6875 L1377.558 626.0263" transform="matrix(0.9851,0,0,0.9851,13.7918,9.8513)"/><path stroke="none" d="M1379.9875 633.6484 L1381.1071 620.6967 L1377.2543 625.0735 L1371.5793 623.7337 Z" transform="matrix(0.9851,0,0,0.9851,13.7918,9.8513)"/></g></g><g id="y.edge.32"><g stroke-linecap="butt" stroke-miterlimit="1.45"><path fill="none" d="M1751.75 161.9038 L1751.75 212.8462" transform="matrix(0.9851,0,0,0.9851,13.7918,9.8513)"/><path stroke="none" d="M1751.75 220.8462 L1756.75 208.8462 L1751.75 211.8462 L1746.75 208.8462 Z" transform="matrix(0.9851,0,0,0.9851,13.7918,9.8513)"/></g></g><g id="y.edge.33"><g stroke-linecap="butt" stroke-miterlimit="1.45"><path fill="none" d="M462.2705 589.707 L504.25 629.6875 L504.25 640.6504" transform="matrix(0.9851,0,0,0.9851,13.7918,9.8513)"/><path stroke="none" d="M504.25 648.6504 L509.25 636.6504 L504.25 639.6504 L499.25 636.6504 Z" transform="matrix(0.9851,0,0,0.9851,13.7918,9.8513)"/></g></g><g id="y.edge.34"><g stroke-linecap="butt" stroke-miterlimit="1.45"><path fill="none" d="M286.5898 161.8945 L214.5 201.875 L214.5 212.8379" transform="matrix(0.9851,0,0,0.9851,13.7918,9.8513)"/><path stroke="none" d="M214.5 220.8379 L219.5 208.8379 L214.5 211.8379 L209.5 208.8379 Z" transform="matrix(0.9851,0,0,0.9851,13.7918,9.8513)"/></g></g><g id="y.edge.35"><g stroke-linecap="butt" stroke-miterlimit="1.45"><path fill="none" d="M338.4092 161.8945 L408.5 201.875 L408.5 292.8125 L439.75 332.8125 L439.75 507.75 L429.6484 540.0751" transform="matrix(0.9851,0,0,0.9851,13.7918,9.8513)"/><path stroke="none" d="M427.2622 547.7109 L435.6139 537.7485 L429.9467 539.1206 L426.0691 534.7658 Z" transform="matrix(0.9851,0,0,0.9851,13.7918,9.8513)"/></g></g><g id="y.edge.36"><g stroke-linecap="butt" stroke-miterlimit="1.45"><path fill="none" d="M1344.4866 675.6641 L1330.75 715.625 L1330.75 726.5879" transform="matrix(0.9851,0,0,0.9851,13.7918,9.8513)"/><path stroke="none" d="M1330.75 734.5879 L1335.75 722.5879 L1330.75 725.5879 L1325.75 722.5879 Z" transform="matrix(0.9851,0,0,0.9851,13.7918,9.8513)"/></g></g><g id="y.edge.37"><g stroke-linecap="butt" stroke-miterlimit="1.45"><path fill="none" d="M1022.5684 393.7549 L783.25 433.75 L783.25 620.6399" transform="matrix(0.9851,0,0,0.9851,13.7918,9.8513)"/><path stroke="none" d="M783.25 628.6399 L788.25 616.6399 L783.25 619.6399 L778.25 616.6399 Z" transform="matrix(0.9851,0,0,0.9851,13.7918,9.8513)"/></g></g><g id="y.edge.38"><g stroke-linecap="butt" stroke-miterlimit="1.45"><path fill="none" d="M1051.7888 393.7891 L1042.75 433.75 L1042.75 600.6448" transform="matrix(0.9851,0,0,0.9851,13.7918,9.8513)"/><path stroke="none" d="M1042.75 608.6448 L1047.75 596.6448 L1042.75 599.6448 L1037.75 596.6448 Z" transform="matrix(0.9851,0,0,0.9851,13.7918,9.8513)"/></g></g><g id="y.edge.39"><g stroke-linecap="butt" stroke-miterlimit="1.45"><path fill="none" d="M934.431 199.8891 L934.431 292.8125 L903.85 332.8125 L903.85 351.8125 L903.25 588.6875 L889.6765 621.2638" transform="matrix(0.9851,0,0,0.9851,13.7918,9.8513)"/><path stroke="none" d="M886.5996 628.6484 L895.8304 619.4946 L890.0612 620.3407 L886.5996 615.6484 Z" transform="matrix(0.9851,0,0,0.9851,13.7918,9.8513)"/></g></g><g id="y.edge.40"><g stroke-linecap="butt" stroke-miterlimit="1.45"><path fill="none" d="M1037.1674 393.7598 L913.25 433.75 L913.25 620.6399" transform="matrix(0.9851,0,0,0.9851,13.7918,9.8513)"/><path stroke="none" d="M913.25 628.6399 L918.25 616.6399 L913.25 619.6399 L908.25 616.6399 Z" transform="matrix(0.9851,0,0,0.9851,13.7918,9.8513)"/></g></g></g></svg>