<svg xmlns="http://www.w3.org/2000/svg" xmlns:xlink="http://www.w3.org/1999/xlink" width="1589" height="424" fill="#000" fill-opacity="1" stroke="#000" stroke-dasharray="none" stroke-dashoffset="0" stroke-linecap="square" stroke-linejoin="miter" stroke-miterlimit="10" stroke-opacity="1" stroke-width="1" color-interpolation="auto" color-rendering="auto" font-family="'Dialog'" font-size="12" font-style="normal" font-weight="normal" image-rendering="auto" shape-rendering="auto" text-rendering="auto"><g><defs id="defs1"><clipPath id="clipPath1" clipPathUnits="userSpaceOnUse"><path d="M0 0 L1589 0 L1589 424 L0 424 L0 0 Z"/></clipPath></defs><g id="y.node.0"><g fill="#F8ECC9" stroke="#F8ECC9" transform="matrix(0.955,0,0,0.955,35.3333,9.5495)"><rect width="1589" height="423.75" x="0" y="0" stroke="none"/></g><g id="bla"><g fill="#404040" stroke="#404040" transform="matrix(0.955,0,0,0.955,35.3333,9.5495)"><rect width="1589" height="4" x="0" y="0" stroke="none"/></g></g><g fill="#fff" stroke="#fff" transform="matrix(0.955,0,0,0.955,35.3333,9.5495)"><rect width="1" height="423.75" x="0" y="0" stroke="none"/></g><g fill="#fff" stroke="#fff" transform="matrix(0.955,0,0,0.955,35.3333,9.5495)"><rect width="1587" height="1" x="1" y="0" stroke="none"/><rect width="1588" height="1" x="1" y="422.75" fill="#ADA58C" stroke="none"/><rect width="1" height="422.75" x="1588" y="0" fill="#ADA58C" stroke="none"/></g></g><g id="y.node.2"><g fill="#F8ECC9" stroke="#F8ECC9" transform="matrix(0.955,0,0,0.955,35.3333,9.5495)"><rect width="1432" height="307.813" x="15" y="100.938" stroke="none"/></g><g id="bla"><g fill="#404040" stroke="#404040" transform="matrix(0.955,0,0,0.955,35.3333,9.5495)"><rect width="1432" height="4" x="15" y="100.938" stroke="none"/></g></g><g fill="#fff" stroke="#fff" transform="matrix(0.955,0,0,0.955,35.3333,9.5495)"><rect width="1" height="307.813" x="15" y="100.938" stroke="none"/><rect width="1430" height="1" x="16" y="100.938" stroke="none"/><rect width="1431" height="1" x="16" y="407.75" fill="#ADA58C" stroke="none"/><rect width="1" height="306.813" x="1446" y="100.938" fill="#ADA58C" stroke="none"/></g></g><g id="y.node.13"><g fill="#F8ECC9" stroke="#F8ECC9" transform="matrix(0.955,0,0,0.955,35.3333,9.5495)"><rect width="100" height="75.938" x="1332" y="259.844" stroke="none"/></g><g id="bla"><g fill="#404040" stroke="#404040" transform="matrix(0.955,0,0,0.955,35.3333,9.5495)"><rect width="100" height="4" x="1332" y="259.844" stroke="none"/></g></g><g fill="#fff" stroke="#fff" transform="matrix(0.955,0,0,0.955,35.3333,9.5495)"><rect width="1" height="75.938" x="1332" y="259.844" stroke="none"/><rect width="98" height="1" x="1333" y="259.844" stroke="none"/><rect width="99" height="1" x="1333" y="334.781" fill="#ADA58C" stroke="none"/><rect width="1" height="74.938" x="1431" y="259.844" fill="#ADA58C" stroke="none"/></g></g><g id="y.node.33"><g fill="#fff" stroke="#fff" transform="matrix(0.955,0,0,0.955,35.3333,9.5495)"><rect width="70" height="41" x="1347" y="278" stroke="none"/><rect width="70" height="41" x="1347" y="278" fill="none" stroke="#000"/></g><g id="bla"><g font-family="sans-serif"><text x="1359" y="296.982" stroke="none" transform="matrix(0.955,0,0,0.955,35.3333,9.5495)" xml:space="preserve">FMTRXI</text><text x="1354" y="310.951" stroke="none" transform="matrix(0.955,0,0,0.955,35.3333,9.5495)" xml:space="preserve">(fmtrxi.f)</text></g></g></g><g id="y.node.12"><g fill="#F8ECC9" stroke="#F8ECC9" transform="matrix(0.955,0,0,0.955,35.3333,9.5495)"><rect width="98" height="75.938" x="1214" y="259.844" stroke="none"/></g><g id="bla"><g fill="#404040" stroke="#404040" transform="matrix(0.955,0,0,0.955,35.3333,9.5495)"><rect width="98" height="4" x="1214" y="259.844" stroke="none"/></g></g><g fill="#fff" stroke="#fff" transform="matrix(0.955,0,0,0.955,35.3333,9.5495)"><rect width="1" height="75.938" x="1214" y="259.844" stroke="none"/><rect width="96" height="1" x="1215" y="259.844" stroke="none"/><rect width="97" height="1" x="1215" y="334.781" fill="#ADA58C" stroke="none"/><rect width="1" height="74.938" x="1311" y="259.844" fill="#ADA58C" stroke="none"/></g></g><g id="y.node.32"><g fill="#fff" stroke="#fff" transform="matrix(0.955,0,0,0.955,35.3333,9.5495)"><rect width="68" height="41" x="1229" y="278" stroke="none"/><rect width="68" height="41" x="1229" y="278" fill="none" stroke="#000"/></g><g id="bla"><g font-family="sans-serif"><text x="1243.5" y="296.982" stroke="none" transform="matrix(0.955,0,0,0.955,35.3333,9.5495)" xml:space="preserve">MMTR</text><text x="1236" y="310.951" stroke="none" transform="matrix(0.955,0,0,0.955,35.3333,9.5495)" xml:space="preserve">(mmtr.f)</text></g></g></g><g id="y.node.11"><g fill="#F8ECC9" stroke="#F8ECC9" transform="matrix(0.955,0,0,0.955,35.3333,9.5495)"><rect width="107" height="75.938" x="1087" y="259.844" stroke="none"/></g><g id="bla"><g fill="#404040" stroke="#404040" transform="matrix(0.955,0,0,0.955,35.3333,9.5495)"><rect width="107" height="4" x="1087" y="259.844" stroke="none"/></g></g><g fill="#fff" stroke="#fff" transform="matrix(0.955,0,0,0.955,35.3333,9.5495)"><rect width="1" height="75.938" x="1087" y="259.844" stroke="none"/><rect width="105" height="1" x="1088" y="259.844" stroke="none"/><rect width="106" height="1" x="1088" y="334.781" fill="#ADA58C" stroke="none"/><rect width="1" height="74.938" x="1193" y="259.844" fill="#ADA58C" stroke="none"/></g></g><g id="y.node.31"><g fill="#fff" stroke="#fff" transform="matrix(0.955,0,0,0.955,35.3333,9.5495)"><rect width="77" height="41" x="1102" y="278" stroke="none"/><rect width="77" height="41" x="1102" y="278" fill="none" stroke="#000"/></g><g id="bla"><g font-family="sans-serif"><text x="1116" y="296.982" stroke="none" transform="matrix(0.955,0,0,0.955,35.3333,9.5495)" xml:space="preserve">MMTRXI</text><text x="1109" y="310.951" stroke="none" transform="matrix(0.955,0,0,0.955,35.3333,9.5495)" xml:space="preserve">(mmtrxi.f)</text></g></g></g><g id="y.node.10"><g fill="#F8ECC9" stroke="#F8ECC9" transform="matrix(0.955,0,0,0.955,35.3333,9.5495)"><rect width="266" height="191.875" x="801" y="201.875" stroke="none"/></g><g id="bla"><g fill="#404040" stroke="#404040" transform="matrix(0.955,0,0,0.955,35.3333,9.5495)"><rect width="266" height="4" x="801" y="201.875" stroke="none"/></g></g><g fill="#fff" stroke="#fff" transform="matrix(0.955,0,0,0.955,35.3333,9.5495)"><rect width="1" height="191.875" x="801" y="201.875" stroke="none"/><rect width="264" height="1" x="802" y="201.875" stroke="none"/><rect width="265" height="1" x="802" y="392.75" fill="#ADA58C" stroke="none"/><rect width="1" height="190.875" x="1066" y="201.875" fill="#ADA58C" stroke="none"/></g></g><g id="y.node.26"><g fill="#F8ECC9" stroke="#F8ECC9" transform="matrix(0.955,0,0,0.955,35.3333,9.5495)"><rect width="108" height="75.938" x="816" y="302.813" stroke="none"/></g><g id="bla"><g fill="#404040" stroke="#404040" transform="matrix(0.955,0,0,0.955,35.3333,9.5495)"><rect width="108" height="4" x="816" y="302.813" stroke="none"/></g></g><g fill="#fff" stroke="#fff" transform="matrix(0.955,0,0,0.955,35.3333,9.5495)"><rect width="1" height="75.938" x="816" y="302.813" stroke="none"/><rect width="106" height="1" x="817" y="302.813" stroke="none"/><rect width="107" height="1" x="817" y="377.75" fill="#ADA58C" stroke="none"/><rect width="1" height="74.938" x="923" y="302.813" fill="#ADA58C" stroke="none"/></g></g><g id="y.node.27"><g fill="#fff" stroke="#fff" transform="matrix(0.955,0,0,0.955,35.3333,9.5495)"><rect width="78" height="41" x="831" y="321" stroke="none"/><rect width="78" height="41" x="831" y="321" fill="none" stroke="#000"/></g><g id="bla"><g font-family="sans-serif"><text x="854.5" y="339.951" stroke="none" transform="matrix(0.955,0,0,0.955,35.3333,9.5495)" xml:space="preserve">TRIG</text><text x="838" y="353.92" stroke="none" transform="matrix(0.955,0,0,0.955,35.3333,9.5495)" xml:space="preserve">(rdpath.f)</text></g></g></g><g id="y.node.28"><g fill="#F8ECC9" stroke="#F8ECC9" transform="matrix(0.955,0,0,0.955,35.3333,9.5495)"><rect width="108" height="75.938" x="944" y="302.813" stroke="none"/></g><g id="bla"><g fill="#404040" stroke="#404040" transform="matrix(0.955,0,0,0.955,35.3333,9.5495)"><rect width="108" height="4" x="944" y="302.813" stroke="none"/></g></g><g fill="#fff" stroke="#fff" transform="matrix(0.955,0,0,0.955,35.3333,9.5495)"><rect width="1" height="75.938" x="944" y="302.813" stroke="none"/><rect width="106" height="1" x="945" y="302.813" stroke="none"/><rect width="107" height="1" x="945" y="377.75" fill="#ADA58C" stroke="none"/><rect width="1" height="74.938" x="1051" y="302.813" fill="#ADA58C" stroke="none"/></g></g><g id="y.node.29"><g fill="#fff" stroke="#fff" transform="matrix(0.955,0,0,0.955,35.3333,9.5495)"><rect width="78" height="41" x="959" y="321" stroke="none"/><rect width="78" height="41" x="959" y="321" fill="none" stroke="#000"/></g><g id="bla"><g font-family="sans-serif"><text x="983.5" y="339.951" stroke="none" transform="matrix(0.955,0,0,0.955,35.3333,9.5495)" xml:space="preserve">ARG</text><text x="966" y="353.92" stroke="none" transform="matrix(0.955,0,0,0.955,35.3333,9.5495)" xml:space="preserve">(rdpath.f)</text></g></g></g><g id="y.node.30"><g fill="#fff" stroke="#fff" transform="matrix(0.955,0,0,0.955,35.3333,9.5495)"><rect width="78" height="41" x="895" y="220" stroke="none"/><rect width="78" height="41" x="895" y="220" fill="none" stroke="#000"/></g><g id="bla"><g font-family="sans-serif"><text x="907.5" y="239.014" stroke="none" transform="matrix(0.955,0,0,0.955,35.3333,9.5495)" xml:space="preserve">RDPATH</text><text x="902" y="252.982" stroke="none" transform="matrix(0.955,0,0,0.955,35.3333,9.5495)" xml:space="preserve">(rdpath.f)</text></g></g></g><g id="y.node.9"><g fill="#F8ECC9" stroke="#F8ECC9" transform="matrix(0.955,0,0,0.955,35.3333,9.5495)"><rect width="95" height="75.938" x="686" y="259.844" stroke="none"/></g><g id="bla"><g fill="#404040" stroke="#404040" transform="matrix(0.955,0,0,0.955,35.3333,9.5495)"><rect width="95" height="4" x="686" y="259.844" stroke="none"/></g></g><g fill="#fff" stroke="#fff" transform="matrix(0.955,0,0,0.955,35.3333,9.5495)"><rect width="1" height="75.938" x="686" y="259.844" stroke="none"/><rect width="93" height="1" x="687" y="259.844" stroke="none"/><rect width="94" height="1" x="687" y="334.781" fill="#ADA58C" stroke="none"/><rect width="1" height="74.938" x="780" y="259.844" fill="#ADA58C" stroke="none"/></g></g><g id="y.node.25"><g fill="#fff" stroke="#fff" transform="matrix(0.955,0,0,0.955,35.3333,9.5495)"><rect width="65" height="41" x="701" y="278" stroke="none"/><rect width="65" height="41" x="701" y="278" fill="none" stroke="#000"/></g><g id="bla"><g font-family="sans-serif"><text x="714" y="296.982" stroke="none" transform="matrix(0.955,0,0,0.955,35.3333,9.5495)" xml:space="preserve">ROT3I</text><text x="708" y="310.951" stroke="none" transform="matrix(0.955,0,0,0.955,35.3333,9.5495)" xml:space="preserve">(rot3i.f)</text></g></g></g><g id="y.node.8"><g fill="#F8ECC9" stroke="#F8ECC9" transform="matrix(0.955,0,0,0.955,35.3333,9.5495)"><rect width="99" height="75.938" x="567" y="259.844" stroke="none"/></g><g id="bla"><g fill="#404040" stroke="#404040" transform="matrix(0.955,0,0,0.955,35.3333,9.5495)"><rect width="99" height="4" x="567" y="259.844" stroke="none"/></g></g><g fill="#fff" stroke="#fff" transform="matrix(0.955,0,0,0.955,35.3333,9.5495)"><rect width="1" height="75.938" x="567" y="259.844" stroke="none"/><rect width="97" height="1" x="568" y="259.844" stroke="none"/><rect width="98" height="1" x="568" y="334.781" fill="#ADA58C" stroke="none"/><rect width="1" height="74.938" x="665" y="259.844" fill="#ADA58C" stroke="none"/></g></g><g id="y.node.24"><g fill="#fff" stroke="#fff" transform="matrix(0.955,0,0,0.955,35.3333,9.5495)"><rect width="69" height="41" x="582" y="278" stroke="none"/><rect width="69" height="41" x="582" y="278" fill="none" stroke="#000"/></g><g id="bla"><g font-family="sans-serif"><text x="594" y="296.982" stroke="none" transform="matrix(0.955,0,0,0.955,35.3333,9.5495)" xml:space="preserve">SCLMZ</text><text x="589" y="310.951" stroke="none" transform="matrix(0.955,0,0,0.955,35.3333,9.5495)" xml:space="preserve">(sclmz.f)</text></g></g></g><g id="y.node.7"><g fill="#F8ECC9" stroke="#F8ECC9" transform="matrix(0.955,0,0,0.955,35.3333,9.5495)"><rect width="108" height="75.938" x="439" y="259.844" stroke="none"/></g><g id="bla"><g fill="#404040" stroke="#404040" transform="matrix(0.955,0,0,0.955,35.3333,9.5495)"><rect width="108" height="4" x="439" y="259.844" stroke="none"/></g></g><g fill="#fff" stroke="#fff" transform="matrix(0.955,0,0,0.955,35.3333,9.5495)"><rect width="1" height="75.938" x="439" y="259.844" stroke="none"/><rect width="106" height="1" x="440" y="259.844" stroke="none"/><rect width="107" height="1" x="440" y="334.781" fill="#ADA58C" stroke="none"/><rect width="1" height="74.938" x="546" y="259.844" fill="#ADA58C" stroke="none"/></g></g><g id="y.node.23"><g fill="#fff" stroke="#fff" transform="matrix(0.955,0,0,0.955,35.3333,9.5495)"><rect width="78" height="41" x="454" y="278" stroke="none"/><rect width="78" height="41" x="454" y="278" fill="none" stroke="#000"/></g><g id="bla"><g font-family="sans-serif"><text x="467.5" y="296.982" stroke="none" transform="matrix(0.955,0,0,0.955,35.3333,9.5495)" xml:space="preserve">SETLAM</text><text x="461" y="310.951" stroke="none" transform="matrix(0.955,0,0,0.955,35.3333,9.5495)" xml:space="preserve">(setlam.f)</text></g></g></g><g id="y.node.6"><g fill="#F8ECC9" stroke="#F8ECC9" transform="matrix(0.955,0,0,0.955,35.3333,9.5495)"><rect width="125" height="191.875" x="294" y="201.875" stroke="none"/></g><g id="bla"><g fill="#404040" stroke="#404040" transform="matrix(0.955,0,0,0.955,35.3333,9.5495)"><rect width="125" height="4" x="294" y="201.875" stroke="none"/></g></g><g fill="#fff" stroke="#fff" transform="matrix(0.955,0,0,0.955,35.3333,9.5495)"><rect width="1" height="191.875" x="294" y="201.875" stroke="none"/><rect width="123" height="1" x="295" y="201.875" stroke="none"/><rect width="124" height="1" x="295" y="392.75" fill="#ADA58C" stroke="none"/><rect width="1" height="190.875" x="418" y="201.875" fill="#ADA58C" stroke="none"/></g></g><g id="y.node.20"><g fill="#F8ECC9" stroke="#F8ECC9" transform="matrix(0.955,0,0,0.955,35.3333,9.5495)"><rect width="95" height="75.938" x="309" y="302.813" stroke="none"/></g><g id="bla"><g fill="#404040" stroke="#404040" transform="matrix(0.955,0,0,0.955,35.3333,9.5495)"><rect width="95" height="4" x="309" y="302.813" stroke="none"/></g></g><g fill="#fff" stroke="#fff" transform="matrix(0.955,0,0,0.955,35.3333,9.5495)"><rect width="1" height="75.938" x="309" y="302.813" stroke="none"/><rect width="93" height="1" x="310" y="302.813" stroke="none"/><rect width="94" height="1" x="310" y="377.75" fill="#ADA58C" stroke="none"/><rect width="1" height="74.938" x="403" y="302.813" fill="#ADA58C" stroke="none"/></g></g><g id="y.node.21"><g fill="#fff" stroke="#fff" transform="matrix(0.955,0,0,0.955,35.3333,9.5495)"><rect width="65" height="41" x="324" y="321" stroke="none"/><rect width="65" height="41" x="324" y="321" fill="none" stroke="#000"/></g><g id="bla"><g font-family="sans-serif"><text x="332" y="339.951" stroke="none" transform="matrix(0.955,0,0,0.955,35.3333,9.5495)" xml:space="preserve">FACTST</text><text x="331" y="353.92" stroke="none" transform="matrix(0.955,0,0,0.955,35.3333,9.5495)" xml:space="preserve">(snlm.f)</text></g></g></g><g id="y.node.22"><g fill="#fff" stroke="#fff" transform="matrix(0.955,0,0,0.955,35.3333,9.5495)"><rect width="65" height="41" x="324" y="220" stroke="none"/><rect width="65" height="41" x="324" y="220" fill="none" stroke="#000"/></g><g id="bla"><g font-family="sans-serif"><text x="338" y="239.014" stroke="none" transform="matrix(0.955,0,0,0.955,35.3333,9.5495)" xml:space="preserve">SNLM</text><text x="331" y="252.982" stroke="none" transform="matrix(0.955,0,0,0.955,35.3333,9.5495)" xml:space="preserve">(snlm.f)</text></g></g></g><g id="y.node.5"><g fill="#F8ECC9" stroke="#F8ECC9" transform="matrix(0.955,0,0,0.955,35.3333,9.5495)"><rect width="244" height="191.875" x="30" y="201.875" stroke="none"/></g><g id="bla"><g fill="#404040" stroke="#404040" transform="matrix(0.955,0,0,0.955,35.3333,9.5495)"><rect width="244" height="4" x="30" y="201.875" stroke="none"/></g></g><g fill="#fff" stroke="#fff" transform="matrix(0.955,0,0,0.955,35.3333,9.5495)"><rect width="1" height="191.875" x="30" y="201.875" stroke="none"/><rect width="242" height="1" x="31" y="201.875" stroke="none"/><rect width="243" height="1" x="31" y="392.75" fill="#ADA58C" stroke="none"/><rect width="1" height="190.875" x="273" y="201.875" fill="#ADA58C" stroke="none"/></g></g><g id="y.node.15"><g fill="#F8ECC9" stroke="#F8ECC9" transform="matrix(0.955,0,0,0.955,35.3333,9.5495)"><rect width="97" height="75.938" x="45" y="302.813" stroke="none"/></g><g id="bla"><g fill="#404040" stroke="#404040" transform="matrix(0.955,0,0,0.955,35.3333,9.5495)"><rect width="97" height="4" x="45" y="302.813" stroke="none"/></g></g><g fill="#fff" stroke="#fff" transform="matrix(0.955,0,0,0.955,35.3333,9.5495)"><rect width="1" height="75.938" x="45" y="302.813" stroke="none"/><rect width="95" height="1" x="46" y="302.813" stroke="none"/><rect width="96" height="1" x="46" y="377.75" fill="#ADA58C" stroke="none"/><rect width="1" height="74.938" x="141" y="302.813" fill="#ADA58C" stroke="none"/></g></g><g id="y.node.16"><g fill="#fff" stroke="#fff" transform="matrix(0.955,0,0,0.955,35.3333,9.5495)"><rect width="67" height="41" x="60" y="321" stroke="none"/><rect width="67" height="41" x="60" y="321" fill="none" stroke="#000"/></g><g id="bla"><g font-family="sans-serif"><text x="72.5" y="339.951" stroke="none" transform="matrix(0.955,0,0,0.955,35.3333,9.5495)" xml:space="preserve">YSTAR</text><text x="67" y="353.92" stroke="none" transform="matrix(0.955,0,0,0.955,35.3333,9.5495)" xml:space="preserve">(xstar.f)</text></g></g></g><g id="y.node.17"><g fill="#F8ECC9" stroke="#F8ECC9" transform="matrix(0.955,0,0,0.955,35.3333,9.5495)"><rect width="97" height="75.938" x="162" y="302.813" stroke="none"/></g><g id="bla"><g fill="#404040" stroke="#404040" transform="matrix(0.955,0,0,0.955,35.3333,9.5495)"><rect width="97" height="4" x="162" y="302.813" stroke="none"/></g></g><g fill="#fff" stroke="#fff" transform="matrix(0.955,0,0,0.955,35.3333,9.5495)"><rect width="1" height="75.938" x="162" y="302.813" stroke="none"/><rect width="95" height="1" x="163" y="302.813" stroke="none"/><rect width="96" height="1" x="163" y="377.75" fill="#ADA58C" stroke="none"/><rect width="1" height="74.938" x="258" y="302.813" fill="#ADA58C" stroke="none"/></g></g><g id="y.node.18"><g fill="#fff" stroke="#fff" transform="matrix(0.955,0,0,0.955,35.3333,9.5495)"><rect width="67" height="41" x="177" y="321" stroke="none"/><rect width="67" height="41" x="177" y="321" fill="none" stroke="#000"/></g><g id="bla"><g font-family="sans-serif"><text x="189" y="339.951" stroke="none" transform="matrix(0.955,0,0,0.955,35.3333,9.5495)" xml:space="preserve">XXCOS</text><text x="184" y="353.92" stroke="none" transform="matrix(0.955,0,0,0.955,35.3333,9.5495)" xml:space="preserve">(xstar.f)</text></g></g></g><g id="y.node.19"><g fill="#fff" stroke="#fff" transform="matrix(0.955,0,0,0.955,35.3333,9.5495)"><rect width="67" height="41" x="118" y="220" stroke="none"/><rect width="67" height="41" x="118" y="220" fill="none" stroke="#000"/></g><g id="bla"><g font-family="sans-serif"><text x="131" y="239.014" stroke="none" transform="matrix(0.955,0,0,0.955,35.3333,9.5495)" xml:space="preserve">XSTAR</text><text x="125.5" y="252.982" stroke="none" transform="matrix(0.955,0,0,0.955,35.3333,9.5495)" xml:space="preserve">(xstar.f)</text></g></g></g><g id="y.node.14"><g fill="#fff" stroke="#fff" transform="matrix(0.955,0,0,0.955,35.3333,9.5495)"><rect width="80" height="41" x="693" y="119" stroke="none"/><rect width="80" height="41" x="693" y="119" fill="none" stroke="#000"/></g><g id="bla"><g font-family="sans-serif"><text x="706.5" y="138.076" stroke="none" transform="matrix(0.955,0,0,0.955,35.3333,9.5495)" xml:space="preserve">GENFMT</text><text x="700.5" y="152.045" stroke="none" transform="matrix(0.955,0,0,0.955,35.3333,9.5495)" xml:space="preserve">(genfmt.f)</text></g></g></g><g id="y.node.3"><g fill="#F8ECC9" stroke="#F8ECC9" transform="matrix(0.955,0,0,0.955,35.3333,9.5495)"><rect width="107" height="75.938" x="1467" y="216.875" stroke="none"/></g><g id="bla"><g fill="#404040" stroke="#404040" transform="matrix(0.955,0,0,0.955,35.3333,9.5495)"><rect width="107" height="4" x="1467" y="216.875" stroke="none"/></g></g><g fill="#fff" stroke="#fff" transform="matrix(0.955,0,0,0.955,35.3333,9.5495)"><rect width="1" height="75.938" x="1467" y="216.875" stroke="none"/><rect width="105" height="1" x="1468" y="216.875" stroke="none"/><rect width="106" height="1" x="1468" y="291.813" fill="#ADA58C" stroke="none"/><rect width="1" height="74.938" x="1573" y="216.875" fill="#ADA58C" stroke="none"/></g></g><g id="y.node.4"><g fill="#fff" stroke="#fff" transform="matrix(0.955,0,0,0.955,35.3333,9.5495)"><rect width="77" height="41" x="1482" y="235" stroke="none"/><rect width="77" height="41" x="1482" y="235" fill="none" stroke="#000"/></g><g id="bla"><g font-family="sans-serif"><text x="1494" y="254.014" stroke="none" transform="matrix(0.955,0,0,0.955,35.3333,9.5495)" xml:space="preserve">REGENF</text><text x="1489" y="267.982" stroke="none" transform="matrix(0.955,0,0,0.955,35.3333,9.5495)" xml:space="preserve">(regenf.f)</text></g></g></g><g id="y.node.1"><g fill="#fff" stroke="#fff" transform="matrix(0.955,0,0,0.955,35.3333,9.5495)"><rect width="79" height="41" x="1087" y="19" stroke="none"/><rect width="79" height="41" x="1087" y="19" fill="none" stroke="#000"/></g><g id="bla"><g font-family="sans-serif"><text x="1100" y="37.139" stroke="none" transform="matrix(0.955,0,0,0.955,35.3333,9.5495)" xml:space="preserve">FFMOD5</text><text x="1094.5" y="51.107" stroke="none" transform="matrix(0.955,0,0,0.955,35.3333,9.5495)" xml:space="preserve">(ffmod5.f)</text></g></g></g><g id="y.edge.0"><g stroke-linecap="butt" stroke-miterlimit="1.45"><path fill="none" d="M1107.2043 60.9424 L733.5 100.9375 L733.5 111.9004" transform="matrix(0.955,0,0,0.955,35.3333,9.5495)"/><path stroke="none" d="M733.5 119.9004 L738.5 107.9004 L733.5 110.9004 L728.5 107.9004 Z" transform="matrix(0.955,0,0,0.955,35.3333,9.5495)"/></g></g><g id="y.edge.1"><g stroke-linecap="butt" stroke-miterlimit="1.45"><path fill="none" d="M1146.7957 60.9424 L1520.5 100.9375 L1520.5 227.8421" transform="matrix(0.955,0,0,0.955,35.3333,9.5495)"/><path stroke="none" d="M1520.5 235.8421 L1525.5 223.8421 L1520.5 226.8421 L1515.5 223.8421 Z" transform="matrix(0.955,0,0,0.955,35.3333,9.5495)"/></g></g><g id="y.edge.2"><g stroke-linecap="butt" stroke-miterlimit="1.45"><path fill="none" d="M769.093 161.8774 L1382 201.875 L1382 270.8062" transform="matrix(0.955,0,0,0.955,35.3333,9.5495)"/><path stroke="none" d="M1382 278.8062 L1387 266.8062 L1382 269.8062 L1377 266.8062 Z" transform="matrix(0.955,0,0,0.955,35.3333,9.5495)"/></g></g><g id="y.edge.3"><g stroke-linecap="butt" stroke-miterlimit="1.45"><path fill="none" d="M760.1973 161.8774 L1263 201.875 L1263 270.8062" transform="matrix(0.955,0,0,0.955,35.3333,9.5495)"/><path stroke="none" d="M1263 278.8062 L1268 266.8062 L1263 269.8062 L1258 266.8062 Z" transform="matrix(0.955,0,0,0.955,35.3333,9.5495)"/></g></g><g id="y.edge.4"><g stroke-linecap="butt" stroke-miterlimit="1.45"><path fill="none" d="M751.3253 161.8799 L1140.5 201.875 L1140.5 270.8062" transform="matrix(0.955,0,0,0.955,35.3333,9.5495)"/><path stroke="none" d="M1140.5 278.8062 L1145.5 266.8062 L1140.5 269.8062 L1135.5 266.8062 Z" transform="matrix(0.955,0,0,0.955,35.3333,9.5495)"/></g></g><g id="y.edge.5"><g stroke-linecap="butt" stroke-miterlimit="1.45"><path fill="none" d="M742.4357 161.8848 L934 201.875 L934 212.8379" transform="matrix(0.955,0,0,0.955,35.3333,9.5495)"/><path stroke="none" d="M934 220.8379 L939 208.8379 L934 211.8379 L929 208.8379 Z" transform="matrix(0.955,0,0,0.955,35.3333,9.5495)"/></g></g><g id="y.edge.6"><g stroke-linecap="butt" stroke-miterlimit="1.45"><path fill="none" d="M733.5 161.9036 L733.5 270.8152" transform="matrix(0.955,0,0,0.955,35.3333,9.5495)"/><path stroke="none" d="M733.5 278.8152 L738.5 266.8152 L733.5 269.8152 L728.5 266.8152 Z" transform="matrix(0.955,0,0,0.955,35.3333,9.5495)"/></g></g><g id="y.edge.7"><g stroke-linecap="butt" stroke-miterlimit="1.45"><path fill="none" d="M724.5847 161.8848 L616.5 201.875 L616.5 270.8062" transform="matrix(0.955,0,0,0.955,35.3333,9.5495)"/><path stroke="none" d="M616.5 278.8062 L621.5 266.8062 L616.5 269.8062 L611.5 266.8062 Z" transform="matrix(0.955,0,0,0.955,35.3333,9.5495)"/></g></g><g id="y.edge.8"><g stroke-linecap="butt" stroke-miterlimit="1.45"><path fill="none" d="M715.695 161.8799 L493 201.875 L493 270.8062" transform="matrix(0.955,0,0,0.955,35.3333,9.5495)"/><path stroke="none" d="M493 278.8062 L498 266.8062 L493 269.8062 L488 266.8062 Z" transform="matrix(0.955,0,0,0.955,35.3333,9.5495)"/></g></g><g id="y.edge.9"><g stroke-linecap="butt" stroke-miterlimit="1.45"><path fill="none" d="M706.7906 161.8799 L356.5 201.875 L356.5 212.8379" transform="matrix(0.955,0,0,0.955,35.3333,9.5495)"/><path stroke="none" d="M356.5 220.8379 L361.5 208.8379 L356.5 211.8379 L351.5 208.8379 Z" transform="matrix(0.955,0,0,0.955,35.3333,9.5495)"/></g></g><g id="y.edge.10"><g stroke-linecap="butt" stroke-miterlimit="1.45"><path fill="none" d="M697.9111 161.8774 L152 201.875 L152 212.8379" transform="matrix(0.955,0,0,0.955,35.3333,9.5495)"/><path stroke="none" d="M152 220.8379 L157 208.8379 L152 211.8379 L147 208.8379 Z" transform="matrix(0.955,0,0,0.955,35.3333,9.5495)"/></g></g><g id="y.edge.11"><g stroke-linecap="butt" stroke-miterlimit="1.45"><path fill="none" d="M953.5217 262.832 L998 302.8125 L998 313.7754" transform="matrix(0.955,0,0,0.955,35.3333,9.5495)"/><path stroke="none" d="M998 321.7754 L1003 309.7754 L998 312.7754 L993 309.7754 Z" transform="matrix(0.955,0,0,0.955,35.3333,9.5495)"/></g></g><g id="y.edge.12"><g stroke-linecap="butt" stroke-miterlimit="1.45"><path fill="none" d="M914.4783 262.832 L870 302.8125 L870 313.7754" transform="matrix(0.955,0,0,0.955,35.3333,9.5495)"/><path stroke="none" d="M870 321.7754 L875 309.7754 L870 312.7754 L865 309.7754 Z" transform="matrix(0.955,0,0,0.955,35.3333,9.5495)"/></g></g><g id="y.edge.13"><g stroke-linecap="butt" stroke-miterlimit="1.45"><path fill="none" d="M356.5 262.8413 L356.5 313.7837" transform="matrix(0.955,0,0,0.955,35.3333,9.5495)"/><path stroke="none" d="M356.5 321.7837 L361.5 309.7837 L356.5 312.7837 L351.5 309.7837 Z" transform="matrix(0.955,0,0,0.955,35.3333,9.5495)"/></g></g><g id="y.edge.14"><g stroke-linecap="butt" stroke-miterlimit="1.45"><path fill="none" d="M168.7704 262.832 L210.5 302.8125 L210.5 313.7754" transform="matrix(0.955,0,0,0.955,35.3333,9.5495)"/><path stroke="none" d="M210.5 321.7754 L215.5 309.7754 L210.5 312.7754 L205.5 309.7754 Z" transform="matrix(0.955,0,0,0.955,35.3333,9.5495)"/></g></g><g id="y.edge.15"><g stroke-linecap="butt" stroke-miterlimit="1.45"><path fill="none" d="M135.2296 262.832 L93.5 302.8125 L93.5 313.7754" transform="matrix(0.955,0,0,0.955,35.3333,9.5495)"/><path stroke="none" d="M93.5 321.7754 L98.5 309.7754 L93.5 312.7754 L88.5 309.7754 Z" transform="matrix(0.955,0,0,0.955,35.3333,9.5495)"/></g></g></g></svg>