<svg xmlns="http://www.w3.org/2000/svg" xmlns:xlink="http://www.w3.org/1999/xlink" width="1063" height="2175" fill="#000" fill-opacity="1" stroke="#000" stroke-dasharray="none" stroke-dashoffset="0" stroke-linecap="square" stroke-linejoin="miter" stroke-miterlimit="10" stroke-opacity="1" stroke-width="1" color-interpolation="auto" color-rendering="auto" font-family="'Dialog'" font-size="12" font-style="normal" font-weight="normal" image-rendering="auto" shape-rendering="auto" text-rendering="auto"><g><defs id="defs1"><clipPath id="clipPath1" clipPathUnits="userSpaceOnUse"><path d="M0 0 L1063 0 L1063 2175 L0 2175 L0 0 Z"/></clipPath></defs><g id="y.node.0"><g fill="#F8ECC9" stroke="#F8ECC9" transform="matrix(0.9815,0,0,0.9815,9.8153,19.6307)"><rect width="611.75" height="619.688" x="261.125" y="1555.313" stroke="none"/></g><g id="bla"><g fill="#404040" stroke="#404040" transform="matrix(0.9815,0,0,0.9815,9.8153,19.6307)"><rect width="611.75" height="4" x="261.125" y="1555.313" stroke="none"/></g></g><g fill="#fff" stroke="#fff" transform="matrix(0.9815,0,0,0.9815,9.8153,19.6307)"><rect width="1" height="619.688" x="261.125" y="1555.313" stroke="none"/></g><g fill="#fff" stroke="#fff" transform="matrix(0.9815,0,0,0.9815,9.8153,19.6307)"><rect width="609.75" height="1" x="262.125" y="1555.313" stroke="none"/><rect width="610.75" height="1" x="262.125" y="2174" fill="#ADA58C" stroke="none"/><rect width="1" height="618.688" x="871.875" y="1555.313" fill="#ADA58C" stroke="none"/></g></g><g id="y.node.4"><g fill="#F8ECC9" stroke="#F8ECC9" transform="matrix(0.9815,0,0,0.9815,9.8153,19.6307)"><rect width="110" height="75.938" x="559.125" y="1734.219" stroke="none"/></g><g id="bla"><g fill="#404040" stroke="#404040" transform="matrix(0.9815,0,0,0.9815,9.8153,19.6307)"><rect width="110" height="4" x="559.125" y="1734.219" stroke="none"/></g></g><g fill="#fff" stroke="#fff" transform="matrix(0.9815,0,0,0.9815,9.8153,19.6307)"><rect width="1" height="75.938" x="559.125" y="1734.219" stroke="none"/><rect width="108" height="1" x="560.125" y="1734.219" stroke="none"/><rect width="109" height="1" x="560.125" y="1809.156" fill="#ADA58C" stroke="none"/><rect width="1" height="74.938" x="668.125" y="1734.219" fill="#ADA58C" stroke="none"/></g></g><g id="y.node.55"><g fill="#fff" stroke="#fff" transform="matrix(0.9815,0,0,0.9815,9.8153,19.6307)"><rect width="80" height="41" x="574" y="1753" stroke="none"/><rect width="80" height="41" x="574" y="1753" fill="none" stroke="#000"/></g><g id="bla"><g font-family="sans-serif"><text x="599.625" y="1771.357" stroke="none" transform="matrix(0.9815,0,0,0.9815,9.8153,19.6307)" xml:space="preserve">DR2</text><text x="581.125" y="1785.326" stroke="none" transform="matrix(0.9815,0,0,0.9815,9.8153,19.6307)" xml:space="preserve">(csigma.f)</text></g></g></g><g id="y.node.6"><g fill="#F8ECC9" stroke="#F8ECC9" transform="matrix(0.9815,0,0,0.9815,9.8153,19.6307)"><rect width="132" height="231.875" x="276.125" y="1656.25" stroke="none"/></g><g id="bla"><g fill="#404040" stroke="#404040" transform="matrix(0.9815,0,0,0.9815,9.8153,19.6307)"><rect width="132" height="4" x="276.125" y="1656.25" stroke="none"/></g></g><g fill="#fff" stroke="#fff" transform="matrix(0.9815,0,0,0.9815,9.8153,19.6307)"><rect width="1" height="231.875" x="276.125" y="1656.25" stroke="none"/><rect width="130" height="1" x="277.125" y="1656.25" stroke="none"/><rect width="131" height="1" x="277.125" y="1887.125" fill="#ADA58C" stroke="none"/><rect width="1" height="230.875" x="407.125" y="1656.25" fill="#ADA58C" stroke="none"/></g></g><g id="y.node.52"><g fill="#F8ECC9" stroke="#F8ECC9" transform="matrix(0.9815,0,0,0.9815,9.8153,19.6307)"><rect width="102" height="75.938" x="291.125" y="1797.188" stroke="none"/></g><g id="bla"><g fill="#404040" stroke="#404040" transform="matrix(0.9815,0,0,0.9815,9.8153,19.6307)"><rect width="102" height="4" x="291.125" y="1797.188" stroke="none"/></g></g><g fill="#fff" stroke="#fff" transform="matrix(0.9815,0,0,0.9815,9.8153,19.6307)"><rect width="1" height="75.938" x="291.125" y="1797.188" stroke="none"/><rect width="100" height="1" x="292.125" y="1797.188" stroke="none"/><rect width="101" height="1" x="292.125" y="1872.125" fill="#ADA58C" stroke="none"/><rect width="1" height="74.938" x="392.125" y="1797.188" fill="#ADA58C" stroke="none"/></g></g><g id="y.node.54"><g fill="#fff" stroke="#fff" transform="matrix(0.9815,0,0,0.9815,9.8153,19.6307)"><rect width="72" height="41" x="306" y="1816" stroke="none"/><rect width="72" height="41" x="306" y="1816" fill="none" stroke="#000"/></g><g id="bla"><g font-family="sans-serif"><text x="318.125" y="1834.326" stroke="none" transform="matrix(0.9815,0,0,0.9815,9.8153,19.6307)" xml:space="preserve">QSORTI</text><text x="313.125" y="1848.295" stroke="none" transform="matrix(0.9815,0,0,0.9815,9.8153,19.6307)" xml:space="preserve">(qsorti.f)</text></g></g></g><g id="y.node.53"><g fill="#fff" stroke="#fff" transform="matrix(0.9815,0,0,0.9815,9.8153,19.6307)"><rect width="79" height="41" x="302" y="1715" stroke="none"/><rect width="79" height="41" x="302" y="1715" fill="none" stroke="#000"/></g><g id="bla"><g font-family="sans-serif"><text x="314.625" y="1733.389" stroke="none" transform="matrix(0.9815,0,0,0.9815,9.8153,19.6307)" xml:space="preserve">FNDSNG</text><text x="309.625" y="1747.357" stroke="none" transform="matrix(0.9815,0,0,0.9815,9.8153,19.6307)" xml:space="preserve">(fndsng.f)</text></g></g></g><g id="y.node.2"><g fill="#F8ECC9" stroke="#F8ECC9" transform="matrix(0.9815,0,0,0.9815,9.8153,19.6307)"><rect width="110" height="115.938" x="429.125" y="1714.219" stroke="none"/></g><g id="bla"><g fill="#404040" stroke="#404040" transform="matrix(0.9815,0,0,0.9815,9.8153,19.6307)"><rect width="110" height="4" x="429.125" y="1714.219" stroke="none"/></g></g><g fill="#fff" stroke="#fff" transform="matrix(0.9815,0,0,0.9815,9.8153,19.6307)"><rect width="1" height="115.938" x="429.125" y="1714.219" stroke="none"/><rect width="108" height="1" x="430.125" y="1714.219" stroke="none"/><rect width="109" height="1" x="430.125" y="1829.156" fill="#ADA58C" stroke="none"/><rect width="1" height="114.938" x="538.125" y="1714.219" fill="#ADA58C" stroke="none"/></g></g><g id="y.node.50"><g fill="#fff" stroke="#fff" transform="matrix(0.9815,0,0,0.9815,9.8153,19.6307)"><rect width="80" height="41" x="444" y="1773" stroke="none"/><rect width="80" height="41" x="444" y="1773" fill="none" stroke="#000"/></g><g id="bla"><g font-family="sans-serif"><text x="458.125" y="1791.357" stroke="none" transform="matrix(0.9815,0,0,0.9815,9.8153,19.6307)" xml:space="preserve">CGRATR</text><text x="451.125" y="1805.326" stroke="none" transform="matrix(0.9815,0,0,0.9815,9.8153,19.6307)" xml:space="preserve">(csigma.f)</text></g></g></g><g id="y.node.3"><g fill="#F8ECC9" stroke="#F8ECC9" transform="matrix(0.9815,0,0,0.9815,9.8153,19.6307)"><rect width="170.75" height="231.875" x="687.125" y="1928.125" stroke="none"/></g><g id="bla"><g fill="#404040" stroke="#404040" transform="matrix(0.9815,0,0,0.9815,9.8153,19.6307)"><rect width="170.75" height="4" x="687.125" y="1928.125" stroke="none"/></g></g><g fill="#fff" stroke="#fff" transform="matrix(0.9815,0,0,0.9815,9.8153,19.6307)"><rect width="1" height="231.875" x="687.125" y="1928.125" stroke="none"/><rect width="168.75" height="1" x="688.125" y="1928.125" stroke="none"/><rect width="169.75" height="1" x="688.125" y="2159" fill="#ADA58C" stroke="none"/><rect width="1" height="230.875" x="856.875" y="1928.125" fill="#ADA58C" stroke="none"/></g></g><g id="y.node.36"><g fill="#F8ECC9" stroke="#F8ECC9" transform="matrix(0.9815,0,0,0.9815,9.8153,19.6307)"><rect width="110" height="115.938" x="702.125" y="2029.063" stroke="none"/></g><g id="bla"><g fill="#404040" stroke="#404040" transform="matrix(0.9815,0,0,0.9815,9.8153,19.6307)"><rect width="110" height="4" x="702.125" y="2029.063" stroke="none"/></g></g><g fill="#fff" stroke="#fff" transform="matrix(0.9815,0,0,0.9815,9.8153,19.6307)"><rect width="1" height="115.938" x="702.125" y="2029.063" stroke="none"/><rect width="108" height="1" x="703.125" y="2029.063" stroke="none"/><rect width="109" height="1" x="703.125" y="2144" fill="#ADA58C" stroke="none"/><rect width="1" height="114.938" x="811.125" y="2029.063" fill="#ADA58C" stroke="none"/></g></g><g id="y.node.38"><g fill="#fff" stroke="#fff" transform="matrix(0.9815,0,0,0.9815,9.8153,19.6307)"><rect width="80" height="41" x="717" y="2088" stroke="none"/><rect width="80" height="41" x="717" y="2088" fill="none" stroke="#000"/></g><g id="bla"><g font-family="sans-serif"><text x="747.125" y="2106.201" stroke="none" transform="matrix(0.9815,0,0,0.9815,9.8153,19.6307)" xml:space="preserve">FQ</text><text x="724.125" y="2120.17" stroke="none" transform="matrix(0.9815,0,0,0.9815,9.8153,19.6307)" xml:space="preserve">(csigma.f)</text></g></g></g><g id="y.node.37"><g fill="#fff" stroke="#fff" transform="matrix(0.9815,0,0,0.9815,9.8153,19.6307)"><rect width="80" height="41" x="742" y="1947" stroke="none"/><rect width="80" height="41" x="742" y="1947" fill="none" stroke="#000"/></g><g id="bla"><g font-family="sans-serif"><text x="767.875" y="1965.264" stroke="none" transform="matrix(0.9815,0,0,0.9815,9.8153,19.6307)" xml:space="preserve">DR1</text><text x="749.375" y="1979.232" stroke="none" transform="matrix(0.9815,0,0,0.9815,9.8153,19.6307)" xml:space="preserve">(csigma.f)</text></g></g></g><g id="y.node.5"><g fill="#F8ECC9" stroke="#F8ECC9" transform="matrix(0.9815,0,0,0.9815,9.8153,19.6307)"><rect width="110" height="75.938" x="689.125" y="1734.219" stroke="none"/></g><g id="bla"><g fill="#404040" stroke="#404040" transform="matrix(0.9815,0,0,0.9815,9.8153,19.6307)"><rect width="110" height="4" x="689.125" y="1734.219" stroke="none"/></g></g><g fill="#fff" stroke="#fff" transform="matrix(0.9815,0,0,0.9815,9.8153,19.6307)"><rect width="1" height="75.938" x="689.125" y="1734.219" stroke="none"/><rect width="108" height="1" x="690.125" y="1734.219" stroke="none"/><rect width="109" height="1" x="690.125" y="1809.156" fill="#ADA58C" stroke="none"/><rect width="1" height="74.938" x="798.125" y="1734.219" fill="#ADA58C" stroke="none"/></g></g><g id="y.node.17"><g fill="#fff" stroke="#fff" transform="matrix(0.9815,0,0,0.9815,9.8153,19.6307)"><rect width="80" height="41" x="704" y="1753" stroke="none"/><rect width="80" height="41" x="704" y="1753" fill="none" stroke="#000"/></g><g id="bla"><g font-family="sans-serif"><text x="729.625" y="1771.357" stroke="none" transform="matrix(0.9815,0,0,0.9815,9.8153,19.6307)" xml:space="preserve">DR3</text><text x="711.125" y="1785.326" stroke="none" transform="matrix(0.9815,0,0,0.9815,9.8153,19.6307)" xml:space="preserve">(csigma.f)</text></g></g></g><g id="y.node.1"><g fill="#fff" stroke="#fff" transform="matrix(0.9815,0,0,0.9815,9.8153,19.6307)"><rect width="80" height="41" x="581" y="1574" stroke="none"/><rect width="80" height="41" x="581" y="1574" fill="none" stroke="#000"/></g><g id="bla"><g font-family="sans-serif"><text x="596.263" y="1592.451" stroke="none" transform="matrix(0.9815,0,0,0.9815,9.8153,19.6307)" xml:space="preserve">DSIGMA</text><text x="588.763" y="1606.42" stroke="none" transform="matrix(0.9815,0,0,0.9815,9.8153,19.6307)" xml:space="preserve">(csigma.f)</text></g></g></g><g id="y.node.7"><g fill="#F8ECC9" stroke="#F8ECC9" transform="matrix(0.9815,0,0,0.9815,9.8153,19.6307)"><rect width="601.5" height="739.688" x="291.607" y="775.625" stroke="none"/></g><g id="bla"><g fill="#404040" stroke="#404040" transform="matrix(0.9815,0,0,0.9815,9.8153,19.6307)"><rect width="601.5" height="4" x="291.607" y="775.625" stroke="none"/></g></g><g fill="#fff" stroke="#fff" transform="matrix(0.9815,0,0,0.9815,9.8153,19.6307)"><rect width="1" height="739.688" x="291.607" y="775.625" stroke="none"/><rect width="599.5" height="1" x="292.607" y="775.625" stroke="none"/><rect width="600.5" height="1" x="292.607" y="1514.313" fill="#ADA58C" stroke="none"/><rect width="1" height="738.688" x="892.107" y="775.625" fill="#ADA58C" stroke="none"/></g></g><g id="y.node.10"><g fill="#F8ECC9" stroke="#F8ECC9" transform="matrix(0.9815,0,0,0.9815,9.8153,19.6307)"><rect width="96" height="155.938" x="516.375" y="876.563" stroke="none"/></g><g id="bla"><g fill="#404040" stroke="#404040" transform="matrix(0.9815,0,0,0.9815,9.8153,19.6307)"><rect width="96" height="4" x="516.375" y="876.563" stroke="none"/></g></g><g fill="#fff" stroke="#fff" transform="matrix(0.9815,0,0,0.9815,9.8153,19.6307)"><rect width="1" height="155.938" x="516.375" y="876.563" stroke="none"/><rect width="94" height="1" x="517.375" y="876.563" stroke="none"/><rect width="95" height="1" x="517.375" y="1031.5" fill="#ADA58C" stroke="none"/><rect width="1" height="154.938" x="611.375" y="876.563" fill="#ADA58C" stroke="none"/></g></g><g id="y.node.51"><g fill="#fff" stroke="#fff" transform="matrix(0.9815,0,0,0.9815,9.8153,19.6307)"><rect width="66" height="41" x="531" y="935" stroke="none"/><rect width="66" height="41" x="531" y="935" fill="none" stroke="#000"/></g><g id="bla"><g font-family="sans-serif"><text x="543.875" y="953.701" stroke="none" transform="matrix(0.9815,0,0,0.9815,9.8153,19.6307)" xml:space="preserve">CSIGZ</text><text x="538.375" y="967.67" stroke="none" transform="matrix(0.9815,0,0,0.9815,9.8153,19.6307)" xml:space="preserve">(csigz.f)</text></g></g></g><g id="y.node.9"><g fill="#F8ECC9" stroke="#F8ECC9" transform="matrix(0.9815,0,0,0.9815,9.8153,19.6307)"><rect width="571.5" height="427.813" x="306.607" y="1072.5" stroke="none"/></g><g id="bla"><g fill="#404040" stroke="#404040" transform="matrix(0.9815,0,0,0.9815,9.8153,19.6307)"><rect width="571.5" height="4" x="306.607" y="1072.5" stroke="none"/></g></g><g fill="#fff" stroke="#fff" transform="matrix(0.9815,0,0,0.9815,9.8153,19.6307)"><rect width="1" height="427.813" x="306.607" y="1072.5" stroke="none"/><rect width="569.5" height="1" x="307.607" y="1072.5" stroke="none"/><rect width="570.5" height="1" x="307.607" y="1499.313" fill="#ADA58C" stroke="none"/><rect width="1" height="426.813" x="877.107" y="1072.5" fill="#ADA58C" stroke="none"/></g></g><g id="y.node.40"><g fill="#F8ECC9" stroke="#F8ECC9" transform="matrix(0.9815,0,0,0.9815,9.8153,19.6307)"><rect width="110" height="115.938" x="753.107" y="1271.406" stroke="none"/></g><g id="bla"><g fill="#404040" stroke="#404040" transform="matrix(0.9815,0,0,0.9815,9.8153,19.6307)"><rect width="110" height="4" x="753.107" y="1271.406" stroke="none"/></g></g><g fill="#fff" stroke="#fff" transform="matrix(0.9815,0,0,0.9815,9.8153,19.6307)"><rect width="1" height="115.938" x="753.107" y="1271.406" stroke="none"/><rect width="108" height="1" x="754.107" y="1271.406" stroke="none"/><rect width="109" height="1" x="754.107" y="1386.344" fill="#ADA58C" stroke="none"/><rect width="1" height="114.938" x="862.107" y="1271.406" fill="#ADA58C" stroke="none"/></g></g><g id="y.node.49"><g fill="#fff" stroke="#fff" transform="matrix(0.9815,0,0,0.9815,9.8153,19.6307)"><rect width="80" height="41" x="768" y="1330" stroke="none"/><rect width="80" height="41" x="768" y="1330" fill="none" stroke="#000"/></g><g id="bla"><g font-family="sans-serif"><text x="786.607" y="1348.545" stroke="none" transform="matrix(0.9815,0,0,0.9815,9.8153,19.6307)" xml:space="preserve">HFEXC</text><text x="775.107" y="1362.514" stroke="none" transform="matrix(0.9815,0,0,0.9815,9.8153,19.6307)" xml:space="preserve">(csigma.f)</text></g></g></g><g id="y.node.39"><g fill="#F8ECC9" stroke="#F8ECC9" transform="matrix(0.9815,0,0,0.9815,9.8153,19.6307)"><rect width="411.5" height="231.875" x="321.607" y="1213.438" stroke="none"/></g><g id="bla"><g fill="#404040" stroke="#404040" transform="matrix(0.9815,0,0,0.9815,9.8153,19.6307)"><rect width="411.5" height="4" x="321.607" y="1213.438" stroke="none"/></g></g><g fill="#fff" stroke="#fff" transform="matrix(0.9815,0,0,0.9815,9.8153,19.6307)"><rect width="1" height="231.875" x="321.607" y="1213.438" stroke="none"/><rect width="409.5" height="1" x="322.607" y="1213.438" stroke="none"/><rect width="410.5" height="1" x="322.607" y="1444.313" fill="#ADA58C" stroke="none"/><rect width="1" height="230.875" x="732.107" y="1213.438" fill="#ADA58C" stroke="none"/></g></g><g id="y.node.42"><g fill="#F8ECC9" stroke="#F8ECC9" transform="matrix(0.9815,0,0,0.9815,9.8153,19.6307)"><rect width="110" height="75.938" x="347.107" y="1354.375" stroke="none"/></g><g id="bla"><g fill="#404040" stroke="#404040" transform="matrix(0.9815,0,0,0.9815,9.8153,19.6307)"><rect width="110" height="4" x="347.107" y="1354.375" stroke="none"/></g></g><g fill="#fff" stroke="#fff" transform="matrix(0.9815,0,0,0.9815,9.8153,19.6307)"><rect width="1" height="75.938" x="347.107" y="1354.375" stroke="none"/><rect width="108" height="1" x="348.107" y="1354.375" stroke="none"/><rect width="109" height="1" x="348.107" y="1429.313" fill="#ADA58C" stroke="none"/><rect width="1" height="74.938" x="456.107" y="1354.375" fill="#ADA58C" stroke="none"/></g></g><g id="y.node.43"><g fill="#fff" stroke="#fff" transform="matrix(0.9815,0,0,0.9815,9.8153,19.6307)"><rect width="80" height="41" x="362" y="1373" stroke="none"/><rect width="80" height="41" x="362" y="1373" fill="none" stroke="#000"/></g><g id="bla"><g font-family="sans-serif"><text x="392.107" y="1391.514" stroke="none" transform="matrix(0.9815,0,0,0.9815,9.8153,19.6307)" xml:space="preserve">R3</text><text x="369.107" y="1405.482" stroke="none" transform="matrix(0.9815,0,0,0.9815,9.8153,19.6307)" xml:space="preserve">(csigma.f)</text></g></g></g><g id="y.node.44"><g fill="#F8ECC9" stroke="#F8ECC9" transform="matrix(0.9815,0,0,0.9815,9.8153,19.6307)"><rect width="110" height="75.938" x="478.107" y="1354.375" stroke="none"/></g><g id="bla"><g fill="#404040" stroke="#404040" transform="matrix(0.9815,0,0,0.9815,9.8153,19.6307)"><rect width="110" height="4" x="478.107" y="1354.375" stroke="none"/></g></g><g fill="#fff" stroke="#fff" transform="matrix(0.9815,0,0,0.9815,9.8153,19.6307)"><rect width="1" height="75.938" x="478.107" y="1354.375" stroke="none"/><rect width="108" height="1" x="479.107" y="1354.375" stroke="none"/><rect width="109" height="1" x="479.107" y="1429.313" fill="#ADA58C" stroke="none"/><rect width="1" height="74.938" x="587.107" y="1354.375" fill="#ADA58C" stroke="none"/></g></g><g id="y.node.45"><g fill="#fff" stroke="#fff" transform="matrix(0.9815,0,0,0.9815,9.8153,19.6307)"><rect width="80" height="41" x="493" y="1373" stroke="none"/><rect width="80" height="41" x="493" y="1373" fill="none" stroke="#000"/></g><g id="bla"><g font-family="sans-serif"><text x="523.107" y="1391.514" stroke="none" transform="matrix(0.9815,0,0,0.9815,9.8153,19.6307)" xml:space="preserve">R2</text><text x="500.107" y="1405.482" stroke="none" transform="matrix(0.9815,0,0,0.9815,9.8153,19.6307)" xml:space="preserve">(csigma.f)</text></g></g></g><g id="y.node.46"><g fill="#F8ECC9" stroke="#F8ECC9" transform="matrix(0.9815,0,0,0.9815,9.8153,19.6307)"><rect width="110" height="75.938" x="608.107" y="1354.375" stroke="none"/></g><g id="bla"><g fill="#404040" stroke="#404040" transform="matrix(0.9815,0,0,0.9815,9.8153,19.6307)"><rect width="110" height="4" x="608.107" y="1354.375" stroke="none"/></g></g><g fill="#fff" stroke="#fff" transform="matrix(0.9815,0,0,0.9815,9.8153,19.6307)"><rect width="1" height="75.938" x="608.107" y="1354.375" stroke="none"/><rect width="108" height="1" x="609.107" y="1354.375" stroke="none"/><rect width="109" height="1" x="609.107" y="1429.313" fill="#ADA58C" stroke="none"/><rect width="1" height="74.938" x="717.107" y="1354.375" fill="#ADA58C" stroke="none"/></g></g><g id="y.node.47"><g fill="#fff" stroke="#fff" transform="matrix(0.9815,0,0,0.9815,9.8153,19.6307)"><rect width="80" height="41" x="623" y="1373" stroke="none"/><rect width="80" height="41" x="623" y="1373" fill="none" stroke="#000"/></g><g id="bla"><g font-family="sans-serif"><text x="653.107" y="1391.514" stroke="none" transform="matrix(0.9815,0,0,0.9815,9.8153,19.6307)" xml:space="preserve">R1</text><text x="630.107" y="1405.482" stroke="none" transform="matrix(0.9815,0,0,0.9815,9.8153,19.6307)" xml:space="preserve">(csigma.f)</text></g></g></g><g id="y.node.48"><g fill="#fff" stroke="#fff" transform="matrix(0.9815,0,0,0.9815,9.8153,19.6307)"><rect width="80" height="41" x="427" y="1272" stroke="none"/><rect width="80" height="41" x="427" y="1272" fill="none" stroke="#000"/></g><g id="bla"><g font-family="sans-serif"><text x="442.607" y="1290.576" stroke="none" transform="matrix(0.9815,0,0,0.9815,9.8153,19.6307)" xml:space="preserve">SIGMA1</text><text x="434.607" y="1304.545" stroke="none" transform="matrix(0.9815,0,0,0.9815,9.8153,19.6307)" xml:space="preserve">(csigma.f)</text></g></g></g><g id="y.node.41"><g fill="#fff" stroke="#fff" transform="matrix(0.9815,0,0,0.9815,9.8153,19.6307)"><rect width="80" height="41" x="614" y="1131" stroke="none"/><rect width="80" height="41" x="614" y="1131" fill="none" stroke="#000"/></g><g id="bla"><g font-family="sans-serif"><text x="629.375" y="1149.639" stroke="none" transform="matrix(0.9815,0,0,0.9815,9.8153,19.6307)" xml:space="preserve">CSIGMA</text><text x="621.375" y="1163.607" stroke="none" transform="matrix(0.9815,0,0,0.9815,9.8153,19.6307)" xml:space="preserve">(csigma.f)</text></g></g></g><g id="y.node.8"><g fill="#fff" stroke="#fff" transform="matrix(0.9815,0,0,0.9815,9.8153,19.6307)"><rect width="70" height="41" x="633" y="794" stroke="none"/><rect width="70" height="41" x="633" y="794" fill="none" stroke="#000"/></g><g id="bla"><g font-family="sans-serif"><text x="649.375" y="812.764" stroke="none" transform="matrix(0.9815,0,0,0.9815,9.8153,19.6307)" xml:space="preserve">MPSE</text><text x="640.375" y="826.732" stroke="none" transform="matrix(0.9815,0,0,0.9815,9.8153,19.6307)" xml:space="preserve">(mpse.f)</text></g></g></g><g id="y.node.11"><g fill="#F8ECC9" stroke="#F8ECC9" transform="matrix(0.9815,0,0,0.9815,9.8153,19.6307)"><rect width="124" height="191.875" x="938.107" y="0" stroke="none"/></g><g id="bla"><g fill="#404040" stroke="#404040" transform="matrix(0.9815,0,0,0.9815,9.8153,19.6307)"><rect width="124" height="4" x="938.107" y="0" stroke="none"/></g></g><g fill="#fff" stroke="#fff" transform="matrix(0.9815,0,0,0.9815,9.8153,19.6307)"><rect width="1" height="191.875" x="938.107" y="0" stroke="none"/><rect width="122" height="1" x="939.107" y="0" stroke="none"/><rect width="123" height="1" x="939.107" y="190.875" fill="#ADA58C" stroke="none"/><rect width="1" height="190.875" x="1061.107" y="0" fill="#ADA58C" stroke="none"/></g></g><g id="y.node.13"><g fill="#F8ECC9" stroke="#F8ECC9" transform="matrix(0.9815,0,0,0.9815,9.8153,19.6307)"><rect width="94" height="75.938" x="953.107" y="100.938" stroke="none"/></g><g id="bla"><g fill="#404040" stroke="#404040" transform="matrix(0.9815,0,0,0.9815,9.8153,19.6307)"><rect width="94" height="4" x="953.107" y="100.938" stroke="none"/></g></g><g fill="#fff" stroke="#fff" transform="matrix(0.9815,0,0,0.9815,9.8153,19.6307)"><rect width="1" height="75.938" x="953.107" y="100.938" stroke="none"/><rect width="92" height="1" x="954.107" y="100.938" stroke="none"/><rect width="93" height="1" x="954.107" y="175.875" fill="#ADA58C" stroke="none"/><rect width="1" height="74.938" x="1046.107" y="100.938" fill="#ADA58C" stroke="none"/></g></g><g id="y.node.35"><g fill="#fff" stroke="#fff" transform="matrix(0.9815,0,0,0.9815,9.8153,19.6307)"><rect width="64" height="41" x="968" y="119" stroke="none"/><rect width="64" height="41" x="968" y="119" fill="none" stroke="#000"/></g><g id="bla"><g font-family="sans-serif"><text x="975.107" y="138.076" stroke="none" transform="matrix(0.9815,0,0,0.9815,9.8153,19.6307)" xml:space="preserve">FLARGE</text><text x="978.107" y="152.045" stroke="none" transform="matrix(0.9815,0,0,0.9815,9.8153,19.6307)" xml:space="preserve">(vbh.f)</text></g></g></g><g id="y.node.12"><g fill="#fff" stroke="#fff" transform="matrix(0.9815,0,0,0.9815,9.8153,19.6307)"><rect width="58" height="41" x="971" y="19" stroke="none"/><rect width="58" height="41" x="971" y="19" fill="none" stroke="#000"/></g><g id="bla"><g font-family="sans-serif"><text x="985.607" y="37.139" stroke="none" transform="matrix(0.9815,0,0,0.9815,9.8153,19.6307)" xml:space="preserve">VBH</text><text x="978.107" y="51.107" stroke="none" transform="matrix(0.9815,0,0,0.9815,9.8153,19.6307)" xml:space="preserve">(vbh.f)</text></g></g></g><g id="y.node.14"><g fill="#F8ECC9" stroke="#F8ECC9" transform="matrix(0.9815,0,0,0.9815,9.8153,19.6307)"><rect width="629.458" height="735.625" x="0" y="0" stroke="none"/></g><g id="bla"><g fill="#404040" stroke="#404040" transform="matrix(0.9815,0,0,0.9815,9.8153,19.6307)"><rect width="629.458" height="4" x="0" y="0" stroke="none"/></g></g><g fill="#fff" stroke="#fff" transform="matrix(0.9815,0,0,0.9815,9.8153,19.6307)"><rect width="1" height="735.625" x="0" y="0" stroke="none"/><rect width="627.458" height="1" x="1" y="0" stroke="none"/><rect width="628.458" height="1" x="1" y="734.625" fill="#ADA58C" stroke="none"/><rect width="1" height="734.625" x="628.458" y="0" fill="#ADA58C" stroke="none"/></g></g><g id="y.node.16"><g fill="#F8ECC9" stroke="#F8ECC9" transform="matrix(0.9815,0,0,0.9815,9.8153,19.6307)"><rect width="560.125" height="619.688" x="15" y="100.938" stroke="none"/></g><g id="bla"><g fill="#404040" stroke="#404040" transform="matrix(0.9815,0,0,0.9815,9.8153,19.6307)"><rect width="560.125" height="4" x="15" y="100.938" stroke="none"/></g></g><g fill="#fff" stroke="#fff" transform="matrix(0.9815,0,0,0.9815,9.8153,19.6307)"><rect width="1" height="619.688" x="15" y="100.938" stroke="none"/><rect width="558.125" height="1" x="16" y="100.938" stroke="none"/><rect width="559.125" height="1" x="16" y="719.625" fill="#ADA58C" stroke="none"/><rect width="1" height="618.688" x="574.125" y="100.938" fill="#ADA58C" stroke="none"/></g></g><g id="y.node.21"><g fill="#F8ECC9" stroke="#F8ECC9" transform="matrix(0.9815,0,0,0.9815,9.8153,19.6307)"><rect width="90" height="75.938" x="30" y="259.844" stroke="none"/></g><g id="bla"><g fill="#404040" stroke="#404040" transform="matrix(0.9815,0,0,0.9815,9.8153,19.6307)"><rect width="90" height="4" x="30" y="259.844" stroke="none"/></g></g><g fill="#fff" stroke="#fff" transform="matrix(0.9815,0,0,0.9815,9.8153,19.6307)"><rect width="1" height="75.938" x="30" y="259.844" stroke="none"/><rect width="88" height="1" x="31" y="259.844" stroke="none"/><rect width="89" height="1" x="31" y="334.781" fill="#ADA58C" stroke="none"/><rect width="1" height="74.938" x="119" y="259.844" fill="#ADA58C" stroke="none"/></g></g><g id="y.node.34"><g fill="#fff" stroke="#fff" transform="matrix(0.9815,0,0,0.9815,9.8153,19.6307)"><rect width="60" height="41" x="45" y="278" stroke="none"/><rect width="60" height="41" x="45" y="278" fill="none" stroke="#000"/></g><g id="bla"><g font-family="sans-serif"><text x="60.5" y="296.982" stroke="none" transform="matrix(0.9815,0,0,0.9815,9.8153,19.6307)" xml:space="preserve">EDP</text><text x="52" y="310.951" stroke="none" transform="matrix(0.9815,0,0,0.9815,9.8153,19.6307)" xml:space="preserve">(edp.f)</text></g></g></g><g id="y.node.20"><g fill="#F8ECC9" stroke="#F8ECC9" transform="matrix(0.9815,0,0,0.9815,9.8153,19.6307)"><rect width="352" height="271.875" x="208.125" y="433.75" stroke="none"/></g><g id="bla"><g fill="#404040" stroke="#404040" transform="matrix(0.9815,0,0,0.9815,9.8153,19.6307)"><rect width="352" height="4" x="208.125" y="433.75" stroke="none"/></g></g><g fill="#fff" stroke="#fff" transform="matrix(0.9815,0,0,0.9815,9.8153,19.6307)"><rect width="1" height="271.875" x="208.125" y="433.75" stroke="none"/><rect width="350" height="1" x="209.125" y="433.75" stroke="none"/><rect width="351" height="1" x="209.125" y="704.625" fill="#ADA58C" stroke="none"/><rect width="1" height="270.875" x="559.125" y="433.75" fill="#ADA58C" stroke="none"/></g></g><g id="y.node.27"><g fill="#F8ECC9" stroke="#F8ECC9" transform="matrix(0.9815,0,0,0.9815,9.8153,19.6307)"><rect width="101" height="115.938" x="223.125" y="574.688" stroke="none"/></g><g id="bla"><g fill="#404040" stroke="#404040" transform="matrix(0.9815,0,0,0.9815,9.8153,19.6307)"><rect width="101" height="4" x="223.125" y="574.688" stroke="none"/></g></g><g fill="#fff" stroke="#fff" transform="matrix(0.9815,0,0,0.9815,9.8153,19.6307)"><rect width="1" height="115.938" x="223.125" y="574.688" stroke="none"/><rect width="99" height="1" x="224.125" y="574.688" stroke="none"/><rect width="100" height="1" x="224.125" y="689.625" fill="#ADA58C" stroke="none"/><rect width="1" height="114.938" x="323.125" y="574.688" fill="#ADA58C" stroke="none"/></g></g><g id="y.node.28"><g fill="#fff" stroke="#fff" transform="matrix(0.9815,0,0,0.9815,9.8153,19.6307)"><rect width="71" height="41" x="238" y="633" stroke="none"/><rect width="71" height="41" x="238" y="633" fill="none" stroke="#000"/></g><g id="bla"><g font-family="sans-serif"><text x="252.125" y="651.826" stroke="none" transform="matrix(0.9815,0,0,0.9815,9.8153,19.6307)" xml:space="preserve">QUINN</text><text x="245.125" y="665.795" stroke="none" transform="matrix(0.9815,0,0,0.9815,9.8153,19.6307)" xml:space="preserve">(quinn.f)</text></g></g></g><g id="y.node.29"><g fill="#F8ECC9" stroke="#F8ECC9" transform="matrix(0.9815,0,0,0.9815,9.8153,19.6307)"><rect width="82" height="75.938" x="344.125" y="594.688" stroke="none"/></g><g id="bla"><g fill="#404040" stroke="#404040" transform="matrix(0.9815,0,0,0.9815,9.8153,19.6307)"><rect width="82" height="4" x="344.125" y="594.688" stroke="none"/></g></g><g fill="#fff" stroke="#fff" transform="matrix(0.9815,0,0,0.9815,9.8153,19.6307)"><rect width="1" height="75.938" x="344.125" y="594.688" stroke="none"/><rect width="80" height="1" x="345.125" y="594.688" stroke="none"/><rect width="81" height="1" x="345.125" y="669.625" fill="#ADA58C" stroke="none"/><rect width="1" height="74.938" x="425.125" y="594.688" fill="#ADA58C" stroke="none"/></g></g><g id="y.node.30"><g fill="#fff" stroke="#fff" transform="matrix(0.9815,0,0,0.9815,9.8153,19.6307)"><rect width="52" height="41" x="359" y="613" stroke="none"/><rect width="52" height="41" x="359" y="613" fill="none" stroke="#000"/></g><g id="bla"><g font-family="sans-serif"><text x="371.625" y="631.826" stroke="none" transform="matrix(0.9815,0,0,0.9815,9.8153,19.6307)" xml:space="preserve">FFQ</text><text x="366.125" y="645.795" stroke="none" transform="matrix(0.9815,0,0,0.9815,9.8153,19.6307)" xml:space="preserve">(ffq.f)</text></g></g></g><g id="y.node.31"><g fill="#F8ECC9" stroke="#F8ECC9" transform="matrix(0.9815,0,0,0.9815,9.8153,19.6307)"><rect width="99" height="75.938" x="446.125" y="594.688" stroke="none"/></g><g id="bla"><g fill="#404040" stroke="#404040" transform="matrix(0.9815,0,0,0.9815,9.8153,19.6307)"><rect width="99" height="4" x="446.125" y="594.688" stroke="none"/></g></g><g fill="#fff" stroke="#fff" transform="matrix(0.9815,0,0,0.9815,9.8153,19.6307)"><rect width="1" height="75.938" x="446.125" y="594.688" stroke="none"/><rect width="97" height="1" x="447.125" y="594.688" stroke="none"/><rect width="98" height="1" x="447.125" y="669.625" fill="#ADA58C" stroke="none"/><rect width="1" height="74.938" x="544.125" y="594.688" fill="#ADA58C" stroke="none"/></g></g><g id="y.node.32"><g fill="#fff" stroke="#fff" transform="matrix(0.9815,0,0,0.9815,9.8153,19.6307)"><rect width="69" height="41" x="461" y="613" stroke="none"/><rect width="69" height="41" x="461" y="613" fill="none" stroke="#000"/></g><g id="bla"><g font-family="sans-serif"><text x="475.625" y="631.826" stroke="none" transform="matrix(0.9815,0,0,0.9815,9.8153,19.6307)" xml:space="preserve">CUBIC</text><text x="468.125" y="645.795" stroke="none" transform="matrix(0.9815,0,0,0.9815,9.8153,19.6307)" xml:space="preserve">(cubic.f)</text></g></g></g><g id="y.node.33"><g fill="#fff" stroke="#fff" transform="matrix(0.9815,0,0,0.9815,9.8153,19.6307)"><rect width="61" height="41" x="357" y="492" stroke="none"/><rect width="61" height="41" x="357" y="492" fill="none" stroke="#000"/></g><g id="bla"><g font-family="sans-serif"><text x="371.688" y="510.889" stroke="none" transform="matrix(0.9815,0,0,0.9815,9.8153,19.6307)" xml:space="preserve">IMHL</text><text x="364.188" y="524.857" stroke="none" transform="matrix(0.9815,0,0,0.9815,9.8153,19.6307)" xml:space="preserve">(imhl.f)</text></g></g></g><g id="y.node.19"><g fill="#F8ECC9" stroke="#F8ECC9" transform="matrix(0.9815,0,0,0.9815,9.8153,19.6307)"><rect width="82" height="75.938" x="302.75" y="259.844" stroke="none"/></g><g id="bla"><g fill="#404040" stroke="#404040" transform="matrix(0.9815,0,0,0.9815,9.8153,19.6307)"><rect width="82" height="4" x="302.75" y="259.844" stroke="none"/></g></g><g fill="#fff" stroke="#fff" transform="matrix(0.9815,0,0,0.9815,9.8153,19.6307)"><rect width="1" height="75.938" x="302.75" y="259.844" stroke="none"/><rect width="80" height="1" x="303.75" y="259.844" stroke="none"/><rect width="81" height="1" x="303.75" y="334.781" fill="#ADA58C" stroke="none"/><rect width="1" height="74.938" x="383.75" y="259.844" fill="#ADA58C" stroke="none"/></g></g><g id="y.node.26"><g fill="#fff" stroke="#fff" transform="matrix(0.9815,0,0,0.9815,9.8153,19.6307)"><rect width="52" height="41" x="317" y="278" stroke="none"/><rect width="52" height="41" x="317" y="278" fill="none" stroke="#000"/></g><g id="bla"><g font-family="sans-serif"><text x="330.25" y="296.982" stroke="none" transform="matrix(0.9815,0,0,0.9815,9.8153,19.6307)" xml:space="preserve">RHL</text><text x="324.75" y="310.951" stroke="none" transform="matrix(0.9815,0,0,0.9815,9.8153,19.6307)" xml:space="preserve">(rhl.f)</text></g></g></g><g id="y.node.18"><g fill="#F8ECC9" stroke="#F8ECC9" transform="matrix(0.9815,0,0,0.9815,9.8153,19.6307)"><rect width="142.75" height="191.875" x="140" y="201.875" stroke="none"/></g><g id="bla"><g fill="#404040" stroke="#404040" transform="matrix(0.9815,0,0,0.9815,9.8153,19.6307)"><rect width="142.75" height="4" x="140" y="201.875" stroke="none"/></g></g><g fill="#fff" stroke="#fff" transform="matrix(0.9815,0,0,0.9815,9.8153,19.6307)"><rect width="1" height="191.875" x="140" y="201.875" stroke="none"/><rect width="140.75" height="1" x="141" y="201.875" stroke="none"/><rect width="141.75" height="1" x="141" y="392.75" fill="#ADA58C" stroke="none"/><rect width="1" height="190.875" x="281.75" y="201.875" fill="#ADA58C" stroke="none"/></g></g><g id="y.node.23"><g fill="#F8ECC9" stroke="#F8ECC9" transform="matrix(0.9815,0,0,0.9815,9.8153,19.6307)"><rect width="98" height="75.938" x="155" y="302.813" stroke="none"/></g><g id="bla"><g fill="#404040" stroke="#404040" transform="matrix(0.9815,0,0,0.9815,9.8153,19.6307)"><rect width="98" height="4" x="155" y="302.813" stroke="none"/></g></g><g fill="#fff" stroke="#fff" transform="matrix(0.9815,0,0,0.9815,9.8153,19.6307)"><rect width="1" height="75.938" x="155" y="302.813" stroke="none"/><rect width="96" height="1" x="156" y="302.813" stroke="none"/><rect width="97" height="1" x="156" y="377.75" fill="#ADA58C" stroke="none"/><rect width="1" height="74.938" x="252" y="302.813" fill="#ADA58C" stroke="none"/></g></g><g id="y.node.24"><g fill="#fff" stroke="#fff" transform="matrix(0.9815,0,0,0.9815,9.8153,19.6307)"><rect width="68" height="41" x="170" y="321" stroke="none"/><rect width="68" height="41" x="170" y="321" fill="none" stroke="#000"/></g><g id="bla"><g font-family="sans-serif"><text x="178" y="339.951" stroke="none" transform="matrix(0.9815,0,0,0.9815,9.8153,19.6307)" xml:space="preserve">TERP2D</text><text x="177" y="353.92" stroke="none" transform="matrix(0.9815,0,0,0.9815,9.8153,19.6307)" xml:space="preserve">(rhlbp.f)</text></g></g></g><g id="y.node.25"><g fill="#fff" stroke="#fff" transform="matrix(0.9815,0,0,0.9815,9.8153,19.6307)"><rect width="68" height="41" x="199" y="220" stroke="none"/><rect width="68" height="41" x="199" y="220" fill="none" stroke="#000"/></g><g id="bla"><g font-family="sans-serif"><text x="212.25" y="239.014" stroke="none" transform="matrix(0.9815,0,0,0.9815,9.8153,19.6307)" xml:space="preserve">RHLBP</text><text x="206.75" y="252.982" stroke="none" transform="matrix(0.9815,0,0,0.9815,9.8153,19.6307)" xml:space="preserve">(rhlbp.f)</text></g></g></g><g id="y.node.22"><g fill="#fff" stroke="#fff" transform="matrix(0.9815,0,0,0.9815,9.8153,19.6307)"><rect width="70" height="41" x="253" y="119" stroke="none"/><rect width="70" height="41" x="253" y="119" fill="none" stroke="#000"/></g><g id="bla"><g font-family="sans-serif"><text x="267.75" y="138.076" stroke="none" transform="matrix(0.9815,0,0,0.9815,9.8153,19.6307)" xml:space="preserve">SIGMA</text><text x="260.75" y="152.045" stroke="none" transform="matrix(0.9815,0,0,0.9815,9.8153,19.6307)" xml:space="preserve">(xcpot.f)</text></g></g></g><g id="y.node.15"><g fill="#fff" stroke="#fff" transform="matrix(0.9815,0,0,0.9815,9.8153,19.6307)"><rect width="70" height="41" x="544" y="19" stroke="none"/><rect width="70" height="41" x="544" y="19" fill="none" stroke="#000"/></g><g id="bla"><g font-family="sans-serif"><text x="557.958" y="37.139" stroke="none" transform="matrix(0.9815,0,0,0.9815,9.8153,19.6307)" xml:space="preserve">XCPOT</text><text x="551.458" y="51.107" stroke="none" transform="matrix(0.9815,0,0,0.9815,9.8153,19.6307)" xml:space="preserve">(xcpot.f)</text></g></g></g><g id="y.edge.0"><g stroke-linecap="butt" stroke-miterlimit="1.45"><path fill="none" d="M547.8862 977.5391 L559.375 1017.5 L559.375 1032.5 L459.5357 1072.5 L459.5357 1173.4375 L462.6071 1232.4375 L450.4308 1264.9078" transform="matrix(0.9815,0,0,0.9815,9.8153,19.6307)"/><path stroke="none" d="M447.6218 1272.3984 L456.5169 1262.9181 L450.7819 1263.9714 L447.1536 1259.4069 Z" transform="matrix(0.9815,0,0,0.9815,9.8153,19.6307)"/></g></g><g id="y.edge.1"><g stroke-linecap="butt" stroke-miterlimit="1.45"><path fill="none" d="M1000.1071 60.9663 L1000.1071 111.9087" transform="matrix(0.9815,0,0,0.9815,9.8153,19.6307)"/><path stroke="none" d="M1000.1071 119.9087 L1005.1071 107.9087 L1000.1071 110.9087 L995.1071 107.9087 Z" transform="matrix(0.9815,0,0,0.9815,9.8153,19.6307)"/></g></g><g id="y.edge.2"><g stroke-linecap="butt" stroke-miterlimit="1.45"><path fill="none" d="M744.125 1795.2017 L744.125 1888.125 L731.875 1928.125 L731.875 1989.0625 L752.125 2029.0625 L752.125 2048.0625 L750.793 2080.0303" transform="matrix(0.9815,0,0,0.9815,9.8153,19.6307)"/><path stroke="none" d="M750.46 2088.0234 L755.9552 2076.2419 L750.8347 2079.0312 L745.9639 2075.8257 Z" transform="matrix(0.9815,0,0,0.9815,9.8153,19.6307)"/></g></g><g id="y.edge.3"><g stroke-linecap="butt" stroke-miterlimit="1.45"><path fill="none" d="M342.125 1757.2163 L342.125 1808.1587" transform="matrix(0.9815,0,0,0.9815,9.8153,19.6307)"/><path stroke="none" d="M342.125 1816.1587 L347.125 1804.1587 L342.125 1807.1587 L337.125 1804.1587 Z" transform="matrix(0.9815,0,0,0.9815,9.8153,19.6307)"/></g></g><g id="y.edge.4"><g stroke-linecap="butt" stroke-miterlimit="1.45"><path fill="none" d="M637.7885 1616.2598 L744.125 1656.25 L744.125 1745.1714" transform="matrix(0.9815,0,0,0.9815,9.8153,19.6307)"/><path stroke="none" d="M744.125 1753.1714 L749.125 1741.1714 L744.125 1744.1714 L739.125 1741.1714 Z" transform="matrix(0.9815,0,0,0.9815,9.8153,19.6307)"/></g></g><g id="y.edge.5"><g stroke-linecap="butt" stroke-miterlimit="1.45"><path fill="none" d="M589.7329 1616.2549 L347.125 1656.25 L347.125 1675.25 L359.0928 1707.705" transform="matrix(0.9815,0,0,0.9815,9.8153,19.6307)"/><path stroke="none" d="M361.8606 1715.2109 L362.4001 1702.2222 L358.7468 1706.7667 L353.0176 1705.6819 Z" transform="matrix(0.9815,0,0,0.9815,9.8153,19.6307)"/></g></g><g id="y.edge.6"><g stroke-linecap="butt" stroke-miterlimit="1.45"><path fill="none" d="M634.3355 1173.4473 L472.6071 1213.4375 L472.6071 1232.4375 L484.7835 1264.9078" transform="matrix(0.9815,0,0,0.9815,9.8153,19.6307)"/><path stroke="none" d="M487.5925 1272.3984 L488.0607 1259.4069 L484.4324 1263.9714 L478.6974 1262.9181 Z" transform="matrix(0.9815,0,0,0.9815,9.8153,19.6307)"/></g></g><g id="y.edge.7"><g stroke-linecap="butt" stroke-miterlimit="1.45"><path fill="none" d="M467.6071 1314.407 L467.6071 1445.3125 L479.125 1485.3125 L479.125 1733.2188 L466.9486 1765.6891" transform="matrix(0.9815,0,0,0.9815,9.8153,19.6307)"/><path stroke="none" d="M464.1396 1773.1797 L473.0348 1763.6993 L467.2997 1764.7527 L463.6715 1760.1881 Z" transform="matrix(0.9815,0,0,0.9815,9.8153,19.6307)"/></g></g><g id="y.edge.8"><g stroke-linecap="butt" stroke-miterlimit="1.45"><path fill="none" d="M435.583 1314.3848 L336.6071 1354.375 L336.6071 1445.3125 L459.125 1485.3125 L459.125 1515.3125 L337.125 1555.3125 L337.125 1675.25 L325.1572 1707.705" transform="matrix(0.9815,0,0,0.9815,9.8153,19.6307)"/><path stroke="none" d="M322.3894 1715.2109 L331.2324 1705.6819 L325.5032 1706.7667 L321.8499 1702.2222 Z" transform="matrix(0.9815,0,0,0.9815,9.8153,19.6307)"/></g></g><g id="y.edge.9"><g stroke-linecap="butt" stroke-miterlimit="1.45"><path fill="none" d="M782.3552 1989.1016 L762.125 2029.0625 L762.125 2048.0625 L763.457 2080.0303" transform="matrix(0.9815,0,0,0.9815,9.8153,19.6307)"/><path stroke="none" d="M763.79 2088.0234 L768.2861 2075.8257 L763.4153 2079.0312 L758.2948 2076.2419 Z" transform="matrix(0.9815,0,0,0.9815,9.8153,19.6307)"/></g></g><g id="y.edge.10"><g stroke-linecap="butt" stroke-miterlimit="1.45"><path fill="none" d="M614.125 1795.2017 L614.125 1888.125 L721.875 1928.125 L721.875 1989.0625 L742.125 2029.0625 L742.125 2048.0625 L738.1221 2080.0852" transform="matrix(0.9815,0,0,0.9815,9.8153,19.6307)"/><path stroke="none" d="M737.1298 2088.0234 L743.5797 2076.7363 L738.2462 2079.093 L733.6569 2075.4958 Z" transform="matrix(0.9815,0,0,0.9815,9.8153,19.6307)"/></g></g><g id="y.edge.11"><g stroke-linecap="butt" stroke-miterlimit="1.45"><path fill="none" d="M605.734 1616.2598 L489.125 1656.25 L489.125 1733.2188 L501.3014 1765.6891" transform="matrix(0.9815,0,0,0.9815,9.8153,19.6307)"/><path stroke="none" d="M504.1104 1773.1797 L504.5785 1760.1881 L500.9503 1764.7527 L495.2152 1763.6993 Z" transform="matrix(0.9815,0,0,0.9815,9.8153,19.6307)"/></g></g><g id="y.edge.12"><g stroke-linecap="butt" stroke-miterlimit="1.45"><path fill="none" d="M653.8005 1616.2598 L809.625 1656.25 L809.625 1888.125 L782.375 1928.125 L782.375 1939.0879" transform="matrix(0.9815,0,0,0.9815,9.8153,19.6307)"/><path stroke="none" d="M782.375 1947.0879 L787.375 1935.0879 L782.375 1938.0879 L777.375 1935.0879 Z" transform="matrix(0.9815,0,0,0.9815,9.8153,19.6307)"/></g></g><g id="y.edge.13"><g stroke-linecap="butt" stroke-miterlimit="1.45"><path fill="none" d="M621.7551 1616.2891 L614.125 1656.25 L614.125 1745.1714" transform="matrix(0.9815,0,0,0.9815,9.8153,19.6307)"/><path stroke="none" d="M614.125 1753.1714 L619.125 1741.1714 L614.125 1744.1714 L609.125 1741.1714 Z" transform="matrix(0.9815,0,0,0.9815,9.8153,19.6307)"/></g></g><g id="y.edge.14"><g stroke-linecap="butt" stroke-miterlimit="1.45"><path fill="none" d="M451.583 1314.3945 L402.1071 1354.375 L402.1071 1365.3379" transform="matrix(0.9815,0,0,0.9815,9.8153,19.6307)"/><path stroke="none" d="M402.1071 1373.3379 L407.1071 1361.3379 L402.1071 1364.3379 L397.1071 1361.3379 Z" transform="matrix(0.9815,0,0,0.9815,9.8153,19.6307)"/></g></g><g id="y.edge.15"><g stroke-linecap="butt" stroke-miterlimit="1.45"><path fill="none" d="M663.1071 1415.3418 L663.1071 1445.3125 L499.125 1485.3125 L499.125 1515.3125 L830.625 1555.3125 L830.625 1888.125 L842.875 1928.125 L842.875 1989.0625 L782.125 2029.0625 L782.125 2048.0625 L788.8185 2080.1917" transform="matrix(0.9815,0,0,0.9815,9.8153,19.6307)"/><path stroke="none" d="M790.4502 2088.0234 L792.8976 2075.2559 L788.6146 2079.2126 L783.1078 2077.2954 Z" transform="matrix(0.9815,0,0,0.9815,9.8153,19.6307)"/></g></g><g id="y.edge.16"><g stroke-linecap="butt" stroke-miterlimit="1.45"><path fill="none" d="M533.1071 1415.3418 L533.1071 1445.3125 L489.125 1485.3125 L489.125 1515.3125 L820.625 1555.3125 L820.625 1888.125 L832.875 1928.125 L832.875 1989.0625 L772.125 2029.0625 L772.125 2048.0625 L776.1279 2080.0852" transform="matrix(0.9815,0,0,0.9815,9.8153,19.6307)"/><path stroke="none" d="M777.1202 2088.0234 L780.5931 2075.4958 L776.0038 2079.093 L770.6703 2076.7363 Z" transform="matrix(0.9815,0,0,0.9815,9.8153,19.6307)"/></g></g><g id="y.edge.17"><g stroke-linecap="butt" stroke-miterlimit="1.45"><path fill="none" d="M402.1071 1415.3418 L402.1071 1445.3125 L469.125 1485.3125 L469.125 1515.3125 L418.625 1555.3125 L418.625 1888.125 L711.875 1928.125 L711.875 1989.0625 L732.125 2029.0625 L732.125 2048.0625 L725.4315 2080.1917" transform="matrix(0.9815,0,0,0.9815,9.8153,19.6307)"/><path stroke="none" d="M723.7998 2088.0234 L731.1422 2077.2954 L725.6354 2079.2126 L721.3524 2075.2559 Z" transform="matrix(0.9815,0,0,0.9815,9.8153,19.6307)"/></g></g><g id="y.edge.18"><g stroke-linecap="butt" stroke-miterlimit="1.45"><path fill="none" d="M685.875 836.6104 L685.875 1032.5 L659.375 1072.5 L659.375 1091.5 L671.5514 1123.9703" transform="matrix(0.9815,0,0,0.9815,9.8153,19.6307)"/><path stroke="none" d="M674.3604 1131.4609 L674.8286 1118.4694 L671.2003 1123.0339 L665.4653 1121.9806 Z" transform="matrix(0.9815,0,0,0.9815,9.8153,19.6307)"/></g></g><g id="y.edge.19"><g stroke-linecap="butt" stroke-miterlimit="1.45"><path fill="none" d="M650.8352 836.582 L569.375 876.5625 L569.375 895.5625 L578.6533 927.8349" transform="matrix(0.9815,0,0,0.9815,9.8153,19.6307)"/><path stroke="none" d="M580.8638 935.5234 L582.3535 922.6091 L578.377 926.8738 L572.7427 925.3721 Z" transform="matrix(0.9815,0,0,0.9815,9.8153,19.6307)"/></g></g><g id="y.edge.20"><g stroke-linecap="butt" stroke-miterlimit="1.45"><path fill="none" d="M499.6471 1314.3848 L663.1071 1354.375 L663.1071 1365.3379" transform="matrix(0.9815,0,0,0.9815,9.8153,19.6307)"/><path stroke="none" d="M663.1071 1373.3379 L668.1071 1361.3379 L663.1071 1364.3379 L658.1071 1361.3379 Z" transform="matrix(0.9815,0,0,0.9815,9.8153,19.6307)"/></g></g><g id="y.edge.21"><g stroke-linecap="butt" stroke-miterlimit="1.45"><path fill="none" d="M483.6313 1314.3945 L533.1071 1354.375 L533.1071 1365.3379" transform="matrix(0.9815,0,0,0.9815,9.8153,19.6307)"/><path stroke="none" d="M533.1071 1373.3379 L538.1071 1361.3379 L533.1071 1364.3379 L528.1071 1361.3379 Z" transform="matrix(0.9815,0,0,0.9815,9.8153,19.6307)"/></g></g><g id="y.edge.22"><g stroke-linecap="butt" stroke-miterlimit="1.45"><path fill="none" d="M674.4089 1173.4473 L813.1071 1213.4375 L813.1071 1290.4062 L825.2835 1322.8766" transform="matrix(0.9815,0,0,0.9815,9.8153,19.6307)"/><path stroke="none" d="M828.0925 1330.3672 L828.5607 1317.3756 L824.9324 1321.9402 L819.1974 1320.8868 Z" transform="matrix(0.9815,0,0,0.9815,9.8153,19.6307)"/></g></g><g id="y.edge.23"><g stroke-linecap="butt" stroke-miterlimit="1.45"><path fill="none" d="M580.8638 977.5391 L569.375 1017.5 L569.375 1032.5 L834.875 1072.5 L834.875 1173.4375 L803.1071 1213.4375 L803.1071 1290.4062 L790.9308 1322.8766" transform="matrix(0.9815,0,0,0.9815,9.8153,19.6307)"/><path stroke="none" d="M788.1218 1330.3672 L797.017 1320.8868 L791.2819 1321.9402 L787.6536 1317.3756 Z" transform="matrix(0.9815,0,0,0.9815,9.8153,19.6307)"/></g></g><g id="y.edge.24"><g stroke-linecap="butt" stroke-miterlimit="1.45"><path fill="none" d="M602.7856 60.9766 L596.625 100.9375 L596.625 735.625 L622.875 775.625 L622.875 1032.5 L649.375 1072.5 L649.375 1091.5 L637.1986 1123.9703" transform="matrix(0.9815,0,0,0.9815,9.8153,19.6307)"/><path stroke="none" d="M634.3896 1131.4609 L643.2847 1121.9806 L637.5497 1123.0339 L633.9214 1118.4694 Z" transform="matrix(0.9815,0,0,0.9815,9.8153,19.6307)"/></g></g><g id="y.edge.25"><g stroke-linecap="butt" stroke-miterlimit="1.45"><path fill="none" d="M579.4644 60.9766 L585.625 100.9375 L585.625 735.625 L559.375 775.625 L559.375 895.5625 L550.0967 927.8349" transform="matrix(0.9815,0,0,0.9815,9.8153,19.6307)"/><path stroke="none" d="M547.8862 935.5234 L556.0073 925.3721 L550.373 926.8738 L546.3965 922.6091 Z" transform="matrix(0.9815,0,0,0.9815,9.8153,19.6307)"/></g></g><g id="y.edge.26"><g stroke-linecap="butt" stroke-miterlimit="1.45"><path fill="none" d="M367.3109 534.707 L278.625 574.6875 L278.625 593.6875 L288.933 626.0263" transform="matrix(0.9815,0,0,0.9815,9.8153,19.6307)"/><path stroke="none" d="M291.3625 633.6484 L292.4821 620.6967 L288.6293 625.0735 L282.9544 623.7337 Z" transform="matrix(0.9815,0,0,0.9815,9.8153,19.6307)"/></g></g><g id="y.edge.27"><g stroke-linecap="butt" stroke-miterlimit="1.45"><path fill="none" d="M343.75 320.8169 L343.75 393.75 L380.125 433.75 L380.125 452.75 L373.9549 484.8547" transform="matrix(0.9815,0,0,0.9815,9.8153,19.6307)"/><path stroke="none" d="M372.445 492.7109 L379.62 481.8703 L374.1436 483.8727 L369.7997 479.9829 Z" transform="matrix(0.9815,0,0,0.9815,9.8153,19.6307)"/></g></g><g id="y.edge.28"><g stroke-linecap="butt" stroke-miterlimit="1.45"><path fill="none" d="M250.7625 262.8516 L263.5 302.8125 L263.5 393.75 L268.625 433.75 L268.625 593.6875 L258.317 626.0263" transform="matrix(0.9815,0,0,0.9815,9.8153,19.6307)"/><path stroke="none" d="M255.8875 633.6484 L264.2956 623.7337 L258.6207 625.0735 L254.7679 620.6967 Z" transform="matrix(0.9815,0,0,0.9815,9.8153,19.6307)"/></g></g><g id="y.edge.29"><g stroke-linecap="butt" stroke-miterlimit="1.45"><path fill="none" d="M216.7375 262.8516 L204 302.8125 L204 313.7754" transform="matrix(0.9815,0,0,0.9815,9.8153,19.6307)"/><path stroke="none" d="M204 321.7754 L209 309.7754 L204 312.7754 L199 309.7754 Z" transform="matrix(0.9815,0,0,0.9815,9.8153,19.6307)"/></g></g><g id="y.edge.30"><g stroke-linecap="butt" stroke-miterlimit="1.45"><path fill="none" d="M297.5226 161.8945 L343.75 201.875 L343.75 270.8062" transform="matrix(0.9815,0,0,0.9815,9.8153,19.6307)"/><path stroke="none" d="M343.75 278.8062 L348.75 266.8062 L343.75 269.8062 L338.75 266.8062 Z" transform="matrix(0.9815,0,0,0.9815,9.8153,19.6307)"/></g></g><g id="y.edge.31"><g stroke-linecap="butt" stroke-miterlimit="1.45"><path fill="none" d="M279.9774 161.8945 L233.75 201.875 L233.75 212.8379" transform="matrix(0.9815,0,0,0.9815,9.8153,19.6307)"/><path stroke="none" d="M233.75 220.8379 L238.75 208.8379 L233.75 211.8379 L228.75 208.8379 Z" transform="matrix(0.9815,0,0,0.9815,9.8153,19.6307)"/></g></g><g id="y.edge.32"><g stroke-linecap="butt" stroke-miterlimit="1.45"><path fill="none" d="M556.0923 60.9424 L288.75 100.9375 L288.75 111.9004" transform="matrix(0.9815,0,0,0.9815,9.8153,19.6307)"/><path stroke="none" d="M288.75 119.9004 L293.75 107.9004 L288.75 110.9004 L283.75 107.9004 Z" transform="matrix(0.9815,0,0,0.9815,9.8153,19.6307)"/></g></g><g id="y.edge.33"><g stroke-linecap="butt" stroke-miterlimit="1.45"><path fill="none" d="M262.4542 161.8848 L75 201.875 L75 270.8062" transform="matrix(0.9815,0,0,0.9815,9.8153,19.6307)"/><path stroke="none" d="M75 278.8062 L80 266.8062 L75 269.8062 L70 266.8062 Z" transform="matrix(0.9815,0,0,0.9815,9.8153,19.6307)"/></g></g><g id="y.edge.34"><g stroke-linecap="butt" stroke-miterlimit="1.45"><path fill="none" d="M315.0392 161.8945 L395.25 201.875 L395.25 393.75 L390.125 433.75 L390.125 452.75 L400.4846 485.0922" transform="matrix(0.9815,0,0,0.9815,9.8153,19.6307)"/><path stroke="none" d="M402.925 492.7109 L404.0261 479.7577 L400.1796 484.1399 L394.5027 482.8081 Z" transform="matrix(0.9815,0,0,0.9815,9.8153,19.6307)"/></g></g><g id="y.edge.35"><g stroke-linecap="butt" stroke-miterlimit="1.45"><path fill="none" d="M408.0636 534.707 L495.625 574.6875 L495.625 605.6494" transform="matrix(0.9815,0,0,0.9815,9.8153,19.6307)"/><path stroke="none" d="M495.625 613.6494 L500.625 601.6494 L495.625 604.6494 L490.625 601.6494 Z" transform="matrix(0.9815,0,0,0.9815,9.8153,19.6307)"/></g></g><g id="y.edge.36"><g stroke-linecap="butt" stroke-miterlimit="1.45"><path fill="none" d="M387.685 534.7266 L385.125 574.6875 L385.125 605.6494" transform="matrix(0.9815,0,0,0.9815,9.8153,19.6307)"/><path stroke="none" d="M385.125 613.6494 L390.125 601.6494 L385.125 604.6494 L380.125 601.6494 Z" transform="matrix(0.9815,0,0,0.9815,9.8153,19.6307)"/></g></g></g></svg>