<svg xmlns="http://www.w3.org/2000/svg" xmlns:xlink="http://www.w3.org/1999/xlink" width="1358" height="1048" fill="#000" fill-opacity="1" stroke="#000" stroke-dasharray="none" stroke-dashoffset="0" stroke-linecap="square" stroke-linejoin="miter" stroke-miterlimit="10" stroke-opacity="1" stroke-width="1" color-interpolation="auto" color-rendering="auto" font-family="'Dialog'" font-size="12" font-style="normal" font-weight="normal" image-rendering="auto" shape-rendering="auto" text-rendering="auto"><g><defs id="defs1"><clipPath id="clipPath1" clipPathUnits="userSpaceOnUse"><path d="M0 0 L1358 0 L1358 1048 L0 1048 L0 0 Z"/></clipPath></defs><g id="y.node.0"><g fill="#F8ECC9" stroke="#F8ECC9" transform="matrix(0.9813,0,0,0.9813,11.7753,9.8127)"><rect width="1357.58" height="1047.5" x="0" y="0" stroke="none"/></g><g id="bla"><g fill="#404040" stroke="#404040" transform="matrix(0.9813,0,0,0.9813,11.7753,9.8127)"><rect width="1357.58" height="4" x="0" y="0" stroke="none"/></g></g><g fill="#fff" stroke="#fff" transform="matrix(0.9813,0,0,0.9813,11.7753,9.8127)"><rect width="1" height="1047.5" x="0" y="0" stroke="none"/></g><g fill="#fff" stroke="#fff" transform="matrix(0.9813,0,0,0.9813,11.7753,9.8127)"><rect width="1355.58" height="1" x="1" y="0" stroke="none"/><rect width="1356.58" height="1" x="1" y="1046.5" fill="#ADA58C" stroke="none"/><rect width="1" height="1046.5" x="1356.58" y="0" fill="#ADA58C" stroke="none"/></g></g><g id="y.node.3"><g fill="#F8ECC9" stroke="#F8ECC9" transform="matrix(0.9813,0,0,0.9813,11.7753,9.8127)"><rect width="251.25" height="347.813" x="204.5" y="256.875" stroke="none"/></g><g id="bla"><g fill="#404040" stroke="#404040" transform="matrix(0.9813,0,0,0.9813,11.7753,9.8127)"><rect width="251.25" height="4" x="204.5" y="256.875" stroke="none"/></g></g><g fill="#fff" stroke="#fff" transform="matrix(0.9813,0,0,0.9813,11.7753,9.8127)"><rect width="1" height="347.813" x="204.5" y="256.875" stroke="none"/><rect width="249.25" height="1" x="205.5" y="256.875" stroke="none"/><rect width="250.25" height="1" x="205.5" y="603.688" fill="#ADA58C" stroke="none"/><rect width="1" height="346.813" x="454.75" y="256.875" fill="#ADA58C" stroke="none"/></g></g><g id="y.node.31"><g fill="#F8ECC9" stroke="#F8ECC9" transform="matrix(0.9813,0,0,0.9813,11.7753,9.8127)"><rect width="150.25" height="231.875" x="280" y="357.813" stroke="none"/></g><g id="bla"><g fill="#404040" stroke="#404040" transform="matrix(0.9813,0,0,0.9813,11.7753,9.8127)"><rect width="150.25" height="4" x="280" y="357.813" stroke="none"/></g></g><g fill="#fff" stroke="#fff" transform="matrix(0.9813,0,0,0.9813,11.7753,9.8127)"><rect width="1" height="231.875" x="280" y="357.813" stroke="none"/><rect width="148.25" height="1" x="281" y="357.813" stroke="none"/><rect width="149.25" height="1" x="281" y="588.688" fill="#ADA58C" stroke="none"/><rect width="1" height="230.875" x="429.25" y="357.813" fill="#ADA58C" stroke="none"/></g></g><g id="y.node.33"><g fill="#F8ECC9" stroke="#F8ECC9" transform="matrix(0.9813,0,0,0.9813,11.7753,9.8127)"><rect width="104" height="75.938" x="295" y="498.75" stroke="none"/></g><g id="bla"><g fill="#404040" stroke="#404040" transform="matrix(0.9813,0,0,0.9813,11.7753,9.8127)"><rect width="104" height="4" x="295" y="498.75" stroke="none"/></g></g><g fill="#fff" stroke="#fff" transform="matrix(0.9813,0,0,0.9813,11.7753,9.8127)"><rect width="1" height="75.938" x="295" y="498.75" stroke="none"/><rect width="102" height="1" x="296" y="498.75" stroke="none"/><rect width="103" height="1" x="296" y="573.688" fill="#ADA58C" stroke="none"/><rect width="1" height="74.938" x="398" y="498.75" fill="#ADA58C" stroke="none"/></g></g><g id="y.node.34"><g fill="#fff" stroke="#fff" transform="matrix(0.9813,0,0,0.9813,11.7753,9.8127)"><rect width="74" height="41" x="310" y="517" stroke="none"/><rect width="74" height="41" x="310" y="517" fill="none" stroke="#000"/></g><g id="bla"><g font-family="sans-serif"><text x="325.5" y="535.889" stroke="none" transform="matrix(0.9813,0,0,0.9813,11.7753,9.8127)" xml:space="preserve">ASTEP</text><text x="317" y="549.857" stroke="none" transform="matrix(0.9813,0,0,0.9813,11.7753,9.8127)" xml:space="preserve">(xscorr.f)</text></g></g></g><g id="y.node.35"><g fill="#fff" stroke="#fff" transform="matrix(0.9813,0,0,0.9813,11.7753,9.8127)"><rect width="74" height="41" x="341" y="416" stroke="none"/><rect width="74" height="41" x="341" y="416" fill="none" stroke="#000"/></g><g id="bla"><g font-family="sans-serif"><text x="352.25" y="434.951" stroke="none" transform="matrix(0.9813,0,0,0.9813,11.7753,9.8127)" xml:space="preserve">XSCORR</text><text x="348.25" y="448.92" stroke="none" transform="matrix(0.9813,0,0,0.9813,11.7753,9.8127)" xml:space="preserve">(xscorr.f)</text></g></g></g><g id="y.node.32"><g fill="#fff" stroke="#fff" transform="matrix(0.9813,0,0,0.9813,11.7753,9.8127)"><rect width="70" height="41" x="219" y="275" stroke="none"/><rect width="70" height="41" x="219" y="275" fill="none" stroke="#000"/></g><g id="bla"><g font-family="sans-serif"><text x="231.5" y="294.014" stroke="none" transform="matrix(0.9813,0,0,0.9813,11.7753,9.8127)" xml:space="preserve">FF2CHI</text><text x="226.5" y="307.982" stroke="none" transform="matrix(0.9813,0,0,0.9813,11.7753,9.8127)" xml:space="preserve">(ff2chi.f)</text></g></g></g><g id="y.node.4"><g fill="#F8ECC9" stroke="#F8ECC9" transform="matrix(0.9813,0,0,0.9813,11.7753,9.8127)"><rect width="107" height="115.938" x="15" y="100.938" stroke="none"/></g><g id="bla"><g fill="#404040" stroke="#404040" transform="matrix(0.9813,0,0,0.9813,11.7753,9.8127)"><rect width="107" height="4" x="15" y="100.938" stroke="none"/></g></g><g fill="#fff" stroke="#fff" transform="matrix(0.9813,0,0,0.9813,11.7753,9.8127)"><rect width="1" height="115.938" x="15" y="100.938" stroke="none"/><rect width="105" height="1" x="16" y="100.938" stroke="none"/><rect width="106" height="1" x="16" y="215.875" fill="#ADA58C" stroke="none"/><rect width="1" height="114.938" x="121" y="100.938" fill="#ADA58C" stroke="none"/></g></g><g id="y.node.30"><g fill="#fff" stroke="#fff" transform="matrix(0.9813,0,0,0.9813,11.7753,9.8127)"><rect width="77" height="41" x="30" y="119" stroke="none"/><rect width="77" height="41" x="30" y="119" fill="none" stroke="#000"/></g><g id="bla"><g font-family="sans-serif"><text x="42.5" y="138.076" stroke="none" transform="matrix(0.9813,0,0,0.9813,11.7753,9.8127)" xml:space="preserve">FF2XMU</text><text x="37" y="152.045" stroke="none" transform="matrix(0.9813,0,0,0.9813,11.7753,9.8127)" xml:space="preserve">(ff2xmu.f)</text></g></g></g><g id="y.node.5"><g fill="#F8ECC9" stroke="#F8ECC9" transform="matrix(0.9813,0,0,0.9813,11.7753,9.8127)"><rect width="101" height="75.938" x="143" y="120.938" stroke="none"/></g><g id="bla"><g fill="#404040" stroke="#404040" transform="matrix(0.9813,0,0,0.9813,11.7753,9.8127)"><rect width="101" height="4" x="143" y="120.938" stroke="none"/></g></g><g fill="#fff" stroke="#fff" transform="matrix(0.9813,0,0,0.9813,11.7753,9.8127)"><rect width="1" height="75.938" x="143" y="120.938" stroke="none"/><rect width="99" height="1" x="144" y="120.938" stroke="none"/><rect width="100" height="1" x="144" y="195.875" fill="#ADA58C" stroke="none"/><rect width="1" height="74.938" x="243" y="120.938" fill="#ADA58C" stroke="none"/></g></g><g id="y.node.29"><g fill="#fff" stroke="#fff" transform="matrix(0.9813,0,0,0.9813,11.7753,9.8127)"><rect width="71" height="41" x="158" y="139" stroke="none"/><rect width="71" height="41" x="158" y="139" fill="none" stroke="#000"/></g><g id="bla"><g font-family="sans-serif"><text x="169" y="158.076" stroke="none" transform="matrix(0.9813,0,0,0.9813,11.7753,9.8127)" xml:space="preserve">REFF2X</text><text x="165" y="172.045" stroke="none" transform="matrix(0.9813,0,0,0.9813,11.7753,9.8127)" xml:space="preserve">(reff2x.f)</text></g></g></g><g id="y.node.2"><g fill="#F8ECC9" stroke="#F8ECC9" transform="matrix(0.9813,0,0,0.9813,11.7753,9.8127)"><rect width="1287" height="387.813" x="55.58" y="644.688" stroke="none"/></g><g id="bla"><g fill="#404040" stroke="#404040" transform="matrix(0.9813,0,0,0.9813,11.7753,9.8127)"><rect width="1287" height="4" x="55.58" y="644.688" stroke="none"/></g></g><g fill="#fff" stroke="#fff" transform="matrix(0.9813,0,0,0.9813,11.7753,9.8127)"><rect width="1" height="387.813" x="55.58" y="644.688" stroke="none"/><rect width="1285" height="1" x="56.58" y="644.688" stroke="none"/><rect width="1286" height="1" x="56.58" y="1031.5" fill="#ADA58C" stroke="none"/><rect width="1" height="386.813" x="1341.58" y="644.688" fill="#ADA58C" stroke="none"/></g></g><g id="y.node.12"><g fill="#F8ECC9" stroke="#F8ECC9" transform="matrix(0.9813,0,0,0.9813,11.7753,9.8127)"><rect width="106" height="115.938" x="318.58" y="823.594" stroke="none"/></g><g id="bla"><g fill="#404040" stroke="#404040" transform="matrix(0.9813,0,0,0.9813,11.7753,9.8127)"><rect width="106" height="4" x="318.58" y="823.594" stroke="none"/></g></g><g fill="#fff" stroke="#fff" transform="matrix(0.9813,0,0,0.9813,11.7753,9.8127)"><rect width="1" height="115.938" x="318.58" y="823.594" stroke="none"/><rect width="104" height="1" x="319.58" y="823.594" stroke="none"/><rect width="105" height="1" x="319.58" y="938.531" fill="#ADA58C" stroke="none"/><rect width="1" height="114.938" x="423.58" y="823.594" fill="#ADA58C" stroke="none"/></g></g><g id="y.node.28"><g fill="#fff" stroke="#fff" transform="matrix(0.9813,0,0,0.9813,11.7753,9.8127)"><rect width="76" height="41" x="333" y="882" stroke="none"/><rect width="76" height="41" x="333" y="882" fill="none" stroke="#000"/></g><g id="bla"><g font-family="sans-serif"><text x="343.08" y="900.732" stroke="none" transform="matrix(0.9813,0,0,0.9813,11.7753,9.8127)" xml:space="preserve">WRHEAD</text><text x="340.58" y="914.701" stroke="none" transform="matrix(0.9813,0,0,0.9813,11.7753,9.8127)" xml:space="preserve">(ff2gen.f)</text></g></g></g><g id="y.node.11"><g fill="#F8ECC9" stroke="#F8ECC9" transform="matrix(0.9813,0,0,0.9813,11.7753,9.8127)"><rect width="106" height="115.938" x="192.58" y="823.594" stroke="none"/></g><g id="bla"><g fill="#404040" stroke="#404040" transform="matrix(0.9813,0,0,0.9813,11.7753,9.8127)"><rect width="106" height="4" x="192.58" y="823.594" stroke="none"/></g></g><g fill="#fff" stroke="#fff" transform="matrix(0.9813,0,0,0.9813,11.7753,9.8127)"><rect width="1" height="115.938" x="192.58" y="823.594" stroke="none"/><rect width="104" height="1" x="193.58" y="823.594" stroke="none"/><rect width="105" height="1" x="193.58" y="938.531" fill="#ADA58C" stroke="none"/><rect width="1" height="114.938" x="297.58" y="823.594" fill="#ADA58C" stroke="none"/></g></g><g id="y.node.27"><g fill="#fff" stroke="#fff" transform="matrix(0.9813,0,0,0.9813,11.7753,9.8127)"><rect width="76" height="41" x="207" y="882" stroke="none"/><rect width="76" height="41" x="207" y="882" fill="none" stroke="#000"/></g><g id="bla"><g font-family="sans-serif"><text x="221.58" y="900.732" stroke="none" transform="matrix(0.9813,0,0,0.9813,11.7753,9.8127)" xml:space="preserve">RDXBIN</text><text x="214.58" y="914.701" stroke="none" transform="matrix(0.9813,0,0,0.9813,11.7753,9.8127)" xml:space="preserve">(ff2gen.f)</text></g></g></g><g id="y.node.10"><g fill="#F8ECC9" stroke="#F8ECC9" transform="matrix(0.9813,0,0,0.9813,11.7753,9.8127)"><rect width="102" height="115.938" x="70.58" y="823.594" stroke="none"/></g><g id="bla"><g fill="#404040" stroke="#404040" transform="matrix(0.9813,0,0,0.9813,11.7753,9.8127)"><rect width="102" height="4" x="70.58" y="823.594" stroke="none"/></g></g><g fill="#fff" stroke="#fff" transform="matrix(0.9813,0,0,0.9813,11.7753,9.8127)"><rect width="1" height="115.938" x="70.58" y="823.594" stroke="none"/><rect width="100" height="1" x="71.58" y="823.594" stroke="none"/><rect width="101" height="1" x="71.58" y="938.531" fill="#ADA58C" stroke="none"/><rect width="1" height="114.938" x="171.58" y="823.594" fill="#ADA58C" stroke="none"/></g></g><g id="y.node.26"><g fill="#fff" stroke="#fff" transform="matrix(0.9813,0,0,0.9813,11.7753,9.8127)"><rect width="72" height="41" x="85" y="882" stroke="none"/><rect width="72" height="41" x="85" y="882" fill="none" stroke="#000"/></g><g id="bla"><g font-family="sans-serif"><text x="97.58" y="900.732" stroke="none" transform="matrix(0.9813,0,0,0.9813,11.7753,9.8127)" xml:space="preserve">RDFBIN</text><text x="92.58" y="914.701" stroke="none" transform="matrix(0.9813,0,0,0.9813,11.7753,9.8127)" xml:space="preserve">(rdfbin.f)</text></g></g></g><g id="y.node.9"><g fill="#F8ECC9" stroke="#F8ECC9" transform="matrix(0.9813,0,0,0.9813,11.7753,9.8127)"><rect width="509" height="271.875" x="818.58" y="745.625" stroke="none"/></g><g id="bla"><g fill="#404040" stroke="#404040" transform="matrix(0.9813,0,0,0.9813,11.7753,9.8127)"><rect width="509" height="4" x="818.58" y="745.625" stroke="none"/></g></g><g fill="#fff" stroke="#fff" transform="matrix(0.9813,0,0,0.9813,11.7753,9.8127)"><rect width="1" height="271.875" x="818.58" y="745.625" stroke="none"/><rect width="507" height="1" x="819.58" y="745.625" stroke="none"/><rect width="508" height="1" x="819.58" y="1016.5" fill="#ADA58C" stroke="none"/><rect width="1" height="270.875" x="1326.58" y="745.625" fill="#ADA58C" stroke="none"/></g></g><g id="y.node.17"><g fill="#F8ECC9" stroke="#F8ECC9" transform="matrix(0.9813,0,0,0.9813,11.7753,9.8127)"><rect width="104" height="115.938" x="833.58" y="886.563" stroke="none"/></g><g id="bla"><g fill="#404040" stroke="#404040" transform="matrix(0.9813,0,0,0.9813,11.7753,9.8127)"><rect width="104" height="4" x="833.58" y="886.563" stroke="none"/></g></g><g fill="#fff" stroke="#fff" transform="matrix(0.9813,0,0,0.9813,11.7753,9.8127)"><rect width="1" height="115.938" x="833.58" y="886.563" stroke="none"/><rect width="102" height="1" x="834.58" y="886.563" stroke="none"/><rect width="103" height="1" x="834.58" y="1001.5" fill="#ADA58C" stroke="none"/><rect width="1" height="114.938" x="936.58" y="886.563" fill="#ADA58C" stroke="none"/></g></g><g id="y.node.18"><g fill="#fff" stroke="#fff" transform="matrix(0.9813,0,0,0.9813,11.7753,9.8127)"><rect width="74" height="41" x="848" y="945" stroke="none"/><rect width="74" height="41" x="848" y="945" fill="none" stroke="#000"/></g><g id="bla"><g font-family="sans-serif"><text x="859.08" y="963.701" stroke="none" transform="matrix(0.9813,0,0,0.9813,11.7753,9.8127)" xml:space="preserve">LORENZ</text><text x="855.58" y="977.67" stroke="none" transform="matrix(0.9813,0,0,0.9813,11.7753,9.8127)" xml:space="preserve">(xscorr.f)</text></g></g></g><g id="y.node.19"><g fill="#F8ECC9" stroke="#F8ECC9" transform="matrix(0.9813,0,0,0.9813,11.7753,9.8127)"><rect width="105" height="75.938" x="957.58" y="906.563" stroke="none"/></g><g id="bla"><g fill="#404040" stroke="#404040" transform="matrix(0.9813,0,0,0.9813,11.7753,9.8127)"><rect width="105" height="4" x="957.58" y="906.563" stroke="none"/></g></g><g fill="#fff" stroke="#fff" transform="matrix(0.9813,0,0,0.9813,11.7753,9.8127)"><rect width="1" height="75.938" x="957.58" y="906.563" stroke="none"/><rect width="103" height="1" x="958.58" y="906.563" stroke="none"/><rect width="104" height="1" x="958.58" y="981.5" fill="#ADA58C" stroke="none"/><rect width="1" height="74.938" x="1061.58" y="906.563" fill="#ADA58C" stroke="none"/></g></g><g id="y.node.20"><g fill="#fff" stroke="#fff" transform="matrix(0.9813,0,0,0.9813,11.7753,9.8127)"><rect width="75" height="41" x="972" y="925" stroke="none"/><rect width="75" height="41" x="972" y="925" fill="none" stroke="#000"/></g><g id="bla"><g font-family="sans-serif"><text x="983.58" y="943.701" stroke="none" transform="matrix(0.9813,0,0,0.9813,11.7753,9.8127)" xml:space="preserve">FUNLOG</text><text x="979.58" y="957.67" stroke="none" transform="matrix(0.9813,0,0,0.9813,11.7753,9.8127)" xml:space="preserve">(fprime.f)</text></g></g></g><g id="y.node.21"><g fill="#F8ECC9" stroke="#F8ECC9" transform="matrix(0.9813,0,0,0.9813,11.7753,9.8127)"><rect width="105" height="75.938" x="1082.58" y="906.563" stroke="none"/></g><g id="bla"><g fill="#404040" stroke="#404040" transform="matrix(0.9813,0,0,0.9813,11.7753,9.8127)"><rect width="105" height="4" x="1082.58" y="906.563" stroke="none"/></g></g><g fill="#fff" stroke="#fff" transform="matrix(0.9813,0,0,0.9813,11.7753,9.8127)"><rect width="1" height="75.938" x="1082.58" y="906.563" stroke="none"/><rect width="103" height="1" x="1083.58" y="906.563" stroke="none"/><rect width="104" height="1" x="1083.58" y="981.5" fill="#ADA58C" stroke="none"/><rect width="1" height="74.938" x="1186.58" y="906.563" fill="#ADA58C" stroke="none"/></g></g><g id="y.node.22"><g fill="#fff" stroke="#fff" transform="matrix(0.9813,0,0,0.9813,11.7753,9.8127)"><rect width="75" height="41" x="1097" y="925" stroke="none"/><rect width="75" height="41" x="1097" y="925" fill="none" stroke="#000"/></g><g id="bla"><g font-family="sans-serif"><text x="1112.08" y="943.701" stroke="none" transform="matrix(0.9813,0,0,0.9813,11.7753,9.8127)" xml:space="preserve">FPINTP</text><text x="1104.58" y="957.67" stroke="none" transform="matrix(0.9813,0,0,0.9813,11.7753,9.8127)" xml:space="preserve">(fprime.f)</text></g></g></g><g id="y.node.23"><g fill="#F8ECC9" stroke="#F8ECC9" transform="matrix(0.9813,0,0,0.9813,11.7753,9.8127)"><rect width="105" height="75.938" x="1207.58" y="906.563" stroke="none"/></g><g id="bla"><g fill="#404040" stroke="#404040" transform="matrix(0.9813,0,0,0.9813,11.7753,9.8127)"><rect width="105" height="4" x="1207.58" y="906.563" stroke="none"/></g></g><g fill="#fff" stroke="#fff" transform="matrix(0.9813,0,0,0.9813,11.7753,9.8127)"><rect width="1" height="75.938" x="1207.58" y="906.563" stroke="none"/><rect width="103" height="1" x="1208.58" y="906.563" stroke="none"/><rect width="104" height="1" x="1208.58" y="981.5" fill="#ADA58C" stroke="none"/><rect width="1" height="74.938" x="1311.58" y="906.563" fill="#ADA58C" stroke="none"/></g></g><g id="y.node.24"><g fill="#fff" stroke="#fff" transform="matrix(0.9813,0,0,0.9813,11.7753,9.8127)"><rect width="75" height="41" x="1222" y="925" stroke="none"/><rect width="75" height="41" x="1222" y="925" fill="none" stroke="#000"/></g><g id="bla"><g font-family="sans-serif"><text x="1241.08" y="943.701" stroke="none" transform="matrix(0.9813,0,0,0.9813,11.7753,9.8127)" xml:space="preserve">FPINT</text><text x="1229.58" y="957.67" stroke="none" transform="matrix(0.9813,0,0,0.9813,11.7753,9.8127)" xml:space="preserve">(fprime.f)</text></g></g></g><g id="y.node.25"><g fill="#fff" stroke="#fff" transform="matrix(0.9813,0,0,0.9813,11.7753,9.8127)"><rect width="75" height="41" x="1035" y="804" stroke="none"/><rect width="75" height="41" x="1035" y="804" fill="none" stroke="#000"/></g><g id="bla"><g font-family="sans-serif"><text x="1048.58" y="822.764" stroke="none" transform="matrix(0.9813,0,0,0.9813,11.7753,9.8127)" xml:space="preserve">FPRIME</text><text x="1042.08" y="836.732" stroke="none" transform="matrix(0.9813,0,0,0.9813,11.7753,9.8127)" xml:space="preserve">(fprime.f)</text></g></g></g><g id="y.node.8"><g fill="#F8ECC9" stroke="#F8ECC9" transform="matrix(0.9813,0,0,0.9813,11.7753,9.8127)"><rect width="99" height="115.938" x="699.58" y="823.594" stroke="none"/></g><g id="bla"><g fill="#404040" stroke="#404040" transform="matrix(0.9813,0,0,0.9813,11.7753,9.8127)"><rect width="99" height="4" x="699.58" y="823.594" stroke="none"/></g></g><g fill="#fff" stroke="#fff" transform="matrix(0.9813,0,0,0.9813,11.7753,9.8127)"><rect width="1" height="115.938" x="699.58" y="823.594" stroke="none"/><rect width="97" height="1" x="700.58" y="823.594" stroke="none"/><rect width="98" height="1" x="700.58" y="938.531" fill="#ADA58C" stroke="none"/><rect width="1" height="114.938" x="797.58" y="823.594" fill="#ADA58C" stroke="none"/></g></g><g id="y.node.16"><g fill="#fff" stroke="#fff" transform="matrix(0.9813,0,0,0.9813,11.7753,9.8127)"><rect width="69" height="41" x="714" y="882" stroke="none"/><rect width="69" height="41" x="714" y="882" fill="none" stroke="#000"/></g><g id="bla"><g font-family="sans-serif"><text x="724.58" y="900.732" stroke="none" transform="matrix(0.9813,0,0,0.9813,11.7753,9.8127)" xml:space="preserve">FEFFDT</text><text x="721.58" y="914.701" stroke="none" transform="matrix(0.9813,0,0,0.9813,11.7753,9.8127)" xml:space="preserve">(feffdt.f)</text></g></g></g><g id="y.node.7"><g fill="#F8ECC9" stroke="#F8ECC9" transform="matrix(0.9813,0,0,0.9813,11.7753,9.8127)"><rect width="109" height="115.938" x="570.58" y="823.594" stroke="none"/></g><g id="bla"><g fill="#404040" stroke="#404040" transform="matrix(0.9813,0,0,0.9813,11.7753,9.8127)"><rect width="109" height="4" x="570.58" y="823.594" stroke="none"/></g></g><g fill="#fff" stroke="#fff" transform="matrix(0.9813,0,0,0.9813,11.7753,9.8127)"><rect width="1" height="115.938" x="570.58" y="823.594" stroke="none"/><rect width="107" height="1" x="571.58" y="823.594" stroke="none"/><rect width="108" height="1" x="571.58" y="938.531" fill="#ADA58C" stroke="none"/><rect width="1" height="114.938" x="678.58" y="823.594" fill="#ADA58C" stroke="none"/></g></g><g id="y.node.15"><g fill="#fff" stroke="#fff" transform="matrix(0.9813,0,0,0.9813,11.7753,9.8127)"><rect width="79" height="41" x="585" y="882" stroke="none"/><rect width="79" height="41" x="585" y="882" fill="none" stroke="#000"/></g><g id="bla"><g font-family="sans-serif"><text x="598.58" y="900.732" stroke="none" transform="matrix(0.9813,0,0,0.9813,11.7753,9.8127)" xml:space="preserve">EXCONV</text><text x="592.58" y="914.701" stroke="none" transform="matrix(0.9813,0,0,0.9813,11.7753,9.8127)" xml:space="preserve">(exconv.f)</text></g></g></g><g id="y.node.6"><g fill="#F8ECC9" stroke="#F8ECC9" transform="matrix(0.9813,0,0,0.9813,11.7753,9.8127)"><rect width="106" height="115.938" x="444.58" y="823.594" stroke="none"/></g><g id="bla"><g fill="#404040" stroke="#404040" transform="matrix(0.9813,0,0,0.9813,11.7753,9.8127)"><rect width="106" height="4" x="444.58" y="823.594" stroke="none"/></g></g><g fill="#fff" stroke="#fff" transform="matrix(0.9813,0,0,0.9813,11.7753,9.8127)"><rect width="1" height="115.938" x="444.58" y="823.594" stroke="none"/><rect width="104" height="1" x="445.58" y="823.594" stroke="none"/><rect width="105" height="1" x="445.58" y="938.531" fill="#ADA58C" stroke="none"/><rect width="1" height="114.938" x="549.58" y="823.594" fill="#ADA58C" stroke="none"/></g></g><g id="y.node.14"><g fill="#fff" stroke="#fff" transform="matrix(0.9813,0,0,0.9813,11.7753,9.8127)"><rect width="76" height="41" x="459" y="882" stroke="none"/><rect width="76" height="41" x="459" y="882" fill="none" stroke="#000"/></g><g id="bla"><g font-family="sans-serif"><text x="472.58" y="900.732" stroke="none" transform="matrix(0.9813,0,0,0.9813,11.7753,9.8127)" xml:space="preserve">DWADD</text><text x="466.58" y="914.701" stroke="none" transform="matrix(0.9813,0,0,0.9813,11.7753,9.8127)" xml:space="preserve">(ff2gen.f)</text></g></g></g><g id="y.node.13"><g fill="#fff" stroke="#fff" transform="matrix(0.9813,0,0,0.9813,11.7753,9.8127)"><rect width="71" height="41" x="470" y="663" stroke="none"/><rect width="71" height="41" x="470" y="663" fill="none" stroke="#000"/></g><g id="bla"><g font-family="sans-serif"><text x="481.702" y="681.826" stroke="none" transform="matrix(0.9813,0,0,0.9813,11.7753,9.8127)" xml:space="preserve">FF2AFS</text><text x="477.702" y="695.795" stroke="none" transform="matrix(0.9813,0,0,0.9813,11.7753,9.8127)" xml:space="preserve">(ff2afs.f)</text></g></g></g><g id="y.node.1"><g fill="#fff" stroke="#fff" transform="matrix(0.9813,0,0,0.9813,11.7753,9.8127)"><rect width="79" height="41" x="134" y="19" stroke="none"/><rect width="79" height="41" x="134" y="19" fill="none" stroke="#000"/></g><g id="bla"><g font-family="sans-serif"><text x="146.974" y="37.139" stroke="none" transform="matrix(0.9813,0,0,0.9813,11.7753,9.8127)" xml:space="preserve">FFMOD6</text><text x="141.474" y="51.107" stroke="none" transform="matrix(0.9813,0,0,0.9813,11.7753,9.8127)" xml:space="preserve">(ffmod6.f)</text></g></g></g><g id="y.edge.0"><g stroke-linecap="butt" stroke-miterlimit="1.45"><path fill="none" d="M164.0686 60.9766 L132.5 100.9375 L132.5 604.6875 L506.202 644.6875 L506.202 655.6504" transform="matrix(0.9813,0,0,0.9813,11.7753,9.8127)"/><path stroke="none" d="M506.202 663.6504 L511.202 651.6504 L506.202 654.6504 L501.202 651.6504 Z" transform="matrix(0.9813,0,0,0.9813,11.7753,9.8127)"/></g></g><g id="y.edge.1"><g stroke-linecap="butt" stroke-miterlimit="1.45"><path fill="none" d="M203.6243 60.957 L254.5 100.9375 L254.5 267.8323" transform="matrix(0.9813,0,0,0.9813,11.7753,9.8127)"/><path stroke="none" d="M254.5 275.8323 L259.5 263.8323 L254.5 266.8323 L249.5 263.8323 Z" transform="matrix(0.9813,0,0,0.9813,11.7753,9.8127)"/></g></g><g id="y.edge.2"><g stroke-linecap="butt" stroke-miterlimit="1.45"><path fill="none" d="M144.3124 60.957 L68.5 100.9375 L68.5 111.9004" transform="matrix(0.9813,0,0,0.9813,11.7753,9.8127)"/><path stroke="none" d="M68.5 119.9004 L73.5 107.9004 L68.5 110.9004 L63.5 107.9004 Z" transform="matrix(0.9813,0,0,0.9813,11.7753,9.8127)"/></g></g><g id="y.edge.3"><g stroke-linecap="butt" stroke-miterlimit="1.45"><path fill="none" d="M183.8588 60.9766 L193.5 100.9375 L193.5 131.8994" transform="matrix(0.9813,0,0,0.9813,11.7753,9.8127)"/><path stroke="none" d="M193.5 139.8994 L198.5 127.8994 L193.5 130.8994 L188.5 127.8994 Z" transform="matrix(0.9813,0,0,0.9813,11.7753,9.8127)"/></g></g><g id="y.edge.4"><g stroke-linecap="butt" stroke-miterlimit="1.45"><path fill="none" d="M57.501 161.9141 L58.5 201.875 L58.5 604.6875 L363.9317 644.6875 L363.9317 705.625 L361.5804 745.625 L361.5804 842.5938 L349.1255 875.0847" transform="matrix(0.9813,0,0,0.9813,11.7753,9.8127)"/><path stroke="none" d="M346.262 882.5547 L355.226 873.1394 L349.4834 874.151 L345.8885 869.5601 Z" transform="matrix(0.9813,0,0,0.9813,11.7753,9.8127)"/></g></g><g id="y.edge.5"><g stroke-linecap="butt" stroke-miterlimit="1.45"><path fill="none" d="M101.4971 161.9141 L98.5 201.875 L98.5 216.875 L373.5 256.875 L373.5 275.875 L373.25 376.8125 L362.3214 409.1935" transform="matrix(0.9813,0,0,0.9813,11.7753,9.8127)"/><path stroke="none" d="M359.7632 416.7734 L368.338 407.0024 L362.6412 408.246 L358.8631 403.8046 Z" transform="matrix(0.9813,0,0,0.9813,11.7753,9.8127)"/></g></g><g id="y.edge.6"><g stroke-linecap="butt" stroke-miterlimit="1.45"><path fill="none" d="M241.3732 317.8516 L239.5 357.8125 L239.5 604.6875 L377.0804 644.6875 L377.0804 705.625 L381.5804 745.625 L381.5804 842.5938 L394.0352 875.0847" transform="matrix(0.9813,0,0,0.9813,11.7753,9.8127)"/><path stroke="none" d="M396.8987 882.5547 L397.2722 869.5601 L393.6773 874.151 L387.9348 873.1394 Z" transform="matrix(0.9813,0,0,0.9813,11.7753,9.8127)"/></g></g><g id="y.edge.7"><g stroke-linecap="butt" stroke-miterlimit="1.45"><path fill="none" d="M68.5 161.902 L68.5 604.6875 L430.702 644.6875 L430.702 705.625 L487.5804 745.625 L487.5804 842.5938 L475.1255 875.0847" transform="matrix(0.9813,0,0,0.9813,11.7753,9.8127)"/><path stroke="none" d="M472.262 882.5547 L481.226 873.1394 L475.4834 874.151 L471.8885 869.5601 Z" transform="matrix(0.9813,0,0,0.9813,11.7753,9.8127)"/></g></g><g id="y.edge.8"><g stroke-linecap="butt" stroke-miterlimit="1.45"><path fill="none" d="M79.499 161.9141 L78.5 201.875 L78.5 216.875 L156.3304 256.875 L156.3304 604.6875 L619.0939 644.6875 L619.0939 705.625 L615.0804 745.625 L615.0804 842.5938 L601.7872 875.1484" transform="matrix(0.9813,0,0,0.9813,11.7753,9.8127)"/><path stroke="none" d="M598.763 882.5547 L607.9283 873.3353 L602.1653 874.2225 L598.6704 869.555 Z" transform="matrix(0.9813,0,0,0.9813,11.7753,9.8127)"/></g></g><g id="y.edge.9"><g stroke-linecap="butt" stroke-miterlimit="1.45"><path fill="none" d="M90.498 161.9141 L88.5 201.875 L88.5 216.875 L166.3304 256.875 L166.3304 604.6875 L743.0939 644.6875 L743.0939 705.625 L739.0804 745.625 L739.0804 842.5938 L728.5657 874.9464" transform="matrix(0.9813,0,0,0.9813,11.7753,9.8127)"/><path stroke="none" d="M726.093 882.5547 L734.5573 872.6877 L728.8748 873.9954 L725.0469 869.5969 Z" transform="matrix(0.9813,0,0,0.9813,11.7753,9.8127)"/></g></g><g id="y.edge.10"><g stroke-linecap="butt" stroke-miterlimit="1.45"><path fill="none" d="M35.5029 161.9141 L38.5 201.875 L38.5 604.6875 L116.0804 644.6875 L116.0804 705.625 L111.5804 745.625 L111.5804 842.5938 L100.2368 875.0038" transform="matrix(0.9813,0,0,0.9813,11.7753,9.8127)"/><path stroke="none" d="M97.594 882.5547 L106.2775 872.8801 L100.5672 874.0599 L96.8389 869.5767 Z" transform="matrix(0.9813,0,0,0.9813,11.7753,9.8127)"/></g></g><g id="y.edge.11"><g stroke-linecap="butt" stroke-miterlimit="1.45"><path fill="none" d="M46.502 161.9141 L48.5 201.875 L48.5 604.6875 L237.9317 644.6875 L237.9317 705.625 L235.5804 745.625 L235.5804 842.5938 L223.1255 875.0847" transform="matrix(0.9813,0,0,0.9813,11.7753,9.8127)"/><path stroke="none" d="M220.262 882.5547 L229.226 873.1394 L223.4834 874.151 L219.8885 869.5601 Z" transform="matrix(0.9813,0,0,0.9813,11.7753,9.8127)"/></g></g><g id="y.edge.12"><g stroke-linecap="butt" stroke-miterlimit="1.45"><path fill="none" d="M250.1249 317.8457 L249.5 589.6875 L249.5 604.6875 L576.3641 644.6875 L576.3641 705.625 L507.5804 745.625 L507.5804 842.5938 L520.0352 875.0847" transform="matrix(0.9813,0,0,0.9813,11.7753,9.8127)"/><path stroke="none" d="M522.8987 882.5547 L523.2722 869.5601 L519.6772 874.151 L513.9347 873.1394 Z" transform="matrix(0.9813,0,0,0.9813,11.7753,9.8127)"/></g></g><g id="y.edge.13"><g stroke-linecap="butt" stroke-miterlimit="1.45"><path fill="none" d="M258.8751 317.8457 L259.5 589.6875 L259.5 604.6875 L640.8641 644.6875 L640.8641 705.625 L635.0804 745.625 L635.0804 842.5938 L648.3735 875.1484" transform="matrix(0.9813,0,0,0.9813,11.7753,9.8127)"/><path stroke="none" d="M651.3977 882.5547 L651.4903 869.5551 L647.9954 874.2226 L642.2324 873.3354 Z" transform="matrix(0.9813,0,0,0.9813,11.7753,9.8127)"/></g></g><g id="y.edge.14"><g stroke-linecap="butt" stroke-miterlimit="1.45"><path fill="none" d="M267.6268 317.8516 L269.5 357.8125 L269.5 604.6875 L764.8641 644.6875 L764.8641 705.625 L759.0804 745.625 L759.0804 842.5938 L769.595 874.9464" transform="matrix(0.9813,0,0,0.9813,11.7753,9.8127)"/><path stroke="none" d="M772.0676 882.5547 L773.1138 869.5969 L769.2859 873.9954 L763.6035 872.6877 Z" transform="matrix(0.9813,0,0,0.9813,11.7753,9.8127)"/></g></g><g id="y.edge.15"><g stroke-linecap="butt" stroke-miterlimit="1.45"><path fill="none" d="M285.163 317.8223 L440.75 357.8125 L440.75 604.6875 L906.3641 644.6875 L906.3641 705.625 L1077.5803 745.625 L1077.5803 764.625 L1088.7163 797.0204" transform="matrix(0.9813,0,0,0.9813,11.7753,9.8127)"/><path stroke="none" d="M1091.317 804.5859 L1092.1445 791.6123 L1088.3912 796.0748 L1082.6876 794.8631 Z" transform="matrix(0.9813,0,0,0.9813,11.7753,9.8127)"/></g></g><g id="y.edge.16"><g stroke-linecap="butt" stroke-miterlimit="1.45"><path fill="none" d="M223.8707 317.8516 L219.5 357.8125 L219.5 604.6875 L127.0804 644.6875 L127.0804 705.625 L131.5804 745.625 L131.5804 842.5938 L142.9239 875.0038" transform="matrix(0.9813,0,0,0.9813,11.7753,9.8127)"/><path stroke="none" d="M145.5667 882.5547 L146.3218 869.5767 L142.5935 874.0599 L136.8832 872.8801 Z" transform="matrix(0.9813,0,0,0.9813,11.7753,9.8127)"/></g></g><g id="y.edge.17"><g stroke-linecap="butt" stroke-miterlimit="1.45"><path fill="none" d="M232.6219 317.8516 L229.5 357.8125 L229.5 604.6875 L251.0804 644.6875 L251.0804 705.625 L255.5804 745.625 L255.5804 842.5938 L268.0352 875.0847" transform="matrix(0.9813,0,0,0.9813,11.7753,9.8127)"/><path stroke="none" d="M270.8987 882.5547 L271.2722 869.5601 L267.6773 874.151 L261.9348 873.1394 Z" transform="matrix(0.9813,0,0,0.9813,11.7753,9.8127)"/></g></g><g id="y.edge.18"><g stroke-linecap="butt" stroke-miterlimit="1.45"><path fill="none" d="M396.7625 458.7891 L409.5 498.75 L409.5 604.6875 L895.3641 644.6875 L895.3641 705.625 L880.5804 745.625 L880.5804 905.5625 L869.6518 937.9435" transform="matrix(0.9813,0,0,0.9813,11.7753,9.8127)"/><path stroke="none" d="M867.0936 945.5234 L875.6684 935.7524 L869.9716 936.996 L866.1935 932.5546 Z" transform="matrix(0.9813,0,0,0.9813,11.7753,9.8127)"/></g></g><g id="y.edge.19"><g stroke-linecap="butt" stroke-miterlimit="1.45"><path fill="none" d="M536.663 705.6274 L1067.5803 745.625 L1067.5803 764.625 L1056.4445 797.0204" transform="matrix(0.9813,0,0,0.9813,11.7753,9.8127)"/><path stroke="none" d="M1053.8439 804.5859 L1062.4733 794.8631 L1056.7695 796.0748 L1053.0164 791.6123 Z" transform="matrix(0.9813,0,0,0.9813,11.7753,9.8127)"/></g></g><g id="y.edge.20"><g stroke-linecap="butt" stroke-miterlimit="1.45"><path fill="none" d="M516.3714 705.6348 L625.0804 745.625 L625.0804 874.5603" transform="matrix(0.9813,0,0,0.9813,11.7753,9.8127)"/><path stroke="none" d="M625.0804 882.5603 L630.0804 870.5603 L625.0804 873.5603 L620.0804 870.5603 Z" transform="matrix(0.9813,0,0,0.9813,11.7753,9.8127)"/></g></g><g id="y.edge.21"><g stroke-linecap="butt" stroke-miterlimit="1.45"><path fill="none" d="M526.5149 705.6299 L749.0804 745.625 L749.0804 874.5603" transform="matrix(0.9813,0,0,0.9813,11.7753,9.8127)"/><path stroke="none" d="M749.0804 882.5603 L754.0804 870.5603 L749.0804 873.5603 L744.0804 870.5603 Z" transform="matrix(0.9813,0,0,0.9813,11.7753,9.8127)"/></g></g><g id="y.edge.22"><g stroke-linecap="butt" stroke-miterlimit="1.45"><path fill="none" d="M496.0287 705.6348 L371.5804 745.625 L371.5804 874.5603" transform="matrix(0.9813,0,0,0.9813,11.7753,9.8127)"/><path stroke="none" d="M371.5804 882.5603 L376.5804 870.5603 L371.5804 873.5603 L366.5804 870.5603 Z" transform="matrix(0.9813,0,0,0.9813,11.7753,9.8127)"/></g></g><g id="y.edge.23"><g stroke-linecap="butt" stroke-miterlimit="1.45"><path fill="none" d="M506.1936 705.6641 L497.5804 745.625 L497.5804 874.5603" transform="matrix(0.9813,0,0,0.9813,11.7753,9.8127)"/><path stroke="none" d="M497.5804 882.5603 L502.5804 870.5603 L497.5804 873.5603 L492.5804 870.5603 Z" transform="matrix(0.9813,0,0,0.9813,11.7753,9.8127)"/></g></g><g id="y.edge.24"><g stroke-linecap="butt" stroke-miterlimit="1.45"><path fill="none" d="M485.8869 705.6299 L245.5804 745.625 L245.5804 874.5603" transform="matrix(0.9813,0,0,0.9813,11.7753,9.8127)"/><path stroke="none" d="M245.5804 882.5603 L250.5804 870.5603 L245.5804 873.5603 L240.5804 870.5603 Z" transform="matrix(0.9813,0,0,0.9813,11.7753,9.8127)"/></g></g><g id="y.edge.25"><g stroke-linecap="butt" stroke-miterlimit="1.45"><path fill="none" d="M475.7302 705.6299 L121.5804 745.625 L121.5804 874.5603" transform="matrix(0.9813,0,0,0.9813,11.7753,9.8127)"/><path stroke="none" d="M121.5804 882.5603 L126.5804 870.5603 L121.5804 873.5603 L116.5804 870.5603 Z" transform="matrix(0.9813,0,0,0.9813,11.7753,9.8127)"/></g></g><g id="y.edge.26"><g stroke-linecap="butt" stroke-miterlimit="1.45"><path fill="none" d="M1081.9813 846.582 L1135.0803 886.5625 L1135.0803 917.5244" transform="matrix(0.9813,0,0,0.9813,11.7753,9.8127)"/><path stroke="none" d="M1135.0803 925.5244 L1140.0803 913.5244 L1135.0803 916.5244 L1130.0803 913.5244 Z" transform="matrix(0.9813,0,0,0.9813,11.7753,9.8127)"/></g></g><g id="y.edge.27"><g stroke-linecap="butt" stroke-miterlimit="1.45"><path fill="none" d="M1044.4178 846.5723 L890.5804 886.5625 L890.5804 905.5625 L901.509 937.9435" transform="matrix(0.9813,0,0,0.9813,11.7753,9.8127)"/><path stroke="none" d="M904.0672 945.5234 L904.9673 932.5546 L901.1892 936.996 L895.4924 935.7524 Z" transform="matrix(0.9813,0,0,0.9813,11.7753,9.8127)"/></g></g><g id="y.edge.28"><g stroke-linecap="butt" stroke-miterlimit="1.45"><path fill="none" d="M1100.7443 846.5723 L1260.0803 886.5625 L1260.0803 917.5244" transform="matrix(0.9813,0,0,0.9813,11.7753,9.8127)"/><path stroke="none" d="M1260.0803 925.5244 L1265.0803 913.5244 L1260.0803 916.5244 L1255.0803 913.5244 Z" transform="matrix(0.9813,0,0,0.9813,11.7753,9.8127)"/></g></g><g id="y.edge.29"><g stroke-linecap="butt" stroke-miterlimit="1.45"><path fill="none" d="M1063.1794 846.582 L1010.0804 886.5625 L1010.0804 917.5244" transform="matrix(0.9813,0,0,0.9813,11.7753,9.8127)"/><path stroke="none" d="M1010.0804 925.5244 L1015.0804 913.5244 L1010.0804 916.5244 L1005.0804 913.5244 Z" transform="matrix(0.9813,0,0,0.9813,11.7753,9.8127)"/></g></g><g id="y.edge.30"><g stroke-linecap="butt" stroke-miterlimit="1.45"><path fill="none" d="M276.4011 317.8223 L383.25 357.8125 L383.25 376.8125 L394.1786 409.1935" transform="matrix(0.9813,0,0,0.9813,11.7753,9.8127)"/><path stroke="none" d="M396.7368 416.7734 L397.6369 403.8046 L393.8588 408.246 L388.162 407.0024 Z" transform="matrix(0.9813,0,0,0.9813,11.7753,9.8127)"/></g></g><g id="y.edge.31"><g stroke-linecap="butt" stroke-miterlimit="1.45"><path fill="none" d="M359.7375 458.7891 L347 498.75 L347 509.7129" transform="matrix(0.9813,0,0,0.9813,11.7753,9.8127)"/><path stroke="none" d="M347 517.7129 L352 505.7129 L347 508.7129 L342 505.7129 Z" transform="matrix(0.9813,0,0,0.9813,11.7753,9.8127)"/></g></g></g></svg>