<svg xmlns="http://www.w3.org/2000/svg" xmlns:xlink="http://www.w3.org/1999/xlink" width="1048" height="741" fill="#000" fill-opacity="1" stroke="#000" stroke-dasharray="none" stroke-dashoffset="0" stroke-linecap="square" stroke-linejoin="miter" stroke-miterlimit="10" stroke-opacity="1" stroke-width="1" color-interpolation="auto" color-rendering="auto" font-family="'Dialog'" font-size="12" font-style="normal" font-weight="normal" image-rendering="auto" shape-rendering="auto" text-rendering="auto"><g><defs id="defs1"><clipPath id="clipPath1" clipPathUnits="userSpaceOnUse"><path d="M0 0 L1048 0 L1048 741 L0 741 L0 0 Z"/></clipPath></defs><g id="y.node.0"><g fill="#F8ECC9" stroke="#F8ECC9" transform="matrix(0.9737,0,0,0.9737,13.6321,9.7372)"><rect width="184" height="423.75" x="864" y="0" stroke="none"/></g><g id="bla"><g fill="#404040" stroke="#404040" transform="matrix(0.9737,0,0,0.9737,13.6321,9.7372)"><rect width="184" height="4" x="864" y="0" stroke="none"/></g></g><g fill="#fff" stroke="#fff" transform="matrix(0.9737,0,0,0.9737,13.6321,9.7372)"><rect width="1" height="423.75" x="864" y="0" stroke="none"/></g><g fill="#fff" stroke="#fff" transform="matrix(0.9737,0,0,0.9737,13.6321,9.7372)"><rect width="182" height="1" x="865" y="0" stroke="none"/><rect width="183" height="1" x="865" y="422.75" fill="#ADA58C" stroke="none"/><rect width="1" height="422.75" x="1047" y="0" fill="#ADA58C" stroke="none"/></g></g><g id="y.node.2"><g fill="#F8ECC9" stroke="#F8ECC9" transform="matrix(0.9737,0,0,0.9737,13.6321,9.7372)"><rect width="154" height="307.813" x="879" y="100.938" stroke="none"/></g><g id="bla"><g fill="#404040" stroke="#404040" transform="matrix(0.9737,0,0,0.9737,13.6321,9.7372)"><rect width="154" height="4" x="879" y="100.938" stroke="none"/></g></g><g fill="#fff" stroke="#fff" transform="matrix(0.9737,0,0,0.9737,13.6321,9.7372)"><rect width="1" height="307.813" x="879" y="100.938" stroke="none"/><rect width="152" height="1" x="880" y="100.938" stroke="none"/><rect width="153" height="1" x="880" y="407.75" fill="#ADA58C" stroke="none"/><rect width="1" height="306.813" x="1032" y="100.938" fill="#ADA58C" stroke="none"/></g></g><g id="y.node.4"><g fill="#F8ECC9" stroke="#F8ECC9" transform="matrix(0.9737,0,0,0.9737,13.6321,9.7372)"><rect width="124" height="191.875" x="894" y="201.875" stroke="none"/></g><g id="bla"><g fill="#404040" stroke="#404040" transform="matrix(0.9737,0,0,0.9737,13.6321,9.7372)"><rect width="124" height="4" x="894" y="201.875" stroke="none"/></g></g><g fill="#fff" stroke="#fff" transform="matrix(0.9737,0,0,0.9737,13.6321,9.7372)"><rect width="1" height="191.875" x="894" y="201.875" stroke="none"/><rect width="122" height="1" x="895" y="201.875" stroke="none"/><rect width="123" height="1" x="895" y="392.75" fill="#ADA58C" stroke="none"/><rect width="1" height="190.875" x="1017" y="201.875" fill="#ADA58C" stroke="none"/></g></g><g id="y.node.6"><g fill="#F8ECC9" stroke="#F8ECC9" transform="matrix(0.9737,0,0,0.9737,13.6321,9.7372)"><rect width="94" height="75.938" x="909" y="302.813" stroke="none"/></g><g id="bla"><g fill="#404040" stroke="#404040" transform="matrix(0.9737,0,0,0.9737,13.6321,9.7372)"><rect width="94" height="4" x="909" y="302.813" stroke="none"/></g></g><g fill="#fff" stroke="#fff" transform="matrix(0.9737,0,0,0.9737,13.6321,9.7372)"><rect width="1" height="75.938" x="909" y="302.813" stroke="none"/><rect width="92" height="1" x="910" y="302.813" stroke="none"/><rect width="93" height="1" x="910" y="377.75" fill="#ADA58C" stroke="none"/><rect width="1" height="74.938" x="1002" y="302.813" fill="#ADA58C" stroke="none"/></g></g><g id="y.node.7"><g fill="#fff" stroke="#fff" transform="matrix(0.9737,0,0,0.9737,13.6321,9.7372)"><rect width="64" height="41" x="924" y="321" stroke="none"/><rect width="64" height="41" x="924" y="321" fill="none" stroke="#000"/></g><g id="bla"><g font-family="sans-serif"><text x="942" y="339.951" stroke="none" transform="matrix(0.9737,0,0,0.9737,13.6321,9.7372)" xml:space="preserve">FN2</text><text x="931" y="353.92" stroke="none" transform="matrix(0.9737,0,0,0.9737,13.6321,9.7372)" xml:space="preserve">(sigcl.f)</text></g></g></g><g id="y.node.5"><g fill="#fff" stroke="#fff" transform="matrix(0.9737,0,0,0.9737,13.6321,9.7372)"><rect width="70" height="41" x="921" y="220" stroke="none"/><rect width="70" height="41" x="921" y="220" fill="none" stroke="#000"/></g><g id="bla"><g font-family="sans-serif"><text x="928" y="239.014" stroke="none" transform="matrix(0.9737,0,0,0.9737,13.6321,9.7372)" xml:space="preserve">BINGRT2</text><text x="931" y="252.982" stroke="none" transform="matrix(0.9737,0,0,0.9737,13.6321,9.7372)" xml:space="preserve">(sigcl.f)</text></g></g></g><g id="y.node.3"><g fill="#fff" stroke="#fff" transform="matrix(0.9737,0,0,0.9737,13.6321,9.7372)"><rect width="75" height="41" x="918" y="119" stroke="none"/><rect width="75" height="41" x="918" y="119" fill="none" stroke="#000"/></g><g id="bla"><g font-family="sans-serif"><text x="925.5" y="138.076" stroke="none" transform="matrix(0.9737,0,0,0.9737,13.6321,9.7372)" xml:space="preserve">CORRFN2</text><text x="931" y="152.045" stroke="none" transform="matrix(0.9737,0,0,0.9737,13.6321,9.7372)" xml:space="preserve">(sigcl.f)</text></g></g></g><g id="y.node.1"><g fill="#fff" stroke="#fff" transform="matrix(0.9737,0,0,0.9737,13.6321,9.7372)"><rect width="64" height="41" x="924" y="19" stroke="none"/><rect width="64" height="41" x="924" y="19" fill="none" stroke="#000"/></g><g id="bla"><g font-family="sans-serif"><text x="937" y="37.139" stroke="none" transform="matrix(0.9737,0,0,0.9737,13.6321,9.7372)" xml:space="preserve">SIGCL</text><text x="931" y="51.107" stroke="none" transform="matrix(0.9737,0,0,0.9737,13.6321,9.7372)" xml:space="preserve">(sigcl.f)</text></g></g></g><g id="y.node.8"><g fill="#F8ECC9" stroke="#F8ECC9" transform="matrix(0.9737,0,0,0.9737,13.6321,9.7372)"><rect width="103" height="75.938" x="150" y="664.688" stroke="none"/></g><g id="bla"><g fill="#404040" stroke="#404040" transform="matrix(0.9737,0,0,0.9737,13.6321,9.7372)"><rect width="103" height="4" x="150" y="664.688" stroke="none"/></g></g><g fill="#fff" stroke="#fff" transform="matrix(0.9737,0,0,0.9737,13.6321,9.7372)"><rect width="1" height="75.938" x="150" y="664.688" stroke="none"/><rect width="101" height="1" x="151" y="664.688" stroke="none"/><rect width="102" height="1" x="151" y="739.625" fill="#ADA58C" stroke="none"/><rect width="1" height="74.938" x="252" y="664.688" fill="#ADA58C" stroke="none"/></g></g><g id="y.node.9"><g fill="#fff" stroke="#fff" transform="matrix(0.9737,0,0,0.9737,13.6321,9.7372)"><rect width="73" height="41" x="165" y="683" stroke="none"/><rect width="73" height="41" x="165" y="683" fill="none" stroke="#000"/></g><g id="bla"><g font-family="sans-serif"><text x="180.5" y="701.826" stroke="none" transform="matrix(0.9737,0,0,0.9737,13.6321,9.7372)" xml:space="preserve">SIGM3</text><text x="172" y="715.795" stroke="none" transform="matrix(0.9737,0,0,0.9737,13.6321,9.7372)" xml:space="preserve">(sigm3.f)</text></g></g></g><g id="y.node.10"><g fill="#F8ECC9" stroke="#F8ECC9" transform="matrix(0.9737,0,0,0.9737,13.6321,9.7372)"><rect width="192" height="423.75" x="627" y="0" stroke="none"/></g><g id="bla"><g fill="#404040" stroke="#404040" transform="matrix(0.9737,0,0,0.9737,13.6321,9.7372)"><rect width="192" height="4" x="627" y="0" stroke="none"/></g></g><g fill="#fff" stroke="#fff" transform="matrix(0.9737,0,0,0.9737,13.6321,9.7372)"><rect width="1" height="423.75" x="627" y="0" stroke="none"/><rect width="190" height="1" x="628" y="0" stroke="none"/><rect width="191" height="1" x="628" y="422.75" fill="#ADA58C" stroke="none"/><rect width="1" height="422.75" x="818" y="0" fill="#ADA58C" stroke="none"/></g></g><g id="y.node.12"><g fill="#F8ECC9" stroke="#F8ECC9" transform="matrix(0.9737,0,0,0.9737,13.6321,9.7372)"><rect width="162" height="307.813" x="642" y="100.938" stroke="none"/></g><g id="bla"><g fill="#404040" stroke="#404040" transform="matrix(0.9737,0,0,0.9737,13.6321,9.7372)"><rect width="162" height="4" x="642" y="100.938" stroke="none"/></g></g><g fill="#fff" stroke="#fff" transform="matrix(0.9737,0,0,0.9737,13.6321,9.7372)"><rect width="1" height="307.813" x="642" y="100.938" stroke="none"/><rect width="160" height="1" x="643" y="100.938" stroke="none"/><rect width="161" height="1" x="643" y="407.75" fill="#ADA58C" stroke="none"/><rect width="1" height="306.813" x="803" y="100.938" fill="#ADA58C" stroke="none"/></g></g><g id="y.node.14"><g fill="#F8ECC9" stroke="#F8ECC9" transform="matrix(0.9737,0,0,0.9737,13.6321,9.7372)"><rect width="132" height="191.875" x="657" y="201.875" stroke="none"/></g><g id="bla"><g fill="#404040" stroke="#404040" transform="matrix(0.9737,0,0,0.9737,13.6321,9.7372)"><rect width="132" height="4" x="657" y="201.875" stroke="none"/></g></g><g fill="#fff" stroke="#fff" transform="matrix(0.9737,0,0,0.9737,13.6321,9.7372)"><rect width="1" height="191.875" x="657" y="201.875" stroke="none"/><rect width="130" height="1" x="658" y="201.875" stroke="none"/><rect width="131" height="1" x="658" y="392.75" fill="#ADA58C" stroke="none"/><rect width="1" height="190.875" x="788" y="201.875" fill="#ADA58C" stroke="none"/></g></g><g id="y.node.16"><g fill="#F8ECC9" stroke="#F8ECC9" transform="matrix(0.9737,0,0,0.9737,13.6321,9.7372)"><rect width="102" height="75.938" x="672" y="302.813" stroke="none"/></g><g id="bla"><g fill="#404040" stroke="#404040" transform="matrix(0.9737,0,0,0.9737,13.6321,9.7372)"><rect width="102" height="4" x="672" y="302.813" stroke="none"/></g></g><g fill="#fff" stroke="#fff" transform="matrix(0.9737,0,0,0.9737,13.6321,9.7372)"><rect width="1" height="75.938" x="672" y="302.813" stroke="none"/><rect width="100" height="1" x="673" y="302.813" stroke="none"/><rect width="101" height="1" x="673" y="377.75" fill="#ADA58C" stroke="none"/><rect width="1" height="74.938" x="773" y="302.813" fill="#ADA58C" stroke="none"/></g></g><g id="y.node.17"><g fill="#fff" stroke="#fff" transform="matrix(0.9737,0,0,0.9737,13.6321,9.7372)"><rect width="72" height="41" x="687" y="321" stroke="none"/><rect width="72" height="41" x="687" y="321" fill="none" stroke="#000"/></g><g id="bla"><g font-family="sans-serif"><text x="713" y="339.951" stroke="none" transform="matrix(0.9737,0,0,0.9737,13.6321,9.7372)" xml:space="preserve">FN</text><text x="694" y="353.92" stroke="none" transform="matrix(0.9737,0,0,0.9737,13.6321,9.7372)" xml:space="preserve">(sigms.f)</text></g></g></g><g id="y.node.15"><g fill="#fff" stroke="#fff" transform="matrix(0.9737,0,0,0.9737,13.6321,9.7372)"><rect width="72" height="41" x="687" y="220" stroke="none"/><rect width="72" height="41" x="687" y="220" fill="none" stroke="#000"/></g><g id="bla"><g font-family="sans-serif"><text x="699" y="239.014" stroke="none" transform="matrix(0.9737,0,0,0.9737,13.6321,9.7372)" xml:space="preserve">BINGRT</text><text x="694" y="252.982" stroke="none" transform="matrix(0.9737,0,0,0.9737,13.6321,9.7372)" xml:space="preserve">(sigms.f)</text></g></g></g><g id="y.node.13"><g fill="#fff" stroke="#fff" transform="matrix(0.9737,0,0,0.9737,13.6321,9.7372)"><rect width="72" height="41" x="687" y="119" stroke="none"/><rect width="72" height="41" x="687" y="119" fill="none" stroke="#000"/></g><g id="bla"><g font-family="sans-serif"><text x="696.5" y="138.076" stroke="none" transform="matrix(0.9737,0,0,0.9737,13.6321,9.7372)" xml:space="preserve">CORRFN</text><text x="694" y="152.045" stroke="none" transform="matrix(0.9737,0,0,0.9737,13.6321,9.7372)" xml:space="preserve">(sigms.f)</text></g></g></g><g id="y.node.11"><g fill="#fff" stroke="#fff" transform="matrix(0.9737,0,0,0.9737,13.6321,9.7372)"><rect width="72" height="41" x="687" y="19" stroke="none"/><rect width="72" height="41" x="687" y="19" fill="none" stroke="#000"/></g><g id="bla"><g font-family="sans-serif"><text x="702" y="37.139" stroke="none" transform="matrix(0.9737,0,0,0.9737,13.6321,9.7372)" xml:space="preserve">SIGMS</text><text x="694" y="51.107" stroke="none" transform="matrix(0.9737,0,0,0.9737,13.6321,9.7372)" xml:space="preserve">(sigms.f)</text></g></g></g><g id="y.node.18"><g fill="#F8ECC9" stroke="#F8ECC9" transform="matrix(0.9737,0,0,0.9737,13.6321,9.7372)"><rect width="582" height="463.75" x="0" y="155.938" stroke="none"/></g><g id="bla"><g fill="#404040" stroke="#404040" transform="matrix(0.9737,0,0,0.9737,13.6321,9.7372)"><rect width="582" height="4" x="0" y="155.938" stroke="none"/></g></g><g fill="#fff" stroke="#fff" transform="matrix(0.9737,0,0,0.9737,13.6321,9.7372)"><rect width="1" height="463.75" x="0" y="155.938" stroke="none"/><rect width="580" height="1" x="1" y="155.938" stroke="none"/><rect width="581" height="1" x="1" y="618.688" fill="#ADA58C" stroke="none"/><rect width="1" height="462.75" x="581" y="155.938" fill="#ADA58C" stroke="none"/></g></g><g id="y.node.22"><g fill="#F8ECC9" stroke="#F8ECC9" transform="matrix(0.9737,0,0,0.9737,13.6321,9.7372)"><rect width="424" height="347.813" x="143" y="256.875" stroke="none"/></g><g id="bla"><g fill="#404040" stroke="#404040" transform="matrix(0.9737,0,0,0.9737,13.6321,9.7372)"><rect width="424" height="4" x="143" y="256.875" stroke="none"/></g></g><g fill="#fff" stroke="#fff" transform="matrix(0.9737,0,0,0.9737,13.6321,9.7372)"><rect width="1" height="347.813" x="143" y="256.875" stroke="none"/><rect width="422" height="1" x="144" y="256.875" stroke="none"/><rect width="423" height="1" x="144" y="603.688" fill="#ADA58C" stroke="none"/><rect width="1" height="346.813" x="566" y="256.875" fill="#ADA58C" stroke="none"/></g></g><g id="y.node.28"><g fill="#F8ECC9" stroke="#F8ECC9" transform="matrix(0.9737,0,0,0.9737,13.6321,9.7372)"><rect width="138" height="191.875" x="414" y="397.813" stroke="none"/></g><g id="bla"><g fill="#404040" stroke="#404040" transform="matrix(0.9737,0,0,0.9737,13.6321,9.7372)"><rect width="138" height="4" x="414" y="397.813" stroke="none"/></g></g><g fill="#fff" stroke="#fff" transform="matrix(0.9737,0,0,0.9737,13.6321,9.7372)"><rect width="1" height="191.875" x="414" y="397.813" stroke="none"/><rect width="136" height="1" x="415" y="397.813" stroke="none"/><rect width="137" height="1" x="415" y="588.688" fill="#ADA58C" stroke="none"/><rect width="1" height="190.875" x="551" y="397.813" fill="#ADA58C" stroke="none"/></g></g><g id="y.node.30"><g fill="#F8ECC9" stroke="#F8ECC9" transform="matrix(0.9737,0,0,0.9737,13.6321,9.7372)"><rect width="108" height="75.938" x="429" y="498.75" stroke="none"/></g><g id="bla"><g fill="#404040" stroke="#404040" transform="matrix(0.9737,0,0,0.9737,13.6321,9.7372)"><rect width="108" height="4" x="429" y="498.75" stroke="none"/></g></g><g fill="#fff" stroke="#fff" transform="matrix(0.9737,0,0,0.9737,13.6321,9.7372)"><rect width="1" height="75.938" x="429" y="498.75" stroke="none"/><rect width="106" height="1" x="430" y="498.75" stroke="none"/><rect width="107" height="1" x="430" y="573.688" fill="#ADA58C" stroke="none"/><rect width="1" height="74.938" x="536" y="498.75" fill="#ADA58C" stroke="none"/></g></g><g id="y.node.31"><g fill="#fff" stroke="#fff" transform="matrix(0.9737,0,0,0.9737,13.6321,9.7372)"><rect width="78" height="41" x="444" y="517" stroke="none"/><rect width="78" height="41" x="444" y="517" fill="none" stroke="#000"/></g><g id="bla"><g font-family="sans-serif"><text x="465.5" y="535.889" stroke="none" transform="matrix(0.9737,0,0,0.9737,13.6321,9.7372)" xml:space="preserve">VECT</text><text x="451" y="549.857" stroke="none" transform="matrix(0.9737,0,0,0.9737,13.6321,9.7372)" xml:space="preserve">(sigrem.f)</text></g></g></g><g id="y.node.29"><g fill="#fff" stroke="#fff" transform="matrix(0.9737,0,0,0.9737,13.6321,9.7372)"><rect width="78" height="41" x="444" y="416" stroke="none"/><rect width="78" height="41" x="444" y="416" fill="none" stroke="#000"/></g><g id="bla"><g font-family="sans-serif"><text x="464" y="434.951" stroke="none" transform="matrix(0.9737,0,0,0.9737,13.6321,9.7372)" xml:space="preserve">SANG</text><text x="451" y="448.92" stroke="none" transform="matrix(0.9737,0,0,0.9737,13.6321,9.7372)" xml:space="preserve">(sigrem.f)</text></g></g></g><g id="y.node.26"><g fill="#F8ECC9" stroke="#F8ECC9" transform="matrix(0.9737,0,0,0.9737,13.6321,9.7372)"><rect width="108" height="75.938" x="286" y="455.781" stroke="none"/></g><g id="bla"><g fill="#404040" stroke="#404040" transform="matrix(0.9737,0,0,0.9737,13.6321,9.7372)"><rect width="108" height="4" x="286" y="455.781" stroke="none"/></g></g><g fill="#fff" stroke="#fff" transform="matrix(0.9737,0,0,0.9737,13.6321,9.7372)"><rect width="1" height="75.938" x="286" y="455.781" stroke="none"/><rect width="106" height="1" x="287" y="455.781" stroke="none"/><rect width="107" height="1" x="287" y="530.719" fill="#ADA58C" stroke="none"/><rect width="1" height="74.938" x="393" y="455.781" fill="#ADA58C" stroke="none"/></g></g><g id="y.node.27"><g fill="#fff" stroke="#fff" transform="matrix(0.9737,0,0,0.9737,13.6321,9.7372)"><rect width="78" height="41" x="301" y="474" stroke="none"/><rect width="78" height="41" x="301" y="474" fill="none" stroke="#000"/></g><g id="bla"><g font-family="sans-serif"><text x="321.5" y="492.92" stroke="none" transform="matrix(0.9737,0,0,0.9737,13.6321,9.7372)" xml:space="preserve">COSS</text><text x="308" y="506.889" stroke="none" transform="matrix(0.9737,0,0,0.9737,13.6321,9.7372)" xml:space="preserve">(sigrem.f)</text></g></g></g><g id="y.node.24"><g fill="#F8ECC9" stroke="#F8ECC9" transform="matrix(0.9737,0,0,0.9737,13.6321,9.7372)"><rect width="108" height="75.938" x="158" y="455.781" stroke="none"/></g><g id="bla"><g fill="#404040" stroke="#404040" transform="matrix(0.9737,0,0,0.9737,13.6321,9.7372)"><rect width="108" height="4" x="158" y="455.781" stroke="none"/></g></g><g fill="#fff" stroke="#fff" transform="matrix(0.9737,0,0,0.9737,13.6321,9.7372)"><rect width="1" height="75.938" x="158" y="455.781" stroke="none"/><rect width="106" height="1" x="159" y="455.781" stroke="none"/><rect width="107" height="1" x="159" y="530.719" fill="#ADA58C" stroke="none"/><rect width="1" height="74.938" x="265" y="455.781" fill="#ADA58C" stroke="none"/></g></g><g id="y.node.25"><g fill="#fff" stroke="#fff" transform="matrix(0.9737,0,0,0.9737,13.6321,9.7372)"><rect width="78" height="41" x="173" y="474" stroke="none"/><rect width="78" height="41" x="173" y="474" fill="none" stroke="#000"/></g><g id="bla"><g font-family="sans-serif"><text x="188" y="492.92" stroke="none" transform="matrix(0.9737,0,0,0.9737,13.6321,9.7372)" xml:space="preserve">CHEKIN</text><text x="180" y="506.889" stroke="none" transform="matrix(0.9737,0,0,0.9737,13.6321,9.7372)" xml:space="preserve">(sigrem.f)</text></g></g></g><g id="y.node.23"><g fill="#fff" stroke="#fff" transform="matrix(0.9737,0,0,0.9737,13.6321,9.7372)"><rect width="78" height="41" x="301" y="315" stroke="none"/><rect width="78" height="41" x="301" y="315" fill="none" stroke="#000"/></g><g id="bla"><g font-family="sans-serif"><text x="317.5" y="334.014" stroke="none" transform="matrix(0.9737,0,0,0.9737,13.6321,9.7372)" xml:space="preserve">RDSPR</text><text x="308" y="347.982" stroke="none" transform="matrix(0.9737,0,0,0.9737,13.6321,9.7372)" xml:space="preserve">(sigrem.f)</text></g></g></g><g id="y.node.20"><g fill="#F8ECC9" stroke="#F8ECC9" transform="matrix(0.9737,0,0,0.9737,13.6321,9.7372)"><rect width="108" height="115.938" x="15" y="372.813" stroke="none"/></g><g id="bla"><g fill="#404040" stroke="#404040" transform="matrix(0.9737,0,0,0.9737,13.6321,9.7372)"><rect width="108" height="4" x="15" y="372.813" stroke="none"/></g></g><g fill="#fff" stroke="#fff" transform="matrix(0.9737,0,0,0.9737,13.6321,9.7372)"><rect width="1" height="115.938" x="15" y="372.813" stroke="none"/><rect width="106" height="1" x="16" y="372.813" stroke="none"/><rect width="107" height="1" x="16" y="487.75" fill="#ADA58C" stroke="none"/><rect width="1" height="114.938" x="122" y="372.813" fill="#ADA58C" stroke="none"/></g></g><g id="y.node.21"><g fill="#fff" stroke="#fff" transform="matrix(0.9737,0,0,0.9737,13.6321,9.7372)"><rect width="78" height="41" x="30" y="431" stroke="none"/><rect width="78" height="41" x="30" y="431" fill="none" stroke="#000"/></g><g id="bla"><g font-family="sans-serif"><text x="42.5" y="449.951" stroke="none" transform="matrix(0.9737,0,0,0.9737,13.6321,9.7372)" xml:space="preserve">DWRDIN</text><text x="37" y="463.92" stroke="none" transform="matrix(0.9737,0,0,0.9737,13.6321,9.7372)" xml:space="preserve">(sigrem.f)</text></g></g></g><g id="y.node.19"><g fill="#fff" stroke="#fff" transform="matrix(0.9737,0,0,0.9737,13.6321,9.7372)"><rect width="78" height="41" x="165" y="174" stroke="none"/><rect width="78" height="41" x="165" y="174" fill="none" stroke="#000"/></g><g id="bla"><g font-family="sans-serif"><text x="183.5" y="193.076" stroke="none" transform="matrix(0.9737,0,0,0.9737,13.6321,9.7372)" xml:space="preserve">SIGEM</text><text x="172.5" y="207.045" stroke="none" transform="matrix(0.9737,0,0,0.9737,13.6321,9.7372)" xml:space="preserve">(sigrem.f)</text></g></g></g><g id="y.node.32"><g fill="#F8ECC9" stroke="#F8ECC9" transform="matrix(0.9737,0,0,0.9737,13.6321,9.7372)"><rect width="108" height="115.938" x="150.5" y="0" stroke="none"/></g><g id="bla"><g fill="#404040" stroke="#404040" transform="matrix(0.9737,0,0,0.9737,13.6321,9.7372)"><rect width="108" height="4" x="150.5" y="0" stroke="none"/></g></g><g fill="#fff" stroke="#fff" transform="matrix(0.9737,0,0,0.9737,13.6321,9.7372)"><rect width="1" height="115.938" x="150.5" y="0" stroke="none"/><rect width="106" height="1" x="151.5" y="0" stroke="none"/><rect width="107" height="1" x="151.5" y="114.938" fill="#ADA58C" stroke="none"/><rect width="1" height="114.938" x="257.5" y="0" fill="#ADA58C" stroke="none"/></g></g><g id="y.node.33"><g fill="#fff" stroke="#fff" transform="matrix(0.9737,0,0,0.9737,13.6321,9.7372)"><rect width="78" height="41" x="165" y="19" stroke="none"/><rect width="78" height="41" x="165" y="19" fill="none" stroke="#000"/></g><g id="bla"><g font-family="sans-serif"><text x="183.5" y="37.139" stroke="none" transform="matrix(0.9737,0,0,0.9737,13.6321,9.7372)" xml:space="preserve">SIGRM</text><text x="172.5" y="51.107" stroke="none" transform="matrix(0.9737,0,0,0.9737,13.6321,9.7372)" xml:space="preserve">(sigrem.f)</text></g></g></g><g id="y.node.34"><g fill="#F8ECC9" stroke="#F8ECC9" transform="matrix(0.9737,0,0,0.9737,13.6321,9.7372)"><rect width="105" height="75.938" x="0" y="664.688" stroke="none"/></g><g id="bla"><g fill="#404040" stroke="#404040" transform="matrix(0.9737,0,0,0.9737,13.6321,9.7372)"><rect width="105" height="4" x="0" y="664.688" stroke="none"/></g></g><g fill="#fff" stroke="#fff" transform="matrix(0.9737,0,0,0.9737,13.6321,9.7372)"><rect width="1" height="75.938" x="0" y="664.688" stroke="none"/><rect width="103" height="1" x="1" y="664.688" stroke="none"/><rect width="104" height="1" x="1" y="739.625" fill="#ADA58C" stroke="none"/><rect width="1" height="74.938" x="104" y="664.688" fill="#ADA58C" stroke="none"/></g></g><g id="y.node.35"><g fill="#fff" stroke="#fff" transform="matrix(0.9737,0,0,0.9737,13.6321,9.7372)"><rect width="75" height="41" x="15" y="683" stroke="none"/><rect width="75" height="41" x="15" y="683" fill="none" stroke="#000"/></g><g id="bla"><g font-family="sans-serif"><text x="29" y="701.826" stroke="none" transform="matrix(0.9737,0,0,0.9737,13.6321,9.7372)" xml:space="preserve">SIGTE3</text><text x="22" y="715.795" stroke="none" transform="matrix(0.9737,0,0,0.9737,13.6321,9.7372)" xml:space="preserve">(sigte3.f)</text></g></g></g><g id="y.edge.0"><g stroke-linecap="butt" stroke-miterlimit="1.45"><path fill="none" d="M956 60.9663 L956 111.9087" transform="matrix(0.9737,0,0,0.9737,13.6321,9.7372)"/><path stroke="none" d="M956 119.9087 L961 107.9087 L956 110.9087 L951 107.9087 Z" transform="matrix(0.9737,0,0,0.9737,13.6321,9.7372)"/></g></g><g id="y.edge.1"><g stroke-linecap="butt" stroke-miterlimit="1.45"><path fill="none" d="M956 161.9038 L956 212.8462" transform="matrix(0.9737,0,0,0.9737,13.6321,9.7372)"/><path stroke="none" d="M956 220.8462 L961 208.8462 L956 211.8462 L951 208.8462 Z" transform="matrix(0.9737,0,0,0.9737,13.6321,9.7372)"/></g></g><g id="y.edge.2"><g stroke-linecap="butt" stroke-miterlimit="1.45"><path fill="none" d="M956 262.8413 L956 313.7837" transform="matrix(0.9737,0,0,0.9737,13.6321,9.7372)"/><path stroke="none" d="M956 321.7837 L961 309.7837 L956 312.7837 L951 309.7837 Z" transform="matrix(0.9737,0,0,0.9737,13.6321,9.7372)"/></g></g><g id="y.edge.3"><g stroke-linecap="butt" stroke-miterlimit="1.45"><path fill="none" d="M723 60.9663 L723 111.9087" transform="matrix(0.9737,0,0,0.9737,13.6321,9.7372)"/><path stroke="none" d="M723 119.9087 L728 107.9087 L723 110.9087 L718 107.9087 Z" transform="matrix(0.9737,0,0,0.9737,13.6321,9.7372)"/></g></g><g id="y.edge.4"><g stroke-linecap="butt" stroke-miterlimit="1.45"><path fill="none" d="M723 161.9038 L723 212.8462" transform="matrix(0.9737,0,0,0.9737,13.6321,9.7372)"/><path stroke="none" d="M723 220.8462 L728 208.8462 L723 211.8462 L718 208.8462 Z" transform="matrix(0.9737,0,0,0.9737,13.6321,9.7372)"/></g></g><g id="y.edge.5"><g stroke-linecap="butt" stroke-miterlimit="1.45"><path fill="none" d="M723 262.8413 L723 313.7837" transform="matrix(0.9737,0,0,0.9737,13.6321,9.7372)"/><path stroke="none" d="M723 321.7837 L728 309.7837 L723 312.7837 L718 309.7837 Z" transform="matrix(0.9737,0,0,0.9737,13.6321,9.7372)"/></g></g><g id="y.edge.6"><g stroke-linecap="butt" stroke-miterlimit="1.45"><path fill="none" d="M184.9729 216.8848 L74 256.875 L74 391.8125 L85.7594 424.2523" transform="matrix(0.9737,0,0,0.9737,13.6321,9.7372)"/><path stroke="none" d="M88.4858 431.7734 L89.0969 418.7878 L85.4186 423.3122 L79.6956 422.1958 Z" transform="matrix(0.9737,0,0,0.9737,13.6321,9.7372)"/></g></g><g id="y.edge.7"><g stroke-linecap="butt" stroke-miterlimit="1.45"><path fill="none" d="M224.0271 216.8848 L335 256.875 L335 275.875 L323.2405 308.3148" transform="matrix(0.9737,0,0,0.9737,13.6321,9.7372)"/><path stroke="none" d="M320.5141 315.8359 L329.3044 306.2583 L323.5813 307.3747 L319.903 302.8503 Z" transform="matrix(0.9737,0,0,0.9737,13.6321,9.7372)"/></g></g><g id="y.edge.8"><g stroke-linecap="butt" stroke-miterlimit="1.45"><path fill="none" d="M313.9751 357.8223 L212 397.8125 L212 466.7437" transform="matrix(0.9737,0,0,0.9737,13.6321,9.7372)"/><path stroke="none" d="M212 474.7437 L217 462.7437 L212 465.7437 L207 462.7437 Z" transform="matrix(0.9737,0,0,0.9737,13.6321,9.7372)"/></g></g><g id="y.edge.9"><g stroke-linecap="butt" stroke-miterlimit="1.45"><path fill="none" d="M340 357.8411 L340 466.7527" transform="matrix(0.9737,0,0,0.9737,13.6321,9.7372)"/><path stroke="none" d="M340 474.7527 L345 462.7527 L340 465.7527 L335 462.7527 Z" transform="matrix(0.9737,0,0,0.9737,13.6321,9.7372)"/></g></g><g id="y.edge.10"><g stroke-linecap="butt" stroke-miterlimit="1.45"><path fill="none" d="M366.0286 357.8223 L483 397.8125 L483 408.7754" transform="matrix(0.9737,0,0,0.9737,13.6321,9.7372)"/><path stroke="none" d="M483 416.7754 L488 404.7754 L483 407.7754 L478 404.7754 Z" transform="matrix(0.9737,0,0,0.9737,13.6321,9.7372)"/></g></g><g id="y.edge.11"><g stroke-linecap="butt" stroke-miterlimit="1.45"><path fill="none" d="M483 458.7788 L483 509.7212" transform="matrix(0.9737,0,0,0.9737,13.6321,9.7372)"/><path stroke="none" d="M483 517.7212 L488 505.7212 L483 508.7212 L478 505.7212 Z" transform="matrix(0.9737,0,0,0.9737,13.6321,9.7372)"/></g></g><g id="y.edge.12"><g stroke-linecap="butt" stroke-miterlimit="1.45"><path fill="none" d="M185.0142 60.9766 L199.5 100.9375 L199.5 115.9375 L54 155.9375 L54 216.875 L64 256.875 L64 391.8125 L52.2406 424.2523" transform="matrix(0.9737,0,0,0.9737,13.6321,9.7372)"/><path stroke="none" d="M49.5142 431.7734 L58.3044 422.1958 L52.5814 423.3122 L48.9031 418.7878 Z" transform="matrix(0.9737,0,0,0.9737,13.6321,9.7372)"/></g></g><g id="y.edge.13"><g stroke-linecap="butt" stroke-miterlimit="1.45"><path fill="none" d="M223.9858 60.9766 L209.5 100.9375 L209.5 115.9375 L355 155.9375 L355 216.875 L345 256.875 L345 275.875 L356.7595 308.3148" transform="matrix(0.9737,0,0,0.9737,13.6321,9.7372)"/><path stroke="none" d="M359.4859 315.8359 L360.097 302.8503 L356.4187 307.3747 L350.6956 306.2583 Z" transform="matrix(0.9737,0,0,0.9737,13.6321,9.7372)"/></g></g></g></svg>