<svg xmlns="http://www.w3.org/2000/svg" xmlns:xlink="http://www.w3.org/1999/xlink" width="1960" height="656" fill="#000" fill-opacity="1" stroke="#000" stroke-dasharray="none" stroke-dashoffset="0" stroke-linecap="square" stroke-linejoin="miter" stroke-miterlimit="10" stroke-opacity="1" stroke-width="1" color-interpolation="auto" color-rendering="auto" font-family="'Dialog'" font-size="12" font-style="normal" font-weight="normal" image-rendering="auto" shape-rendering="auto" text-rendering="auto"><g><defs id="defs1"><clipPath id="clipPath1" clipPathUnits="userSpaceOnUse"><path d="M0 0 L1960 0 L1960 656 L0 656 L0 0 Z"/></clipPath></defs><g id="y.node.0"><g fill="#F8ECC9" stroke="#F8ECC9" transform="matrix(0.9704,0,0,0.9704,28.142,9.7041)"><rect width="1959.25" height="655.625" x="0" y="0" stroke="none"/></g><g id="bla"><g fill="#404040" stroke="#404040" transform="matrix(0.9704,0,0,0.9704,28.142,9.7041)"><rect width="1959.25" height="4" x="0" y="0" stroke="none"/></g></g><g fill="#fff" stroke="#fff" transform="matrix(0.9704,0,0,0.9704,28.142,9.7041)"><rect width="1" height="655.625" x="0" y="0" stroke="none"/></g><g fill="#fff" stroke="#fff" transform="matrix(0.9704,0,0,0.9704,28.142,9.7041)"><rect width="1957.25" height="1" x="1" y="0" stroke="none"/><rect width="1958.25" height="1" x="1" y="654.625" fill="#ADA58C" stroke="none"/><rect width="1" height="654.625" x="1958.25" y="0" fill="#ADA58C" stroke="none"/></g></g><g id="y.node.26"><g fill="#F8ECC9" stroke="#F8ECC9" transform="matrix(0.9704,0,0,0.9704,28.142,9.7041)"><rect width="860.5" height="191.875" x="785" y="100.938" stroke="none"/></g><g id="bla"><g fill="#404040" stroke="#404040" transform="matrix(0.9704,0,0,0.9704,28.142,9.7041)"><rect width="860.5" height="4" x="785" y="100.938" stroke="none"/></g></g><g fill="#fff" stroke="#fff" transform="matrix(0.9704,0,0,0.9704,28.142,9.7041)"><rect width="1" height="191.875" x="785" y="100.938" stroke="none"/><rect width="858.5" height="1" x="786" y="100.938" stroke="none"/><rect width="859.5" height="1" x="786" y="291.813" fill="#ADA58C" stroke="none"/><rect width="1" height="190.875" x="1644.5" y="100.938" fill="#ADA58C" stroke="none"/></g></g><g id="y.node.38"><g fill="#F8ECC9" stroke="#F8ECC9" transform="matrix(0.9704,0,0,0.9704,28.142,9.7041)"><rect width="119" height="75.938" x="1501" y="201.875" stroke="none"/></g><g id="bla"><g fill="#404040" stroke="#404040" transform="matrix(0.9704,0,0,0.9704,28.142,9.7041)"><rect width="119" height="4" x="1501" y="201.875" stroke="none"/></g></g><g fill="#fff" stroke="#fff" transform="matrix(0.9704,0,0,0.9704,28.142,9.7041)"><rect width="1" height="75.938" x="1501" y="201.875" stroke="none"/><rect width="117" height="1" x="1502" y="201.875" stroke="none"/><rect width="118" height="1" x="1502" y="276.813" fill="#ADA58C" stroke="none"/><rect width="1" height="74.938" x="1619" y="201.875" fill="#ADA58C" stroke="none"/></g></g><g id="y.node.39"><g fill="#fff" stroke="#fff" transform="matrix(0.9704,0,0,0.9704,28.142,9.7041)"><rect width="89" height="41" x="1516" y="220" stroke="none"/><rect width="89" height="41" x="1516" y="220" fill="none" stroke="#000"/></g><g id="bla"><g font-family="sans-serif"><text x="1523" y="239.014" stroke="none" transform="matrix(0.9704,0,0,0.9704,28.142,9.7041)" xml:space="preserve">JSON_MOD6</text><text x="1531" y="252.982" stroke="none" transform="matrix(0.9704,0,0,0.9704,28.142,9.7041)" xml:space="preserve">(wrtjsn.f)</text></g></g></g><g id="y.node.36"><g fill="#F8ECC9" stroke="#F8ECC9" transform="matrix(0.9704,0,0,0.9704,28.142,9.7041)"><rect width="119" height="75.938" x="1362" y="201.875" stroke="none"/></g><g id="bla"><g fill="#404040" stroke="#404040" transform="matrix(0.9704,0,0,0.9704,28.142,9.7041)"><rect width="119" height="4" x="1362" y="201.875" stroke="none"/></g></g><g fill="#fff" stroke="#fff" transform="matrix(0.9704,0,0,0.9704,28.142,9.7041)"><rect width="1" height="75.938" x="1362" y="201.875" stroke="none"/><rect width="117" height="1" x="1363" y="201.875" stroke="none"/><rect width="118" height="1" x="1363" y="276.813" fill="#ADA58C" stroke="none"/><rect width="1" height="74.938" x="1480" y="201.875" fill="#ADA58C" stroke="none"/></g></g><g id="y.node.37"><g fill="#fff" stroke="#fff" transform="matrix(0.9704,0,0,0.9704,28.142,9.7041)"><rect width="89" height="41" x="1377" y="220" stroke="none"/><rect width="89" height="41" x="1377" y="220" fill="none" stroke="#000"/></g><g id="bla"><g font-family="sans-serif"><text x="1384" y="239.014" stroke="none" transform="matrix(0.9704,0,0,0.9704,28.142,9.7041)" xml:space="preserve">JSON_MOD5</text><text x="1392" y="252.982" stroke="none" transform="matrix(0.9704,0,0,0.9704,28.142,9.7041)" xml:space="preserve">(wrtjsn.f)</text></g></g></g><g id="y.node.34"><g fill="#F8ECC9" stroke="#F8ECC9" transform="matrix(0.9704,0,0,0.9704,28.142,9.7041)"><rect width="119" height="75.938" x="1223" y="201.875" stroke="none"/></g><g id="bla"><g fill="#404040" stroke="#404040" transform="matrix(0.9704,0,0,0.9704,28.142,9.7041)"><rect width="119" height="4" x="1223" y="201.875" stroke="none"/></g></g><g fill="#fff" stroke="#fff" transform="matrix(0.9704,0,0,0.9704,28.142,9.7041)"><rect width="1" height="75.938" x="1223" y="201.875" stroke="none"/><rect width="117" height="1" x="1224" y="201.875" stroke="none"/><rect width="118" height="1" x="1224" y="276.813" fill="#ADA58C" stroke="none"/><rect width="1" height="74.938" x="1341" y="201.875" fill="#ADA58C" stroke="none"/></g></g><g id="y.node.35"><g fill="#fff" stroke="#fff" transform="matrix(0.9704,0,0,0.9704,28.142,9.7041)"><rect width="89" height="41" x="1238" y="220" stroke="none"/><rect width="89" height="41" x="1238" y="220" fill="none" stroke="#000"/></g><g id="bla"><g font-family="sans-serif"><text x="1245" y="239.014" stroke="none" transform="matrix(0.9704,0,0,0.9704,28.142,9.7041)" xml:space="preserve">JSON_MOD4</text><text x="1253" y="252.982" stroke="none" transform="matrix(0.9704,0,0,0.9704,28.142,9.7041)" xml:space="preserve">(wrtjsn.f)</text></g></g></g><g id="y.node.32"><g fill="#F8ECC9" stroke="#F8ECC9" transform="matrix(0.9704,0,0,0.9704,28.142,9.7041)"><rect width="119" height="75.938" x="1084" y="201.875" stroke="none"/></g><g id="bla"><g fill="#404040" stroke="#404040" transform="matrix(0.9704,0,0,0.9704,28.142,9.7041)"><rect width="119" height="4" x="1084" y="201.875" stroke="none"/></g></g><g fill="#fff" stroke="#fff" transform="matrix(0.9704,0,0,0.9704,28.142,9.7041)"><rect width="1" height="75.938" x="1084" y="201.875" stroke="none"/><rect width="117" height="1" x="1085" y="201.875" stroke="none"/><rect width="118" height="1" x="1085" y="276.813" fill="#ADA58C" stroke="none"/><rect width="1" height="74.938" x="1202" y="201.875" fill="#ADA58C" stroke="none"/></g></g><g id="y.node.33"><g fill="#fff" stroke="#fff" transform="matrix(0.9704,0,0,0.9704,28.142,9.7041)"><rect width="89" height="41" x="1099" y="220" stroke="none"/><rect width="89" height="41" x="1099" y="220" fill="none" stroke="#000"/></g><g id="bla"><g font-family="sans-serif"><text x="1106" y="239.014" stroke="none" transform="matrix(0.9704,0,0,0.9704,28.142,9.7041)" xml:space="preserve">JSON_MOD2</text><text x="1114" y="252.982" stroke="none" transform="matrix(0.9704,0,0,0.9704,28.142,9.7041)" xml:space="preserve">(wrtjsn.f)</text></g></g></g><g id="y.node.30"><g fill="#F8ECC9" stroke="#F8ECC9" transform="matrix(0.9704,0,0,0.9704,28.142,9.7041)"><rect width="119" height="75.938" x="945" y="201.875" stroke="none"/></g><g id="bla"><g fill="#404040" stroke="#404040" transform="matrix(0.9704,0,0,0.9704,28.142,9.7041)"><rect width="119" height="4" x="945" y="201.875" stroke="none"/></g></g><g fill="#fff" stroke="#fff" transform="matrix(0.9704,0,0,0.9704,28.142,9.7041)"><rect width="1" height="75.938" x="945" y="201.875" stroke="none"/><rect width="117" height="1" x="946" y="201.875" stroke="none"/><rect width="118" height="1" x="946" y="276.813" fill="#ADA58C" stroke="none"/><rect width="1" height="74.938" x="1063" y="201.875" fill="#ADA58C" stroke="none"/></g></g><g id="y.node.31"><g fill="#fff" stroke="#fff" transform="matrix(0.9704,0,0,0.9704,28.142,9.7041)"><rect width="89" height="41" x="960" y="220" stroke="none"/><rect width="89" height="41" x="960" y="220" fill="none" stroke="#000"/></g><g id="bla"><g font-family="sans-serif"><text x="967" y="239.014" stroke="none" transform="matrix(0.9704,0,0,0.9704,28.142,9.7041)" xml:space="preserve">JSON_MOD1</text><text x="975" y="252.982" stroke="none" transform="matrix(0.9704,0,0,0.9704,28.142,9.7041)" xml:space="preserve">(wrtjsn.f)</text></g></g></g><g id="y.node.28"><g fill="#F8ECC9" stroke="#F8ECC9" transform="matrix(0.9704,0,0,0.9704,28.142,9.7041)"><rect width="125" height="75.938" x="800" y="201.875" stroke="none"/></g><g id="bla"><g fill="#404040" stroke="#404040" transform="matrix(0.9704,0,0,0.9704,28.142,9.7041)"><rect width="125" height="4" x="800" y="201.875" stroke="none"/></g></g><g fill="#fff" stroke="#fff" transform="matrix(0.9704,0,0,0.9704,28.142,9.7041)"><rect width="1" height="75.938" x="800" y="201.875" stroke="none"/><rect width="123" height="1" x="801" y="201.875" stroke="none"/><rect width="124" height="1" x="801" y="276.813" fill="#ADA58C" stroke="none"/><rect width="1" height="74.938" x="924" y="201.875" fill="#ADA58C" stroke="none"/></g></g><g id="y.node.29"><g fill="#fff" stroke="#fff" transform="matrix(0.9704,0,0,0.9704,28.142,9.7041)"><rect width="95" height="41" x="815" y="220" stroke="none"/><rect width="95" height="41" x="815" y="220" fill="none" stroke="#000"/></g><g id="bla"><g font-family="sans-serif"><text x="822" y="239.014" stroke="none" transform="matrix(0.9704,0,0,0.9704,28.142,9.7041)" xml:space="preserve">JSON_ATOMS</text><text x="833" y="252.982" stroke="none" transform="matrix(0.9704,0,0,0.9704,28.142,9.7041)" xml:space="preserve">(wrtjsn.f)</text></g></g></g><g id="y.node.27"><g fill="#fff" stroke="#fff" transform="matrix(0.9704,0,0,0.9704,28.142,9.7041)"><rect width="73" height="41" x="1246" y="119" stroke="none"/><rect width="73" height="41" x="1246" y="119" fill="none" stroke="#000"/></g><g id="bla"><g font-family="sans-serif"><text x="1257.5" y="138.076" stroke="none" transform="matrix(0.9704,0,0,0.9704,28.142,9.7041)" xml:space="preserve">WRTJSN</text><text x="1253" y="152.045" stroke="none" transform="matrix(0.9704,0,0,0.9704,28.142,9.7041)" xml:space="preserve">(wrtjsn.f)</text></g></g></g><g id="y.node.24"><g fill="#F8ECC9" stroke="#F8ECC9" transform="matrix(0.9704,0,0,0.9704,28.142,9.7041)"><rect width="107" height="75.938" x="658" y="158.906" stroke="none"/></g><g id="bla"><g fill="#404040" stroke="#404040" transform="matrix(0.9704,0,0,0.9704,28.142,9.7041)"><rect width="107" height="4" x="658" y="158.906" stroke="none"/></g></g><g fill="#fff" stroke="#fff" transform="matrix(0.9704,0,0,0.9704,28.142,9.7041)"><rect width="1" height="75.938" x="658" y="158.906" stroke="none"/><rect width="105" height="1" x="659" y="158.906" stroke="none"/><rect width="106" height="1" x="659" y="233.844" fill="#ADA58C" stroke="none"/><rect width="1" height="74.938" x="764" y="158.906" fill="#ADA58C" stroke="none"/></g></g><g id="y.node.25"><g fill="#fff" stroke="#fff" transform="matrix(0.9704,0,0,0.9704,28.142,9.7041)"><rect width="77" height="41" x="673" y="177" stroke="none"/><rect width="77" height="41" x="673" y="177" fill="none" stroke="#000"/></g><g id="bla"><g font-family="sans-serif"><text x="684" y="196.045" stroke="none" transform="matrix(0.9704,0,0,0.9704,28.142,9.7041)" xml:space="preserve">WARNEX</text><text x="680" y="210.014" stroke="none" transform="matrix(0.9704,0,0,0.9704,28.142,9.7041)" xml:space="preserve">(rdinp_l.f)</text></g></g></g><g id="y.node.22"><g fill="#F8ECC9" stroke="#F8ECC9" transform="matrix(0.9704,0,0,0.9704,28.142,9.7041)"><rect width="110" height="75.938" x="528" y="158.906" stroke="none"/></g><g id="bla"><g fill="#404040" stroke="#404040" transform="matrix(0.9704,0,0,0.9704,28.142,9.7041)"><rect width="110" height="4" x="528" y="158.906" stroke="none"/></g></g><g fill="#fff" stroke="#fff" transform="matrix(0.9704,0,0,0.9704,28.142,9.7041)"><rect width="1" height="75.938" x="528" y="158.906" stroke="none"/><rect width="108" height="1" x="529" y="158.906" stroke="none"/><rect width="109" height="1" x="529" y="233.844" fill="#ADA58C" stroke="none"/><rect width="1" height="74.938" x="637" y="158.906" fill="#ADA58C" stroke="none"/></g></g><g id="y.node.23"><g fill="#fff" stroke="#fff" transform="matrix(0.9704,0,0,0.9704,28.142,9.7041)"><rect width="80" height="41" x="543" y="177" stroke="none"/><rect width="80" height="41" x="543" y="177" fill="none" stroke="#000"/></g><g id="bla"><g font-family="sans-serif"><text x="556.5" y="196.045" stroke="none" transform="matrix(0.9704,0,0,0.9704,28.142,9.7041)" xml:space="preserve">SETEDG</text><text x="550" y="210.014" stroke="none" transform="matrix(0.9704,0,0,0.9704,28.142,9.7041)" xml:space="preserve">(setedg.f)</text></g></g></g><g id="y.node.16"><g fill="#F8ECC9" stroke="#F8ECC9" transform="matrix(0.9704,0,0,0.9704,28.142,9.7041)"><rect width="252" height="191.875" x="256" y="100.938" stroke="none"/></g><g id="bla"><g fill="#404040" stroke="#404040" transform="matrix(0.9704,0,0,0.9704,28.142,9.7041)"><rect width="252" height="4" x="256" y="100.938" stroke="none"/></g></g><g fill="#fff" stroke="#fff" transform="matrix(0.9704,0,0,0.9704,28.142,9.7041)"><rect width="1" height="191.875" x="256" y="100.938" stroke="none"/><rect width="250" height="1" x="257" y="100.938" stroke="none"/><rect width="251" height="1" x="257" y="291.813" fill="#ADA58C" stroke="none"/><rect width="1" height="190.875" x="507" y="100.938" fill="#ADA58C" stroke="none"/></g></g><g id="y.node.20"><g fill="#F8ECC9" stroke="#F8ECC9" transform="matrix(0.9704,0,0,0.9704,28.142,9.7041)"><rect width="101" height="75.938" x="392" y="201.875" stroke="none"/></g><g id="bla"><g fill="#404040" stroke="#404040" transform="matrix(0.9704,0,0,0.9704,28.142,9.7041)"><rect width="101" height="4" x="392" y="201.875" stroke="none"/></g></g><g fill="#fff" stroke="#fff" transform="matrix(0.9704,0,0,0.9704,28.142,9.7041)"><rect width="1" height="75.938" x="392" y="201.875" stroke="none"/><rect width="99" height="1" x="393" y="201.875" stroke="none"/><rect width="100" height="1" x="393" y="276.813" fill="#ADA58C" stroke="none"/><rect width="1" height="74.938" x="492" y="201.875" fill="#ADA58C" stroke="none"/></g></g><g id="y.node.21"><g fill="#fff" stroke="#fff" transform="matrix(0.9704,0,0,0.9704,28.142,9.7041)"><rect width="71" height="41" x="407" y="220" stroke="none"/><rect width="71" height="41" x="407" y="220" fill="none" stroke="#000"/></g><g id="bla"><g font-family="sans-serif"><text x="417" y="239.014" stroke="none" transform="matrix(0.9704,0,0,0.9704,28.142,9.7041)" xml:space="preserve">OPENFL</text><text x="414" y="252.982" stroke="none" transform="matrix(0.9704,0,0,0.9704,28.142,9.7041)" xml:space="preserve">(rdline.f)</text></g></g></g><g id="y.node.18"><g fill="#F8ECC9" stroke="#F8ECC9" transform="matrix(0.9704,0,0,0.9704,28.142,9.7041)"><rect width="101" height="75.938" x="271" y="201.875" stroke="none"/></g><g id="bla"><g fill="#404040" stroke="#404040" transform="matrix(0.9704,0,0,0.9704,28.142,9.7041)"><rect width="101" height="4" x="271" y="201.875" stroke="none"/></g></g><g fill="#fff" stroke="#fff" transform="matrix(0.9704,0,0,0.9704,28.142,9.7041)"><rect width="1" height="75.938" x="271" y="201.875" stroke="none"/><rect width="99" height="1" x="272" y="201.875" stroke="none"/><rect width="100" height="1" x="272" y="276.813" fill="#ADA58C" stroke="none"/><rect width="1" height="74.938" x="371" y="201.875" fill="#ADA58C" stroke="none"/></g></g><g id="y.node.19"><g fill="#fff" stroke="#fff" transform="matrix(0.9704,0,0,0.9704,28.142,9.7041)"><rect width="71" height="41" x="286" y="220" stroke="none"/><rect width="71" height="41" x="286" y="220" fill="none" stroke="#000"/></g><g id="bla"><g font-family="sans-serif"><text x="296.5" y="239.014" stroke="none" transform="matrix(0.9704,0,0,0.9704,28.142,9.7041)" xml:space="preserve">GETFLN</text><text x="293" y="252.982" stroke="none" transform="matrix(0.9704,0,0,0.9704,28.142,9.7041)" xml:space="preserve">(rdline.f)</text></g></g></g><g id="y.node.17"><g fill="#fff" stroke="#fff" transform="matrix(0.9704,0,0,0.9704,28.142,9.7041)"><rect width="71" height="41" x="346" y="119" stroke="none"/><rect width="71" height="41" x="346" y="119" fill="none" stroke="#000"/></g><g id="bla"><g font-family="sans-serif"><text x="358.5" y="138.076" stroke="none" transform="matrix(0.9704,0,0,0.9704,28.142,9.7041)" xml:space="preserve">RDLINE</text><text x="353.5" y="152.045" stroke="none" transform="matrix(0.9704,0,0,0.9704,28.142,9.7041)" xml:space="preserve">(rdline.f)</text></g></g></g><g id="y.node.14"><g fill="#F8ECC9" stroke="#F8ECC9" transform="matrix(0.9704,0,0,0.9704,28.142,9.7041)"><rect width="107" height="75.938" x="129" y="158.906" stroke="none"/></g><g id="bla"><g fill="#404040" stroke="#404040" transform="matrix(0.9704,0,0,0.9704,28.142,9.7041)"><rect width="107" height="4" x="129" y="158.906" stroke="none"/></g></g><g fill="#fff" stroke="#fff" transform="matrix(0.9704,0,0,0.9704,28.142,9.7041)"><rect width="1" height="75.938" x="129" y="158.906" stroke="none"/><rect width="105" height="1" x="130" y="158.906" stroke="none"/><rect width="106" height="1" x="130" y="233.844" fill="#ADA58C" stroke="none"/><rect width="1" height="74.938" x="235" y="158.906" fill="#ADA58C" stroke="none"/></g></g><g id="y.node.15"><g fill="#fff" stroke="#fff" transform="matrix(0.9704,0,0,0.9704,28.142,9.7041)"><rect width="77" height="41" x="144" y="177" stroke="none"/><rect width="77" height="41" x="144" y="177" fill="none" stroke="#000"/></g><g id="bla"><g font-family="sans-serif"><text x="156" y="196.045" stroke="none" transform="matrix(0.9704,0,0,0.9704,28.142,9.7041)" xml:space="preserve">PHSTOP</text><text x="151" y="210.014" stroke="none" transform="matrix(0.9704,0,0,0.9704,28.142,9.7041)" xml:space="preserve">(rdinp_l.f)</text></g></g></g><g id="y.node.12"><g fill="#F8ECC9" stroke="#F8ECC9" transform="matrix(0.9704,0,0,0.9704,28.142,9.7041)"><rect width="94" height="75.938" x="15" y="158.906" stroke="none"/></g><g id="bla"><g fill="#404040" stroke="#404040" transform="matrix(0.9704,0,0,0.9704,28.142,9.7041)"><rect width="94" height="4" x="15" y="158.906" stroke="none"/></g></g><g fill="#fff" stroke="#fff" transform="matrix(0.9704,0,0,0.9704,28.142,9.7041)"><rect width="1" height="75.938" x="15" y="158.906" stroke="none"/><rect width="92" height="1" x="16" y="158.906" stroke="none"/><rect width="93" height="1" x="16" y="233.844" fill="#ADA58C" stroke="none"/><rect width="1" height="74.938" x="108" y="158.906" fill="#ADA58C" stroke="none"/></g></g><g id="y.node.13"><g fill="#fff" stroke="#fff" transform="matrix(0.9704,0,0,0.9704,28.142,9.7041)"><rect width="64" height="41" x="30" y="177" stroke="none"/><rect width="64" height="41" x="30" y="177" fill="none" stroke="#000"/></g><g id="bla"><g font-family="sans-serif"><text x="42.5" y="196.045" stroke="none" transform="matrix(0.9704,0,0,0.9704,28.142,9.7041)" xml:space="preserve">INIALL</text><text x="37" y="210.014" stroke="none" transform="matrix(0.9704,0,0,0.9704,28.142,9.7041)" xml:space="preserve">(iniall.f)</text></g></g></g><g id="y.node.2"><g fill="#F8ECC9" stroke="#F8ECC9" transform="matrix(0.9704,0,0,0.9704,28.142,9.7041)"><rect width="450" height="307.813" x="1494.25" y="332.813" stroke="none"/></g><g id="bla"><g fill="#404040" stroke="#404040" transform="matrix(0.9704,0,0,0.9704,28.142,9.7041)"><rect width="450" height="4" x="1494.25" y="332.813" stroke="none"/></g></g><g fill="#fff" stroke="#fff" transform="matrix(0.9704,0,0,0.9704,28.142,9.7041)"><rect width="1" height="307.813" x="1494.25" y="332.813" stroke="none"/><rect width="448" height="1" x="1495.25" y="332.813" stroke="none"/><rect width="449" height="1" x="1495.25" y="639.625" fill="#ADA58C" stroke="none"/><rect width="1" height="306.813" x="1943.25" y="332.813" fill="#ADA58C" stroke="none"/></g></g><g id="y.node.8"><g fill="#F8ECC9" stroke="#F8ECC9" transform="matrix(0.9704,0,0,0.9704,28.142,9.7041)"><rect width="132" height="191.875" x="1797.25" y="433.75" stroke="none"/></g><g id="bla"><g fill="#404040" stroke="#404040" transform="matrix(0.9704,0,0,0.9704,28.142,9.7041)"><rect width="132" height="4" x="1797.25" y="433.75" stroke="none"/></g></g><g fill="#fff" stroke="#fff" transform="matrix(0.9704,0,0,0.9704,28.142,9.7041)"><rect width="1" height="191.875" x="1797.25" y="433.75" stroke="none"/><rect width="130" height="1" x="1798.25" y="433.75" stroke="none"/><rect width="131" height="1" x="1798.25" y="624.625" fill="#ADA58C" stroke="none"/><rect width="1" height="190.875" x="1928.25" y="433.75" fill="#ADA58C" stroke="none"/></g></g><g id="y.node.10"><g fill="#F8ECC9" stroke="#F8ECC9" transform="matrix(0.9704,0,0,0.9704,28.142,9.7041)"><rect width="102" height="75.938" x="1812.25" y="534.688" stroke="none"/></g><g id="bla"><g fill="#404040" stroke="#404040" transform="matrix(0.9704,0,0,0.9704,28.142,9.7041)"><rect width="102" height="4" x="1812.25" y="534.688" stroke="none"/></g></g><g fill="#fff" stroke="#fff" transform="matrix(0.9704,0,0,0.9704,28.142,9.7041)"><rect width="1" height="75.938" x="1812.25" y="534.688" stroke="none"/><rect width="100" height="1" x="1813.25" y="534.688" stroke="none"/><rect width="101" height="1" x="1813.25" y="609.625" fill="#ADA58C" stroke="none"/><rect width="1" height="74.938" x="1913.25" y="534.688" fill="#ADA58C" stroke="none"/></g></g><g id="y.node.11"><g fill="#fff" stroke="#fff" transform="matrix(0.9704,0,0,0.9704,28.142,9.7041)"><rect width="72" height="41" x="1827" y="553" stroke="none"/><rect width="72" height="41" x="1827" y="553" fill="none" stroke="#000"/></g><g id="bla"><g font-family="sans-serif"><text x="1837.75" y="571.826" stroke="none" transform="matrix(0.9704,0,0,0.9704,28.142,9.7041)" xml:space="preserve">ROTATE</text><text x="1834.25" y="585.795" stroke="none" transform="matrix(0.9704,0,0,0.9704,28.142,9.7041)" xml:space="preserve">(mkptz.f)</text></g></g></g><g id="y.node.9"><g fill="#fff" stroke="#fff" transform="matrix(0.9704,0,0,0.9704,28.142,9.7041)"><rect width="72" height="41" x="1827" y="452" stroke="none"/><rect width="72" height="41" x="1827" y="452" fill="none" stroke="#000"/></g><g id="bla"><g font-family="sans-serif"><text x="1840.75" y="470.889" stroke="none" transform="matrix(0.9704,0,0,0.9704,28.142,9.7041)" xml:space="preserve">MKPTZ</text><text x="1834.25" y="484.857" stroke="none" transform="matrix(0.9704,0,0,0.9704,28.142,9.7041)" xml:space="preserve">(mkptz.f)</text></g></g></g><g id="y.node.6"><g fill="#F8ECC9" stroke="#F8ECC9" transform="matrix(0.9704,0,0,0.9704,28.142,9.7041)"><rect width="129" height="115.938" x="1509.25" y="471.719" stroke="none"/></g><g id="bla"><g fill="#404040" stroke="#404040" transform="matrix(0.9704,0,0,0.9704,28.142,9.7041)"><rect width="129" height="4" x="1509.25" y="471.719" stroke="none"/></g></g><g fill="#fff" stroke="#fff" transform="matrix(0.9704,0,0,0.9704,28.142,9.7041)"><rect width="1" height="115.938" x="1509.25" y="471.719" stroke="none"/><rect width="127" height="1" x="1510.25" y="471.719" stroke="none"/><rect width="128" height="1" x="1510.25" y="586.656" fill="#ADA58C" stroke="none"/><rect width="1" height="114.938" x="1637.25" y="471.719" fill="#ADA58C" stroke="none"/></g></g><g id="y.node.7"><g fill="#fff" stroke="#fff" transform="matrix(0.9704,0,0,0.9704,28.142,9.7041)"><rect width="99" height="41" x="1524" y="530" stroke="none"/><rect width="99" height="41" x="1524" y="530" fill="none" stroke="#000"/></g><g id="bla"><g font-family="sans-serif"><text x="1531.25" y="548.857" stroke="none" transform="matrix(0.9704,0,0,0.9704,28.142,9.7041)" xml:space="preserve">JSON_GLOBAL</text><text x="1544.25" y="562.826" stroke="none" transform="matrix(0.9704,0,0,0.9704,28.142,9.7041)" xml:space="preserve">(wrtjsn.f)</text></g></g></g><g id="y.node.4"><g fill="#F8ECC9" stroke="#F8ECC9" transform="matrix(0.9704,0,0,0.9704,28.142,9.7041)"><rect width="119" height="75.938" x="1658.25" y="491.719" stroke="none"/></g><g id="bla"><g fill="#404040" stroke="#404040" transform="matrix(0.9704,0,0,0.9704,28.142,9.7041)"><rect width="119" height="4" x="1658.25" y="491.719" stroke="none"/></g></g><g fill="#fff" stroke="#fff" transform="matrix(0.9704,0,0,0.9704,28.142,9.7041)"><rect width="1" height="75.938" x="1658.25" y="491.719" stroke="none"/><rect width="117" height="1" x="1659.25" y="491.719" stroke="none"/><rect width="118" height="1" x="1659.25" y="566.656" fill="#ADA58C" stroke="none"/><rect width="1" height="74.938" x="1776.25" y="491.719" fill="#ADA58C" stroke="none"/></g></g><g id="y.node.5"><g fill="#fff" stroke="#fff" transform="matrix(0.9704,0,0,0.9704,28.142,9.7041)"><rect width="89" height="41" x="1673" y="510" stroke="none"/><rect width="89" height="41" x="1673" y="510" fill="none" stroke="#000"/></g><g id="bla"><g font-family="sans-serif"><text x="1680.25" y="528.857" stroke="none" transform="matrix(0.9704,0,0,0.9704,28.142,9.7041)" xml:space="preserve">JSON_GEOM</text><text x="1688.25" y="542.826" stroke="none" transform="matrix(0.9704,0,0,0.9704,28.142,9.7041)" xml:space="preserve">(wrtjsn.f)</text></g></g></g><g id="y.node.3"><g fill="#fff" stroke="#fff" transform="matrix(0.9704,0,0,0.9704,28.142,9.7041)"><rect width="69" height="41" x="1683" y="351" stroke="none"/><rect width="69" height="41" x="1683" y="351" fill="none" stroke="#000"/></g><g id="bla"><g font-family="sans-serif"><text x="1692.75" y="369.951" stroke="none" transform="matrix(0.9704,0,0,0.9704,28.142,9.7041)" xml:space="preserve">FFSORT</text><text x="1690.25" y="383.92" stroke="none" transform="matrix(0.9704,0,0,0.9704,28.142,9.7041)" xml:space="preserve">(ffsort.f)</text></g></g></g><g id="y.node.1"><g fill="#fff" stroke="#fff" transform="matrix(0.9704,0,0,0.9704,28.142,9.7041)"><rect width="77" height="41" x="544" y="19" stroke="none"/><rect width="77" height="41" x="544" y="19" fill="none" stroke="#000"/></g><g id="bla"><g font-family="sans-serif"><text x="562.5" y="37.139" stroke="none" transform="matrix(0.9704,0,0,0.9704,28.142,9.7041)" xml:space="preserve">RDINP</text><text x="551.5" y="51.107" stroke="none" transform="matrix(0.9704,0,0,0.9704,28.142,9.7041)" xml:space="preserve">(rdinp_l.f)</text></g></g></g><g id="y.edge.0"><g stroke-linecap="butt" stroke-miterlimit="1.45"><path fill="none" d="M616.0317 60.9387 L1656 100.9375 L1656 292.8125 L1717.75 332.8125 L1717.75 343.7754" transform="matrix(0.9704,0,0,0.9704,28.142,9.7041)"/><path stroke="none" d="M1717.75 351.7754 L1722.75 339.7754 L1717.75 342.7754 L1712.75 339.7754 Z" transform="matrix(0.9704,0,0,0.9704,28.142,9.7041)"/></g></g><g id="y.edge.1"><g stroke-linecap="butt" stroke-miterlimit="1.45"><path fill="none" d="M549.9702 60.9399 L62 100.9375 L62 169.8687" transform="matrix(0.9704,0,0,0.9704,28.142,9.7041)"/><path stroke="none" d="M62 177.8687 L67 165.8687 L62 168.8687 L57 165.8687 Z" transform="matrix(0.9704,0,0,0.9704,28.142,9.7041)"/></g></g><g id="y.edge.2"><g stroke-linecap="butt" stroke-miterlimit="1.45"><path fill="none" d="M560.9538 60.9424 L182.5 100.9375 L182.5 169.8687" transform="matrix(0.9704,0,0,0.9704,28.142,9.7041)"/><path stroke="none" d="M182.5 177.8687 L187.5 165.8687 L182.5 168.8687 L177.5 165.8687 Z" transform="matrix(0.9704,0,0,0.9704,28.142,9.7041)"/></g></g><g id="y.edge.3"><g stroke-linecap="butt" stroke-miterlimit="1.45"><path fill="none" d="M571.9536 60.9473 L382 100.9375 L382 111.9004" transform="matrix(0.9704,0,0,0.9704,28.142,9.7041)"/><path stroke="none" d="M382 119.9004 L387 107.9004 L382 110.9004 L377 107.9004 Z" transform="matrix(0.9704,0,0,0.9704,28.142,9.7041)"/></g></g><g id="y.edge.4"><g stroke-linecap="butt" stroke-miterlimit="1.45"><path fill="none" d="M583 60.9661 L583 169.8777" transform="matrix(0.9704,0,0,0.9704,28.142,9.7041)"/><path stroke="none" d="M583 177.8777 L588 165.8777 L583 168.8777 L578 165.8777 Z" transform="matrix(0.9704,0,0,0.9704,28.142,9.7041)"/></g></g><g id="y.edge.5"><g stroke-linecap="butt" stroke-miterlimit="1.45"><path fill="none" d="M594.0287 60.9473 L711.5 100.9375 L711.5 169.8687" transform="matrix(0.9704,0,0,0.9704,28.142,9.7041)"/><path stroke="none" d="M711.5 177.8687 L716.5 165.8687 L711.5 168.8687 L706.5 165.8687 Z" transform="matrix(0.9704,0,0,0.9704,28.142,9.7041)"/></g></g><g id="y.edge.6"><g stroke-linecap="butt" stroke-miterlimit="1.45"><path fill="none" d="M605.0414 60.9399 L1282.5 100.9375 L1282.5 111.9004" transform="matrix(0.9704,0,0,0.9704,28.142,9.7041)"/><path stroke="none" d="M1282.5 119.9004 L1287.5 107.9004 L1282.5 110.9004 L1277.5 107.9004 Z" transform="matrix(0.9704,0,0,0.9704,28.142,9.7041)"/></g></g><g id="y.edge.7"><g stroke-linecap="butt" stroke-miterlimit="1.45"><path fill="none" d="M1717.75 393.7786 L1717.75 502.6902" transform="matrix(0.9704,0,0,0.9704,28.142,9.7041)"/><path stroke="none" d="M1717.75 510.6902 L1722.75 498.6902 L1717.75 501.6902 L1712.75 498.6902 Z" transform="matrix(0.9704,0,0,0.9704,28.142,9.7041)"/></g></g><g id="y.edge.8"><g stroke-linecap="butt" stroke-miterlimit="1.45"><path fill="none" d="M1694.7217 393.7598 L1578.75 433.75 L1578.75 490.7188 L1594.939 523.5064" transform="matrix(0.9704,0,0,0.9704,28.142,9.7041)"/><path stroke="none" d="M1598.4807 530.6797 L1597.6512 517.7062 L1594.4962 522.6098 L1588.6847 522.1334 Z" transform="matrix(0.9704,0,0,0.9704,28.142,9.7041)"/></g></g><g id="y.edge.9"><g stroke-linecap="butt" stroke-miterlimit="1.45"><path fill="none" d="M1740.7799 393.7598 L1863.25 433.75 L1863.25 444.7129" transform="matrix(0.9704,0,0,0.9704,28.142,9.7041)"/><path stroke="none" d="M1863.25 452.7129 L1868.25 440.7129 L1863.25 443.7129 L1858.25 440.7129 Z" transform="matrix(0.9704,0,0,0.9704,28.142,9.7041)"/></g></g><g id="y.edge.10"><g stroke-linecap="butt" stroke-miterlimit="1.45"><path fill="none" d="M1863.25 494.7163 L1863.25 545.6587" transform="matrix(0.9704,0,0,0.9704,28.142,9.7041)"/><path stroke="none" d="M1863.25 553.6587 L1868.25 541.6587 L1863.25 544.6587 L1858.25 541.6587 Z" transform="matrix(0.9704,0,0,0.9704,28.142,9.7041)"/></g></g><g id="y.edge.11"><g stroke-linecap="butt" stroke-miterlimit="1.45"><path fill="none" d="M364.2291 161.8945 L321.5 201.875 L321.5 212.8379" transform="matrix(0.9704,0,0,0.9704,28.142,9.7041)"/><path stroke="none" d="M321.5 220.8379 L326.5 208.8379 L321.5 211.8379 L316.5 208.8379 Z" transform="matrix(0.9704,0,0,0.9704,28.142,9.7041)"/></g></g><g id="y.edge.12"><g stroke-linecap="butt" stroke-miterlimit="1.45"><path fill="none" d="M399.7709 161.8945 L442.5 201.875 L442.5 212.8379" transform="matrix(0.9704,0,0,0.9704,28.142,9.7041)"/><path stroke="none" d="M442.5 220.8379 L447.5 208.8379 L442.5 211.8379 L437.5 208.8379 Z" transform="matrix(0.9704,0,0,0.9704,28.142,9.7041)"/></g></g><g id="y.edge.13"><g stroke-linecap="butt" stroke-miterlimit="1.45"><path fill="none" d="M1251.1669 161.8799 L862.5 201.875 L862.5 212.8379" transform="matrix(0.9704,0,0,0.9704,28.142,9.7041)"/><path stroke="none" d="M862.5 220.8379 L867.5 208.8379 L862.5 211.8379 L857.5 208.8379 Z" transform="matrix(0.9704,0,0,0.9704,28.142,9.7041)"/></g></g><g id="y.edge.14"><g stroke-linecap="butt" stroke-miterlimit="1.45"><path fill="none" d="M1313.8243 161.8799 L1630.5 201.875 L1630.5 292.8125 L1568.75 332.8125 L1568.75 490.7188 L1552.561 523.5064" transform="matrix(0.9704,0,0,0.9704,28.142,9.7041)"/><path stroke="none" d="M1549.0193 530.6797 L1558.8153 522.1334 L1553.0038 522.6098 L1549.8488 517.7062 Z" transform="matrix(0.9704,0,0,0.9704,28.142,9.7041)"/></g></g><g id="y.edge.15"><g stroke-linecap="butt" stroke-miterlimit="1.45"><path fill="none" d="M1261.6115 161.8799 L1004.5 201.875 L1004.5 212.8379" transform="matrix(0.9704,0,0,0.9704,28.142,9.7041)"/><path stroke="none" d="M1004.5 220.8379 L1009.5 208.8379 L1004.5 211.8379 L999.5 208.8379 Z" transform="matrix(0.9704,0,0,0.9704,28.142,9.7041)"/></g></g><g id="y.edge.16"><g stroke-linecap="butt" stroke-miterlimit="1.45"><path fill="none" d="M1272.04 161.8848 L1143.5 201.875 L1143.5 212.8379" transform="matrix(0.9704,0,0,0.9704,28.142,9.7041)"/><path stroke="none" d="M1143.5 220.8379 L1148.5 208.8379 L1143.5 211.8379 L1138.5 208.8379 Z" transform="matrix(0.9704,0,0,0.9704,28.142,9.7041)"/></g></g><g id="y.edge.17"><g stroke-linecap="butt" stroke-miterlimit="1.45"><path fill="none" d="M1282.5 161.9038 L1282.5 212.8462" transform="matrix(0.9704,0,0,0.9704,28.142,9.7041)"/><path stroke="none" d="M1282.5 220.8462 L1287.5 208.8462 L1282.5 211.8462 L1277.5 208.8462 Z" transform="matrix(0.9704,0,0,0.9704,28.142,9.7041)"/></g></g><g id="y.edge.18"><g stroke-linecap="butt" stroke-miterlimit="1.45"><path fill="none" d="M1292.96 161.8848 L1421.5 201.875 L1421.5 212.8379" transform="matrix(0.9704,0,0,0.9704,28.142,9.7041)"/><path stroke="none" d="M1421.5 220.8379 L1426.5 208.8379 L1421.5 211.8379 L1416.5 208.8379 Z" transform="matrix(0.9704,0,0,0.9704,28.142,9.7041)"/></g></g><g id="y.edge.19"><g stroke-linecap="butt" stroke-miterlimit="1.45"><path fill="none" d="M1303.3885 161.8799 L1560.5 201.875 L1560.5 212.8379" transform="matrix(0.9704,0,0,0.9704,28.142,9.7041)"/><path stroke="none" d="M1560.5 220.8379 L1565.5 208.8379 L1560.5 211.8379 L1555.5 208.8379 Z" transform="matrix(0.9704,0,0,0.9704,28.142,9.7041)"/></g></g></g></svg>